<svg xmlns="http://www.w3.org/2000/svg" width="390.824" height="384.789" viewBox="0 0 390.824 384.789">
  <path id="_8_animaux-insectes_Couleur_Envoi_detouré" data-name="8 animaux-insectes_Couleur_Envoi_detouré" d="M346.906,169.908c0,18.428-14.182,34.348-19.481,50.977-5.492,17.233-3.392,38.569-13.638,52.914-10.348,14.488-30.982,19-45.2,29.542-14.078,10.439-24.607,29.1-41.521,34.7-16.319,5.4-35.527-3.215-53.613-3.215s-37.293,8.614-53.614,3.215c-16.913-5.595-27.443-24.257-41.521-34.7C64.1,292.8,43.466,288.286,33.118,273.8c-10.247-14.344-8.146-35.68-13.638-52.914C14.182,204.257,0,188.336,0,169.908s14.182-34.348,19.481-50.977c5.492-17.233,3.391-38.569,13.636-52.914,10.349-14.488,30.982-19,45.2-29.542,14.078-10.439,24.608-29.1,41.521-34.7,16.319-5.4,35.528,3.215,53.614,3.215s37.294-8.614,53.613-3.215c16.913,5.595,27.443,24.258,41.521,34.7,14.219,10.544,34.853,15.053,45.2,29.542,10.245,14.345,8.146,35.68,13.637,52.914,5.3,16.628,19.482,32.549,19.482,50.977" transform="translate(47.293) rotate(8)" fill="#c4cf54"/>
</svg>
