<svg width="23.104492" height="23.714844" viewBox="0 0 23.1045 23.7148" fill="none" xmlns="http://www.w3.org/2000/svg" xmlns:xlink="http://www.w3.org/1999/xlink">
	<desc>
			Created with Pixso.
	</desc>
	<defs/>
	<mask id="mask1_2690" mask-type="alpha" maskUnits="userSpaceOnUse" x="0.000000" y="0.000000" width="23.104492" height="23.714844">
		<g style="mix-blend-mode:normal">
			<rect id="Rectangle 120" width="23.104492" height="23.714916" fill="#66A2FC" fill-opacity="1.000000"/>
		</g>
	</mask>
	<g mask="url(#mask1_2690)">
		<g style="mix-blend-mode:normal">
			<path id="Tracé 362" d="M0 15.51C0.12 15.44 2.47 14.49 7.05 12.65L8.7 11.96C8.04 11.6 7.41 11.32 6.81 11.11L0.05 8.11C0.61 7.07 1.47 5.62 2.62 3.76C2.89 3.94 3.62 4.49 4.81 5.42C6 6.35 6.73 6.93 7 7.16C7.48 7.58 7.94 7.93 8.38 8.22C9.07 8.66 9.64 9.08 10.1 9.47C10.07 8.97 10.01 8.54 9.94 8.16C9.78 7.37 9.67 6.39 9.6 5.22C9.56 4.73 9.39 2.99 9.07 0.02C9.95 0 10.66 0 11.19 0L14.35 0.02L12.91 9.33C14.54 8.11 15.77 7.22 16.6 6.65C17.15 6.28 18.18 5.56 19.7 4.48C20.02 4.18 20.3 3.95 20.53 3.79C21.18 4.89 22.02 6.37 23.05 8.25C22.57 8.48 21.72 8.84 20.49 9.33C19.26 9.83 17.33 10.68 14.72 11.88C15.07 12.04 15.38 12.2 15.65 12.36C16.07 12.59 16.72 12.85 17.58 13.15L20.29 14.29C21.56 14.82 22.5 15.28 23.1 15.67C22.92 15.99 22.65 16.52 22.28 17.26C21.61 18.59 21.08 19.53 20.69 20.08C20.24 19.79 19.44 19.2 18.27 18.3C17.1 17.4 15.31 16.14 12.89 14.53L13.89 21.8C14 22.56 14.08 23.2 14.13 23.71L13.1 23.71C11.07 23.71 9.68 23.7 8.93 23.68L10.1 14.48C9.41 14.94 8.89 15.32 8.52 15.63C8.16 15.94 7.52 16.41 6.6 17.05C6.07 17.41 4.73 18.4 2.57 20.02C1.58 18.06 0.72 16.56 0 15.51Z" fill="#66A2FC" fill-opacity="1.000000" fill-rule="nonzero"/>
		</g>
	</g>
</svg>
