<svg xmlns="http://www.w3.org/2000/svg" width="107.624" height="107.624" viewBox="13.376 1442.773 107.624 107.624"><g data-name="Groupe 113"><g data-name="Groupe 108" transform="translate(13.376 1442.773)" clip-path="url(#a)"><path d="M101.083 47.271H69.604l22.26-22.26a6.541 6.541 0 0 0-9.252-9.25l-22.259 22.26V6.54a6.541 6.541 0 0 0-13.082 0v31.48l-22.26-22.26a6.541 6.541 0 0 0-9.25 9.25l22.26 22.26H6.54a6.541 6.541 0 1 0 0 13.082h31.48l-22.26 22.26a6.541 6.541 0 1 0 9.25 9.25l22.26-22.259v31.48a6.541 6.541 0 0 0 13.082 0v-31.48l22.26 22.26a6.541 6.541 0 0 0 9.25-9.252L69.604 60.353h31.48a6.541 6.541 0 0 0 0-13.082" fill="#dee9ef" fill-rule="evenodd" data-name="Tracé 168"/></g></g><defs><clipPath id="a"><path d="M0 0h107.624v107.624H0V0z" data-name="Rectangle 106"/></clipPath></defs></svg>