<svg id="Groupe_86" data-name="Groupe 86" xmlns="http://www.w3.org/2000/svg" width="31.648" height="39.775" viewBox="0 0 31.648 39.775">
  <path id="Tracé_140" data-name="Tracé 140" d="M26.923,86.2H4.726A4.725,4.725,0,0,1,0,81.48V110.2a4.725,4.725,0,0,0,4.725,4.725h22.2a4.725,4.725,0,0,0,4.725-4.725V81.48A4.725,4.725,0,0,1,26.923,86.2M13.2,108.1a4.106,4.106,0,1,1-4-5.007c.094,0,.186,0,.279.009h0a4.106,4.106,0,0,1,3.723,5m-1.5-10.066h-5c-.064,0-.128,0-.19-.009a1.939,1.939,0,0,1-1.49-2.9l.91-1.576L7.515,90.8a2.017,2.017,0,0,1,.2-.289,1.94,1.94,0,0,1,3.156.289l2.5,4.327a1.939,1.939,0,0,1-1.68,2.908m14.864,11.286a1.977,1.977,0,0,1-1.978,1.977H20.33a1.978,1.978,0,0,1-1.979-1.977v-4.249a1.979,1.979,0,0,1,1.979-1.978h4.249a1.978,1.978,0,0,1,1.978,1.978Zm.281-14.777-1.662,2.878a1.224,1.224,0,0,1-1.06.612H20.792a1.223,1.223,0,0,1-1.06-.612l-1.661-2.878a1.219,1.219,0,0,1,0-1.224l1.661-2.877a1.226,1.226,0,0,1,1.06-.612h3.323a1.223,1.223,0,0,1,1.06.612l1.662,2.877a1.223,1.223,0,0,1,0,1.224" transform="translate(0 -75.15)" fill="#ffcb5c"/>
  <path id="Tracé_141" data-name="Tracé 141" d="M31.648,4.725v1.6a4.725,4.725,0,0,1-4.725,4.725H4.726A4.725,4.725,0,0,1,0,6.33v-1.6A4.725,4.725,0,0,1,4.725,0h22.2a4.725,4.725,0,0,1,4.726,4.725" fill="#54cdff"/>
  <path id="Tracé_142" data-name="Tracé 142" d="M68.127,197.185h-5c-.064,0-.128,0-.19-.009a1.939,1.939,0,0,1-1.49-2.9l.91-1.576,1.588-2.75a2.016,2.016,0,0,1,.2-.289,1.94,1.94,0,0,1,3.156.289l2.5,4.327a1.939,1.939,0,0,1-1.68,2.908" transform="translate(-56.436 -174.299)" fill="#005175"/>
  <path id="Tracé_143" data-name="Tracé 143" d="M239.419,193.694l-1.662,2.878a1.224,1.224,0,0,1-1.06.612h-3.323a1.223,1.223,0,0,1-1.06-.612l-1.661-2.878a1.219,1.219,0,0,1,0-1.224l1.661-2.878a1.226,1.226,0,0,1,1.06-.612H236.7a1.223,1.223,0,0,1,1.06.612l1.662,2.878a1.223,1.223,0,0,1,0,1.224" transform="translate(-212.582 -174.299)" fill="#3c9851"/>
  <path id="Tracé_144" data-name="Tracé 144" d="M244.425,361.688v4.249a1.977,1.977,0,0,1-1.978,1.977H238.2a1.978,1.978,0,0,1-1.979-1.977v-4.249a1.979,1.979,0,0,1,1.979-1.978h4.249a1.978,1.978,0,0,1,1.978,1.978" transform="translate(-217.869 -331.765)" fill="#66a2fc"/>
  <path id="Tracé_145" data-name="Tracé 145" d="M73.745,363.813a4.106,4.106,0,1,1-4.1-4.1c.094,0,.186,0,.279.009h0a4.1,4.1,0,0,1,3.823,4.093" transform="translate(-60.448 -331.765)" fill="#fff"/>
</svg>
