<svg id="Groupe_85" data-name="Groupe 85" xmlns="http://www.w3.org/2000/svg" width="44.851" height="41.605" viewBox="0 0 44.851 41.605">
  <path id="Tracé_133" data-name="Tracé 133" d="M35.861,39.061V54.5a6.168,6.168,0,0,1-6.167,6.167H6.167A6.168,6.168,0,0,1,0,54.5V27.058a6.167,6.167,0,0,1,6.167-6.167H29.694A6.145,6.145,0,0,1,32,21.338l-.824.917L19.116,35.685a4.974,4.974,0,0,0-.361.452h0a5.179,5.179,0,0,0-.723,1.465l-2.068,6.722-.544,1.768c0,.01-.006.018-.009.028h0c-.011.036-.021.072-.031.108a3.412,3.412,0,0,0,.092,2.087h0a3.542,3.542,0,0,0,1.657,1.879,3.407,3.407,0,0,0,2.984.112l1.7-.731L28.275,46.8a5.094,5.094,0,0,0,1.377-.876h0a5.007,5.007,0,0,0,.41-.408l4.049-4.509Z" transform="translate(0 -19.061)" fill="#dee9ef"/>
  <path id="Tracé_134" data-name="Tracé 134" d="M175.663,309.072,175.57,309c.01-.036.02-.072.031-.108.02.06.041.121.062.181" transform="translate(-160.19 -281.832)" fill="#fff1cf"/>
  <path id="Tracé_135" data-name="Tracé 135" d="M175.663,309.072,175.57,309c.01-.036.02-.072.031-.108.02.06.041.121.062.181" transform="translate(-160.19 -281.832)" fill="#fce3a0"/>
  <path id="Tracé_136" data-name="Tracé 136" d="M239.329,10.955,231.206,20l-1.749,1.947-4.049,4.509a5,5,0,0,1-.41.408h0a21.922,21.922,0,0,0-10.9-9.788,4.975,4.975,0,0,1,.361-.452l12.062-13.43.824-.917,1.035-1.153a3.385,3.385,0,0,1,4.782-.257l5.908,5.307a3.384,3.384,0,0,1,.257,4.781" transform="translate(-195.345 0)" fill="#fffcf8"/>
  <path id="Tracé_137" data-name="Tracé 137" d="M195.919,204.709h0a5.094,5.094,0,0,1-1.377.876l-6.461,2.775a4.487,4.487,0,0,0-5.85-5.253l2.068-6.722a5.179,5.179,0,0,1,.723-1.465h0a21.923,21.923,0,0,1,10.9,9.788" transform="translate(-166.267 -177.846)" fill="#ffcb5c"/>
  <path id="Tracé_138" data-name="Tracé 138" d="M180.748,291.033l-1.7.731a3.407,3.407,0,0,1-2.984-.112,3.542,3.542,0,0,1-1.657-1.879h0a3.412,3.412,0,0,1-.092-2.087l.093.074c-.021-.06-.042-.121-.062-.181h0c0-.01.006-.018.009-.028l.544-1.768a4.487,4.487,0,0,1,5.85,5.252" transform="translate(-158.934 -260.519)" fill="#66a2fc"/>
  <path id="Tracé_139" data-name="Tracé 139" d="M175.663,309.072,175.57,309c.01-.036.02-.072.031-.108.02.06.041.121.062.181" transform="translate(-160.19 -281.832)" fill="#29ce69"/>
</svg>
