<svg xmlns="http://www.w3.org/2000/svg" xmlns:xlink="http://www.w3.org/1999/xlink" width="222.184" height="55.328" viewBox="0 0 222.184 55.328">
  <defs>
    <clipPath id="clip-path">
      <rect id="Rectangle_110" data-name="Rectangle 110" width="222.184" height="55.328" fill="none"/>
    </clipPath>
  </defs>
  <g id="Groupe_119" data-name="Groupe 119" transform="translate(0 0)">
    <path id="Tracé_231" data-name="Tracé 231" d="M105,21.212h5.989L110.7,22.5h-4.577l-.483,2.2h4.06l-.286,1.287h-4.058l-.72,3.28h-1.425Z" transform="translate(-31.62 -6.547)" fill="#005292"/>
    <g id="Groupe_118" data-name="Groupe 118" transform="translate(0 0)">
      <g id="Groupe_117" data-name="Groupe 117" clip-path="url(#clip-path)">
        <path id="Tracé_232" data-name="Tracé 232" d="M116.457,27.8a2.26,2.26,0,0,0,1.486-.571l.691.864a3.319,3.319,0,0,1-2.26.819,2.6,2.6,0,0,1-2.814-2.592,3.4,3.4,0,0,1,3.321-3.59,2.326,2.326,0,0,1,2.474,2.3,3.5,3.5,0,0,1-.2,1.257h-4.307a1.481,1.481,0,0,0,1.609,1.513m1.568-2.412a1.423,1.423,0,0,0,.037-.415,1.127,1.127,0,0,0-1.232-1.134,1.977,1.977,0,0,0-1.879,1.549Zm-.276-5.127,1.239.55L117.333,22.1h-1.178Z" transform="translate(-34.719 -6.194)" fill="#005292"/>
        <path id="Tracé_233" data-name="Tracé 233" d="M122.689,26.506a3.313,3.313,0,0,1,3.126-3.634,2.237,2.237,0,0,1,2.053,1.179l.73-3.32h1.357l-1.8,8.189H126.8l.174-.785a2.483,2.483,0,0,1-1.853.908,2.441,2.441,0,0,1-2.429-2.537m4.91-.975a1.52,1.52,0,0,0-1.57-1.492,2.122,2.122,0,0,0-1.931,2.379,1.43,1.43,0,0,0,1.484,1.469A2.21,2.21,0,0,0,127.6,25.53" transform="translate(-37.51 -6.338)" fill="#005292"/>
        <path id="Tracé_234" data-name="Tracé 234" d="M135.809,27.8a2.267,2.267,0,0,0,1.488-.571l.691.864a3.328,3.328,0,0,1-2.26.819,2.6,2.6,0,0,1-2.815-2.592,3.4,3.4,0,0,1,3.321-3.59,2.329,2.329,0,0,1,2.474,2.3,3.482,3.482,0,0,1-.2,1.257H134.2a1.481,1.481,0,0,0,1.609,1.513m1.57-2.412a1.376,1.376,0,0,0,.037-.415,1.127,1.127,0,0,0-1.232-1.134,1.976,1.976,0,0,0-1.879,1.549ZM137.1,20.26l1.237.55L136.686,22.1h-1.18Z" transform="translate(-40.635 -6.194)" fill="#005292"/>
        <path id="Tracé_235" data-name="Tracé 235" d="M142.881,23.941h1.357l-.285,1.334a2.6,2.6,0,0,1,2.41-1.447l-.312,1.437h-.081c-1.188,0-2.185.764-2.545,2.4l-.491,2.2h-1.357Z" transform="translate(-43.287 -7.284)" fill="#005292"/>
        <path id="Tracé_236" data-name="Tracé 236" d="M147.452,28.376c-.064-1.37,1.01-2.134,2.535-2.134a5.626,5.626,0,0,1,1.786.292l.027-.123a1.7,1.7,0,0,0,.046-.471c-.026-.528-.423-.875-1.332-.875a4.231,4.231,0,0,0-1.61.325l-.276-1.123a5.415,5.415,0,0,1,2.1-.4c1.559,0,2.41.685,2.465,1.84a3.166,3.166,0,0,1-.084.841l-.729,3.333h-1.335l.167-.775a2.4,2.4,0,0,1-1.877.9,1.749,1.749,0,0,1-1.882-1.625m4.091-.764.056-.258a4.624,4.624,0,0,0-1.357-.225c-.908,0-1.436.448-1.406,1.066.024.515.4.81.978.81a1.83,1.83,0,0,0,1.729-1.393" transform="translate(-45.081 -7.296)" fill="#005292"/>
        <path id="Tracé_237" data-name="Tracé 237" d="M156.985,28.135a2.36,2.36,0,0,1,.072-.685l.653-3.008h-.751l.26-1.167h.751l.36-1.627h1.357l-.361,1.627h1.582l-.26,1.167h-1.581l-.628,2.861a2.178,2.178,0,0,0-.03.338c.015.3.225.458.617.458a2.223,2.223,0,0,0,.855-.191l-.259,1.178a2.608,2.608,0,0,1-1.1.213c-.952,0-1.5-.459-1.535-1.166" transform="translate(-47.989 -6.619)" fill="#005292"/>
        <path id="Tracé_238" data-name="Tracé 238" d="M163.585,23.024h1.357l-1.314,5.925h-1.357Zm.436-2.2h1.468l-.3,1.29h-1.457Z" transform="translate(-49.613 -6.367)" fill="#005292"/>
        <path id="Tracé_239" data-name="Tracé 239" d="M166.683,27.292a3.347,3.347,0,0,1,3.29-3.478,2.765,2.765,0,0,1,2.91,2.715A3.35,3.35,0,0,1,169.593,30a2.761,2.761,0,0,1-2.91-2.7m4.856-.729a1.514,1.514,0,0,0-1.588-1.57,2.122,2.122,0,0,0-1.924,2.254,1.517,1.517,0,0,0,1.588,1.572,2.124,2.124,0,0,0,1.924-2.257" transform="translate(-50.961 -7.281)" fill="#005292"/>
        <path id="Tracé_240" data-name="Tracé 240" d="M177.387,23.939h1.357l-.166.764a2.412,2.412,0,0,1,1.751-.887,1.765,1.765,0,0,1,1.891,1.772,4.533,4.533,0,0,1-.13,1.046l-.7,3.231h-1.357l.721-3.288a2.417,2.417,0,0,0,.062-.6.948.948,0,0,0-1.075-.928,1.687,1.687,0,0,0-1.558,1.479l-.742,3.333h-1.354Z" transform="translate(-53.837 -7.281)" fill="#005292"/>
        <path id="Tracé_241" data-name="Tracé 241" d="M194.515,29.067a2.4,2.4,0,0,1-4.283-1.618,3.311,3.311,0,0,1,3.127-3.634,2.222,2.222,0,0,1,2.049,1.167l.232-1.043H197l-1.79,8.168H193.85Zm.628-2.594a1.517,1.517,0,0,0-1.573-1.492,2.12,2.12,0,0,0-1.929,2.379,1.428,1.428,0,0,0,1.482,1.469,2.213,2.213,0,0,0,2.02-2.356" transform="translate(-58.16 -7.281)" fill="#005292"/>
        <path id="Tracé_242" data-name="Tracé 242" d="M200.576,28.268a4.437,4.437,0,0,1,.13-1.044l.71-3.231h1.357l-.73,3.287a2.79,2.79,0,0,0-.051.594.938.938,0,0,0,1.065.931,1.687,1.687,0,0,0,1.556-1.481l.741-3.332h1.358l-1.3,5.924h-1.357l.167-.763a2.417,2.417,0,0,1-1.754.886,1.762,1.762,0,0,1-1.887-1.772" transform="translate(-61.324 -7.336)" fill="#005292"/>
        <path id="Tracé_243" data-name="Tracé 243" d="M212.77,27.8a2.264,2.264,0,0,0,1.486-.571l.691.864a3.321,3.321,0,0,1-2.258.819,2.6,2.6,0,0,1-2.814-2.592,3.4,3.4,0,0,1,3.316-3.59,2.33,2.33,0,0,1,2.478,2.3,3.5,3.5,0,0,1-.2,1.257h-4.307A1.482,1.482,0,0,0,212.77,27.8m1.567-2.412a1.312,1.312,0,0,0,.037-.415,1.126,1.126,0,0,0-1.23-1.134,1.979,1.979,0,0,0-1.88,1.549Zm-.274-5.127,1.236.55L213.645,22.1h-1.178Z" transform="translate(-64.166 -6.194)" fill="#005292"/>
        <path id="Tracé_244" data-name="Tracé 244" d="M220.126,27.865l-.23,1.055h-1.357l1.8-8.19H221.7l-.676,3.052a2.48,2.48,0,0,1,1.853-.91,2.437,2.437,0,0,1,2.431,2.538,3.306,3.306,0,0,1-3.128,3.633,2.232,2.232,0,0,1-2.052-1.177m3.77-2.356a1.42,1.42,0,0,0-1.473-1.47,2.205,2.205,0,0,0-2.02,2.345,1.524,1.524,0,0,0,1.563,1.5,2.119,2.119,0,0,0,1.929-2.378" transform="translate(-66.816 -6.338)" fill="#005292"/>
        <path id="Tracé_245" data-name="Tracé 245" d="M232.123,27.8a2.254,2.254,0,0,0,1.484-.571l.694.864a3.324,3.324,0,0,1-2.26.819,2.6,2.6,0,0,1-2.814-2.592,3.4,3.4,0,0,1,3.318-3.59,2.327,2.327,0,0,1,2.475,2.3,3.434,3.434,0,0,1-.2,1.257h-4.307a1.481,1.481,0,0,0,1.608,1.513m1.568-2.412a1.357,1.357,0,0,0,.036-.415,1.126,1.126,0,0,0-1.232-1.134,1.976,1.976,0,0,0-1.877,1.549Zm-.274-5.127,1.236.55L233,22.1h-1.177Z" transform="translate(-70.083 -6.194)" fill="#005292"/>
        <path id="Tracé_246" data-name="Tracé 246" d="M238.35,27.36a3.37,3.37,0,0,1,3.332-3.546,2.728,2.728,0,0,1,2.465,1.347l-1.022.717a1.676,1.676,0,0,0-1.5-.885,2.155,2.155,0,0,0-1.918,2.355,1.463,1.463,0,0,0,1.472,1.482,2.1,2.1,0,0,0,1.484-.662l.759.887A3.024,3.024,0,0,1,241.19,30a2.71,2.71,0,0,1-2.84-2.635" transform="translate(-72.872 -7.281)" fill="#005292"/>
        <path id="Tracé_247" data-name="Tracé 247" d="M246.648,27.292a3.348,3.348,0,0,1,3.292-3.478,2.768,2.768,0,0,1,2.91,2.715A3.354,3.354,0,0,1,249.557,30a2.761,2.761,0,0,1-2.909-2.7m4.856-.729a1.515,1.515,0,0,0-1.588-1.57,2.121,2.121,0,0,0-1.924,2.254,1.518,1.518,0,0,0,1.589,1.572,2.125,2.125,0,0,0,1.924-2.257" transform="translate(-75.41 -7.281)" fill="#005292"/>
        <path id="Tracé_248" data-name="Tracé 248" d="M257.476,23.024h1.357l-1.314,5.925h-1.357Zm.435-2.2h1.47l-.3,1.29h-1.457Z" transform="translate(-78.319 -6.367)" fill="#005292"/>
        <path id="Tracé_249" data-name="Tracé 249" d="M259.7,28.936l.767-.83a2.776,2.776,0,0,0,1.946.83c.539,0,.941-.269.921-.705-.015-.293-.294-.5-.9-.741-1.007-.407-1.741-.787-1.785-1.695-.051-1.111.805-1.965,2.23-1.965a3.812,3.812,0,0,1,2.317.832l-.712.874a2.746,2.746,0,0,0-1.657-.652c-.583,0-.895.292-.878.675.015.3.294.494.979.773.916.38,1.664.8,1.7,1.662.056,1.223-.926,2.007-2.271,2.007a3.871,3.871,0,0,1-2.663-1.065" transform="translate(-79.402 -7.286)" fill="#005292"/>
        <path id="Tracé_250" data-name="Tracé 250" d="M270.942,28.886a2.262,2.262,0,0,0,1.486-.572l.693.864a3.324,3.324,0,0,1-2.261.818,2.6,2.6,0,0,1-2.815-2.592,3.4,3.4,0,0,1,3.321-3.59,2.326,2.326,0,0,1,2.474,2.3,3.408,3.408,0,0,1-.2,1.257h-4.306a1.48,1.48,0,0,0,1.609,1.513m1.569-2.413a1.4,1.4,0,0,0,.036-.415,1.126,1.126,0,0,0-1.231-1.133,1.973,1.973,0,0,0-1.878,1.548Z" transform="translate(-81.951 -7.281)" fill="#005292"/>
        <path id="Tracé_251" data-name="Tracé 251" d="M103.217,43.994a3.314,3.314,0,0,1,3.127-3.636,2.227,2.227,0,0,1,2.049,1.178l.731-3.321h1.357l-1.8,8.191h-1.357l.175-.788a2.474,2.474,0,0,1-1.852.911,2.441,2.441,0,0,1-2.429-2.535m4.911-.977a1.524,1.524,0,0,0-1.573-1.492,2.119,2.119,0,0,0-1.93,2.378,1.432,1.432,0,0,0,1.484,1.47,2.214,2.214,0,0,0,2.02-2.356" transform="translate(-31.556 -11.684)" fill="#005292"/>
        <path id="Tracé_252" data-name="Tracé 252" d="M116.335,46.374a2.258,2.258,0,0,0,1.486-.573l.693.864a3.317,3.317,0,0,1-2.261.82,2.6,2.6,0,0,1-2.812-2.592,3.4,3.4,0,0,1,3.318-3.591,2.325,2.325,0,0,1,2.474,2.3,3.407,3.407,0,0,1-.2,1.259h-4.307a1.483,1.483,0,0,0,1.609,1.515m1.57-2.413a1.252,1.252,0,0,0,.035-.414,1.123,1.123,0,0,0-1.23-1.134,1.974,1.974,0,0,0-1.877,1.548Z" transform="translate(-34.682 -12.628)" fill="#005292"/>
        <path id="Tracé_253" data-name="Tracé 253" d="M121.7,46.423l.768-.83a2.772,2.772,0,0,0,1.947.83c.537,0,.939-.27.918-.707-.014-.291-.292-.493-.9-.741-1.006-.4-1.741-.785-1.783-1.693-.053-1.112.8-1.964,2.229-1.964a3.807,3.807,0,0,1,2.315.83l-.71.876a2.745,2.745,0,0,0-1.656-.651c-.585,0-.9.292-.878.674.014.3.292.492.978.773.916.382,1.664.8,1.7,1.661.059,1.224-.925,2.009-2.27,2.009a3.87,3.87,0,0,1-2.662-1.067" transform="translate(-37.21 -12.632)" fill="#005292"/>
        <path id="Tracé_254" data-name="Tracé 254" d="M134.325,44.847a3.368,3.368,0,0,1,3.33-3.545,2.722,2.722,0,0,1,2.464,1.348l-1.021.717a1.672,1.672,0,0,0-1.5-.887,2.155,2.155,0,0,0-1.92,2.356,1.462,1.462,0,0,0,1.473,1.481,2.084,2.084,0,0,0,1.483-.662l.758.886a3.009,3.009,0,0,1-2.231.945,2.71,2.71,0,0,1-2.837-2.638" transform="translate(-41.068 -12.628)" fill="#005292"/>
        <path id="Tracé_255" data-name="Tracé 255" d="M145.51,46.374A2.274,2.274,0,0,0,147,45.8l.69.864a3.319,3.319,0,0,1-2.26.82,2.6,2.6,0,0,1-2.812-2.592,3.4,3.4,0,0,1,3.318-3.591,2.327,2.327,0,0,1,2.475,2.3,3.466,3.466,0,0,1-.2,1.259h-4.3a1.479,1.479,0,0,0,1.606,1.515m1.57-2.413a1.294,1.294,0,0,0,.034-.414,1.122,1.122,0,0,0-1.23-1.134,1.974,1.974,0,0,0-1.877,1.548Z" transform="translate(-43.602 -12.628)" fill="#005292"/>
        <path id="Tracé_256" data-name="Tracé 256" d="M152.582,41.424h1.357l-.165.766a2.4,2.4,0,0,1,1.752-.889,1.761,1.761,0,0,1,1.887,1.772,4.357,4.357,0,0,1-.13,1.044l-.7,3.232h-1.357l.719-3.287a2.2,2.2,0,0,0,.063-.6.947.947,0,0,0-1.075-.932,1.688,1.688,0,0,0-1.557,1.482l-.741,3.332H151.28Z" transform="translate(-46.253 -12.628)" fill="#005292"/>
        <path id="Tracé_257" data-name="Tracé 257" d="M161.549,45.623a2.36,2.36,0,0,1,.069-.685l.655-3.008h-.752l.258-1.168h.753l.362-1.625h1.357l-.364,1.625h1.583l-.26,1.168h-1.58L163,44.791a2.117,2.117,0,0,0-.03.336c.015.3.224.46.616.46a2.209,2.209,0,0,0,.854-.19l-.258,1.178a2.59,2.59,0,0,1-1.1.214c-.953,0-1.5-.459-1.534-1.166" transform="translate(-49.384 -11.966)" fill="#005292"/>
        <path id="Tracé_258" data-name="Tracé 258" d="M168.026,41.426h1.357l-.285,1.336a2.6,2.6,0,0,1,2.41-1.449l-.315,1.436h-.077a2.628,2.628,0,0,0-2.545,2.4l-.492,2.2h-1.356Z" transform="translate(-50.974 -12.63)" fill="#005292"/>
        <path id="Tracé_259" data-name="Tracé 259" d="M176.091,46.374a2.265,2.265,0,0,0,1.486-.573l.692.864a3.318,3.318,0,0,1-2.26.82,2.6,2.6,0,0,1-2.812-2.592,3.4,3.4,0,0,1,3.317-3.591,2.327,2.327,0,0,1,2.475,2.3,3.48,3.48,0,0,1-.2,1.259h-4.306a1.481,1.481,0,0,0,1.608,1.515m1.569-2.413a1.329,1.329,0,0,0,.035-.414,1.123,1.123,0,0,0-1.23-1.134,1.974,1.974,0,0,0-1.878,1.548Z" transform="translate(-52.952 -12.628)" fill="#005292"/>
        <path id="Tracé_260" data-name="Tracé 260" d="M181.456,46.423l.768-.83a2.778,2.778,0,0,0,1.946.83c.538,0,.941-.27.921-.707-.015-.291-.292-.493-.9-.741-1.006-.4-1.741-.785-1.784-1.693-.052-1.112.805-1.964,2.229-1.964a3.8,3.8,0,0,1,2.316.83l-.71.876a2.742,2.742,0,0,0-1.658-.651c-.584,0-.893.292-.875.674.014.3.291.492.976.773.916.382,1.665.8,1.7,1.661.057,1.224-.925,2.009-2.27,2.009a3.88,3.88,0,0,1-2.665-1.067" transform="translate(-55.479 -12.632)" fill="#005292"/>
        <path id="Tracé_261" data-name="Tracé 261" d="M194.077,44.847A3.37,3.37,0,0,1,197.41,41.3a2.725,2.725,0,0,1,2.464,1.348l-1.021.717a1.678,1.678,0,0,0-1.5-.887,2.155,2.155,0,0,0-1.92,2.356,1.462,1.462,0,0,0,1.473,1.481,2.085,2.085,0,0,0,1.482-.662l.759.886a3.017,3.017,0,0,1-2.231.945,2.713,2.713,0,0,1-2.84-2.638" transform="translate(-59.336 -12.628)" fill="#005292"/>
        <path id="Tracé_262" data-name="Tracé 262" d="M202.378,44.779a3.345,3.345,0,0,1,3.291-3.477,2.764,2.764,0,0,1,2.908,2.716,3.352,3.352,0,0,1-3.292,3.467,2.761,2.761,0,0,1-2.908-2.706m4.854-.727a1.515,1.515,0,0,0-1.586-1.572,2.121,2.121,0,0,0-1.926,2.254,1.516,1.516,0,0,0,1.588,1.57,2.121,2.121,0,0,0,1.924-2.253" transform="translate(-61.874 -12.628)" fill="#005292"/>
        <path id="Tracé_263" data-name="Tracé 263" d="M213.078,41.424h1.357l-.164.766a2.248,2.248,0,0,1,1.7-.889,1.69,1.69,0,0,1,1.668,1.189A2.568,2.568,0,0,1,219.8,41.3a1.751,1.751,0,0,1,1.844,1.772,4.535,4.535,0,0,1-.14,1.044l-.714,3.232h-1.354l.731-3.287a2.879,2.879,0,0,0,.05-.6.907.907,0,0,0-1.007-.932,1.647,1.647,0,0,0-1.5,1.482l-.741,3.332h-1.358l.733-3.287a2.928,2.928,0,0,0,.05-.6.907.907,0,0,0-1.009-.932,1.656,1.656,0,0,0-1.511,1.482l-.741,3.332h-1.357Z" transform="translate(-64.748 -12.628)" fill="#005292"/>
        <path id="Tracé_264" data-name="Tracé 264" d="M227.861,41.424h1.356l-.166.766a2.252,2.252,0,0,1,1.7-.889,1.692,1.692,0,0,1,1.67,1.189,2.557,2.557,0,0,1,2.164-1.189,1.751,1.751,0,0,1,1.844,1.772,4.464,4.464,0,0,1-.141,1.044l-.712,3.232h-1.357l.732-3.287a2.831,2.831,0,0,0,.05-.6.906.906,0,0,0-1.007-.932,1.646,1.646,0,0,0-1.5,1.482l-.74,3.332h-1.358l.733-3.287a2.829,2.829,0,0,0,.05-.6.907.907,0,0,0-1.009-.932,1.657,1.657,0,0,0-1.511,1.482l-.741,3.332h-1.356Z" transform="translate(-69.268 -12.628)" fill="#005292"/>
        <path id="Tracé_265" data-name="Tracé 265" d="M241.921,45.756a4.519,4.519,0,0,1,.131-1.046l.712-3.231h1.357l-.733,3.287a2.752,2.752,0,0,0-.049.6.938.938,0,0,0,1.064.932,1.687,1.687,0,0,0,1.554-1.484l.741-3.332h1.357l-1.3,5.926H245.4l.167-.764a2.4,2.4,0,0,1-1.752.887,1.765,1.765,0,0,1-1.89-1.772" transform="translate(-73.965 -12.682)" fill="#005292"/>
        <path id="Tracé_266" data-name="Tracé 266" d="M252.06,41.424h1.359l-.167.766A2.4,2.4,0,0,1,255,41.3a1.763,1.763,0,0,1,1.888,1.772,4.223,4.223,0,0,1-.131,1.044l-.7,3.232h-1.358l.722-3.287a2.365,2.365,0,0,0,.06-.6.945.945,0,0,0-1.076-.932,1.689,1.689,0,0,0-1.556,1.482l-.741,3.332h-1.356Z" transform="translate(-76.667 -12.628)" fill="#005292"/>
        <path id="Tracé_267" data-name="Tracé 267" d="M260.187,45.86c-.066-1.368,1.01-2.131,2.536-2.131a5.619,5.619,0,0,1,1.786.29l.027-.122a1.7,1.7,0,0,0,.046-.471c-.024-.528-.423-.876-1.332-.876a4.25,4.25,0,0,0-1.611.327l-.277-1.123a5.437,5.437,0,0,1,2.1-.4c1.558,0,2.411.685,2.463,1.841a3.091,3.091,0,0,1-.082.842l-.73,3.332h-1.336l.167-.776a2.4,2.4,0,0,1-1.875.9,1.75,1.75,0,0,1-1.882-1.627m4.091-.763.056-.258a4.627,4.627,0,0,0-1.357-.224c-.91,0-1.436.449-1.409,1.065.024.515.4.807.982.807a1.831,1.831,0,0,0,1.728-1.391" transform="translate(-79.549 -12.642)" fill="#005292"/>
        <path id="Tracé_268" data-name="Tracé 268" d="M269.6,45.756a4.473,4.473,0,0,1,.129-1.046l.713-3.231H271.8l-.73,3.287a2.411,2.411,0,0,0-.05.6.939.939,0,0,0,1.064.932,1.691,1.691,0,0,0,1.556-1.484l.741-3.332h1.355l-1.3,5.926h-1.354l.165-.764a2.406,2.406,0,0,1-1.75.887,1.765,1.765,0,0,1-1.891-1.772" transform="translate(-82.426 -12.682)" fill="#005292"/>
        <path id="Tracé_269" data-name="Tracé 269" d="M279.3,45.623a2.31,2.31,0,0,1,.067-.685l.655-3.008h-.751l.259-1.168h.752l.361-1.625H282l-.362,1.625h1.583l-.259,1.168h-1.581l-.628,2.861a1.958,1.958,0,0,0-.029.336c.013.3.222.46.614.46a2.214,2.214,0,0,0,.855-.19l-.259,1.178a2.585,2.585,0,0,1-1.1.214c-.954,0-1.5-.459-1.535-1.166" transform="translate(-85.385 -11.966)" fill="#005292"/>
        <path id="Tracé_270" data-name="Tracé 270" d="M284.5,45.86c-.063-1.368,1.009-2.131,2.533-2.131a5.632,5.632,0,0,1,1.787.29l.026-.122a1.579,1.579,0,0,0,.047-.471c-.026-.528-.422-.876-1.33-.876a4.249,4.249,0,0,0-1.612.327l-.276-1.123a5.424,5.424,0,0,1,2.1-.4c1.558,0,2.413.685,2.465,1.841a3.011,3.011,0,0,1-.083.842l-.73,3.332h-1.335l.167-.776a2.4,2.4,0,0,1-1.877.9A1.75,1.75,0,0,1,284.5,45.86m4.092-.763.052-.258a4.594,4.594,0,0,0-1.354-.224c-.909,0-1.439.449-1.408,1.065.024.515.4.807.981.807a1.832,1.832,0,0,0,1.729-1.391" transform="translate(-86.983 -12.642)" fill="#005292"/>
        <path id="Tracé_271" data-name="Tracé 271" d="M294.754,40.51h1.356L294.8,46.435h-1.357Zm.435-2.2h1.47l-.3,1.291H294.9Z" transform="translate(-89.716 -11.713)" fill="#005292"/>
        <path id="Tracé_272" data-name="Tracé 272" d="M298.683,41.426h1.357l-.285,1.336a2.6,2.6,0,0,1,2.41-1.449l-.315,1.436h-.079c-1.188,0-2.183.764-2.545,2.4l-.491,2.2H297.38Z" transform="translate(-90.921 -12.63)" fill="#005292"/>
        <path id="Tracé_273" data-name="Tracé 273" d="M306.746,46.374a2.275,2.275,0,0,0,1.489-.573l.689.864a3.319,3.319,0,0,1-2.261.82,2.6,2.6,0,0,1-2.814-2.592,3.4,3.4,0,0,1,3.319-3.591,2.326,2.326,0,0,1,2.474,2.3,3.478,3.478,0,0,1-.2,1.259h-4.307a1.481,1.481,0,0,0,1.607,1.515m1.568-2.413a1.361,1.361,0,0,0,.038-.414,1.123,1.123,0,0,0-1.23-1.134,1.979,1.979,0,0,0-1.881,1.548Z" transform="translate(-92.899 -12.628)" fill="#005292"/>
        <path id="Tracé_274" data-name="Tracé 274" d="M312.112,46.423l.769-.83a2.776,2.776,0,0,0,1.948.83c.539,0,.941-.27.919-.707-.013-.291-.292-.493-.9-.741-1.007-.4-1.742-.785-1.784-1.693-.053-1.112.8-1.964,2.229-1.964a3.794,3.794,0,0,1,2.315.83l-.71.876a2.737,2.737,0,0,0-1.655-.651c-.583,0-.9.292-.878.674.014.3.3.492.98.773.916.382,1.661.8,1.7,1.661.059,1.224-.925,2.009-2.271,2.009a3.881,3.881,0,0,1-2.664-1.067" transform="translate(-95.426 -12.632)" fill="#005292"/>
        <path id="Tracé_275" data-name="Tracé 275" d="M103.217,61.48a3.314,3.314,0,0,1,3.127-3.636,2.231,2.231,0,0,1,2.049,1.177l.731-3.32h1.357l-1.8,8.191h-1.357l.178-.787a2.489,2.489,0,0,1-1.853.909,2.44,2.44,0,0,1-2.43-2.535m4.911-.975a1.524,1.524,0,0,0-1.573-1.492,2.118,2.118,0,0,0-1.93,2.378,1.431,1.431,0,0,0,1.484,1.47,2.215,2.215,0,0,0,2.02-2.356" transform="translate(-31.556 -17.031)" fill="#005292"/>
        <path id="Tracé_276" data-name="Tracé 276" d="M116.335,63.86a2.251,2.251,0,0,0,1.487-.573l.691.866a3.313,3.313,0,0,1-2.261.818,2.6,2.6,0,0,1-2.812-2.591,3.4,3.4,0,0,1,3.318-3.591,2.326,2.326,0,0,1,2.474,2.3,3.415,3.415,0,0,1-.2,1.259h-4.307a1.482,1.482,0,0,0,1.609,1.513m1.57-2.411a1.266,1.266,0,0,0,.035-.417,1.123,1.123,0,0,0-1.23-1.132,1.973,1.973,0,0,0-1.877,1.548Z" transform="translate(-34.682 -17.974)" fill="#005292"/>
        <path id="Tracé_277" data-name="Tracé 277" d="M128.311,55.7h1.357l-1.813,8.191H126.5Z" transform="translate(-38.676 -17.031)" fill="#005292"/>
        <path id="Tracé_278" data-name="Tracé 278" d="M130.91,62.268a3.346,3.346,0,0,1,3.291-3.48A2.764,2.764,0,0,1,137.11,61.5a3.35,3.35,0,0,1-3.291,3.466,2.759,2.759,0,0,1-2.908-2.7m4.856-.732a1.518,1.518,0,0,0-1.588-1.571,2.124,2.124,0,0,0-1.924,2.256,1.515,1.515,0,0,0,1.588,1.571,2.123,2.123,0,0,0,1.924-2.256" transform="translate(-40.024 -17.974)" fill="#005292"/>
        <path id="Tracé_279" data-name="Tracé 279" d="M141.738,58h1.357l-1.314,5.923h-1.357Zm.435-2.2h1.469l-.3,1.291h-1.459Z" transform="translate(-42.933 -17.061)" fill="#005292"/>
        <path id="Tracé_280" data-name="Tracé 280" d="M143.963,63.91l.768-.832a2.767,2.767,0,0,0,1.947.832c.537,0,.94-.267.92-.707-.015-.292-.293-.494-.9-.741-1-.4-1.74-.786-1.783-1.693-.053-1.111.8-1.963,2.229-1.963a3.791,3.791,0,0,1,2.315.832l-.71.874a2.738,2.738,0,0,0-1.656-.651c-.584,0-.894.292-.877.672.015.3.293.494.978.773.916.383,1.664.8,1.706,1.661.056,1.223-.928,2.007-2.273,2.007a3.868,3.868,0,0,1-2.662-1.065" transform="translate(-44.015 -17.98)" fill="#005292"/>
        <path id="Tracé_281" data-name="Tracé 281" d="M153.273,58h1.356l-1.314,5.923h-1.357Zm.435-2.2h1.466l-.3,1.291H153.42Z" transform="translate(-46.46 -17.061)" fill="#005292"/>
        <path id="Tracé_282" data-name="Tracé 282" d="M157.2,58.917h1.357l-.285,1.332a2.606,2.606,0,0,1,2.411-1.445l-.315,1.436h-.078a2.628,2.628,0,0,0-2.545,2.4l-.492,2.2H155.9Z" transform="translate(-47.664 -17.977)" fill="#005292"/>
        <path id="Tracé_283" data-name="Tracé 283" d="M46.548,43.332C34.276,55.6,17.181,58.4,8.361,49.578S2.338,23.663,14.609,11.394,43.976-3.673,52.8,5.146s6.021,25.915-6.248,38.186" transform="translate(-0.983 0)" fill="#abcb55"/>
        <path id="Tracé_284" data-name="Tracé 284" d="M22.565,51.97c6.014,1.435,15.824,3,32.6,4.661,0,0-5.891-3.5-8.694-7.9,8.134-4.334,13.5-11.777,13.5-20.238,0-13.384-13.426-24.232-29.991-24.232S0,15.106,0,28.49c0,9.3,6.484,17.366,16,21.43.192.083.394.167.607.25a34.384,34.384,0,0,0,5.962,1.8" transform="translate(0 -1.302)" fill="#005292"/>
        <path id="Tracé_285" data-name="Tracé 285" d="M57.835,17.715C52.927,9.742,42.746,4.259,30.974,4.259a37.215,37.215,0,0,0-5.112.358,41.682,41.682,0,0,0-11.25,8.08C7.087,20.218,3.133,29.558,3.226,37.691A27.123,27.123,0,0,0,16.981,49.92c.193.083.394.167.607.251a34.469,34.469,0,0,0,5.963,1.8c2.427.58,5.473,1.18,9.344,1.8a40.919,40.919,0,0,0,13.655-9.133c8.125-8.126,12.091-18.367,11.284-26.919" transform="translate(-0.986 -1.302)" fill="#689b2c"/>
        <path id="Tracé_286" data-name="Tracé 286" d="M26.527,37.686H48.084l1.208-5.6H33.823l1.048-4.867H50.343L51.6,21.379H30.046Z" transform="translate(-8.11 -6.537)" fill="#fff"/>
        <path id="Tracé_287" data-name="Tracé 287" d="M24.176,46.836l-4.3,21.088a20.735,20.735,0,0,0,5.782,1.112l3.332-16.6H44.526l1.207-5.6Z" transform="translate(-6.076 -14.32)" fill="#fff"/>
      </g>
    </g>
  </g>
</svg>
