<svg width="72.166992" height="72.034119" viewBox="0 0 72.167 72.0341" fill="none" xmlns="http://www.w3.org/2000/svg" xmlns:xlink="http://www.w3.org/1999/xlink">
	<desc>
			Created with Pixso.
	</desc>
	<defs/>
	<mask id="mask1_1623" mask-type="alpha" maskUnits="userSpaceOnUse" x="0.000000" y="0.000000" width="72.166992" height="72.034119">
		<g style="mix-blend-mode:normal">
			<rect id="Rectangle 97" width="72.166954" height="72.034126" fill="#66A2FC" fill-opacity="1.000000"/>
		</g>
	</mask>
	<g mask="url(#mask1_1623)">
		<g style="mix-blend-mode:normal">
			<path id="Tracé 116" d="M38.23 2.08C38.31 4.54 41.78 4.98 42.46 2.62C43.24 -0.06 47.25 0.97 46.64 3.69C46.1 6.09 49.35 7.37 50.6 5.26C52.02 2.86 55.64 4.85 54.38 7.34C53.26 9.52 56.09 11.58 57.82 9.84C59.79 7.87 62.81 10.7 60.97 12.79C59.34 14.63 61.57 17.33 63.68 16.07C66.08 14.66 68.3 18.15 65.99 19.71C63.96 21.09 65.45 24.26 67.81 23.57C70.48 22.79 71.76 26.73 69.14 27.67C66.83 28.5 67.48 31.93 69.94 31.86C72.72 31.77 72.98 35.9 70.21 36.16C67.76 36.39 67.54 39.87 69.94 40.41C72.66 41.02 71.88 45.08 69.13 44.65C66.71 44.26 65.63 47.58 67.81 48.7C70.3 49.96 68.54 53.71 65.98 52.6C63.73 51.62 61.85 54.57 63.7 56.2C65.79 58.04 63.15 61.23 60.95 59.52C59.01 58.01 56.46 60.4 57.84 62.43C59.41 64.74 56.06 67.17 54.35 64.97C52.85 63.03 49.79 64.71 50.62 67.02C51.57 69.64 47.72 71.17 46.61 68.61C45.64 66.35 42.25 67.22 42.49 69.67C42.75 72.44 38.64 72.96 38.21 70.21C37.82 67.78 34.33 67.78 33.95 70.21C33.51 72.96 29.41 72.44 29.67 69.67C29.9 67.22 26.52 66.35 25.54 68.61C24.44 71.17 20.59 69.64 21.54 67.02C22.37 64.71 19.31 63.03 17.8 64.97C16.09 67.17 12.75 64.74 14.31 62.43C15.69 60.4 13.15 58.01 11.21 59.52C9.01 61.23 6.37 58.04 8.46 56.2C10.3 54.57 8.43 51.62 6.18 52.6C3.62 53.71 1.86 49.96 4.34 48.7C6.53 47.58 5.45 44.26 3.02 44.65C0.27 45.08 -0.5 41.02 2.22 40.41C4.61 39.87 4.39 36.39 1.95 36.16C-0.83 35.9 -0.57 31.77 2.22 31.86C4.68 31.93 5.33 28.5 3.02 27.67C0.4 26.73 1.67 22.79 4.35 23.57C6.71 24.26 8.2 21.1 6.16 19.71C3.86 18.15 6.08 14.66 8.47 16.07C10.59 17.33 12.82 14.63 11.19 12.79C9.35 10.7 12.36 7.87 14.33 9.84C16.07 11.58 18.9 9.52 17.78 7.34C16.51 4.85 20.14 2.86 21.56 5.26C22.81 7.37 26.06 6.09 25.52 3.69C24.91 0.97 28.92 -0.06 29.7 2.62C30.38 4.98 33.85 4.54 33.92 2.08C34.01 -0.7 38.15 -0.7 38.23 2.08Z" fill="#66A2FC" fill-opacity="1.000000" fill-rule="nonzero"/>
		</g>
	</g>
	<g style="mix-blend-mode:normal">
		<path id="Tracé 146" d="M52.26 26.06C50.76 24.79 49 23.68 47.04 22.79C46.56 21.23 46.29 19.5 46.13 18.02C46.88 17.47 47.75 16.97 48.76 16.56C49.69 16.27 50.66 16.87 50.71 17.77C50.84 19.77 51.19 23.06 52.19 25.55C52.26 25.72 52.28 25.9 52.26 26.06Z" fill="#F0A8E8" fill-opacity="1.000000" fill-rule="nonzero"/>
	</g>
	<g style="mix-blend-mode:normal">
		<path id="Tracé 147" d="M33.89 53.56C33.23 55.87 31.1 57.56 28.57 57.56C27.88 57.56 27.22 57.44 26.61 57.2C27.15 56.99 27.68 56.69 28.17 56.28C29.13 55.47 29.81 54.35 30.05 53.07C31.32 53.32 32.61 53.48 33.89 53.56Z" fill="#F0A8E8" fill-opacity="1.000000" fill-rule="nonzero"/>
	</g>
	<g style="mix-blend-mode:normal">
		<path id="Tracé 148" d="M46.39 57.21C45.79 57.44 45.14 57.56 44.45 57.56L44.29 57.56C41.73 57.56 39.59 55.8 39 53.43C40.32 53.28 41.6 53.04 42.84 52.72C43.11 54.93 44.58 56.53 46.39 57.21Z" fill="#F0A8E8" fill-opacity="1.000000" fill-rule="nonzero"/>
	</g>
	<g style="mix-blend-mode:normal">
		<path id="Tracé 149" d="" fill="#FFC9D4" fill-opacity="1.000000" fill-rule="nonzero"/>
	</g>
	<g style="mix-blend-mode:normal">
		<path id="Tracé 150" d="" fill="#FFC9D4" fill-opacity="1.000000" fill-rule="nonzero"/>
	</g>
	<g style="mix-blend-mode:normal">
		<path id="Tracé 151" d="" fill="#FF9EB1" fill-opacity="1.000000" fill-rule="nonzero"/>
	</g>
	<g style="mix-blend-mode:normal">
		<path id="Tracé 152" d="" fill="#FF9EB1" fill-opacity="1.000000" fill-rule="nonzero"/>
	</g>
	<g style="mix-blend-mode:normal">
		<path id="Tracé 153" d="M58.51 33.08C57.73 33.08 57.03 32.6 56.72 31.88C55.78 29.72 54.25 27.75 52.26 26.06C50.76 24.79 49 23.68 47.04 22.79C46.56 21.23 46.29 19.5 46.13 18.02C46.05 17.34 46.01 16.72 45.97 16.19C45.92 15.29 44.95 14.69 44.02 14.98C40.72 16.32 38.91 18.64 37.98 20.34C37.95 20.39 37.93 20.44 37.91 20.5C36.36 20.38 34.78 20.39 33.17 20.53C34.71 21.84 35.61 23.76 35.68 25.74C36.04 25.77 36.41 25.81 36.77 25.85C37.73 25.96 38.51 26.57 38.74 27.38C39.14 28.72 37.91 30.1 36.3 30C35.05 29.92 34.91 29.97 34.47 29.93C32.89 29.93 31.06 30.14 29.36 30.51C28.85 30.63 28.35 30.76 27.82 30.91C27.65 31 27.45 31.02 26.8 31.25C26.06 31.51 25.52 31.74 24.88 32.04C24.63 32.2 24.56 32.16 23.57 32.73C22.21 33.44 20.34 32.86 19.95 31.52C19.74 30.8 20 30 20.71 29.48C21.11 29.18 21.54 28.89 21.98 28.63C21.64 27.8 21.46 26.9 21.46 25.96C21.46 25.34 21.54 24.73 21.69 24.16C19.71 25.38 18.06 26.83 16.77 28.43C16.7 28.4 16.63 28.37 16.55 28.35C16.53 28.35 14.48 27.91 13.53 26.45C13.38 26.21 13.26 25.96 13.18 25.7C15.64 26.91 17.68 25.19 17.68 23.21C17.68 21.06 15.91 19.91 14.31 20.21C13.54 20.35 12.57 20.86 11.96 22.37C11.67 21.92 11.39 21.4 11.12 20.81C10.93 20.41 10.47 20.24 10.07 20.42C9.68 20.61 9.51 21.07 9.69 21.47C10.24 22.66 10.84 23.63 11.5 24.36C11.41 25.46 11.65 26.45 12.22 27.32C13.22 28.86 14.97 29.54 15.79 29.78C12.37 35.07 12.66 41.66 17.99 46.98C18.7 47.69 19.09 48.67 19.09 49.68L19.09 52.03C19.09 56.09 23.19 58.53 26.61 57.2C27.15 56.99 27.68 56.69 28.17 56.28C29.13 55.47 29.81 54.35 30.05 53.07C31.32 53.32 32.61 53.48 33.89 53.56C35.09 53.63 36.29 53.63 37.46 53.56C37.98 53.53 38.49 53.48 39 53.43C40.32 53.28 41.6 53.04 42.84 52.72C43.11 54.93 44.58 56.53 46.39 57.21C48.29 57.91 50.56 57.61 52.23 55.94C53.23 54.94 53.85 53.56 53.85 52.03L53.85 47.13C53.85 46.73 54 46.33 54.26 46.03C55.34 44.77 56.84 44.13 58.37 44.13L58.51 44.13C60.73 44.13 62.54 42.33 62.54 40.1L62.54 37.11C62.54 34.88 60.73 33.08 58.51 33.08ZM14.59 21.76C15.96 21.5 16.61 23.36 15.66 24.2C14.94 24.85 13.91 24.43 13.17 23.8C13.44 22.57 13.92 21.88 14.59 21.76Z" fill="#FFCEF7" fill-opacity="1.000000" fill-rule="nonzero"/>
	</g>
	<g style="mix-blend-mode:normal">
		<path id="Tracé 154" d="M36.3 30C35.05 29.92 34.91 29.97 34.47 29.93C35.35 28.63 35.73 27.17 35.68 25.74C36.04 25.77 36.4 25.81 36.77 25.85C37.73 25.96 38.51 26.57 38.74 27.38C39.13 28.72 37.91 30.1 36.3 30Z" fill="#F0A8E8" fill-opacity="1.000000" fill-rule="nonzero"/>
	</g>
	<g style="mix-blend-mode:normal">
		<path id="Tracé 155" d="M24.87 32.03C24.62 32.2 24.56 32.16 23.57 32.73C22.21 33.44 20.34 32.86 19.95 31.52C19.74 30.8 20 30 20.71 29.48C21.11 29.18 21.54 28.89 21.98 28.63C22.4 29.68 23.07 30.61 23.93 31.35C24.22 31.6 24.54 31.83 24.87 32.03Z" fill="#F0A8E8" fill-opacity="1.000000" fill-rule="nonzero"/>
	</g>
	<g style="mix-blend-mode:normal">
		<path id="Tracé 156" d="" fill="#FF758F" fill-opacity="1.000000" fill-rule="nonzero"/>
	</g>
	<g style="mix-blend-mode:normal">
		<path id="Tracé 157" d="" fill="#FCEC78" fill-opacity="1.000000" fill-rule="nonzero"/>
	</g>
	<g style="mix-blend-mode:normal">
		<path id="Tracé 158" d="" fill="#FCEC78" fill-opacity="1.000000" fill-rule="nonzero"/>
	</g>
	<g style="mix-blend-mode:normal">
		<path id="Tracé 159" d="M34.47 29.93C32.89 29.93 31.06 30.14 29.36 30.51L29.36 29.84C29.89 29.74 30.37 29.54 30.75 29.27C31.36 28.84 31.73 28.23 31.73 27.55C31.73 26.84 31.34 26.21 30.7 25.78C29.6 25.04 28.61 25.26 27.97 25.11C27.6 25.03 27.32 24.87 27.16 24.71C27.05 24.6 26.99 24.49 26.99 24.39C26.99 24.16 27.29 23.87 27.79 23.71C27.99 23.64 28.23 23.6 28.5 23.59C28.93 23.57 29.48 23.69 29.85 23.95C30.85 24.67 32.28 22.64 29.36 22.09C29.36 21.98 29.34 21.8 29.3 21.71C29.28 21.66 29.25 21.62 29.23 21.58C29.12 21.41 28.96 21.3 28.78 21.26C28.52 21.18 28.22 21.25 28.01 21.46C27.88 21.6 27.79 21.81 27.79 22.09C25.24 22.56 24.72 24.91 26.35 26.09C26.55 26.24 26.78 26.37 27.05 26.47C27.2 26.53 27.36 26.58 27.53 26.62C27.86 26.71 28.21 26.75 28.57 26.75C29.54 26.75 30.16 27.22 30.16 27.55C30.16 28.24 28.18 28.71 27.23 27.93C27.18 27.89 27.14 27.85 27.11 27.82C26.98 27.66 26.79 27.56 26.6 27.54C26.39 27.52 26.17 27.58 26 27.73C25.68 28 25.64 28.47 25.89 28.8C26.16 29.12 26.54 29.4 26.96 29.59C27.2 29.69 27.45 29.77 27.72 29.83C27.72 30.73 27.78 30.77 27.81 30.9C27.65 30.99 27.45 31.02 26.8 31.25C26.06 31.51 25.52 31.74 24.88 32.04C24.55 31.84 24.22 31.6 23.93 31.35C23.07 30.61 22.4 29.68 21.98 28.63C21.65 27.8 21.46 26.9 21.46 25.96C21.46 25.34 21.54 24.73 21.69 24.16C22.67 20.4 26.63 17.99 30.57 19.14C31.57 19.43 32.44 19.91 33.17 20.53C34.72 21.84 35.61 23.76 35.68 25.74C35.73 27.17 35.35 28.63 34.47 29.93Z" fill="#FFCB5C" fill-opacity="1.000000" fill-rule="nonzero"/>
	</g>
	<g style="mix-blend-mode:normal">
		<path id="Tracé 160" d="" fill="#FFCF6B" fill-opacity="1.000000" fill-rule="nonzero"/>
	</g>
	<g style="mix-blend-mode:normal">
		<path id="Tracé 161" d="" fill="#FFCF6B" fill-opacity="1.000000" fill-rule="nonzero"/>
	</g>
	<g style="mix-blend-mode:normal">
		<path id="Tracé 162" d="" fill="#FFCF6B" fill-opacity="1.000000" fill-rule="nonzero"/>
	</g>
	<g style="mix-blend-mode:normal">
		<path id="Tracé 163" d="M31.73 27.55C31.73 28.23 31.36 28.84 30.75 29.27C30.37 29.54 29.89 29.74 29.36 29.84L29.36 30.51C28.85 30.63 28.35 30.76 27.82 30.91C27.78 30.79 27.79 30.74 27.79 29.84C27.52 29.79 27.2 29.69 26.96 29.59C26.54 29.41 26.18 29.15 25.91 28.84C25.66 28.51 25.68 28 26 27.73C26.17 27.58 26.39 27.52 26.6 27.54C26.79 27.56 26.98 27.66 27.11 27.82C27.14 27.85 27.18 27.89 27.23 27.93C28.18 28.71 30.16 28.24 30.16 27.55C30.16 27.22 29.54 26.75 28.57 26.75C28.21 26.75 27.86 26.71 27.53 26.62C27.36 26.58 27.2 26.53 27.05 26.47C26.78 26.37 26.55 26.24 26.35 26.09C24.72 24.91 25.24 22.56 27.79 22.09C27.79 21.81 27.88 21.6 28.02 21.46C28.22 21.25 28.52 21.18 28.78 21.26C28.96 21.3 29.12 21.41 29.23 21.58C29.25 21.62 29.28 21.66 29.3 21.71C29.34 21.8 29.36 21.91 29.36 22.01C32.28 22.56 30.85 24.67 29.85 23.95C29.48 23.69 28.93 23.57 28.5 23.59C28.24 23.6 27.99 23.64 27.79 23.71C27.29 23.87 26.99 24.16 26.99 24.39C26.99 24.49 27.05 24.6 27.16 24.71C27.32 24.87 27.6 25.03 27.97 25.11C28.61 25.26 29.6 25.04 30.7 25.78C31.34 26.21 31.73 26.84 31.73 27.55Z" fill="#FFFFFF" fill-opacity="1.000000" fill-rule="nonzero"/>
	</g>
	<g style="mix-blend-mode:normal">
		<path id="Tracé 164" d="" fill="#FFCF6B" fill-opacity="1.000000" fill-rule="nonzero"/>
	</g>
</svg>
