<svg width="73.750000" height="70.901062" viewBox="0 0 73.75 70.9011" fill="none" xmlns="http://www.w3.org/2000/svg" xmlns:xlink="http://www.w3.org/1999/xlink">
	<desc>
			Created with Pixso.
	</desc>
	<defs/>
	<g style="mix-blend-mode:normal">
		<path id="Tracé 99" d="M73.75 35.45C73.75 39.29 70.73 42.61 69.6 46.08C68.44 49.68 68.88 54.13 66.7 57.12C64.5 60.14 60.12 61.09 57.09 63.29C54.1 65.46 51.86 69.36 48.27 70.53C44.8 71.65 40.71 69.85 36.87 69.85C33.03 69.85 28.94 71.65 25.47 70.53C21.88 69.36 19.64 65.46 16.64 63.29C13.62 61.09 9.24 60.14 7.04 57.12C4.86 54.13 5.3 49.68 4.14 46.08C3.01 42.61 0 39.29 0 35.45C0 31.6 3.01 28.28 4.14 24.81C5.3 21.21 4.86 16.76 7.04 13.77C9.24 10.75 13.62 9.81 16.64 7.61C19.64 5.43 21.88 1.53 25.47 0.37C28.94 -0.76 33.03 1.04 36.87 1.04C40.71 1.04 44.8 -0.76 48.27 0.37C51.86 1.53 54.1 5.43 57.09 7.61C60.12 9.81 64.5 10.75 66.7 13.77C68.88 16.76 68.44 21.21 69.6 24.81C70.73 28.28 73.75 31.6 73.75 35.45Z" fill="#66A2FC" fill-opacity="1.000000" fill-rule="nonzero"/>
	</g>
	<g style="mix-blend-mode:normal">
		<path id="Tracé 133" d="M53.34 34.23L53.34 49.67C53.34 53.07 50.58 55.83 47.17 55.83L23.65 55.83C20.24 55.83 17.48 53.07 17.48 49.66L17.48 22.22C17.48 18.82 20.24 16.06 23.65 16.06L47.17 16.06C47.99 16.06 48.77 16.22 49.48 16.5L48.66 17.42L36.6 30.85C36.47 31 36.35 31.15 36.24 31.3C35.92 31.75 35.67 32.24 35.51 32.77L33.44 39.49L32.9 41.26C32.89 41.29 32.87 41.36 32.86 41.39C32.66 42.13 32.72 42.85 32.95 43.48C33.25 44.29 33.85 44.96 34.61 45.36C35.47 45.82 36.54 45.92 37.59 45.47L39.29 44.74L45.75 41.97C46.26 41.75 46.72 41.45 47.13 41.09C47.28 40.96 47.41 40.83 47.54 40.68L51.59 36.17L53.34 34.23Z" fill="#DEE9EF" fill-opacity="1.000000" fill-rule="nonzero"/>
	</g>
	<g style="mix-blend-mode:normal">
		<path id="Tracé 134" d="M32.95 41.47C32.96 41.43 32.88 41.32 32.89 41.29C32.91 41.35 32.93 41.41 32.95 41.47Z" fill="#FFF1CF" fill-opacity="1.000000" fill-rule="nonzero"/>
	</g>
	<g style="mix-blend-mode:normal">
		<path id="Tracé 135" d="M32.95 41.47C32.96 41.43 32.88 41.32 32.89 41.29C32.91 41.35 32.93 41.41 32.95 41.47Z" fill="#FCE3A0" fill-opacity="1.000000" fill-rule="nonzero"/>
	</g>
	<g style="mix-blend-mode:normal">
		<path id="Tracé 136" d="M61.46 25.18L53.34 34.23L51.59 36.17L47.54 40.68C47.41 40.83 47.28 40.96 47.13 41.09C46.01 38.99 44.47 37 42.53 35.26C40.59 33.52 38.44 32.2 36.24 31.3C36.35 31.15 36.47 31 36.6 30.85L48.66 17.42L49.48 16.5L50.52 15.35C51.77 13.96 53.91 13.84 55.3 15.09L61.21 20.4C62.6 21.65 62.71 23.79 61.46 25.18Z" fill="#FFFCF8" fill-opacity="1.000000" fill-rule="nonzero"/>
	</g>
	<g style="mix-blend-mode:normal">
		<path id="Tracé 137" d="M47.13 41.09C46.72 41.45 46.26 41.75 45.75 41.97L39.29 44.74C39.65 43.2 39.18 41.52 37.92 40.39C36.66 39.26 34.94 38.97 33.44 39.49L35.51 32.77C35.67 32.24 35.92 31.75 36.23 31.3C38.44 32.2 40.59 33.52 42.53 35.26C44.47 37 46.01 38.99 47.13 41.09Z" fill="#FFCB5C" fill-opacity="1.000000" fill-rule="nonzero"/>
	</g>
	<g style="mix-blend-mode:normal">
		<path id="Tracé 138" d="M39.29 44.74L37.59 45.47C36.54 45.92 35.47 45.82 34.61 45.36C33.85 44.96 33.25 44.29 32.95 43.48C32.72 42.85 32.66 42.13 32.86 41.39C32.84 41.33 32.91 41.35 32.89 41.29L33.44 39.49C34.94 38.97 36.66 39.26 37.92 40.39C39.18 41.52 39.65 43.2 39.29 44.74Z" fill="#66A2FC" fill-opacity="1.000000" fill-rule="nonzero"/>
	</g>
	<g style="mix-blend-mode:normal">
		<path id="Tracé 139" d="M32.95 41.47C32.96 41.43 32.88 41.32 32.89 41.29C32.91 41.35 32.93 41.41 32.95 41.47Z" fill="#29CE69" fill-opacity="1.000000" fill-rule="nonzero"/>
	</g>
</svg>
