<svg id="Icon_simple-youtube" data-name="Icon simple-youtube" xmlns="http://www.w3.org/2000/svg" width="25.987" height="18.151" viewBox="0 0 25.987 18.151">
  <path id="Icon_simple-youtube-2" data-name="Icon simple-youtube" d="M25.451,8.227a3.256,3.256,0,0,0-2.262-2.26c-2.026-.542-10.178-.542-10.178-.542s-8.131-.011-10.178.542A3.256,3.256,0,0,0,.573,8.227a33.805,33.805,0,0,0-.565,6.284,33.8,33.8,0,0,0,.565,6.26,3.256,3.256,0,0,0,2.262,2.26c2.023.543,10.178.543,10.178.543s8.13,0,10.178-.543a3.256,3.256,0,0,0,2.262-2.26,33.805,33.805,0,0,0,.542-6.26,33.805,33.805,0,0,0-.542-6.284ZM10.41,18.4V10.611l6.785,3.9Z" transform="translate(-0.007 -5.424)" fill="#005175"/>
</svg>
