<svg width="73.750000" height="70.158386" viewBox="0 0 73.75 70.1584" fill="none" xmlns="http://www.w3.org/2000/svg" xmlns:xlink="http://www.w3.org/1999/xlink">
	<desc>
			Created with Pixso.
	</desc>
	<defs/>
	<g style="mix-blend-mode:normal">
		<path id="Tracé 165" d="M48.27 0L36.87 2.78L25.47 0L17.89 8.94L7.04 13.4L6.15 25.09L0 35.07L6.15 45.06L7.04 56.75L17.89 61.2L25.47 70.15L36.87 67.37L48.27 70.15L55.85 61.2L66.7 56.75L67.59 45.06L73.75 35.07L67.59 25.09L66.7 13.4L55.85 8.94L48.27 0Z" fill="#66A2FC" fill-opacity="1.000000" fill-rule="nonzero"/>
	</g>
	<g style="mix-blend-mode:normal">
		<path id="Tracé 140" d="M47.97 26.64L25.77 26.64C23.16 26.64 21.05 24.52 21.05 21.91L21.05 50.63C21.05 53.24 23.16 55.36 25.77 55.36L47.97 55.36C50.58 55.36 52.69 53.24 52.69 50.63L52.69 21.91C52.69 24.52 50.58 26.64 47.97 26.64ZM34.24 48.53C34.12 49.08 33.89 49.59 33.57 50.03C33.06 50.74 32.32 51.28 31.47 51.55C31.08 51.67 30.67 51.73 30.24 51.73C27.98 51.73 26.14 49.9 26.14 47.63C26.14 45.69 27.49 44.06 29.3 43.64C29.6 43.57 29.92 43.53 30.24 43.53C30.33 43.53 30.43 43.53 30.52 43.54C30.84 43.56 31.15 43.62 31.44 43.71C33.12 44.22 34.34 45.78 34.34 47.63C34.34 47.94 34.31 48.24 34.24 48.53ZM32.74 38.47L27.74 38.47C27.68 38.47 27.61 38.47 27.55 38.46C26.17 38.33 25.35 36.8 26.06 35.56L26.97 33.98L28.56 31.23C28.62 31.13 28.69 31.03 28.76 30.95C29.18 30.45 29.8 30.22 30.4 30.27C31 30.32 31.58 30.64 31.92 31.23L34.42 35.56C35.16 36.85 34.23 38.47 32.74 38.47ZM47.6 49.76C47.6 50.85 46.72 51.73 45.62 51.73L41.38 51.73C40.28 51.73 39.4 50.85 39.4 49.76L39.4 45.51C39.4 44.41 40.28 43.53 41.38 43.53L45.62 43.53C46.72 43.53 47.6 44.41 47.6 45.51L47.6 49.76ZM47.88 34.98L46.22 37.86C46 38.24 45.6 38.47 45.16 38.47L41.84 38.47C41.4 38.47 41 38.24 40.78 37.86L39.12 34.98C38.9 34.6 38.9 34.13 39.12 33.75L40.78 30.88C41 30.5 41.4 30.26 41.84 30.26L45.16 30.26C45.6 30.26 46 30.5 46.22 30.88L47.88 33.75C48.1 34.13 48.1 34.6 47.88 34.98Z" fill="#FFCB5C" fill-opacity="1.000000" fill-rule="nonzero"/>
	</g>
	<g style="mix-blend-mode:normal">
		<path id="Tracé 141" d="M52.69 20.31L52.69 21.91C52.69 24.52 50.58 26.64 47.97 26.64L25.77 26.64C23.16 26.64 21.05 24.52 21.05 21.91L21.05 20.31C21.05 17.7 23.16 15.58 25.77 15.58L47.97 15.58C50.58 15.58 52.69 17.7 52.69 20.31Z" fill="#54CDFF" fill-opacity="1.000000" fill-rule="nonzero"/>
	</g>
	<g style="mix-blend-mode:normal">
		<path id="Tracé 142" d="M32.74 38.47L27.74 38.47C27.68 38.47 27.61 38.47 27.55 38.46C26.17 38.33 25.35 36.8 26.06 35.56L26.97 33.98L28.56 31.23C28.62 31.13 28.69 31.03 28.76 30.95C29.18 30.45 29.8 30.22 30.4 30.27C31 30.32 31.58 30.64 31.92 31.23L34.42 35.56C35.16 36.85 34.23 38.47 32.74 38.47Z" fill="#005175" fill-opacity="1.000000" fill-rule="nonzero"/>
	</g>
	<g style="mix-blend-mode:normal">
		<path id="Tracé 143" d="M47.88 34.98L46.22 37.86C46 38.24 45.6 38.47 45.16 38.47L41.84 38.47C41.4 38.47 41 38.24 40.78 37.86L39.12 34.98C38.9 34.6 38.9 34.13 39.12 33.75L40.78 30.88C41 30.5 41.4 30.26 41.84 30.26L45.16 30.26C45.6 30.26 46 30.5 46.22 30.88L47.88 33.75C48.1 34.13 48.1 34.6 47.88 34.98Z" fill="#3C9851" fill-opacity="1.000000" fill-rule="nonzero"/>
	</g>
	<g style="mix-blend-mode:normal">
		<path id="Tracé 144" d="M47.6 45.51L47.6 49.76C47.6 50.85 46.72 51.73 45.62 51.73L41.38 51.73C40.28 51.73 39.4 50.85 39.4 49.76L39.4 45.51C39.4 44.41 40.28 43.53 41.38 43.53L45.62 43.53C46.72 43.53 47.6 44.41 47.6 45.51Z" fill="#66A2FC" fill-opacity="1.000000" fill-rule="nonzero"/>
	</g>
	<g style="mix-blend-mode:normal">
		<path id="Tracé 145" d="M34.34 47.63C34.34 47.94 34.31 48.24 34.24 48.53C34.12 49.08 33.89 49.59 33.57 50.03C33.06 50.74 32.32 51.28 31.47 51.55C31.08 51.67 30.67 51.73 30.24 51.73C27.98 51.73 26.14 49.9 26.14 47.63C26.14 45.69 27.49 44.06 29.3 43.64C29.6 43.57 29.92 43.53 30.24 43.53C30.33 43.53 30.43 43.53 30.52 43.54C30.84 43.56 31.15 43.62 31.44 43.71C33.12 44.22 34.34 45.78 34.34 47.63Z" fill="#FFFFFF" fill-opacity="1.000000" fill-rule="nonzero"/>
	</g>
</svg>
