<svg width="391.000000" height="252.000000" viewBox="0 0 391 252" fill="none" xmlns="http://www.w3.org/2000/svg" xmlns:xlink="http://www.w3.org/1999/xlink">
	<desc>
			Created with Pixso.
	</desc>
	<defs>
		<clipPath id="clip4_4470">
			<rect id="Frame 2" width="391.000000" height="252.000000" fill="white" fill-opacity="0"/>
		</clipPath>
	</defs>
	<rect id="Frame 2" width="391.000000" height="252.000000" fill="#FFFFFF" fill-opacity="0"/>
	<g clip-path="url(#clip4_4470)">
		<rect id="Frame 1" width="391.000000" height="252.000000" fill="#FFFFFF" fill-opacity="0"/>
		<g style="mix-blend-mode:normal">
			<path id="8 animaux-insectes_Couleur_Envoi_detouré" d="M367.17 83.53C364.61 101.78 348.35 115.57 340.79 131.3C332.95 147.6 332.06 169.02 319.92 181.8C307.65 194.71 286.59 196.3 271.04 204.76C255.65 213.14 242.63 230.16 225.1 233.34C208.19 236.42 190.37 225.22 172.46 222.7C154.55 220.18 134.33 226.04 118.92 218.42C102.95 210.53 95.12 190.58 82.63 178.28C70.01 165.86 50.21 158.53 41.98 142.74C33.83 127.11 38.88 106.27 35.84 88.44C32.91 71.24 21.08 53.5 23.64 35.25C26.21 17 42.47 3.21 50.03 -12.52C57.86 -28.82 58.75 -50.24 70.9 -63.02C83.16 -75.93 104.22 -77.52 119.77 -85.98C135.16 -94.36 148.19 -111.38 165.71 -114.56C182.63 -117.64 200.45 -106.44 218.36 -103.92C236.27 -101.4 256.49 -107.26 271.9 -99.64C287.87 -91.75 295.7 -71.8 308.19 -59.5C320.8 -47.08 340.6 -39.75 348.84 -23.96C356.98 -8.33 351.94 12.51 354.97 30.34C357.91 47.54 369.74 65.28 367.17 83.53Z" fill="#C4CF54" fill-opacity="1.000000" fill-rule="nonzero"/>
		</g>
		<rect id="Groupe 112" width="231.841431" height="164.718018" transform="translate(64.241211 16.170166)" fill="#FFFFFF" fill-opacity="0"/>
		<mask id="mask1_374" mask-type="alpha" maskUnits="userSpaceOnUse" x="64.241089" y="16.170166" width="231.841431" height="164.718018">
			<g style="mix-blend-mode:normal">
				<rect id="Rectangle 108" x="64.241089" y="16.170166" width="231.841446" height="164.718033" fill="#C4C4C4" fill-opacity="1.000000"/>
			</g>
		</mask>
		<g mask="url(#mask1_374)">
			<g style="mix-blend-mode:normal">
				<path id="Tracé 169" d="M67.51 31.85C67.23 31.93 67.02 31.96 66.87 31.91C66.72 31.87 66.6 31.79 66.53 31.66C66.45 31.53 66.39 31.39 66.35 31.24L64.33 24.88C64.29 24.72 64.25 24.58 64.24 24.44C64.22 24.3 64.27 24.16 64.36 24.04C64.46 23.91 64.65 23.81 64.94 23.72C65.23 23.62 65.45 23.6 65.6 23.65C65.75 23.69 65.86 23.78 65.93 23.9C65.99 24.03 66.05 24.16 66.1 24.32L67.91 30.03L71.09 29.02C71.23 28.98 71.35 28.95 71.48 28.94C71.6 28.93 71.72 28.96 71.83 29.05C71.93 29.13 72.03 29.3 72.1 29.55C72.18 29.79 72.2 29.98 72.16 30.11C72.11 30.25 72.04 30.35 71.93 30.41C71.83 30.47 71.71 30.52 71.58 30.56L67.51 31.85Z" fill="#005175" fill-opacity="1.000000" fill-rule="nonzero"/>
			</g>
		</g>
		<g mask="url(#mask1_374)">
			<g style="mix-blend-mode:normal">
				<path id="Tracé 170" d="M75.91 29.4C75.36 29.56 74.87 29.6 74.42 29.54C73.97 29.47 73.58 29.32 73.25 29.1C72.92 28.88 72.64 28.61 72.41 28.28C72.19 27.96 72.02 27.62 71.92 27.26C71.75 26.67 71.74 26.11 71.87 25.58C72.01 25.05 72.28 24.59 72.67 24.19C73.06 23.8 73.57 23.51 74.18 23.34C74.63 23.21 75.04 23.17 75.42 23.22C75.79 23.27 76.12 23.38 76.4 23.55C76.68 23.72 76.91 23.92 77.09 24.15C77.27 24.39 77.4 24.63 77.47 24.87C77.59 25.3 77.58 25.65 77.43 25.92C77.28 26.18 77.05 26.36 76.73 26.45L73.94 27.25C74.01 27.45 74.13 27.6 74.3 27.71C74.47 27.81 74.66 27.87 74.88 27.89C75.1 27.92 75.32 27.9 75.54 27.83C75.73 27.78 75.89 27.72 76.02 27.66C76.16 27.6 76.27 27.54 76.36 27.48C76.45 27.41 76.54 27.35 76.61 27.29C76.69 27.23 76.76 27.18 76.82 27.14C76.88 27.1 76.94 27.06 77 27.04C77.11 26.99 77.23 27 77.35 27.04C77.47 27.09 77.59 27.18 77.71 27.3C77.79 27.37 77.85 27.44 77.89 27.52C77.93 27.59 77.96 27.66 77.99 27.74C78.04 27.93 77.99 28.13 77.84 28.33C77.69 28.53 77.46 28.73 77.13 28.91C76.81 29.1 76.4 29.26 75.91 29.4ZM73.66 26.29L75.52 25.76C75.64 25.72 75.73 25.68 75.77 25.62C75.82 25.56 75.82 25.46 75.79 25.34C75.75 25.2 75.67 25.09 75.55 25.01C75.44 24.92 75.3 24.88 75.14 24.86C74.98 24.84 74.8 24.86 74.61 24.91C74.37 24.98 74.17 25.09 74.01 25.24C73.85 25.39 73.74 25.55 73.68 25.74C73.62 25.93 73.61 26.11 73.66 26.29Z" fill="#005175" fill-opacity="1.000000" fill-rule="nonzero"/>
			</g>
		</g>
		<g mask="url(#mask1_374)">
			<g style="mix-blend-mode:normal">
				<path id="Tracé 171" d="M81.31 20.65C80.97 20.73 80.72 20.72 80.57 20.62C80.41 20.52 80.29 20.29 80.2 19.93C80.12 19.59 80.13 19.34 80.23 19.19C80.33 19.03 80.56 18.91 80.91 18.82C81.26 18.74 81.51 18.75 81.66 18.85C81.81 18.95 81.93 19.17 82.01 19.52C82.09 19.86 82.09 20.12 81.99 20.28C81.9 20.44 81.67 20.56 81.31 20.65ZM81.61 30.33C81.46 30.37 81.32 30.38 81.18 30.39C81.04 30.39 80.91 30.34 80.8 30.24C80.69 30.14 80.6 29.94 80.53 29.66C80.47 29.39 80.46 29.18 80.52 29.04C80.57 28.9 80.66 28.79 80.79 28.73C80.92 28.67 81.07 28.62 81.22 28.58C81.32 28.56 81.43 28.52 81.54 28.47C81.65 28.41 81.75 28.34 81.84 28.24C81.92 28.14 81.98 28.01 82.01 27.85C82.05 27.69 82.04 27.5 81.98 27.27L80.85 22.51C80.82 22.38 80.8 22.24 80.8 22.11C80.8 21.98 80.85 21.85 80.96 21.75C81.07 21.64 81.26 21.55 81.54 21.48C81.82 21.42 82.04 21.41 82.18 21.47C82.32 21.53 82.42 21.62 82.48 21.75C82.53 21.88 82.58 22.02 82.62 22.17L83.74 26.9C83.85 27.36 83.86 27.78 83.78 28.17C83.7 28.55 83.55 28.89 83.34 29.19C83.13 29.48 82.87 29.73 82.57 29.92C82.27 30.11 81.95 30.25 81.61 30.33Z" fill="#005175" fill-opacity="1.000000" fill-rule="nonzero"/>
			</g>
		</g>
		<g mask="url(#mask1_374)">
			<g style="mix-blend-mode:normal">
				<path id="Tracé 172" d="M89.62 26.03C89.32 26.08 89.09 26.07 88.93 26C88.77 25.92 88.68 25.81 88.65 25.66L88.73 25.43C88.7 25.52 88.62 25.63 88.51 25.78C88.4 25.92 88.24 26.06 88.04 26.19C87.85 26.32 87.59 26.42 87.27 26.49C86.9 26.56 86.54 26.54 86.18 26.45C85.81 26.36 85.48 26.19 85.17 25.96C84.85 25.72 84.59 25.44 84.37 25.11C84.15 24.78 84.01 24.42 83.93 24.02C83.85 23.63 83.85 23.24 83.93 22.85C84.01 22.47 84.15 22.12 84.36 21.79C84.56 21.46 84.82 21.19 85.11 20.97C85.41 20.74 85.74 20.59 86.11 20.52C86.4 20.47 86.66 20.46 86.89 20.5C87.11 20.54 87.3 20.61 87.46 20.69C87.63 20.78 87.75 20.87 87.84 20.96L87.72 20.81C87.67 20.62 87.71 20.46 87.83 20.33C87.95 20.2 88.16 20.11 88.46 20.05C88.75 19.99 88.96 20 89.11 20.06C89.25 20.13 89.34 20.23 89.4 20.36C89.46 20.5 89.5 20.65 89.53 20.81L90.34 24.94C90.37 25.09 90.38 25.24 90.38 25.39C90.38 25.54 90.33 25.67 90.22 25.78C90.11 25.89 89.91 25.97 89.62 26.03ZM87.18 24.65C87.39 24.61 87.57 24.52 87.72 24.38C87.87 24.24 87.98 24.06 88.04 23.86C88.11 23.66 88.12 23.44 88.07 23.22C88.03 22.99 87.94 22.79 87.8 22.63C87.66 22.48 87.49 22.36 87.3 22.29C87.1 22.21 86.9 22.2 86.69 22.24C86.46 22.28 86.26 22.38 86.11 22.52C85.95 22.67 85.83 22.85 85.76 23.05C85.69 23.26 85.68 23.47 85.72 23.71C85.76 23.92 85.86 24.11 86 24.27C86.14 24.43 86.32 24.54 86.52 24.61C86.73 24.68 86.95 24.7 87.18 24.65Z" fill="#005175" fill-opacity="1.000000" fill-rule="nonzero"/>
			</g>
		</g>
		<g mask="url(#mask1_374)">
			<g style="mix-blend-mode:normal">
				<path id="Tracé 173" d="M92.24 25.64C91.94 25.68 91.73 25.66 91.59 25.59C91.46 25.52 91.37 25.42 91.32 25.27C91.27 25.13 91.24 24.98 91.22 24.83L90.7 20.61C90.68 20.44 90.67 20.29 90.69 20.15C90.71 20.01 90.77 19.89 90.89 19.79C91 19.69 91.21 19.62 91.51 19.58C91.79 19.55 92 19.56 92.13 19.62C92.26 19.69 92.35 19.76 92.4 19.86C92.44 19.96 92.47 20.04 92.48 20.11L92.34 20.21C92.36 20.17 92.39 20.11 92.45 20.01C92.51 19.92 92.59 19.82 92.7 19.71C92.81 19.61 92.95 19.51 93.11 19.42C93.28 19.34 93.47 19.28 93.7 19.25C93.79 19.24 93.89 19.23 94 19.23C94.11 19.23 94.23 19.24 94.35 19.26C94.47 19.28 94.58 19.32 94.69 19.37C94.79 19.42 94.88 19.48 94.95 19.56C95.02 19.64 95.07 19.75 95.08 19.88C95.12 20.21 95.08 20.5 94.96 20.75C94.83 21 94.65 21.14 94.42 21.16C94.28 21.18 94.18 21.18 94.12 21.16C94.06 21.15 94.01 21.13 93.97 21.11C93.93 21.09 93.89 21.07 93.84 21.06C93.79 21.05 93.7 21.05 93.57 21.06C93.45 21.08 93.33 21.11 93.23 21.15C93.12 21.2 93.03 21.26 92.95 21.34C92.86 21.42 92.8 21.52 92.76 21.62C92.72 21.73 92.71 21.84 92.72 21.96L93.05 24.63C93.07 24.78 93.08 24.93 93.06 25.08C93.05 25.22 92.99 25.34 92.87 25.44C92.75 25.53 92.54 25.6 92.24 25.64Z" fill="#005175" fill-opacity="1.000000" fill-rule="nonzero"/>
			</g>
		</g>
		<g mask="url(#mask1_374)">
			<g style="mix-blend-mode:normal">
				<path id="Tracé 174" d="M98.84 25.06C98.47 25.06 98.12 24.99 97.78 24.84C97.44 24.68 97.13 24.47 96.87 24.19C96.6 23.91 96.39 23.58 96.24 23.22C96.08 22.85 96 22.46 95.99 22.04C95.99 21.64 96.06 21.26 96.2 20.9C96.34 20.53 96.55 20.21 96.81 19.92C97.07 19.64 97.36 19.41 97.69 19.25C98.02 19.08 98.37 18.99 98.74 18.98C99.13 18.98 99.47 19.05 99.77 19.21C100.07 19.36 100.33 19.57 100.53 19.85C100.74 20.12 100.9 20.44 101.01 20.8C101.11 21.17 101.17 21.55 101.19 21.95C101.2 22.36 101.16 22.75 101.07 23.12C100.97 23.49 100.82 23.81 100.63 24.1C100.43 24.39 100.18 24.62 99.89 24.79C99.59 24.96 99.24 25.05 98.84 25.06ZM99.05 23.25C99.27 23.25 99.47 23.19 99.64 23.07C99.81 22.96 99.95 22.81 100.06 22.62C100.17 22.43 100.22 22.23 100.21 22C100.21 21.76 100.15 21.55 100.04 21.37C99.94 21.19 99.79 21.05 99.61 20.95C99.43 20.84 99.23 20.79 99 20.8C98.78 20.8 98.58 20.86 98.4 20.97C98.22 21.08 98.08 21.22 97.98 21.41C97.88 21.59 97.83 21.8 97.83 22.04C97.84 22.26 97.9 22.47 98 22.66C98.11 22.84 98.26 22.99 98.45 23.1C98.64 23.2 98.84 23.25 99.05 23.25ZM101.21 25.03C100.94 25.04 100.73 25 100.59 24.91C100.45 24.82 100.36 24.68 100.31 24.5L100.2 17.11C100.19 16.95 100.2 16.8 100.22 16.66C100.24 16.52 100.31 16.4 100.43 16.31C100.55 16.22 100.76 16.17 101.06 16.17C101.36 16.16 101.57 16.2 101.7 16.28C101.83 16.37 101.91 16.48 101.94 16.62C101.97 16.75 101.99 16.9 101.99 17.07L102.1 24.09C102.1 24.24 102.09 24.39 102.07 24.54C102.04 24.68 101.96 24.8 101.84 24.89C101.72 24.98 101.51 25.03 101.21 25.03Z" fill="#005175" fill-opacity="1.000000" fill-rule="nonzero"/>
			</g>
		</g>
		<g mask="url(#mask1_374)">
			<g style="mix-blend-mode:normal">
				<path id="Tracé 175" d="M103.75 25.3C103.45 25.26 103.25 25.19 103.13 25.09C103.02 24.99 102.96 24.86 102.95 24.72C102.94 24.57 102.94 24.42 102.96 24.27L103.52 20.05C103.54 19.89 103.57 19.74 103.62 19.61C103.66 19.47 103.76 19.37 103.9 19.31C104.04 19.24 104.26 19.22 104.56 19.26C104.85 19.3 105.05 19.37 105.16 19.48C105.27 19.58 105.34 19.71 105.35 19.85C105.36 19.99 105.35 20.14 105.33 20.31L104.77 24.52C104.75 24.67 104.72 24.82 104.67 24.96C104.63 25.09 104.54 25.19 104.4 25.26C104.26 25.32 104.05 25.34 103.75 25.3ZM104.66 18.38C104.35 18.34 104.14 18.27 104.02 18.16C103.91 18.05 103.84 17.93 103.83 17.78C103.82 17.63 103.83 17.47 103.85 17.31C103.87 17.14 103.91 16.99 103.96 16.85C104.01 16.72 104.11 16.61 104.25 16.55C104.39 16.48 104.61 16.47 104.92 16.51C105.21 16.54 105.42 16.62 105.54 16.72C105.66 16.83 105.72 16.96 105.73 17.1C105.74 17.25 105.73 17.41 105.71 17.57C105.69 17.73 105.66 17.88 105.61 18.02C105.56 18.17 105.47 18.27 105.33 18.34C105.19 18.41 104.96 18.42 104.66 18.38Z" fill="#005175" fill-opacity="1.000000" fill-rule="nonzero"/>
			</g>
		</g>
		<g mask="url(#mask1_374)">
			<g style="mix-blend-mode:normal">
				<path id="Tracé 176" d="M106.23 25.65C105.94 25.56 105.75 25.45 105.66 25.33C105.56 25.21 105.52 25.08 105.54 24.94C105.56 24.79 105.59 24.65 105.63 24.5L106.94 20.41C106.98 20.26 107.04 20.13 107.11 20.01C107.19 19.89 107.29 19.81 107.44 19.77C107.58 19.73 107.8 19.76 108.09 19.85C108.33 19.93 108.51 20.02 108.6 20.12C108.7 20.23 108.75 20.33 108.75 20.44C108.76 20.54 108.75 20.63 108.72 20.71C108.69 20.8 108.68 20.85 108.69 20.89L108.55 21.09C108.6 20.98 108.7 20.88 108.84 20.79C108.99 20.7 109.15 20.64 109.34 20.59C109.53 20.55 109.73 20.52 109.93 20.53C110.13 20.53 110.31 20.56 110.49 20.62C110.86 20.74 111.17 20.91 111.42 21.14C111.67 21.37 111.85 21.64 111.97 21.96C112.09 22.28 112.15 22.63 112.14 23.01C112.14 23.39 112.07 23.78 111.94 24.19L111.27 26.31C111.22 26.45 111.16 26.59 111.09 26.72C111.02 26.84 110.91 26.93 110.77 26.97C110.62 27.01 110.41 26.98 110.12 26.89C109.83 26.79 109.63 26.69 109.54 26.57C109.44 26.45 109.4 26.32 109.41 26.17C109.43 26.03 109.46 25.88 109.5 25.73L110.17 23.63C110.25 23.4 110.27 23.19 110.25 23C110.22 22.81 110.14 22.65 110.02 22.51C109.89 22.37 109.72 22.27 109.49 22.19C109.27 22.12 109.06 22.11 108.86 22.15C108.67 22.19 108.51 22.28 108.37 22.41C108.22 22.55 108.12 22.73 108.05 22.95L107.37 25.07C107.33 25.21 107.27 25.35 107.2 25.48C107.13 25.6 107.02 25.69 106.87 25.73C106.73 25.76 106.51 25.74 106.23 25.65Z" fill="#005175" fill-opacity="1.000000" fill-rule="nonzero"/>
			</g>
		</g>
		<g mask="url(#mask1_374)">
			<g style="mix-blend-mode:normal">
				<path id="Tracé 177" d="M115.63 30.33C115.35 30.09 115.14 29.79 114.99 29.45C114.84 29.11 114.77 28.75 114.76 28.36C114.75 27.98 114.82 27.59 114.95 27.22C115.08 26.84 115.28 26.5 115.56 26.18C115.82 25.89 116.13 25.65 116.48 25.48C116.83 25.31 117.2 25.2 117.58 25.17C117.97 25.13 118.34 25.16 118.7 25.26C119.05 25.36 119.37 25.53 119.64 25.77C119.94 26.03 120.14 26.32 120.26 26.63C120.38 26.95 120.42 27.28 120.39 27.62C120.36 27.96 120.26 28.3 120.1 28.64C119.93 28.98 119.72 29.31 119.46 29.61C119.19 29.93 118.9 30.19 118.58 30.4C118.26 30.6 117.94 30.75 117.59 30.83C117.25 30.91 116.92 30.91 116.58 30.84C116.25 30.77 115.93 30.6 115.63 30.33ZM117 29.14C117.17 29.28 117.35 29.37 117.56 29.4C117.76 29.44 117.96 29.42 118.17 29.35C118.38 29.28 118.56 29.16 118.71 28.99C118.86 28.82 118.96 28.62 119 28.42C119.04 28.21 119.03 28.01 118.97 27.81C118.9 27.61 118.79 27.44 118.62 27.29C118.45 27.14 118.27 27.05 118.06 27.01C117.85 26.97 117.65 26.98 117.45 27.05C117.25 27.12 117.08 27.24 116.92 27.42C116.77 27.59 116.67 27.78 116.63 27.99C116.59 28.2 116.6 28.41 116.66 28.62C116.73 28.82 116.84 29 117 29.14ZM117.4 31.91C117.2 31.73 117.07 31.56 117.02 31.4C116.98 31.24 117.01 31.08 117.1 30.91L121.99 25.36C122.09 25.25 122.19 25.14 122.3 25.05C122.41 24.96 122.54 24.92 122.69 24.93C122.84 24.94 123.03 25.05 123.26 25.25C123.48 25.45 123.62 25.62 123.65 25.77C123.69 25.92 123.68 26.05 123.61 26.17C123.54 26.3 123.45 26.42 123.34 26.54L118.69 31.81C118.59 31.93 118.48 32.03 118.37 32.12C118.25 32.21 118.12 32.24 117.96 32.22C117.81 32.21 117.62 32.1 117.4 31.91Z" fill="#005175" fill-opacity="1.000000" fill-rule="nonzero"/>
			</g>
		</g>
		<g mask="url(#mask1_374)">
			<g style="mix-blend-mode:normal">
				<path id="Tracé 178" d="M119.67 35.44C119.39 34.95 119.23 34.48 119.19 34.03C119.14 33.58 119.19 33.16 119.33 32.79C119.46 32.41 119.66 32.07 119.93 31.78C120.19 31.48 120.48 31.24 120.81 31.06C121.34 30.76 121.87 30.61 122.42 30.62C122.97 30.62 123.48 30.77 123.96 31.06C124.44 31.35 124.83 31.77 125.15 32.32C125.38 32.73 125.52 33.12 125.56 33.5C125.6 33.87 125.57 34.21 125.47 34.53C125.38 34.84 125.23 35.11 125.05 35.35C124.86 35.58 124.66 35.76 124.44 35.88C124.05 36.1 123.71 36.17 123.42 36.09C123.12 36.01 122.89 35.83 122.73 35.54L121.29 33.02C121.12 33.14 121 33.29 120.94 33.48C120.88 33.67 120.86 33.87 120.89 34.09C120.92 34.3 120.99 34.51 121.1 34.71C121.2 34.88 121.29 35.02 121.38 35.14C121.48 35.26 121.56 35.35 121.65 35.43C121.73 35.5 121.81 35.57 121.89 35.63C121.96 35.68 122.03 35.74 122.08 35.79C122.14 35.83 122.19 35.88 122.23 35.94C122.29 36.04 122.32 36.15 122.3 36.28C122.29 36.41 122.23 36.54 122.14 36.69C122.09 36.78 122.03 36.86 121.97 36.92C121.91 36.98 121.84 37.03 121.77 37.06C121.6 37.16 121.4 37.16 121.17 37.06C120.94 36.97 120.69 36.79 120.44 36.52C120.18 36.25 119.92 35.89 119.67 35.44ZM122.16 32.52L123.11 34.19C123.18 34.31 123.25 34.38 123.32 34.41C123.38 34.44 123.48 34.42 123.59 34.36C123.72 34.29 123.8 34.19 123.85 34.05C123.91 33.92 123.92 33.77 123.9 33.61C123.88 33.45 123.82 33.29 123.72 33.12C123.6 32.9 123.44 32.73 123.26 32.61C123.08 32.49 122.89 32.42 122.7 32.4C122.5 32.39 122.32 32.43 122.16 32.52Z" fill="#005175" fill-opacity="1.000000" fill-rule="nonzero"/>
			</g>
		</g>
		<g mask="url(#mask1_374)">
			<g style="mix-blend-mode:normal">
				<path id="Tracé 179" d="M112.89 123.06C111.14 123.06 109.62 122.71 108.32 122.02C107.03 121.33 106.02 120.34 105.3 119.06C104.58 117.78 104.22 116.26 104.22 114.5C104.22 112.86 104.56 111.39 105.25 110.08C105.93 108.78 106.89 107.75 108.13 106.99C109.38 106.23 110.84 105.85 112.52 105.85C114.59 105.85 116.21 106.43 117.39 107.59C118.57 108.75 119.37 110.3 119.78 112.22C119.8 112.26 119.8 112.32 119.8 112.4C119.8 112.58 119.76 112.71 119.67 112.8C119.58 112.89 119.46 112.97 119.32 113.03C118.91 113.22 118.48 113.39 118.02 113.53C117.57 113.67 117.13 113.83 116.7 114C115.44 114.46 114.18 114.92 112.91 115.37C111.64 115.82 110.39 116.3 109.14 116.8C109.04 116.85 109 116.91 109 116.98C109 117.01 109.01 117.06 109.03 117.1C109.51 117.96 110.17 118.61 111.01 119.02C111.85 119.44 112.74 119.65 113.7 119.65C114.45 119.65 115.16 119.53 115.81 119.29C116.46 119.05 117.1 118.75 117.74 118.4C117.82 118.35 117.91 118.3 117.99 118.27C118.07 118.23 118.16 118.22 118.24 118.22C118.41 118.22 118.54 118.27 118.63 118.37C118.72 118.47 118.79 118.59 118.85 118.72C118.9 118.8 118.99 118.99 119.13 119.28C119.27 119.58 119.4 119.87 119.52 120.16C119.65 120.46 119.71 120.65 119.71 120.73C119.71 120.86 119.68 120.97 119.6 121.05C119.53 121.14 119.45 121.21 119.35 121.29C118.5 121.87 117.47 122.31 116.26 122.61C115.04 122.91 113.92 123.06 112.89 123.06ZM108.39 114.32C109.59 113.9 110.8 113.48 112.01 113.07C113.22 112.65 114.42 112.23 115.62 111.81C115.32 111.15 114.9 110.58 114.37 110.08C113.84 109.6 113.18 109.35 112.41 109.35C111.5 109.35 110.74 109.6 110.15 110.08C109.55 110.58 109.1 111.2 108.82 111.96C108.53 112.72 108.39 113.51 108.39 114.32Z" fill="#FFFFFF" fill-opacity="1.000000" fill-rule="nonzero"/>
			</g>
		</g>
		<g mask="url(#mask1_374)">
			<g style="mix-blend-mode:normal">
				<path id="Tracé 180" d="M124.52 106.1C124.52 105.07 124.52 104.05 124.5 103.02C124.49 102 124.49 100.98 124.49 99.96C124.49 99.47 124.73 99.23 125.22 99.23L128.04 99.23C128.53 99.23 128.78 99.47 128.78 99.96C128.78 100.98 128.77 102 128.77 103.02C128.76 104.05 128.76 105.07 128.76 106.1C128.76 106.24 128.84 106.32 128.99 106.32L131.81 106.32C132.3 106.32 132.54 106.56 132.54 107.05C132.54 107.42 132.54 107.8 132.53 108.17C132.53 108.55 132.53 108.93 132.53 109.31C132.53 109.8 132.28 110.05 131.79 110.05L128.99 110.05C128.84 110.05 128.76 110.12 128.76 110.26C128.76 112.2 128.76 114.14 128.78 116.08C128.79 118.02 128.79 119.96 128.79 121.89C128.79 122.39 128.55 122.63 128.06 122.63L125.2 122.63C124.71 122.63 124.47 122.39 124.47 121.89C124.47 119.96 124.48 118.02 124.49 116.08C124.51 114.14 124.52 112.2 124.52 110.26C124.52 110.08 124.4 110 124.14 110C123.89 110.01 123.61 110.03 123.28 110.07C122.96 110.1 122.67 110.08 122.42 110C122.17 109.91 122.05 109.68 122.05 109.31L122.05 107.05C122.05 106.56 122.29 106.32 122.78 106.32L124.29 106.32C124.44 106.32 124.52 106.24 124.52 106.1Z" fill="#FFFFFF" fill-opacity="1.000000" fill-rule="nonzero"/>
			</g>
		</g>
		<g mask="url(#mask1_374)">
			<g style="mix-blend-mode:normal">
				<path id="Tracé 181" d="M168.16 134.48C168.2 134.36 168.22 134.08 168.08 133.03C167.97 132.27 167.85 131.49 167.72 130.71C167.58 129.92 167.48 129.4 167.42 129.18C167.37 128.93 167.29 128.69 167.2 128.46C167.09 128.18 166.87 127.99 166.54 127.89C166.32 127.83 166.1 127.82 165.9 127.87C165.72 127.91 165.54 127.96 165.35 128.01C164.07 128.38 162.81 128.58 161.61 128.61C160.41 128.64 159.14 128.46 157.84 128.08C155.29 127.32 153.33 126.07 152.01 124.36C150.69 122.63 149.9 120.62 149.67 118.37C149.44 116.11 149.67 113.77 150.37 111.41C150.82 109.85 151.53 108.34 152.47 106.92C153.42 105.5 154.56 104.27 155.87 103.27C157.18 102.27 158.64 101.57 160.21 101.2C161.78 100.84 163.44 100.9 165.16 101.41C166.43 101.78 167.57 102.33 168.53 103.05C169.5 103.77 170.43 104.63 171.3 105.62C171.43 105.74 171.55 105.86 171.66 105.98C171.8 106.13 171.98 106.24 172.18 106.3C172.51 106.4 172.8 106.35 173.05 106.15C173.26 105.99 173.45 105.82 173.6 105.65C173.72 105.52 173.96 105.25 174.32 104.84C174.68 104.43 175.06 103.98 175.48 103.47C175.89 102.96 176.26 102.51 176.57 102.11C177.01 101.55 177.09 101.39 177.12 101.3C177.23 100.91 177.11 100.51 176.76 100.1C175.59 98.73 174.08 97.5 172.27 96.44C170.45 95.4 168.66 94.61 166.94 94.1C164.01 93.25 161.22 93.02 158.63 93.42C156.05 93.83 153.66 94.76 151.55 96.19C149.44 97.63 147.59 99.48 146.07 101.7C144.54 103.91 143.36 106.43 142.55 109.17C141.42 113 141.17 116.72 141.79 120.24C142.42 123.77 143.92 126.89 146.24 129.54C148.57 132.18 151.77 134.12 155.75 135.29C157.45 135.78 159.4 136.07 161.55 136.14C161.77 136.15 161.98 136.15 162.19 136.15C164.1 136.15 165.83 135.86 167.33 135.29C167.78 135.1 168.06 134.83 168.16 134.48Z" fill="#005175" fill-opacity="1.000000" fill-rule="nonzero"/>
			</g>
		</g>
		<g mask="url(#mask1_374)">
			<g style="mix-blend-mode:normal">
				<path id="Tracé 182" d="M194.32 140.13C193.12 137.52 191.93 134.91 190.76 132.3C189.58 129.68 188.41 127.03 187.28 124.43C186.35 122.25 185.42 120.08 184.49 117.9C183.57 115.73 182.61 113.55 181.64 111.4C181.49 111.1 181.03 111.1 180.87 111.41C179.87 113.55 178.89 115.73 177.96 117.87C177.02 120.04 176.07 122.21 175.11 124.37C173.96 126.97 172.77 129.61 171.57 132.22C170.37 134.82 169.16 137.42 167.94 140.02C167.9 140.12 167.86 140.23 167.82 140.34C167.76 140.47 167.74 140.6 167.74 140.74C167.74 141.09 167.9 141.33 168.21 141.41C168.45 141.48 168.67 141.52 168.88 141.52L172.17 141.53C172.57 141.53 172.9 141.33 173.11 140.94C173.23 140.72 173.35 140.48 173.46 140.22C173.56 139.98 173.66 139.74 173.76 139.53C174.06 138.86 174.38 138.15 174.69 137.41C174.98 136.7 175.3 136 175.63 135.31L185.86 135.31C186.17 135.99 186.52 136.74 186.79 137.46C187.06 138.16 187.36 138.87 187.66 139.56C187.75 139.78 187.85 140.02 187.94 140.26C188.04 140.5 188.14 140.75 188.26 140.98C188.47 141.39 188.8 141.6 189.21 141.61L193.37 141.62C193.57 141.62 193.81 141.59 194.04 141.53C194.35 141.44 194.51 141.2 194.52 140.85C194.52 140.72 194.49 140.59 194.44 140.46C194.4 140.34 194.36 140.24 194.32 140.13ZM183.97 130.61L177.7 130.58C178.26 129.31 178.81 128.03 179.36 126.76C179.89 125.54 180.41 124.32 180.93 123.1C181.43 124.32 181.93 125.55 182.43 126.77C182.95 128.05 183.46 129.33 183.97 130.61Z" fill="#005175" fill-opacity="1.000000" fill-rule="nonzero"/>
			</g>
		</g>
		<g mask="url(#mask1_374)">
			<g style="mix-blend-mode:normal">
				<path id="Tracé 183" d="M205.51 112.78C204.63 112.15 203.59 111.66 202.42 111.32C203.12 110.57 203.62 109.74 203.9 108.87C204.2 107.93 204.23 106.9 204 105.8C203.75 104.57 203.25 103.6 202.53 102.92C201.82 102.25 200.96 101.78 199.97 101.52C199.01 101.28 197.99 101.18 196.94 101.22C195.9 101.27 194.89 101.39 193.93 101.59L187.42 102.94C187.1 103.01 186.87 103.15 186.74 103.36C186.6 103.58 186.56 103.84 186.63 104.16C186.75 104.75 186.88 105.35 187.03 105.95C187.17 106.55 187.3 107.14 187.44 107.74C187.94 109.98 188.42 112.23 188.89 114.48C189.39 116.9 189.87 119.31 190.34 121.73C190.45 122.33 190.56 122.94 190.66 123.55C190.77 124.16 190.89 124.77 191.01 125.38C191.08 125.69 191.22 125.92 191.42 126.06C191.57 126.16 191.74 126.21 191.94 126.21C192.03 126.21 192.12 126.2 192.22 126.18L199.72 124.63C200.78 124.41 201.83 124.07 202.83 123.64C203.85 123.19 204.76 122.62 205.53 121.93C206.32 121.22 206.91 120.37 207.27 119.38C207.63 118.38 207.68 117.22 207.41 115.93C207.12 114.54 206.48 113.48 205.51 112.78ZM197.31 115.46C197.73 115.37 198.24 115.29 198.82 115.23C199.39 115.18 199.96 115.18 200.51 115.25C201.03 115.31 201.49 115.47 201.87 115.72C202.22 115.96 202.45 116.32 202.55 116.84C202.66 117.34 202.61 117.76 202.41 118.13C202.2 118.51 201.89 118.85 201.49 119.12C201.07 119.41 200.6 119.64 200.12 119.82C199.61 120 199.13 120.14 198.7 120.22L195.12 120.97C194.96 120.16 194.79 119.34 194.62 118.53L194.12 116.12L197.31 115.46ZM199.18 109.17C198.94 109.63 198.6 109.98 198.14 110.27C197.67 110.56 197.15 110.76 196.6 110.88L193.18 111.58L192.68 109.14C192.51 108.33 192.34 107.51 192.16 106.7L195.09 106.1C195.65 105.98 196.26 105.93 196.89 105.93C197.49 105.94 198.03 106.08 198.5 106.34C198.93 106.58 199.21 107.01 199.34 107.65C199.46 108.24 199.41 108.74 199.18 109.17Z" fill="#005175" fill-opacity="1.000000" fill-rule="nonzero"/>
			</g>
		</g>
		<g mask="url(#mask1_374)">
			<g style="mix-blend-mode:normal">
				<path id="Tracé 184" d="M225.38 110.07C223.84 109.25 222.05 108.72 220.06 108.48L212.68 107.63C212 107.54 211.56 107.89 211.48 108.58C211.4 109.25 211.33 109.93 211.28 110.6C211.22 111.27 211.16 111.94 211.09 112.61C210.8 115.47 210.49 118.32 210.17 121.08C209.84 123.97 209.47 126.95 209.08 129.94C208.99 130.64 208.88 131.35 208.78 132.05C208.67 132.75 208.57 133.46 208.49 134.16C208.41 134.84 208.76 135.28 209.44 135.36L212.88 135.76C213.28 135.81 213.56 135.74 213.73 135.56C213.88 135.41 213.99 135.19 214.07 134.89C214.17 134.53 214.24 134.07 214.29 133.52C214.33 132.98 214.37 132.53 214.41 132.16C214.53 131.27 214.64 130.37 214.76 129.47C214.86 128.59 214.97 127.71 215.08 126.81L218.61 127.24C219.09 128.21 219.57 129.17 220.06 130.1C220.55 131.04 221.04 131.98 221.52 132.93C221.83 133.51 222.13 134.11 222.42 134.73C222.71 135.35 223.04 135.96 223.4 136.53C223.6 136.85 223.88 137.04 224.22 137.08L228.18 137.54C228.26 137.55 228.35 137.55 228.45 137.55C228.57 137.55 228.71 137.55 228.85 137.53C229.23 137.5 229.47 137.27 229.51 136.92C229.53 136.73 229.51 136.55 229.44 136.38C229.38 136.24 229.33 136.12 229.27 136L228.6 134.66C228.25 133.96 227.84 133.16 227.37 132.25C226.91 131.35 226.45 130.45 226.01 129.58C225.57 128.7 225.21 127.96 224.92 127.37C224.69 126.89 224.59 126.67 224.55 126.56C226.14 125.81 227.38 124.77 228.22 123.47C229.06 122.17 229.58 120.65 229.78 118.95C230.03 116.82 229.74 115 228.94 113.53C228.13 112.07 226.94 110.91 225.38 110.07ZM224.09 118.46C223.94 119.69 223.45 120.62 222.59 121.29C221.73 121.95 220.67 122.21 219.43 122.06L215.68 121.63L216.16 117.49C216.32 116.11 216.47 114.73 216.62 113.35L220.45 113.8C221.75 113.95 222.73 114.45 223.36 115.29C223.99 116.14 224.23 117.2 224.09 118.46Z" fill="#005175" fill-opacity="1.000000" fill-rule="nonzero"/>
			</g>
		</g>
		<g mask="url(#mask1_374)">
			<g style="mix-blend-mode:normal">
				<path id="Tracé 185" d="M237.08 103.66C237.08 103.1 236.76 102.78 236.2 102.78L233.32 102.78C232.75 102.78 232.44 103.09 232.44 103.66C232.44 105.49 232.44 107.32 232.45 109.15C232.46 110.99 232.46 112.82 232.46 114.65C232.46 116.48 232.46 118.31 232.44 120.14C232.43 121.97 232.42 123.8 232.42 125.63C232.42 126.2 232.74 126.51 233.3 126.51L236.18 126.51C236.46 126.51 236.68 126.44 236.83 126.29C236.98 126.13 237.06 125.91 237.06 125.63C237.06 123.8 237.06 121.97 237.05 120.14C237.04 118.31 237.03 116.48 237.04 114.65C237.04 112.82 237.04 110.99 237.06 109.16C237.07 107.33 237.07 105.49 237.08 103.66Z" fill="#005175" fill-opacity="1.000000" fill-rule="nonzero"/>
			</g>
		</g>
		<g mask="url(#mask1_374)">
			<g style="mix-blend-mode:normal">
				<path id="Tracé 186" d="M261.52 110.05C260.37 108.96 259.02 108.1 257.51 107.5C255.99 106.91 254.32 106.65 252.54 106.72C250.76 106.8 249.12 107.21 247.66 107.94C246.21 108.66 244.95 109.63 243.92 110.81C242.9 112 242.11 113.34 241.58 114.81C241.05 116.28 240.82 117.83 240.89 119.41C240.96 121 241.33 122.53 241.98 123.95C242.63 125.37 243.53 126.64 244.65 127.71C245.78 128.79 247.11 129.63 248.63 130.21C249.95 130.72 251.42 130.98 252.98 130.98C253.19 130.98 253.41 130.97 253.62 130.96C255.39 130.88 257.03 130.48 258.49 129.76C259.94 129.04 261.21 128.08 262.26 126.91C263.31 125.74 264.11 124.4 264.65 122.94C265.19 121.47 265.43 119.93 265.36 118.36C265.29 116.78 264.91 115.26 264.24 113.84C263.57 112.42 262.66 111.14 261.52 110.05ZM253.14 111.2C254.46 111.2 255.62 111.52 256.6 112.16C257.68 112.86 258.53 113.8 259.14 114.93C259.74 116.07 260.08 117.28 260.14 118.54C260.19 119.77 259.97 121 259.49 122.18C259 123.37 258.26 124.37 257.27 125.15C256.29 125.94 255.05 126.37 253.58 126.43C252.11 126.51 250.8 126.19 249.71 125.5C248.6 124.81 247.72 123.88 247.08 122.74C246.45 121.6 246.09 120.38 246.04 119.12C245.98 117.88 246.22 116.65 246.73 115.46C247.25 114.28 248.02 113.28 249.04 112.49C250.06 111.71 251.31 111.28 252.76 111.21C252.88 111.21 253.01 111.2 253.14 111.2Z" fill="#005175" fill-opacity="1.000000" fill-rule="nonzero"/>
			</g>
		</g>
		<g mask="url(#mask1_374)">
			<g style="mix-blend-mode:normal">
				<path id="Tracé 187" d="M283.07 132.93L272.27 130.94C272.21 130.93 272.17 130.91 272.15 130.87C272.12 130.84 272.12 130.79 272.13 130.72C272.42 129.15 272.66 127.86 272.89 126.64C273.15 125.28 273.4 123.93 273.65 122.59C274.11 120.1 274.56 117.6 275 115.15C275.43 112.67 275.89 110.17 276.34 107.71C276.45 107.11 276.21 106.74 275.64 106.63L272.27 106.01C271.99 105.96 271.75 106 271.58 106.13C271.4 106.26 271.29 106.48 271.23 106.79C270.82 109 270.43 111.24 270.06 113.43C269.69 115.67 269.3 117.91 268.89 120.1C268.31 123.27 267.69 126.48 267.07 129.61C266.92 130.37 266.76 131.13 266.6 131.88C266.44 132.64 266.29 133.4 266.15 134.15C266.1 134.45 266.13 134.7 266.24 134.88C266.36 135.07 266.57 135.19 266.85 135.24L282.18 138.08C282.27 138.09 282.35 138.1 282.43 138.1C282.61 138.1 282.76 138.06 282.89 137.97C283.07 137.84 283.18 137.61 283.22 137.3L283.77 133.99C283.87 133.4 283.62 133.03 283.07 132.93Z" fill="#005175" fill-opacity="1.000000" fill-rule="nonzero"/>
			</g>
		</g>
		<g mask="url(#mask1_374)">
			<g style="mix-blend-mode:normal">
				<path id="Tracé 188" d="M295.91 125.81C295.86 125.46 295.8 125.12 295.73 124.77C295.63 124.33 295.31 124.12 294.85 124.19L286.47 125.38C286.37 124.67 286.27 123.97 286.17 123.27C286.08 122.57 285.98 121.87 285.88 121.17L292.85 120.18C293.34 120.11 293.58 119.8 293.52 119.34L293.26 117.56C293.23 117.33 293.14 117.15 292.98 117.05C292.83 116.94 292.63 116.91 292.39 116.94L285.42 117.93C285.32 117.25 285.22 116.56 285.12 115.88C285.02 115.2 284.92 114.51 284.82 113.82L292.86 112.68C293.33 112.61 293.57 112.32 293.54 111.86C293.51 111.52 293.47 111.17 293.42 110.81L293.27 109.78C293.21 109.31 292.88 109.08 292.39 109.15L281.08 110.76C280.83 110.8 280.64 110.89 280.53 111.05C280.42 111.2 280.38 111.38 280.41 111.61C280.61 113 280.82 114.39 281.05 115.76C281.27 117.15 281.49 118.55 281.68 119.91C281.96 121.9 282.24 123.91 282.49 125.88C282.54 126.35 282.6 126.83 282.65 127.3C282.71 127.78 282.77 128.25 282.84 128.73C282.87 128.97 282.97 129.14 283.12 129.25C283.24 129.33 283.38 129.38 283.55 129.38C283.6 129.38 283.66 129.37 283.72 129.36L295.4 127.7C295.89 127.63 296.13 127.32 296.07 126.85C296.02 126.51 295.97 126.16 295.91 125.81Z" fill="#005175" fill-opacity="1.000000" fill-rule="nonzero"/>
			</g>
		</g>
		<g mask="url(#mask1_374)">
			<g style="mix-blend-mode:normal">
				<path id="Tracé 189" d="M92.45 63.29L100.68 61.56C103.21 61.03 105.66 60.15 107.96 58.94C110.27 57.72 112.22 56.11 113.77 54.13C115.32 52.14 116.25 49.71 116.53 46.91C116.61 46.09 116.63 45.25 116.59 44.4C116.54 43.56 116.44 42.73 116.27 41.94C115.68 39.12 114.6 36.83 113.05 35.12C111.5 33.42 109.61 32.17 107.44 31.4C105.27 30.64 102.93 30.24 100.48 30.21C98.03 30.18 95.57 30.42 93.16 30.93L78.54 34C78.05 34.1 77.69 34.31 77.49 34.63C77.29 34.95 77.24 35.37 77.34 35.88C77.58 37.02 77.85 38.19 78.13 39.35C78.4 40.52 78.68 41.67 78.94 42.82C79.97 47.42 80.99 52.11 81.97 56.76C83.01 61.73 84.03 66.76 85 71.69C85.23 72.86 85.44 74.05 85.65 75.24C85.85 76.41 86.08 77.6 86.32 78.79C86.43 79.29 86.64 79.66 86.96 79.87C87.17 80.01 87.42 80.08 87.72 80.08C87.86 80.08 88.02 80.06 88.18 80.03L93.81 78.84C94.31 78.74 94.66 78.53 94.87 78.23C95.07 77.92 95.13 77.52 95.03 77.03L92.29 63.53C92.28 63.48 92.27 63.41 92.3 63.37C92.33 63.33 92.39 63.3 92.45 63.29ZM100.24 38.59C101.58 38.67 102.85 38.98 104.04 39.51C105.21 40.03 106.18 40.85 106.91 41.94C107.08 42.21 107.26 42.55 107.45 42.94C107.64 43.33 107.77 43.67 107.83 43.95C107.9 44.28 107.92 44.66 107.9 45.07C107.88 45.5 107.84 45.89 107.78 46.23C107.55 47.53 106.97 48.67 106.05 49.61C105.12 50.57 104.02 51.37 102.78 51.97C101.54 52.58 100.29 53.02 99.05 53.28L90.55 55.06C90.04 52.67 89.54 50.28 89.02 47.89C88.51 45.49 87.99 43.1 87.47 40.72L96.39 38.84C97.6 38.59 98.9 38.5 100.24 38.59Z" fill="#3C9851" fill-opacity="1.000000" fill-rule="nonzero"/>
			</g>
		</g>
		<g mask="url(#mask1_374)">
			<g style="mix-blend-mode:normal">
				<path id="Tracé 190" d="M116.03 61.63L112.69 61.13C111.88 61.01 111.3 61.44 111.18 62.25C110.86 64.38 110.56 66.51 110.26 68.64C109.95 70.77 109.65 72.9 109.33 75.03C109.02 77.15 108.7 79.28 108.37 81.4C108.04 83.53 107.72 85.66 107.41 87.79C107.35 88.19 107.42 88.53 107.61 88.8C107.81 89.07 108.12 89.23 108.53 89.29L111.87 89.79C111.97 89.8 112.06 89.81 112.14 89.81C112.43 89.81 112.68 89.73 112.89 89.58C113.15 89.38 113.32 89.08 113.38 88.67C113.69 86.54 114 84.41 114.3 82.28C114.6 80.15 114.91 78.02 115.23 75.9C115.54 73.77 115.86 71.64 116.19 69.52C116.52 67.39 116.84 65.26 117.15 63.14C117.27 62.33 116.84 61.75 116.03 61.63Z" fill="#3C9851" fill-opacity="1.000000" fill-rule="nonzero"/>
			</g>
		</g>
		<g mask="url(#mask1_374)">
			<g style="mix-blend-mode:normal">
				<path id="Tracé 191" d="M149.57 88.7C149.4 88.44 149 87.86 148.38 86.96C147.76 86.05 147.04 85.01 146.22 83.83C145.39 82.66 144.59 81.5 143.81 80.36C143.02 79.22 142.37 78.26 141.85 77.48C141.34 76.7 141.07 76.27 141.07 76.19C141.05 76.06 141.1 75.96 141.22 75.89C142.93 74.39 144.11 72.61 144.77 70.55C145.42 68.49 145.64 66.22 145.41 63.76C145.13 60.69 144.32 58.24 142.97 56.41C141.61 54.58 139.89 53.29 137.81 52.55C135.72 51.81 133.44 51.55 130.97 51.77L121.68 52.62C121 52.68 120.69 53.11 120.77 53.91C120.86 54.91 120.96 55.89 121.07 56.87C121.19 57.85 121.3 58.84 121.4 59.83C121.83 64 122.24 68.16 122.61 72.3C123.01 76.67 123.38 81.03 123.73 85.39C123.81 86.44 123.88 87.49 123.94 88.53C124 89.57 124.08 90.61 124.17 91.64C124.24 92.44 124.62 92.81 125.31 92.75L129.64 92.36C130.02 92.32 130.27 92.2 130.38 92C130.48 91.8 130.54 91.5 130.56 91.12C130.58 90.6 130.54 89.94 130.44 89.15C130.35 88.36 130.27 87.69 130.22 87.14C130.12 85.82 130.01 84.5 129.9 83.17C129.79 81.84 129.67 80.52 129.55 79.2C129.53 78.97 129.62 78.85 129.82 78.83L134.3 78.42C134.42 78.41 134.52 78.47 134.6 78.6C135.43 79.85 136.29 81.09 137.15 82.31C138.02 83.53 138.88 84.75 139.74 85.98C140.28 86.74 140.81 87.53 141.34 88.33C141.87 89.14 142.42 89.9 143.01 90.62C143.28 90.94 143.57 91.09 143.91 91.06L148.89 90.6C149.09 90.59 149.34 90.53 149.64 90.42C149.95 90.32 150.08 90.09 150.05 89.75C150.03 89.54 149.97 89.35 149.87 89.17C149.77 89 149.67 88.84 149.57 88.7ZM137.82 69.39C136.89 70.67 135.61 71.38 133.95 71.53L128.9 71.99C128.7 69.83 128.5 67.67 128.31 65.51C128.11 63.34 127.9 61.18 127.69 59.03L132.85 58.56C134.59 58.4 135.99 58.88 137.07 59.99C138.14 61.11 138.77 62.65 138.95 64.61C139.13 66.52 138.75 68.11 137.82 69.39Z" fill="#3C9851" fill-opacity="1.000000" fill-rule="nonzero"/>
			</g>
		</g>
		<g mask="url(#mask1_374)">
			<g style="mix-blend-mode:normal">
				<path id="Tracé 192" d="M169.23 60.32C168.15 59.16 166.87 58.23 165.41 57.56C163.94 56.89 162.32 56.54 160.57 56.54C158.82 56.54 157.19 56.88 155.73 57.55C154.28 58.22 153 59.14 151.94 60.3C150.89 61.44 150.06 62.77 149.48 64.23C148.9 65.69 148.6 67.24 148.6 68.83C148.6 70.45 148.89 72.01 149.47 73.47C150.04 74.93 150.87 76.25 151.92 77.39C152.97 78.53 154.25 79.44 155.7 80.09C157.16 80.75 158.8 81.09 160.57 81.09C162.3 81.09 163.93 80.75 165.39 80.09C166.85 79.43 168.14 78.51 169.21 77.37C170.29 76.24 171.13 74.92 171.72 73.47C172.32 72.02 172.62 70.48 172.62 68.88C172.62 67.29 172.32 65.73 171.73 64.27C171.14 62.8 170.29 61.47 169.23 60.32ZM160.72 76.08C159.37 76.08 158.19 75.72 157.22 75.03C156.22 74.33 155.45 73.4 154.91 72.29C154.36 71.17 154.09 69.99 154.09 68.78C154.09 67.59 154.36 66.42 154.88 65.3C155.41 64.2 156.17 63.28 157.14 62.57C158.1 61.87 159.26 61.52 160.59 61.52C161.95 61.52 163.12 61.88 164.06 62.58C165.02 63.29 165.77 64.22 166.28 65.32C166.8 66.44 167.06 67.62 167.06 68.83C167.06 70.01 166.81 71.18 166.31 72.3C165.81 73.4 165.08 74.32 164.14 75.03C163.22 75.72 162.07 76.08 160.72 76.08Z" fill="#3C9851" fill-opacity="1.000000" fill-rule="nonzero"/>
			</g>
		</g>
		<g mask="url(#mask1_374)">
			<g style="mix-blend-mode:normal">
				<path id="Tracé 193" d="M195.91 61.72L193.05 61.72C192.57 61.72 192.33 61.93 192.21 62.1C192.07 62.29 191.99 62.56 191.96 62.93L191.92 66.92C191.91 68.33 191.9 69.75 191.9 71.16C191.89 72.57 191.89 73.99 191.89 75.4C191.89 76.21 191.89 77.03 191.9 77.83C191.9 78.64 191.91 79.44 191.91 80.24C191.91 82 191.43 83.35 190.5 84.26C189.55 85.18 188.42 85.64 187.04 85.64C186.16 85.64 185.34 85.42 184.59 85C183.84 84.59 183.23 83.97 182.78 83.18C182.33 82.38 182.1 81.39 182.1 80.24C182.1 79.44 182.1 78.64 182.1 77.83C182.11 77.03 182.11 76.21 182.11 75.4C182.11 73.99 182.11 72.57 182.1 71.16C182.1 69.75 182.09 68.33 182.08 66.92L182.04 62.9C182.02 62.55 181.93 62.29 181.8 62.09C181.68 61.93 181.43 61.72 180.96 61.72L178.03 61.72C177.35 61.72 176.94 62.19 176.94 62.97C176.94 63.72 176.95 64.47 176.97 65.22C177 65.95 177.01 66.69 177.03 67.42C177.06 70.23 177.08 73.03 177.08 75.83C177.08 76.57 177.07 77.32 177.07 78.08C177.06 78.84 177.06 79.61 177.06 80.37C177.06 82.6 177.51 84.56 178.39 86.2C179.28 87.84 180.49 89.13 181.98 90.02C183.48 90.92 185.15 91.37 186.95 91.37C188.76 91.37 190.44 90.92 191.93 90.02C193.42 89.13 194.62 87.84 195.52 86.2C196.41 84.56 196.86 82.6 196.88 80.37C196.88 79.61 196.87 78.84 196.87 78.08C196.86 77.32 196.86 76.57 196.86 75.83C196.86 73.03 196.88 70.23 196.91 67.43C196.93 66.69 196.95 65.95 196.97 65.21C196.99 64.47 197 63.72 197 62.97C197 62.19 196.59 61.72 195.91 61.72Z" fill="#3C9851" fill-opacity="1.000000" fill-rule="nonzero"/>
			</g>
		</g>
		<g mask="url(#mask1_374)">
			<g style="mix-blend-mode:normal">
				<path id="Tracé 194" d="M223.31 60.49L205.7 58.93C205.1 58.88 204.77 59.16 204.71 59.78C204.5 62.14 204.32 64.5 204.15 66.86C203.99 69.22 203.8 71.59 203.59 73.97C203.29 77.35 202.97 80.73 202.62 84.13C202.54 84.94 202.45 85.74 202.35 86.55C202.26 87.35 202.18 88.16 202.1 88.97C202.05 89.59 202.32 89.93 202.93 89.98L221.11 91.59C221.71 91.64 222.04 91.36 222.1 90.74C222.15 90.16 222.2 89.58 222.24 88.98C222.29 88.38 222.32 87.79 222.34 87.21C222.35 86.62 222.07 86.3 221.51 86.25L208.42 85.09C208.24 85.07 208.16 84.97 208.18 84.8C208.29 83.57 208.4 82.35 208.52 81.13C208.63 79.92 208.74 78.7 208.85 77.49C208.87 77.31 208.96 77.23 209.14 77.25L220.02 78.21C220.62 78.27 220.95 77.99 221.01 77.38L221.28 74.35C221.33 73.74 221.05 73.41 220.45 73.36L209.57 72.4C209.39 72.38 209.31 72.28 209.33 72.11C209.43 70.91 209.53 69.72 209.63 68.53C209.73 67.34 209.83 66.15 209.94 64.95C209.95 64.77 210.05 64.69 210.23 64.71L222.79 65.82C223.35 65.87 223.68 65.6 223.77 65.02C223.85 64.44 223.92 63.86 223.97 63.26C224.03 62.66 224.08 62.08 224.13 61.5C224.18 60.88 223.91 60.54 223.31 60.49Z" fill="#3C9851" fill-opacity="1.000000" fill-rule="nonzero"/>
			</g>
		</g>
		<g mask="url(#mask1_374)">
			<g style="mix-blend-mode:normal">
				<path id="Tracé 195" d="M242 51.26C242.05 50.56 242.07 49.84 242.06 49.11C242.05 48.38 242.05 47.66 242.05 46.95C242.05 46.19 241.71 45.81 241.04 45.81L220.15 45.81C219.47 45.81 219.14 46.19 219.14 46.95C219.14 47.66 219.13 48.38 219.12 49.11C219.12 49.84 219.14 50.56 219.19 51.26C219.23 51.99 219.57 52.35 220.2 52.35L227.02 52.35C227.23 52.35 227.34 52.46 227.34 52.67L227.37 63.65C227.37 66.81 227.35 69.99 227.33 73.17C227.3 76.35 227.29 79.53 227.29 82.71C227.29 83.45 227.63 83.82 228.3 83.82L232.56 83.82C233.24 83.82 233.57 83.45 233.57 82.71C233.57 79.62 233.57 76.53 233.55 73.43C233.53 70.33 233.53 67.23 233.53 64.14C233.53 62.23 233.53 60.31 233.54 58.41C233.54 56.5 233.55 54.59 233.55 52.67C233.55 52.46 233.65 52.35 233.85 52.35L240.99 52.35C241.61 52.35 241.95 51.99 242 51.26Z" fill="#3C9851" fill-opacity="1.000000" fill-rule="nonzero"/>
			</g>
		</g>
		<g mask="url(#mask1_374)">
			<g style="mix-blend-mode:normal">
				<path id="Tracé 196" d="M257.78 62.79C257.89 62.11 257.97 61.43 258.03 60.72C258.08 60.02 258.14 59.33 258.2 58.65C258.27 57.92 257.99 57.53 257.37 57.48L238.13 55.75C237.51 55.69 237.16 56.03 237.1 56.76C237.04 57.44 236.97 58.12 236.9 58.83C236.83 59.53 236.79 60.22 236.77 60.9C236.75 61.6 237.03 61.97 237.61 62.02L243.9 62.59C244.09 62.61 244.18 62.72 244.16 62.93L243.24 73.46C242.97 76.5 242.68 79.54 242.39 82.59C242.09 85.64 241.8 88.69 241.53 91.75C241.47 92.46 241.74 92.84 242.36 92.9L246.29 93.25C246.91 93.3 247.25 92.98 247.32 92.27C247.58 89.3 247.84 86.33 248.09 83.35C248.34 80.38 248.6 77.41 248.87 74.44C249.03 72.6 249.2 70.77 249.37 68.94C249.55 67.11 249.72 65.28 249.88 63.44C249.9 63.23 250 63.13 250.18 63.15L256.76 63.74C257.34 63.79 257.68 63.47 257.78 62.79Z" fill="#3C9851" fill-opacity="1.000000" fill-rule="nonzero"/>
			</g>
		</g>
		<g mask="url(#mask1_374)">
			<g style="mix-blend-mode:normal">
				<path id="Tracé 197" d="M276.07 90.64C275.99 90.13 275.9 89.62 275.81 89.12C275.7 88.61 275.39 88.39 274.88 88.46L262.93 90.07C262.77 90.09 262.68 90.03 262.66 89.87C262.51 88.81 262.38 87.75 262.24 86.69C262.1 85.63 261.97 84.57 261.82 83.52C261.8 83.37 261.87 83.28 262.04 83.26L271.97 81.92C272.52 81.85 272.76 81.55 272.69 81.03L272.33 78.39C272.26 77.87 271.95 77.64 271.4 77.71L261.47 79.05C261.31 79.07 261.22 79 261.2 78.85C261.06 77.81 260.91 76.78 260.77 75.75C260.62 74.72 260.48 73.68 260.34 72.64C260.32 72.49 260.39 72.4 260.55 72.38L272.02 70.84C272.53 70.77 272.77 70.47 272.74 69.96C272.7 69.45 272.65 68.94 272.57 68.42C272.51 67.9 272.44 67.39 272.37 66.89C272.3 66.36 271.99 66.12 271.43 66.2L255.37 68.36C254.82 68.43 254.58 68.74 254.65 69.28C254.92 71.33 255.22 73.37 255.54 75.41C255.85 77.45 256.15 79.5 256.42 81.57C256.82 84.5 257.19 87.45 257.55 90.4C257.63 91.11 257.71 91.81 257.78 92.51C257.86 93.22 257.94 93.92 258.04 94.62C258.11 95.16 258.42 95.39 258.97 95.32L275.56 93.09C276.11 93.02 276.35 92.71 276.28 92.17C276.21 91.67 276.14 91.16 276.07 90.64Z" fill="#3C9851" fill-opacity="1.000000" fill-rule="nonzero"/>
			</g>
		</g>
		<g mask="url(#mask1_374)">
			<g style="mix-blend-mode:normal">
				<path id="Tracé 198" d="M294.55 179.96L142.74 180.88L147.1 147L293.27 152.07L294.55 179.96Z" fill="#BD2C32" fill-opacity="1.000000" fill-rule="nonzero"/>
			</g>
		</g>
		<g mask="url(#mask1_374)">
			<g style="mix-blend-mode:normal">
				<path id="Tracé 199" d="M158.91 161.79C158.63 161.78 158.43 161.74 158.31 161.65C158.19 161.57 158.12 161.46 158.09 161.32C158.06 161.18 158.05 161.04 158.05 160.89L158.11 154.63C158.11 154.49 158.13 154.35 158.16 154.21C158.19 154.08 158.27 153.97 158.39 153.89C158.52 153.81 158.72 153.76 159 153.77L161.36 153.79C161.68 153.79 162 153.86 162.32 153.97C162.65 154.09 162.95 154.27 163.23 154.52C163.5 154.76 163.72 155.06 163.89 155.41C164.06 155.77 164.14 156.18 164.14 156.65C164.13 157.12 164.04 157.53 163.87 157.88C163.69 158.23 163.46 158.52 163.18 158.75C162.9 158.98 162.6 159.15 162.27 159.27C161.93 159.38 161.61 159.44 161.29 159.44L159.82 159.42L159.8 160.92C159.8 161.07 159.79 161.21 159.75 161.34C159.72 161.48 159.64 161.58 159.52 161.67C159.4 161.75 159.2 161.79 158.91 161.79ZM159.84 157.68L161.32 157.69C161.49 157.69 161.65 157.66 161.82 157.59C161.98 157.52 162.12 157.4 162.23 157.24C162.35 157.08 162.4 156.88 162.41 156.62C162.41 156.41 162.36 156.22 162.28 156.06C162.18 155.9 162.06 155.77 161.89 155.68C161.73 155.58 161.54 155.54 161.33 155.53L159.86 155.52L159.84 157.68Z" fill="#FFFFFF" fill-opacity="1.000000" fill-rule="nonzero"/>
			</g>
		</g>
		<g mask="url(#mask1_374)">
			<g style="mix-blend-mode:normal">
				<path id="Tracé 200" d="M165.69 161.86C165.41 161.85 165.21 161.81 165.09 161.73C164.97 161.65 164.9 161.54 164.88 161.4C164.85 161.26 164.84 161.12 164.84 160.98L164.88 156.97C164.88 156.82 164.9 156.67 164.93 156.55C164.96 156.42 165.04 156.31 165.16 156.23C165.28 156.15 165.48 156.12 165.76 156.12C166.03 156.12 166.22 156.16 166.34 156.23C166.46 156.31 166.53 156.39 166.56 156.49C166.59 156.58 166.61 156.67 166.61 156.74L166.47 156.8C166.48 156.77 166.54 156.82 166.61 156.74C166.67 156.66 166.75 156.47 166.86 156.39C166.98 156.3 167.12 156.23 167.28 156.17C167.45 156.11 167.64 156.08 167.85 156.08C167.93 156.08 168.03 156.09 168.13 156.1C168.23 156.12 168.34 156.14 168.45 156.17C168.56 156.21 168.66 156.26 168.75 156.32C168.85 156.37 168.92 156.45 168.98 156.53C169.03 156.61 169.06 156.72 169.06 156.84C169.06 157.15 168.98 157.42 168.83 157.64C168.69 157.85 168.5 157.96 168.28 157.96C168.15 157.96 168.06 157.94 168 157.92C167.95 157.9 167.91 157.87 167.87 157.85C167.84 157.83 167.8 157.81 167.75 157.78C167.71 157.77 167.62 157.75 167.5 157.75C167.39 157.75 167.28 157.77 167.17 157.8C167.07 157.83 166.97 157.87 166.89 157.94C166.8 158 166.73 158.08 166.68 158.18C166.63 158.27 166.6 158.38 166.6 158.49L166.57 161.01C166.57 161.16 166.56 161.3 166.53 161.43C166.5 161.57 166.42 161.67 166.3 161.75C166.18 161.82 165.97 161.86 165.69 161.86Z" fill="#FFFFFF" fill-opacity="1.000000" fill-rule="nonzero"/>
			</g>
		</g>
		<g mask="url(#mask1_374)">
			<g style="mix-blend-mode:normal">
				<path id="Tracé 201" d="M172.44 162.02C172.08 162.01 171.72 161.94 171.37 161.79C171.01 161.65 170.69 161.44 170.4 161.18C170.12 160.92 169.89 160.6 169.73 160.24C169.56 159.87 169.48 159.47 169.49 159.03C169.49 158.61 169.57 158.23 169.73 157.88C169.88 157.52 170.1 157.21 170.38 156.93C170.66 156.66 170.97 156.45 171.33 156.3C171.69 156.14 172.07 156.07 172.48 156.07C173.03 156.08 173.53 156.21 173.97 156.48C174.41 156.75 174.77 157.11 175.03 157.57C175.29 158.02 175.42 158.52 175.42 159.07C175.41 159.54 175.32 159.95 175.15 160.32C174.97 160.68 174.74 160.99 174.45 161.24C174.16 161.5 173.84 161.7 173.49 161.83C173.14 161.96 172.79 162.02 172.44 162.02ZM172.43 160.28C172.62 160.28 172.8 160.24 173 160.15C173.19 160.06 173.35 159.92 173.48 159.74C173.61 159.56 173.68 159.33 173.69 159.05C173.69 158.8 173.64 158.59 173.53 158.4C173.43 158.22 173.28 158.07 173.09 157.97C172.91 157.86 172.69 157.81 172.45 157.81C172.22 157.8 172.01 157.85 171.83 157.96C171.65 158.06 171.5 158.21 171.39 158.4C171.28 158.58 171.22 158.79 171.22 159.03C171.22 159.31 171.27 159.54 171.4 159.73C171.53 159.92 171.68 160.06 171.87 160.14C172.06 160.24 172.25 160.28 172.43 160.28Z" fill="#FFFFFF" fill-opacity="1.000000" fill-rule="nonzero"/>
			</g>
		</g>
		<g mask="url(#mask1_374)">
			<g style="mix-blend-mode:normal">
				<path id="Tracé 202" d="M178.48 161.84C178.13 161.83 177.8 161.75 177.5 161.6C177.19 161.45 176.91 161.24 176.68 160.98C176.44 160.72 176.25 160.42 176.12 160.08C175.98 159.74 175.92 159.38 175.92 159.01C175.93 158.63 176 158.28 176.14 157.95C176.28 157.62 176.47 157.33 176.72 157.07C176.96 156.82 177.24 156.62 177.55 156.47C177.86 156.33 178.19 156.26 178.53 156.26C178.87 156.26 179.15 156.33 179.39 156.47C179.63 156.61 179.82 156.8 179.96 157.05C180.11 157.3 180.22 157.59 180.28 157.94C180.35 158.28 180.38 158.66 180.37 159.08C180.37 159.64 180.3 160.13 180.17 160.55C180.05 160.97 179.85 161.28 179.57 161.51C179.29 161.73 178.93 161.84 178.48 161.84ZM178.66 164.35C178.39 164.35 178.12 164.31 177.85 164.24C177.59 164.17 177.34 164.07 177.12 163.96C176.9 163.84 176.73 163.71 176.6 163.58C176.47 163.45 176.41 163.32 176.41 163.19C176.41 163.07 176.43 162.96 176.48 162.85C176.53 162.75 176.6 162.65 176.69 162.55C176.8 162.44 176.89 162.35 176.97 162.29C177.04 162.23 177.14 162.2 177.24 162.2C177.35 162.2 177.45 162.23 177.53 162.29C177.61 162.35 177.7 162.41 177.8 162.48C177.89 162.55 178.01 162.62 178.16 162.67C178.3 162.73 178.49 162.76 178.71 162.77C178.87 162.77 179.01 162.74 179.14 162.69C179.27 162.63 179.39 162.55 179.49 162.44C179.59 162.33 179.67 162.2 179.72 162.05C179.78 161.9 179.81 161.73 179.81 161.55L179.86 156.8C179.88 156.6 179.96 156.46 180.1 156.37C180.23 156.29 180.44 156.24 180.71 156.25C180.99 156.25 181.18 156.29 181.29 156.37C181.4 156.46 181.47 156.56 181.49 156.69C181.52 156.82 181.53 156.96 181.53 157.1L181.48 161.64C181.48 162.07 181.4 162.46 181.23 162.8C181.07 163.14 180.85 163.42 180.58 163.65C180.31 163.88 180.01 164.06 179.68 164.18C179.35 164.3 179.01 164.35 178.66 164.35ZM178.7 160.17C178.9 160.17 179.08 160.13 179.24 160.03C179.4 159.92 179.53 159.79 179.63 159.62C179.73 159.45 179.77 159.26 179.78 159.05C179.78 158.84 179.73 158.64 179.64 158.47C179.55 158.31 179.42 158.17 179.25 158.07C179.09 157.97 178.9 157.92 178.7 157.91C178.49 157.91 178.31 157.96 178.15 158.06C177.98 158.16 177.85 158.29 177.76 158.46C177.66 158.63 177.61 158.82 177.61 159.04C177.61 159.24 177.65 159.43 177.75 159.6C177.85 159.77 177.98 159.91 178.14 160.01C178.31 160.12 178.49 160.17 178.7 160.17Z" fill="#FFFFFF" fill-opacity="1.000000" fill-rule="nonzero"/>
			</g>
		</g>
		<g mask="url(#mask1_374)">
			<g style="mix-blend-mode:normal">
				<path id="Tracé 203" d="M183.29 162.03C183.01 162.03 182.81 161.99 182.69 161.91C182.57 161.83 182.5 161.72 182.48 161.58C182.45 161.44 182.44 161.3 182.44 161.15L182.48 157.15C182.48 157 182.5 156.85 182.53 156.72C182.56 156.6 182.64 156.49 182.76 156.41C182.88 156.33 183.08 156.29 183.36 156.3C183.63 156.3 183.82 156.34 183.94 156.41C184.06 156.49 184.13 156.57 184.16 156.67C184.19 156.76 184.21 156.85 184.21 156.91L184.07 156.98C184.08 156.95 184.14 156.99 184.21 156.91C184.27 156.83 184.35 156.65 184.46 156.57C184.58 156.48 184.72 156.41 184.88 156.35C185.05 156.29 185.24 156.26 185.45 156.26C185.53 156.26 185.63 156.27 185.73 156.28C185.83 156.29 185.94 156.32 186.05 156.35C186.16 156.39 186.26 156.44 186.36 156.49C186.45 156.55 186.52 156.62 186.58 156.71C186.63 156.79 186.66 156.9 186.66 157.02C186.66 157.33 186.58 157.6 186.43 157.81C186.29 158.03 186.1 158.14 185.88 158.14C185.75 158.13 185.66 158.12 185.6 158.1C185.55 158.08 185.51 158.05 185.47 158.03C185.44 158 185.4 157.98 185.35 157.96C185.31 157.95 185.22 157.93 185.1 157.93C184.99 157.93 184.88 157.95 184.77 157.98C184.67 158 184.57 158.05 184.48 158.12C184.4 158.18 184.33 158.26 184.28 158.36C184.23 158.45 184.2 158.56 184.2 158.67L184.17 161.19C184.17 161.34 184.16 161.48 184.13 161.61C184.1 161.75 184.02 161.85 183.9 161.92C183.78 162 183.58 162.04 183.29 162.03Z" fill="#FFFFFF" fill-opacity="1.000000" fill-rule="nonzero"/>
			</g>
		</g>
		<g mask="url(#mask1_374)">
			<g style="mix-blend-mode:normal">
				<path id="Tracé 204" d="M191.97 162.11C191.68 162.11 191.48 162.05 191.34 161.95C191.21 161.85 191.15 161.73 191.15 161.59L191.26 161.39C191.22 161.47 191.13 161.56 191 161.67C190.86 161.78 190.7 161.88 190.49 161.96C190.28 162.05 190.02 162.09 189.72 162.09C189.37 162.08 189.03 162 188.72 161.85C188.4 161.69 188.12 161.48 187.88 161.2C187.64 160.93 187.45 160.62 187.31 160.27C187.17 159.93 187.1 159.56 187.11 159.18C187.11 158.81 187.19 158.45 187.33 158.11C187.48 157.77 187.67 157.47 187.93 157.21C188.18 156.95 188.46 156.74 188.78 156.59C189.09 156.44 189.42 156.37 189.78 156.37C190.06 156.38 190.3 156.42 190.5 156.5C190.7 156.58 190.86 156.68 190.99 156.79C191.13 156.9 191.23 157 191.3 157.1L191.2 156.94C191.2 156.75 191.26 156.62 191.4 156.52C191.53 156.43 191.75 156.38 192.04 156.39C192.31 156.39 192.51 156.43 192.63 156.52C192.74 156.6 192.82 156.71 192.84 156.85C192.87 156.99 192.88 157.14 192.88 157.29L192.84 161.25C192.83 161.39 192.82 161.53 192.79 161.67C192.76 161.81 192.69 161.92 192.57 162C192.45 162.08 192.25 162.11 191.97 162.11ZM189.99 160.38C190.19 160.38 190.37 160.33 190.53 160.23C190.7 160.13 190.83 159.99 190.93 159.82C191.03 159.64 191.08 159.45 191.08 159.23C191.08 159.01 191.03 158.81 190.93 158.64C190.84 158.47 190.7 158.33 190.54 158.22C190.37 158.12 190.19 158.06 189.99 158.06C189.77 158.06 189.57 158.11 189.4 158.22C189.22 158.32 189.08 158.46 188.98 158.64C188.87 158.81 188.82 159.01 188.82 159.23C188.82 159.44 188.86 159.63 188.97 159.8C189.07 159.98 189.21 160.11 189.39 160.22C189.57 160.32 189.77 160.38 189.99 160.38Z" fill="#FFFFFF" fill-opacity="1.000000" fill-rule="nonzero"/>
			</g>
		</g>
		<g mask="url(#mask1_374)">
			<g style="mix-blend-mode:normal">
				<path id="Tracé 205" d="M194.58 162.15C194.31 162.14 194.11 162.1 193.99 162.02C193.87 161.93 193.79 161.82 193.77 161.69C193.75 161.56 193.74 161.42 193.74 161.27L193.78 157.25C193.78 157.1 193.8 156.96 193.83 156.83C193.86 156.71 193.93 156.61 194.05 156.53C194.18 156.45 194.38 156.41 194.66 156.41C194.95 156.41 195.15 156.47 195.28 156.58C195.41 156.7 195.47 156.88 195.47 157.13L195.32 157.26C195.34 157.22 195.39 157.22 195.47 157.13C195.55 157.04 195.64 156.88 195.76 156.78C195.88 156.68 196.03 156.6 196.19 156.52C196.36 156.45 196.54 156.42 196.73 156.42C196.98 156.42 197.21 156.46 197.41 156.54C197.61 156.61 197.79 156.72 197.96 156.86C198.12 157.01 198.26 157.19 198.38 157.4C198.49 157.25 198.62 157.1 198.78 156.96C198.93 156.81 199.11 156.69 199.33 156.6C199.54 156.5 199.77 156.45 200.03 156.45C200.48 156.46 200.85 156.58 201.16 156.8C201.47 157.03 201.7 157.36 201.86 157.78C202.01 158.2 202.09 158.71 202.08 159.31L202.06 161.36C202.06 161.51 202.04 161.65 202.02 161.78C201.99 161.92 201.91 162.02 201.79 162.1C201.67 162.18 201.46 162.22 201.18 162.22C200.9 162.21 200.7 162.17 200.58 162.08C200.46 162 200.39 161.89 200.36 161.75C200.34 161.62 200.33 161.48 200.33 161.33L200.35 159.28C200.35 159.04 200.33 158.84 200.27 158.68C200.22 158.52 200.14 158.4 200.03 158.31C199.92 158.22 199.78 158.17 199.61 158.17C199.44 158.17 199.29 158.21 199.17 158.29C199.04 158.37 198.95 158.49 198.89 158.65C198.82 158.82 198.79 159.02 198.79 159.28L198.77 161.33C198.77 161.48 198.75 161.63 198.71 161.76C198.67 161.89 198.58 162 198.46 162.08C198.33 162.16 198.13 162.19 197.85 162.18C197.58 162.17 197.38 162.12 197.27 162.04C197.15 161.95 197.09 161.84 197.06 161.71C197.04 161.57 197.03 161.44 197.04 161.3L197.06 159.25C197.06 159.01 197.03 158.81 196.98 158.64C196.93 158.48 196.85 158.35 196.74 158.27C196.64 158.18 196.5 158.14 196.32 158.14C196.13 158.14 195.97 158.19 195.85 158.28C195.73 158.38 195.63 158.51 195.58 158.67C195.52 158.84 195.49 159.02 195.48 159.23L195.46 161.3C195.46 161.45 195.45 161.59 195.42 161.72C195.39 161.85 195.31 161.95 195.19 162.03C195.07 162.11 194.86 162.15 194.58 162.15Z" fill="#FFFFFF" fill-opacity="1.000000" fill-rule="nonzero"/>
			</g>
		</g>
		<g mask="url(#mask1_374)">
			<g style="mix-blend-mode:normal">
				<path id="Tracé 206" d="M203.8 162.24C203.52 162.24 203.32 162.19 203.2 162.11C203.08 162.02 203.01 161.92 202.99 161.78C202.96 161.66 202.95 161.51 202.95 161.36L203 157.34C203 157.19 203.01 157.05 203.04 156.93C203.07 156.8 203.14 156.7 203.27 156.62C203.39 156.54 203.59 156.5 203.88 156.5C204.16 156.51 204.37 156.57 204.49 156.68C204.62 156.79 204.69 156.97 204.68 157.22L204.53 157.35C204.55 157.31 204.61 157.32 204.68 157.22C204.76 157.13 204.85 156.97 204.97 156.87C205.1 156.77 205.24 156.69 205.41 156.62C205.57 156.55 205.75 156.51 205.94 156.51C206.19 156.52 206.42 156.56 206.62 156.63C206.83 156.7 207.01 156.81 207.17 156.96C207.33 157.1 207.47 157.28 207.59 157.5C207.7 157.34 207.83 157.2 207.99 157.05C208.14 156.91 208.33 156.79 208.54 156.69C208.75 156.59 208.99 156.54 209.25 156.55C209.69 156.55 210.06 156.67 210.37 156.9C210.68 157.13 210.91 157.45 211.07 157.88C211.22 158.3 211.3 158.81 211.29 159.4L211.27 161.46C211.27 161.6 211.26 161.74 211.23 161.87C211.2 162.01 211.12 162.11 211 162.19C210.88 162.27 210.68 162.31 210.39 162.31C210.11 162.31 209.91 162.26 209.79 162.17C209.67 162.09 209.6 161.98 209.58 161.85C209.55 161.71 209.54 161.57 209.54 161.43L209.56 159.37C209.56 159.14 209.54 158.94 209.49 158.78C209.43 158.62 209.35 158.49 209.24 158.4C209.13 158.31 208.99 158.27 208.83 158.27C208.65 158.26 208.5 158.3 208.38 158.38C208.25 158.46 208.16 158.58 208.1 158.75C208.04 158.91 208 159.12 208 159.37L207.98 161.42C207.98 161.58 207.96 161.72 207.92 161.85C207.88 161.99 207.79 162.09 207.67 162.17C207.54 162.25 207.34 162.28 207.06 162.27C206.79 162.26 206.6 162.22 206.48 162.13C206.37 162.05 206.3 161.94 206.28 161.8C206.26 161.67 206.25 161.53 206.25 161.39L206.27 159.34C206.27 159.1 206.25 158.9 206.19 158.74C206.14 158.57 206.06 158.45 205.96 158.36C205.85 158.28 205.71 158.23 205.53 158.23C205.34 158.23 205.18 158.28 205.06 158.38C204.94 158.47 204.85 158.61 204.79 158.77C204.73 158.93 204.7 159.12 204.7 159.32L204.68 161.39C204.67 161.54 204.66 161.68 204.63 161.81C204.6 161.94 204.53 162.05 204.4 162.13C204.28 162.21 204.08 162.24 203.8 162.24Z" fill="#FFFFFF" fill-opacity="1.000000" fill-rule="nonzero"/>
			</g>
		</g>
		<g mask="url(#mask1_374)">
			<g style="mix-blend-mode:normal">
				<path id="Tracé 207" d="M215.01 162.46C214.48 162.45 214.02 162.36 213.63 162.18C213.25 162 212.94 161.77 212.69 161.48C212.45 161.19 212.27 160.87 212.16 160.51C212.04 160.16 211.99 159.81 211.99 159.46C212 158.88 212.13 158.37 212.4 157.93C212.66 157.49 213.03 157.15 213.49 156.89C213.95 156.64 214.48 156.52 215.07 156.53C215.52 156.53 215.9 156.61 216.23 156.75C216.55 156.9 216.81 157.08 217.02 157.31C217.23 157.54 217.39 157.78 217.49 158.04C217.59 158.3 217.64 158.55 217.63 158.79C217.63 159.21 217.52 159.52 217.32 159.72C217.11 159.92 216.86 160.02 216.54 160.02L213.81 159.99C213.82 160.19 213.89 160.36 214.02 160.5C214.14 160.64 214.3 160.75 214.49 160.82C214.68 160.9 214.88 160.94 215.1 160.94C215.28 160.95 215.44 160.94 215.58 160.92C215.72 160.9 215.84 160.88 215.94 160.84C216.04 160.81 216.13 160.78 216.21 160.74C216.3 160.71 216.37 160.68 216.44 160.66C216.5 160.64 216.57 160.62 216.63 160.62C216.74 160.61 216.85 160.64 216.94 160.72C217.04 160.79 217.12 160.9 217.2 161.05C217.25 161.13 217.29 161.21 217.3 161.29C217.32 161.37 217.33 161.44 217.33 161.52C217.33 161.7 217.23 161.87 217.04 162.01C216.86 162.15 216.59 162.26 216.25 162.34C215.91 162.42 215.5 162.46 215.01 162.46ZM213.82 159.05L215.63 159.07C215.76 159.07 215.85 159.05 215.9 159.01C215.96 158.97 215.99 158.88 215.99 158.76C215.99 158.62 215.95 158.5 215.87 158.4C215.79 158.3 215.68 158.21 215.53 158.16C215.39 158.1 215.23 158.07 215.05 158.06C214.81 158.06 214.6 158.11 214.41 158.2C214.23 158.28 214.09 158.41 213.98 158.56C213.88 158.71 213.82 158.88 213.82 159.05Z" fill="#FFFFFF" fill-opacity="1.000000" fill-rule="nonzero"/>
			</g>
		</g>
		<g mask="url(#mask1_374)">
			<g style="mix-blend-mode:normal">
				<path id="Tracé 208" d="M223.55 162.43C223.21 162.43 222.88 162.35 222.56 162.2C222.25 162.04 221.97 161.83 221.72 161.56C221.48 161.29 221.29 160.98 221.15 160.63C221.02 160.28 220.95 159.91 220.95 159.52C220.96 159.15 221.03 158.79 221.18 158.45C221.32 158.11 221.52 157.81 221.77 157.55C222.02 157.29 222.31 157.09 222.62 156.94C222.94 156.79 223.27 156.71 223.61 156.72C223.98 156.72 224.3 156.8 224.58 156.95C224.85 157.1 225.09 157.31 225.28 157.57C225.46 157.83 225.61 158.14 225.7 158.48C225.79 158.83 225.84 159.19 225.84 159.56C225.84 159.95 225.8 160.32 225.7 160.66C225.6 161 225.45 161.31 225.26 161.57C225.06 161.84 224.83 162.05 224.55 162.2C224.27 162.36 223.93 162.43 223.55 162.43ZM223.8 160.73C224 160.74 224.19 160.69 224.36 160.59C224.52 160.48 224.66 160.35 224.76 160.17C224.87 160 224.92 159.8 224.92 159.59C224.93 159.36 224.88 159.17 224.78 158.99C224.68 158.82 224.55 158.68 224.38 158.58C224.21 158.48 224.02 158.43 223.81 158.43C223.6 158.42 223.41 158.47 223.24 158.57C223.07 158.67 222.93 158.8 222.83 158.97C222.74 159.15 222.69 159.34 222.69 159.56C222.68 159.78 222.73 159.97 222.83 160.15C222.93 160.33 223.06 160.47 223.24 160.57C223.41 160.68 223.6 160.73 223.8 160.73ZM225.79 162.46C225.53 162.46 225.33 162.42 225.2 162.33C225.08 162.25 224.99 162.12 224.96 161.94L225.03 154.99C225.03 154.84 225.04 154.7 225.06 154.57C225.08 154.44 225.15 154.33 225.26 154.24C225.38 154.16 225.58 154.12 225.86 154.12C226.14 154.13 226.34 154.17 226.46 154.25C226.58 154.33 226.65 154.44 226.68 154.57C226.7 154.7 226.72 154.84 226.71 154.99L226.65 161.6C226.65 161.75 226.63 161.89 226.6 162.02C226.57 162.15 226.5 162.26 226.38 162.34C226.26 162.43 226.06 162.47 225.79 162.46Z" fill="#FFFFFF" fill-opacity="1.000000" fill-rule="nonzero"/>
			</g>
		</g>
		<g mask="url(#mask1_374)">
			<g style="mix-blend-mode:normal">
				<path id="Tracé 209" d="M230.42 162.62C229.89 162.61 229.43 162.52 229.04 162.34C228.66 162.16 228.35 161.92 228.1 161.63C227.86 161.34 227.68 161.02 227.57 160.67C227.45 160.32 227.4 159.96 227.4 159.61C227.41 159.04 227.54 158.53 227.81 158.09C228.07 157.65 228.43 157.3 228.9 157.05C229.36 156.8 229.89 156.68 230.48 156.68C230.93 156.69 231.31 156.76 231.63 156.91C231.96 157.05 232.22 157.24 232.43 157.47C232.64 157.69 232.79 157.94 232.89 158.2C232.99 158.46 233.05 158.71 233.04 158.95C233.04 159.37 232.93 159.68 232.73 159.88C232.52 160.08 232.26 160.18 231.95 160.17L229.22 160.15C229.23 160.35 229.3 160.51 229.43 160.65C229.55 160.79 229.71 160.9 229.9 160.98C230.09 161.06 230.29 161.1 230.51 161.1C230.69 161.1 230.85 161.09 230.99 161.08C231.13 161.06 231.25 161.03 231.35 161C231.45 160.97 231.54 160.93 231.62 160.9C231.71 160.87 231.78 160.84 231.85 160.82C231.91 160.79 231.98 160.78 232.04 160.77C232.15 160.77 232.26 160.8 232.35 160.87C232.45 160.95 232.53 161.06 232.61 161.2C232.66 161.29 232.69 161.37 232.71 161.44C232.73 161.52 232.74 161.6 232.74 161.67C232.74 161.86 232.64 162.02 232.45 162.16C232.26 162.31 232 162.42 231.66 162.5C231.32 162.58 230.9 162.62 230.42 162.62ZM229.23 159.21L231.04 159.22C231.17 159.23 231.26 159.21 231.31 159.16C231.37 159.12 231.4 159.04 231.4 158.92C231.4 158.78 231.36 158.66 231.28 158.56C231.2 158.45 231.08 158.37 230.94 158.31C230.8 158.25 230.64 158.22 230.46 158.22C230.22 158.22 230.01 158.26 229.82 158.35C229.64 158.44 229.5 158.56 229.39 158.71C229.28 158.87 229.23 159.03 229.23 159.21Z" fill="#FFFFFF" fill-opacity="1.000000" fill-rule="nonzero"/>
			</g>
		</g>
		<g mask="url(#mask1_374)">
			<g style="mix-blend-mode:normal">
				<path id="Tracé 210" d="M158.63 176.11C158.35 176.11 158.16 176.07 158.04 175.98C157.92 175.9 157.85 175.8 157.82 175.67C157.8 175.55 157.79 175.41 157.79 175.26L157.85 168.85C157.86 168.7 157.87 168.56 157.89 168.43C157.92 168.31 157.99 168.2 158.11 168.12C158.23 168.04 158.42 168 158.7 168C158.94 168 159.13 168.04 159.27 168.11C159.41 168.18 159.51 168.29 159.57 168.43L159.5 175.27C159.5 175.42 159.49 175.55 159.46 175.68C159.43 175.81 159.35 175.92 159.23 176C159.11 176.08 158.91 176.11 158.63 176.11ZM160.87 173.66C160.49 173.65 160.16 173.57 159.88 173.42C159.59 173.27 159.36 173.07 159.17 172.81C158.99 172.55 158.85 172.25 158.76 171.91C158.66 171.58 158.63 171.21 158.64 170.82C158.64 170.45 158.69 170.09 158.8 169.75C158.9 169.41 159.05 169.11 159.24 168.85C159.43 168.59 159.66 168.38 159.94 168.24C160.22 168.09 160.55 168.02 160.93 168.02C161.26 168.03 161.59 168.11 161.9 168.26C162.22 168.42 162.5 168.63 162.74 168.9C162.98 169.16 163.17 169.47 163.31 169.81C163.45 170.16 163.52 170.52 163.51 170.91C163.51 171.29 163.43 171.65 163.29 171.99C163.14 172.33 162.95 172.62 162.7 172.87C162.45 173.12 162.17 173.32 161.86 173.45C161.54 173.59 161.21 173.66 160.87 173.66ZM160.64 172.04C160.86 172.04 161.05 171.99 161.22 171.89C161.39 171.79 161.53 171.65 161.63 171.47C161.74 171.3 161.79 171.1 161.79 170.89C161.79 170.67 161.75 170.47 161.65 170.3C161.55 170.12 161.42 169.99 161.25 169.88C161.08 169.78 160.89 169.73 160.68 169.73C160.47 169.73 160.28 169.78 160.11 169.88C159.94 169.98 159.8 170.12 159.7 170.29C159.61 170.46 159.56 170.65 159.55 170.87C159.55 171.08 159.6 171.28 159.7 171.45C159.79 171.63 159.93 171.77 160.09 171.88C160.26 171.98 160.44 172.03 160.64 172.04Z" fill="#FFFFFF" fill-opacity="1.000000" fill-rule="nonzero"/>
			</g>
		</g>
		<g mask="url(#mask1_374)">
			<g style="mix-blend-mode:normal">
				<path id="Tracé 211" d="M166.26 173.9C166.05 173.9 165.83 173.88 165.59 173.83C165.35 173.78 165.11 173.71 164.88 173.62C164.66 173.53 164.46 173.43 164.31 173.31C164.16 173.19 164.08 173.05 164.05 172.9C164.04 172.82 164.04 172.74 164.06 172.65C164.08 172.56 164.12 172.47 164.17 172.38C164.23 172.28 164.29 172.18 164.37 172.07C164.43 171.99 164.5 171.94 164.58 171.92C164.66 171.89 164.75 171.9 164.84 171.93C164.97 171.95 165.09 171.99 165.22 172.05C165.34 172.11 165.47 172.17 165.59 172.24C165.72 172.31 165.85 172.37 165.99 172.42C166.12 172.47 166.27 172.49 166.41 172.5C166.62 172.5 166.79 172.47 166.91 172.4C167.03 172.34 167.09 172.25 167.09 172.14C167.09 172.05 167.07 171.98 167.02 171.93C166.97 171.87 166.9 171.83 166.81 171.78C166.73 171.74 166.62 171.7 166.51 171.67C166.4 171.64 166.27 171.6 166.14 171.57C166 171.53 165.87 171.5 165.73 171.46C165.54 171.4 165.36 171.33 165.18 171.24C165.01 171.16 164.85 171.05 164.7 170.91C164.56 170.78 164.45 170.61 164.37 170.42C164.28 170.22 164.24 169.98 164.25 169.7C164.25 169.32 164.34 169.01 164.52 168.76C164.7 168.51 164.96 168.32 165.3 168.19C165.63 168.06 166.04 167.99 166.53 168C166.66 168 166.8 168.01 166.94 168.03C167.08 168.04 167.21 168.07 167.34 168.11C167.48 168.15 167.61 168.2 167.74 168.25C167.87 168.31 168 168.37 168.13 168.45C168.36 168.56 168.47 168.71 168.48 168.89C168.48 169.07 168.42 169.26 168.28 169.45C168.19 169.58 168.1 169.67 168.01 169.73C167.92 169.79 167.82 169.8 167.72 169.78C167.6 169.75 167.47 169.7 167.33 169.63C167.19 169.55 167.04 169.49 166.88 169.43C166.73 169.36 166.57 169.33 166.42 169.33C166.29 169.33 166.18 169.34 166.09 169.38C165.99 169.41 165.92 169.46 165.88 169.51C165.83 169.57 165.81 169.64 165.81 169.71C165.81 169.81 165.83 169.89 165.89 169.95C165.95 170.01 166.03 170.06 166.13 170.09C166.22 170.13 166.34 170.17 166.47 170.2C166.6 170.23 166.74 170.27 166.89 170.3C167.1 170.34 167.31 170.39 167.53 170.46C167.74 170.53 167.94 170.62 168.12 170.75C168.3 170.87 168.44 171.04 168.55 171.24C168.66 171.45 168.71 171.72 168.71 172.06C168.7 172.66 168.49 173.12 168.06 173.44C167.64 173.76 167.04 173.91 166.26 173.9Z" fill="#FFFFFF" fill-opacity="1.000000" fill-rule="nonzero"/>
			</g>
		</g>
		<g mask="url(#mask1_374)">
			<g style="mix-blend-mode:normal">
				<path id="Tracé 212" d="M172.08 173.52L169.43 169.38C169.26 169.13 169.19 168.92 169.23 168.75C169.27 168.58 169.42 168.41 169.69 168.24C169.99 168.06 170.22 167.99 170.39 168.03C170.55 168.08 170.71 168.23 170.88 168.49L172.83 171.55L172.08 173.52ZM171.05 176.18C170.74 176.04 170.56 175.88 170.52 175.72C170.47 175.55 170.51 175.32 170.64 175.04L173.59 168.63C173.72 168.34 173.87 168.16 174.02 168.1C174.18 168.05 174.41 168.08 174.73 168.21C175.03 168.36 175.21 168.51 175.26 168.67C175.3 168.83 175.27 169.05 175.14 169.31L172.18 175.77C172.05 176.06 171.91 176.24 171.75 176.3C171.6 176.36 171.37 176.32 171.05 176.18Z" fill="#FFFFFF" fill-opacity="1.000000" fill-rule="nonzero"/>
			</g>
		</g>
		<g mask="url(#mask1_374)">
			<g style="mix-blend-mode:normal">
				<path id="Tracé 213" d="M178.7 173.98C178.36 173.98 178.02 173.91 177.67 173.78C177.32 173.65 177 173.46 176.71 173.21C176.42 172.96 176.19 172.65 176.02 172.29C175.85 171.92 175.76 171.5 175.77 171.03C175.77 170.56 175.86 170.14 176.04 169.78C176.22 169.42 176.46 169.12 176.75 168.88C177.05 168.64 177.37 168.46 177.72 168.34C178.06 168.21 178.4 168.15 178.73 168.16C179.02 168.16 179.27 168.19 179.49 168.26C179.72 168.33 179.91 168.41 180.07 168.5C180.22 168.6 180.33 168.68 180.4 168.75C180.53 168.85 180.64 168.95 180.74 169.05C180.84 169.15 180.89 169.28 180.88 169.44C180.87 169.52 180.84 169.61 180.79 169.7C180.75 169.78 180.69 169.87 180.62 169.97C180.39 170.29 180.16 170.43 179.93 170.39C179.81 170.37 179.71 170.33 179.61 170.28C179.52 170.22 179.43 170.17 179.34 170.11C179.25 170.05 179.16 170 179.06 169.96C178.96 169.92 178.84 169.9 178.72 169.9C178.49 169.9 178.29 169.95 178.12 170.04C177.94 170.14 177.8 170.28 177.69 170.45C177.59 170.63 177.54 170.83 177.53 171.06C177.53 171.28 177.58 171.48 177.68 171.66C177.78 171.83 177.92 171.97 178.09 172.08C178.26 172.19 178.45 172.24 178.67 172.24C178.8 172.24 178.91 172.23 179.01 172.2C179.1 172.17 179.19 172.13 179.25 172.09C179.32 172.05 179.38 172.02 179.42 172C179.51 171.94 179.6 171.88 179.68 171.83C179.77 171.78 179.85 171.76 179.95 171.76C180.05 171.76 180.16 171.8 180.28 171.88C180.39 171.97 180.52 172.1 180.65 172.27C180.77 172.43 180.84 172.58 180.86 172.72C180.88 172.86 180.84 172.99 180.76 173.11C180.67 173.23 180.54 173.35 180.37 173.46C180.3 173.52 180.19 173.58 180.04 173.66C179.88 173.75 179.69 173.82 179.46 173.89C179.23 173.96 178.98 173.99 178.7 173.98Z" fill="#FFFFFF" fill-opacity="1.000000" fill-rule="nonzero"/>
			</g>
		</g>
		<g mask="url(#mask1_374)">
			<g style="mix-blend-mode:normal">
				<path id="Tracé 214" d="M182.47 173.98C182.2 173.97 182 173.93 181.88 173.85C181.76 173.77 181.68 173.66 181.66 173.53C181.63 173.39 181.62 173.25 181.62 173.1L181.69 166.49C181.69 166.33 181.7 166.19 181.74 166.06C181.77 165.93 181.85 165.83 181.97 165.75C182.09 165.67 182.29 165.63 182.57 165.64C182.85 165.64 183.05 165.68 183.17 165.77C183.29 165.85 183.36 165.96 183.38 166.09C183.41 166.22 183.42 166.36 183.42 166.52L183.4 168.86C183.53 168.71 183.71 168.58 183.93 168.45C184.15 168.32 184.41 168.26 184.71 168.26C185.18 168.27 185.61 168.39 185.99 168.64C186.36 168.88 186.66 169.22 186.88 169.64C187.1 170.06 187.21 170.55 187.21 171.09L187.18 173.16C187.18 173.32 187.17 173.46 187.13 173.59C187.1 173.72 187.03 173.82 186.91 173.9C186.8 173.98 186.6 174.02 186.3 174.02C186.04 174.01 185.84 173.97 185.71 173.89C185.59 173.81 185.51 173.7 185.49 173.57C185.46 173.43 185.45 173.29 185.45 173.14L185.47 171.06C185.48 170.84 185.44 170.65 185.36 170.49C185.29 170.33 185.18 170.21 185.03 170.11C184.88 170.02 184.7 169.97 184.49 169.97C184.2 169.97 183.96 170.05 183.74 170.22C183.53 170.39 183.41 170.6 183.38 170.84L183.35 173.12C183.35 173.28 183.33 173.42 183.3 173.55C183.27 173.68 183.19 173.78 183.08 173.86C182.96 173.94 182.75 173.98 182.47 173.98Z" fill="#FFFFFF" fill-opacity="1.000000" fill-rule="nonzero"/>
			</g>
		</g>
		<g mask="url(#mask1_374)">
			<g style="mix-blend-mode:normal">
				<path id="Tracé 215" d="M190.77 174.15C190.41 174.15 190.05 174.07 189.7 173.93C189.34 173.78 189.02 173.58 188.73 173.32C188.45 173.05 188.22 172.74 188.05 172.38C187.89 172.01 187.81 171.61 187.81 171.16C187.82 170.75 187.9 170.37 188.05 170.01C188.21 169.66 188.43 169.34 188.71 169.07C188.99 168.8 189.3 168.59 189.66 168.43C190.02 168.28 190.4 168.21 190.8 168.21C191.35 168.22 191.85 168.35 192.3 168.62C192.74 168.89 193.1 169.25 193.36 169.7C193.62 170.16 193.75 170.66 193.74 171.21C193.74 171.68 193.65 172.09 193.47 172.45C193.3 172.82 193.07 173.12 192.78 173.38C192.49 173.64 192.17 173.83 191.82 173.96C191.47 174.09 191.12 174.16 190.77 174.15ZM190.76 172.42C190.94 172.42 191.13 172.38 191.32 172.29C191.52 172.2 191.68 172.06 191.81 171.88C191.94 171.7 192.01 171.47 192.01 171.18C192.02 170.94 191.96 170.72 191.86 170.54C191.75 170.35 191.61 170.21 191.42 170.1C191.24 170 191.02 169.94 190.78 169.94C190.55 169.94 190.34 169.99 190.16 170.1C189.98 170.2 189.83 170.35 189.72 170.53C189.61 170.72 189.55 170.93 189.55 171.17C189.54 171.44 189.6 171.68 189.73 171.87C189.85 172.05 190.01 172.19 190.2 172.28C190.39 172.37 190.58 172.42 190.76 172.42Z" fill="#FFFFFF" fill-opacity="1.000000" fill-rule="nonzero"/>
			</g>
		</g>
		<g mask="url(#mask1_374)">
			<g style="mix-blend-mode:normal">
				<path id="Tracé 216" d="M195.26 174.11C194.99 174.1 194.79 174.06 194.67 173.97C194.55 173.89 194.48 173.78 194.45 173.65C194.43 173.52 194.42 173.38 194.42 173.23L194.46 169.21C194.47 169.06 194.48 168.92 194.51 168.79C194.54 168.67 194.61 168.56 194.74 168.48C194.86 168.41 195.06 168.37 195.34 168.37C195.63 168.37 195.83 168.43 195.96 168.54C196.09 168.66 196.16 168.84 196.15 169.09L196 169.21C196.02 169.18 196.08 169.18 196.15 169.09C196.23 169 196.32 168.84 196.44 168.74C196.57 168.64 196.71 168.56 196.88 168.48C197.04 168.41 197.22 168.38 197.41 168.38C197.66 168.38 197.89 168.42 198.09 168.5C198.29 168.57 198.48 168.68 198.64 168.82C198.8 168.97 198.94 169.14 199.06 169.36C199.17 169.21 199.3 169.06 199.46 168.92C199.61 168.77 199.8 168.65 200.01 168.56C200.22 168.46 200.45 168.41 200.71 168.41C201.16 168.42 201.53 168.53 201.84 168.76C202.15 168.99 202.38 169.32 202.54 169.74C202.69 170.16 202.77 170.67 202.76 171.27L202.74 173.32C202.74 173.47 202.73 173.61 202.7 173.74C202.67 173.87 202.59 173.98 202.47 174.06C202.35 174.14 202.14 174.18 201.86 174.17C201.58 174.17 201.38 174.13 201.26 174.04C201.14 173.96 201.07 173.85 201.05 173.71C201.02 173.58 201.01 173.44 201.01 173.29L201.03 171.24C201.03 171 201.01 170.8 200.96 170.64C200.9 170.48 200.82 170.36 200.71 170.27C200.6 170.18 200.46 170.13 200.3 170.13C200.12 170.13 199.97 170.17 199.85 170.25C199.72 170.33 199.63 170.45 199.57 170.61C199.5 170.77 199.47 170.98 199.47 171.24L199.45 173.29C199.45 173.44 199.43 173.58 199.39 173.72C199.35 173.85 199.26 173.96 199.14 174.04C199.01 174.12 198.81 174.15 198.53 174.14C198.26 174.13 198.06 174.08 197.95 174C197.84 173.91 197.77 173.8 197.75 173.67C197.72 173.53 197.72 173.4 197.72 173.26L197.74 171.21C197.74 170.97 197.72 170.77 197.66 170.6C197.61 170.44 197.53 170.31 197.43 170.23C197.32 170.14 197.18 170.1 197 170.1C196.81 170.09 196.65 170.14 196.53 170.24C196.41 170.34 196.32 170.47 196.26 170.63C196.2 170.8 196.17 170.98 196.17 171.19L196.14 173.26C196.14 173.41 196.13 173.55 196.1 173.68C196.07 173.81 196 173.91 195.87 173.99C195.75 174.07 195.55 174.11 195.26 174.11Z" fill="#FFFFFF" fill-opacity="1.000000" fill-rule="nonzero"/>
			</g>
		</g>
		<g mask="url(#mask1_374)">
			<g style="mix-blend-mode:normal">
				<path id="Tracé 217" d="M206.39 174.31C206.03 174.31 205.68 174.23 205.32 174.09C204.97 173.94 204.65 173.74 204.36 173.48C204.07 173.21 203.84 172.9 203.68 172.53C203.52 172.17 203.43 171.77 203.44 171.32C203.44 170.91 203.52 170.53 203.68 170.17C203.84 169.82 204.05 169.5 204.33 169.23C204.61 168.96 204.93 168.75 205.29 168.59C205.64 168.44 206.02 168.36 206.43 168.37C206.98 168.37 207.48 168.51 207.92 168.78C208.37 169.05 208.72 169.41 208.98 169.86C209.25 170.32 209.38 170.82 209.37 171.37C209.37 171.84 209.28 172.25 209.1 172.61C208.92 172.97 208.69 173.28 208.4 173.54C208.11 173.8 207.79 173.99 207.44 174.12C207.1 174.25 206.74 174.31 206.39 174.31ZM206.39 172.58C206.57 172.58 206.76 172.54 206.95 172.45C207.14 172.36 207.3 172.22 207.44 172.04C207.57 171.86 207.64 171.62 207.64 171.34C207.64 171.1 207.59 170.88 207.48 170.7C207.38 170.51 207.23 170.37 207.05 170.26C206.86 170.16 206.64 170.1 206.4 170.1C206.17 170.1 205.97 170.15 205.78 170.25C205.6 170.36 205.46 170.51 205.35 170.69C205.23 170.88 205.17 171.09 205.17 171.33C205.17 171.6 205.23 171.83 205.35 172.02C205.48 172.21 205.64 172.35 205.83 172.44C206.02 172.53 206.2 172.58 206.39 172.58Z" fill="#FFFFFF" fill-opacity="1.000000" fill-rule="nonzero"/>
			</g>
		</g>
		<g mask="url(#mask1_374)">
			<g style="mix-blend-mode:normal">
				<path id="Tracé 218" d="M210.47 168.62L211.73 168.63L213.31 168.6C213.46 168.6 213.59 168.62 213.72 168.64C213.85 168.67 213.96 168.75 214.04 168.87C214.13 168.99 214.17 169.2 214.16 169.48C214.16 169.74 214.12 169.93 214.04 170.05C213.96 170.17 213.85 170.25 213.72 170.28C213.59 170.32 213.45 170.33 213.29 170.33L211.79 170.28L210.4 170.27C210.18 170.26 210.03 170.19 209.94 170.06C209.85 169.94 209.81 169.72 209.82 169.42C209.82 169.15 209.87 168.94 209.98 168.81C210.09 168.68 210.25 168.61 210.47 168.62ZM213 174.29C212.61 174.28 212.28 174.24 212 174.15C211.72 174.06 211.49 173.93 211.31 173.75C211.13 173.58 210.99 173.35 210.91 173.08C210.82 172.81 210.78 172.48 210.79 172.11L210.83 167.45C210.83 167.3 210.85 167.16 210.88 167.04C210.91 166.91 210.98 166.81 211.1 166.73C211.23 166.66 211.43 166.62 211.7 166.62C211.98 166.62 212.18 166.67 212.3 166.75C212.42 166.84 212.49 166.95 212.52 167.08C212.54 167.21 212.56 167.35 212.55 167.5L212.51 172.06C212.51 172.18 212.51 172.28 212.53 172.36C212.55 172.44 212.58 172.5 212.62 172.54C212.66 172.58 212.71 172.61 212.78 172.62C212.85 172.64 212.93 172.65 213.03 172.65C213.2 172.65 213.35 172.67 213.48 172.7C213.61 172.73 213.71 172.8 213.78 172.91C213.85 173.02 213.88 173.19 213.88 173.45C213.88 173.72 213.84 173.92 213.75 174.04C213.66 174.16 213.56 174.24 213.42 174.26C213.29 174.28 213.15 174.29 213 174.29Z" fill="#FFFFFF" fill-opacity="1.000000" fill-rule="nonzero"/>
			</g>
		</g>
		<g mask="url(#mask1_374)">
			<g style="mix-blend-mode:normal">
				<path id="Tracé 219" d="M215.63 174.31C215.35 174.31 215.15 174.27 215.03 174.19C214.91 174.11 214.84 173.99 214.81 173.86C214.79 173.72 214.78 173.58 214.78 173.43L214.82 169.43C214.82 169.28 214.84 169.13 214.87 169C214.9 168.87 214.98 168.77 215.1 168.69C215.21 168.61 215.42 168.57 215.7 168.58C215.97 168.58 216.16 168.62 216.28 168.69C216.39 168.77 216.47 168.85 216.5 168.95C216.53 169.04 216.54 169.12 216.54 169.19L216.4 169.26C216.42 169.23 216.48 169.27 216.54 169.19C216.61 169.11 216.68 168.93 216.8 168.85C216.91 168.76 217.05 168.69 217.22 168.63C217.38 168.57 217.57 168.54 217.79 168.54C217.87 168.54 217.96 168.55 218.07 168.56C218.17 168.57 218.28 168.6 218.39 168.63C218.5 168.67 218.6 168.72 218.69 168.77C218.78 168.83 218.86 168.9 218.91 168.99C218.97 169.07 219 169.18 219 169.3C218.99 169.61 218.92 169.88 218.77 170.09C218.62 170.31 218.44 170.42 218.22 170.42C218.09 170.41 217.99 170.4 217.94 170.38C217.89 170.36 217.84 170.33 217.81 170.31C217.77 170.29 217.74 170.26 217.69 170.24C217.64 170.22 217.56 170.21 217.44 170.21C217.32 170.21 217.21 170.23 217.11 170.26C217.01 170.28 216.91 170.33 216.82 170.4C216.73 170.46 216.66 170.54 216.61 170.63C216.56 170.73 216.54 170.84 216.53 170.95L216.51 173.47C216.51 173.62 216.49 173.76 216.47 173.89C216.44 174.02 216.36 174.13 216.24 174.2C216.12 174.28 215.91 174.32 215.63 174.31Z" fill="#FFFFFF" fill-opacity="1.000000" fill-rule="nonzero"/>
			</g>
		</g>
		<g mask="url(#mask1_374)">
			<g style="mix-blend-mode:normal">
				<path id="Tracé 220" d="M220.54 174.36C220.26 174.36 220.06 174.32 219.94 174.24C219.82 174.15 219.75 174.05 219.72 173.91C219.7 173.78 219.69 173.64 219.69 173.49L219.73 169.49C219.73 169.34 219.74 169.19 219.77 169.07C219.8 168.94 219.88 168.83 220 168.75C220.12 168.67 220.32 168.64 220.61 168.64C220.88 168.64 221.08 168.68 221.2 168.77C221.32 168.86 221.39 168.96 221.41 169.09C221.44 169.22 221.45 169.37 221.45 169.53L221.41 173.52C221.41 173.67 221.39 173.81 221.36 173.94C221.33 174.07 221.26 174.18 221.14 174.25C221.02 174.33 220.82 174.37 220.54 174.36ZM220.61 167.8C220.31 167.8 220.11 167.75 219.99 167.67C219.87 167.58 219.79 167.47 219.77 167.33C219.74 167.2 219.73 167.05 219.73 166.9C219.73 166.74 219.75 166.59 219.78 166.45C219.81 166.32 219.89 166.22 220.01 166.14C220.14 166.06 220.34 166.02 220.63 166.02C220.92 166.02 221.12 166.07 221.24 166.15C221.36 166.24 221.44 166.35 221.46 166.49C221.49 166.63 221.5 166.77 221.5 166.93C221.5 167.08 221.48 167.22 221.45 167.36C221.42 167.5 221.35 167.61 221.23 167.69C221.1 167.77 220.9 167.8 220.61 167.8Z" fill="#FFFFFF" fill-opacity="1.000000" fill-rule="nonzero"/>
			</g>
		</g>
		<g mask="url(#mask1_374)">
			<g style="mix-blend-mode:normal">
				<path id="Tracé 221" d="M225.23 174.46C224.9 174.45 224.55 174.39 224.21 174.26C223.86 174.13 223.54 173.94 223.25 173.68C222.96 173.43 222.72 173.12 222.55 172.76C222.38 172.39 222.3 171.98 222.3 171.5C222.31 171.03 222.4 170.61 222.58 170.25C222.76 169.9 222.99 169.6 223.29 169.35C223.58 169.11 223.9 168.93 224.25 168.81C224.6 168.68 224.94 168.62 225.27 168.63C225.55 168.63 225.8 168.67 226.03 168.73C226.25 168.8 226.44 168.88 226.6 168.97C226.76 169.07 226.87 169.15 226.94 169.22C227.07 169.32 227.18 169.42 227.28 169.52C227.38 169.62 227.42 169.75 227.41 169.91C227.4 170 227.38 170.08 227.33 170.17C227.28 170.26 227.22 170.35 227.15 170.44C226.92 170.76 226.69 170.9 226.46 170.87C226.35 170.84 226.24 170.8 226.15 170.75C226.05 170.69 225.96 170.64 225.87 170.58C225.79 170.52 225.69 170.47 225.59 170.43C225.49 170.39 225.38 170.37 225.25 170.37C225.03 170.37 224.83 170.42 224.65 170.51C224.47 170.61 224.33 170.75 224.23 170.92C224.12 171.1 224.07 171.3 224.07 171.53C224.07 171.75 224.11 171.95 224.22 172.13C224.32 172.31 224.45 172.45 224.62 172.55C224.8 172.66 224.99 172.71 225.2 172.71C225.33 172.71 225.45 172.7 225.54 172.67C225.64 172.64 225.72 172.6 225.79 172.56C225.86 172.52 225.91 172.49 225.95 172.47C226.04 172.41 226.13 172.35 226.22 172.3C226.3 172.25 226.39 172.23 226.48 172.23C226.59 172.23 226.7 172.27 226.81 172.36C226.93 172.44 227.05 172.57 227.19 172.74C227.31 172.91 227.38 173.06 227.4 173.19C227.41 173.33 227.38 173.46 227.29 173.58C227.21 173.7 227.08 173.82 226.9 173.93C226.84 173.99 226.73 174.05 226.57 174.14C226.41 174.22 226.22 174.29 226 174.36C225.77 174.43 225.51 174.46 225.23 174.46Z" fill="#FFFFFF" fill-opacity="1.000000" fill-rule="nonzero"/>
			</g>
		</g>
		<g mask="url(#mask1_374)">
			<g style="mix-blend-mode:normal">
				<path id="Tracé 222" d="M229.11 174.45C228.83 174.45 228.63 174.4 228.51 174.32C228.39 174.24 228.32 174.13 228.29 174C228.27 173.87 228.26 173.73 228.26 173.58L228.3 169.58C228.3 169.42 228.31 169.28 228.34 169.15C228.37 169.02 228.45 168.92 228.57 168.84C228.69 168.76 228.9 168.72 229.18 168.72C229.45 168.73 229.65 168.77 229.77 168.86C229.89 168.94 229.96 169.05 229.98 169.18C230.01 169.31 230.02 169.46 230.02 169.62L229.98 173.61C229.98 173.75 229.96 173.89 229.93 174.03C229.91 174.16 229.83 174.27 229.71 174.34C229.59 174.42 229.39 174.45 229.11 174.45ZM229.18 167.89C228.89 167.88 228.68 167.84 228.56 167.75C228.44 167.67 228.36 167.56 228.34 167.42C228.31 167.28 228.3 167.14 228.3 166.98C228.3 166.82 228.32 166.68 228.35 166.54C228.38 166.41 228.46 166.3 228.59 166.22C228.71 166.14 228.91 166.11 229.21 166.11C229.49 166.11 229.69 166.16 229.81 166.24C229.93 166.33 230.01 166.44 230.03 166.58C230.06 166.71 230.07 166.86 230.07 167.01C230.07 167.17 230.05 167.31 230.02 167.45C230 167.59 229.92 167.69 229.8 167.77C229.67 167.85 229.47 167.89 229.18 167.89Z" fill="#FFFFFF" fill-opacity="1.000000" fill-rule="nonzero"/>
			</g>
		</g>
		<g mask="url(#mask1_374)">
			<g style="mix-blend-mode:normal">
				<path id="Tracé 223" d="M231.38 168.83L232.64 168.84L234.23 168.81C234.37 168.81 234.51 168.83 234.64 168.86C234.77 168.88 234.88 168.96 234.96 169.08C235.04 169.21 235.08 169.41 235.08 169.69C235.08 169.95 235.03 170.14 234.95 170.26C234.87 170.39 234.76 170.46 234.63 170.5C234.5 170.53 234.36 170.55 234.21 170.54L232.71 170.49L231.32 170.48C231.1 170.47 230.94 170.4 230.86 170.27C230.77 170.15 230.73 169.93 230.73 169.64C230.73 169.36 230.79 169.16 230.9 169.02C231.01 168.89 231.17 168.83 231.38 168.83ZM233.92 174.5C233.53 174.49 233.19 174.45 232.91 174.36C232.64 174.28 232.41 174.14 232.22 173.97C232.04 173.79 231.91 173.56 231.82 173.29C231.74 173.02 231.7 172.69 231.7 172.32L231.75 167.66C231.75 167.51 231.77 167.37 231.79 167.25C231.82 167.13 231.9 167.03 232.02 166.95C232.14 166.87 232.34 166.83 232.62 166.83C232.89 166.83 233.09 166.88 233.21 166.96C233.33 167.05 233.41 167.16 233.43 167.29C233.46 167.42 233.47 167.56 233.47 167.71L233.42 172.27C233.42 172.39 233.43 172.49 233.45 172.57C233.47 172.65 233.49 172.71 233.53 172.75C233.57 172.79 233.62 172.82 233.69 172.83C233.76 172.85 233.85 172.86 233.95 172.86C234.11 172.86 234.26 172.88 234.39 172.91C234.52 172.94 234.62 173.01 234.69 173.12C234.77 173.23 234.8 173.41 234.8 173.66C234.79 173.93 234.75 174.13 234.67 174.25C234.58 174.38 234.47 174.45 234.34 174.47C234.2 174.49 234.06 174.5 233.92 174.5Z" fill="#FFFFFF" fill-opacity="1.000000" fill-rule="nonzero"/>
			</g>
		</g>
		<g mask="url(#mask1_374)">
			<g style="mix-blend-mode:normal">
				<path id="Tracé 224" d="M238.53 174.65C237.99 174.64 237.53 174.55 237.15 174.37C236.76 174.19 236.45 173.96 236.21 173.67C235.97 173.38 235.79 173.06 235.67 172.7C235.56 172.35 235.5 172 235.51 171.65C235.51 171.07 235.65 170.57 235.91 170.12C236.18 169.68 236.54 169.34 237 169.09C237.46 168.83 237.99 168.71 238.59 168.72C239.03 168.72 239.42 168.8 239.74 168.94C240.06 169.09 240.33 169.27 240.54 169.5C240.74 169.73 240.9 169.97 241 170.23C241.1 170.49 241.15 170.74 241.15 170.98C241.14 171.4 241.04 171.71 240.83 171.91C240.63 172.11 240.37 172.21 240.06 172.21L237.33 172.18C237.34 172.38 237.41 172.55 237.53 172.69C237.66 172.83 237.82 172.94 238.01 173.01C238.2 173.09 238.4 173.13 238.61 173.14C238.8 173.14 238.96 173.13 239.09 173.11C239.23 173.09 239.35 173.07 239.45 173.03C239.55 173 239.64 172.97 239.73 172.94C239.81 172.9 239.89 172.87 239.95 172.85C240.02 172.83 240.08 172.81 240.14 172.81C240.26 172.8 240.36 172.83 240.46 172.91C240.55 172.98 240.64 173.09 240.71 173.24C240.76 173.32 240.8 173.4 240.82 173.48C240.84 173.56 240.84 173.63 240.84 173.71C240.84 173.89 240.75 174.06 240.56 174.2C240.37 174.34 240.1 174.45 239.76 174.53C239.42 174.62 239.01 174.65 238.53 174.65ZM237.92 168.39C237.78 168.4 237.66 168.35 237.58 168.26C237.49 168.17 237.41 168.02 237.35 167.81C237.27 167.54 237.25 167.34 237.31 167.21C237.36 167.08 237.5 166.98 237.73 166.91L239.76 166.31C239.89 166.3 240 166.35 240.09 166.44C240.18 166.54 240.26 166.69 240.32 166.9C240.4 167.15 240.41 167.35 240.35 167.48C240.29 167.61 240.15 167.72 239.93 167.79L237.92 168.39ZM237.34 171.24L239.15 171.26C239.27 171.26 239.36 171.24 239.42 171.2C239.48 171.16 239.51 171.08 239.51 170.95C239.51 170.81 239.47 170.69 239.38 170.59C239.3 170.49 239.19 170.4 239.05 170.35C238.91 170.29 238.74 170.26 238.56 170.25C238.32 170.25 238.11 170.3 237.93 170.39C237.74 170.48 237.6 170.6 237.5 170.75C237.39 170.9 237.34 171.06 237.34 171.24Z" fill="#FFFFFF" fill-opacity="1.000000" fill-rule="nonzero"/>
			</g>
		</g>
		<g mask="url(#mask1_374)">
			<g style="mix-blend-mode:normal">
				<path id="Tracé 225" d="M247.46 174.76C246.97 174.76 246.54 174.67 246.19 174.5C245.84 174.32 245.56 174.09 245.33 173.81C245.1 173.52 244.92 173.19 244.79 172.84C244.66 172.48 244.57 172.11 244.52 171.72C244.47 171.33 244.45 170.96 244.45 170.6C244.46 170.26 244.49 169.91 244.55 169.53C244.6 169.15 244.7 168.78 244.83 168.42C244.97 168.07 245.15 167.74 245.38 167.45C245.6 167.16 245.9 166.93 246.25 166.76C246.61 166.59 247.04 166.51 247.53 166.51C248 166.52 248.41 166.61 248.76 166.78C249.1 166.96 249.38 167.19 249.6 167.48C249.82 167.77 250 168.09 250.13 168.46C250.26 168.82 250.35 169.19 250.4 169.57C250.45 169.95 250.47 170.32 250.47 170.67C250.46 171.03 250.43 171.4 250.37 171.79C250.31 172.17 250.21 172.54 250.08 172.9C249.94 173.25 249.76 173.57 249.53 173.85C249.3 174.13 249.02 174.36 248.68 174.52C248.35 174.69 247.94 174.77 247.46 174.76ZM247.44 173.01C247.69 173.01 247.89 172.95 248.05 172.83C248.21 172.72 248.33 172.57 248.42 172.39C248.51 172.2 248.58 172.01 248.63 171.8C248.67 171.59 248.7 171.38 248.71 171.19C248.72 170.99 248.72 170.83 248.72 170.7C248.73 170.19 248.69 169.7 248.6 169.35C248.51 168.99 248.37 168.72 248.19 168.54C248.01 168.35 247.78 168.26 247.5 168.26C247.21 168.25 246.97 168.34 246.78 168.52C246.59 168.7 246.44 168.96 246.35 169.32C246.25 169.67 246.2 170.11 246.2 170.63C246.19 171.14 246.24 171.56 246.33 171.92C246.42 172.27 246.56 172.54 246.75 172.72C246.93 172.91 247.16 173 247.44 173.01Z" fill="#FFFFFF" fill-opacity="1.000000" fill-rule="nonzero"/>
			</g>
		</g>
		<g mask="url(#mask1_374)">
			<g style="mix-blend-mode:normal">
				<path id="Tracé 226" d="M251.6 172.43C251.49 172.43 251.38 172.41 251.26 172.38C251.15 172.36 251.05 172.29 250.98 172.18C250.9 172.06 250.87 171.88 250.87 171.62C250.87 171.36 250.91 171.18 251 171.07C251.08 170.96 251.18 170.9 251.29 170.87C251.4 170.85 251.52 170.83 251.62 170.83L254.31 170.86C254.42 170.86 254.54 170.88 254.65 170.91C254.77 170.93 254.86 171 254.94 171.11C255.01 171.23 255.05 171.41 255.05 171.66C255.04 171.92 255.01 172.11 254.93 172.22C254.86 172.33 254.76 172.39 254.65 172.42C254.53 172.44 254.41 172.46 254.29 172.46L251.6 172.43Z" fill="#FFFFFF" fill-opacity="1.000000" fill-rule="nonzero"/>
			</g>
		</g>
		<g mask="url(#mask1_374)">
			<g style="mix-blend-mode:normal">
				<path id="Tracé 227" d="M258.19 174.87C257.86 174.87 257.57 174.83 257.32 174.76C257.06 174.69 256.84 174.6 256.66 174.51C256.49 174.41 256.34 174.32 256.23 174.24C256.12 174.15 256.05 174.1 256.01 174.07C255.9 173.98 255.81 173.89 255.74 173.8C255.67 173.71 255.64 173.6 255.64 173.48C255.64 173.38 255.67 173.28 255.72 173.17C255.77 173.06 255.86 172.95 255.99 172.83C256.09 172.72 256.19 172.63 256.29 172.57C256.39 172.52 256.49 172.49 256.59 172.49C256.68 172.49 256.77 172.52 256.87 172.56C256.97 172.61 257.09 172.7 257.24 172.82C257.27 172.84 257.32 172.88 257.38 172.92C257.44 172.97 257.54 173.01 257.65 173.05C257.77 173.09 257.93 173.11 258.13 173.11C258.34 173.12 258.53 173.08 258.68 173.01C258.83 172.93 258.94 172.82 259.03 172.68C259.12 172.54 259.16 172.37 259.16 172.17C259.16 171.99 259.12 171.82 259.03 171.68C258.95 171.53 258.83 171.42 258.69 171.34C258.54 171.25 258.38 171.21 258.2 171.21C258.09 171.21 257.99 171.22 257.91 171.24C257.82 171.26 257.75 171.29 257.7 171.33C257.64 171.37 257.59 171.4 257.56 171.43C257.49 171.49 257.42 171.55 257.34 171.6C257.26 171.65 257.15 171.67 257.03 171.67C256.93 171.68 256.83 171.67 256.72 171.64C256.62 171.61 256.5 171.56 256.37 171.49C256.16 171.38 256.02 171.28 255.93 171.2C255.85 171.11 255.81 171.01 255.81 170.9L256.29 167.57C256.31 167.46 256.34 167.34 256.38 167.2C256.42 167.06 256.5 166.94 256.62 166.84C256.74 166.74 256.92 166.69 257.17 166.69L259.92 166.73C260.07 166.73 260.21 166.75 260.34 166.78C260.47 166.81 260.57 166.89 260.65 167.01C260.73 167.14 260.77 167.34 260.77 167.63C260.76 167.9 260.72 168.09 260.65 168.21C260.57 168.33 260.47 168.4 260.34 168.42C260.21 168.44 260.08 168.45 259.94 168.45L257.93 168.43L257.75 169.59C257.8 169.56 257.85 169.54 257.9 169.52C257.96 169.51 258.01 169.49 258.06 169.48C258.12 169.47 258.17 169.47 258.22 169.47C258.57 169.47 258.97 169.54 259.28 169.68C259.6 169.83 259.88 170.02 260.13 170.27C260.37 170.51 260.57 170.79 260.71 171.11C260.85 171.43 260.92 171.76 260.92 172.11C260.91 172.64 260.79 173.11 260.55 173.53C260.31 173.95 259.98 174.28 259.57 174.52C259.16 174.76 258.7 174.87 258.19 174.87Z" fill="#FFFFFF" fill-opacity="1.000000" fill-rule="nonzero"/>
			</g>
		</g>
		<g mask="url(#mask1_374)">
			<g style="mix-blend-mode:normal">
				<path id="Tracé 228" d="M269.08 174.84C268.8 174.84 268.59 174.79 268.46 174.69C268.32 174.59 268.26 174.46 268.26 174.32L268.38 174.12C268.33 174.2 268.24 174.29 268.11 174.4C267.98 174.51 267.81 174.61 267.6 174.7C267.4 174.78 267.14 174.82 266.83 174.82C266.48 174.82 266.15 174.74 265.83 174.58C265.52 174.42 265.24 174.21 264.99 173.94C264.75 173.66 264.56 173.35 264.42 173.01C264.29 172.66 264.22 172.3 264.22 171.91C264.23 171.54 264.3 171.18 264.45 170.84C264.59 170.5 264.79 170.21 265.04 169.94C265.29 169.68 265.57 169.48 265.89 169.33C266.21 169.18 266.54 169.1 266.89 169.11C267.17 169.11 267.41 169.15 267.61 169.23C267.81 169.32 267.98 169.41 268.11 169.52C268.24 169.63 268.34 169.73 268.41 169.83L268.32 169.67C268.31 169.49 268.38 169.35 268.51 169.26C268.65 169.16 268.86 169.12 269.15 169.12C269.43 169.12 269.62 169.17 269.74 169.25C269.86 169.34 269.93 169.45 269.96 169.59C269.98 169.72 269.99 169.87 269.99 170.02L269.95 173.98C269.95 174.13 269.94 174.27 269.91 174.4C269.88 174.54 269.81 174.65 269.69 174.73C269.57 174.81 269.36 174.85 269.08 174.84ZM267.1 173.11C267.3 173.12 267.48 173.07 267.65 172.96C267.82 172.86 267.95 172.72 268.04 172.55C268.14 172.38 268.19 172.18 268.19 171.97C268.2 171.74 268.15 171.55 268.05 171.37C267.95 171.2 267.82 171.06 267.65 170.96C267.49 170.85 267.3 170.8 267.1 170.8C266.88 170.79 266.68 170.85 266.51 170.95C266.34 171.06 266.2 171.2 266.09 171.37C265.99 171.55 265.93 171.75 265.93 171.97C265.93 172.17 265.98 172.36 266.08 172.54C266.18 172.71 266.32 172.85 266.5 172.95C266.68 173.06 266.88 173.11 267.1 173.11Z" fill="#FFFFFF" fill-opacity="1.000000" fill-rule="nonzero"/>
			</g>
		</g>
		<g mask="url(#mask1_374)">
			<g style="mix-blend-mode:normal">
				<path id="Tracé 229" d="M271.72 174.87C271.44 174.87 271.24 174.82 271.12 174.74C271 174.66 270.93 174.55 270.9 174.42C270.88 174.29 270.87 174.15 270.87 174L270.91 169.96C270.91 169.82 270.93 169.68 270.96 169.56C270.99 169.43 271.07 169.33 271.19 169.25C271.31 169.18 271.51 169.14 271.79 169.14C272.03 169.15 272.21 169.18 272.33 169.25C272.44 169.31 272.52 169.39 272.55 169.49C272.58 169.58 272.6 169.66 272.6 169.74C272.6 169.82 272.6 169.88 272.62 169.91L272.55 170.13C272.57 170.01 272.63 169.9 272.73 169.78C272.83 169.66 272.97 169.56 273.12 169.46C273.28 169.37 273.45 169.3 273.63 169.24C273.81 169.19 273.99 169.17 274.16 169.17C274.53 169.17 274.86 169.24 275.14 169.38C275.43 169.52 275.67 169.71 275.87 169.97C276.06 170.22 276.21 170.52 276.31 170.86C276.41 171.2 276.46 171.58 276.45 171.98L276.43 174.07C276.43 174.21 276.42 174.35 276.39 174.49C276.36 174.62 276.29 174.73 276.17 174.8C276.05 174.88 275.85 174.91 275.56 174.91C275.27 174.91 275.07 174.86 274.95 174.78C274.83 174.7 274.76 174.59 274.73 174.46C274.7 174.32 274.69 174.18 274.69 174.04L274.71 171.96C274.71 171.73 274.68 171.54 274.6 171.38C274.53 171.21 274.41 171.09 274.26 171C274.11 170.91 273.92 170.86 273.7 170.86C273.48 170.86 273.29 170.9 273.12 170.99C272.96 171.08 272.84 171.21 272.75 171.37C272.66 171.53 272.61 171.72 272.61 171.94L272.59 174.03C272.59 174.17 272.57 174.31 272.54 174.45C272.52 174.58 272.44 174.69 272.32 174.76C272.2 174.84 272 174.87 271.72 174.87Z" fill="#FFFFFF" fill-opacity="1.000000" fill-rule="nonzero"/>
			</g>
		</g>
		<g mask="url(#mask1_374)">
			<g style="mix-blend-mode:normal">
				<path id="Tracé 230" d="M279.38 175.05C279.18 175.05 278.95 175.02 278.71 174.98C278.47 174.93 278.24 174.86 278.01 174.77C277.78 174.68 277.59 174.57 277.44 174.45C277.29 174.33 277.2 174.2 277.18 174.04C277.16 173.97 277.17 173.88 277.19 173.8C277.21 173.71 277.24 173.62 277.3 173.52C277.35 173.43 277.42 173.33 277.5 173.22C277.56 173.14 277.63 173.08 277.71 173.06C277.78 173.04 277.87 173.04 277.97 173.08C278.09 173.1 278.22 173.14 278.34 173.2C278.47 173.26 278.59 173.32 278.72 173.39C278.84 173.45 278.97 173.51 279.11 173.56C279.25 173.61 279.39 173.64 279.53 173.64C279.75 173.64 279.92 173.61 280.03 173.55C280.15 173.49 280.22 173.4 280.22 173.28C280.22 173.2 280.19 173.13 280.14 173.07C280.09 173.02 280.03 172.97 279.94 172.93C279.85 172.89 279.75 172.85 279.64 172.82C279.52 172.78 279.4 172.75 279.26 172.72C279.13 172.68 278.99 172.64 278.86 172.6C278.67 172.55 278.48 172.48 278.31 172.39C278.13 172.3 277.97 172.19 277.83 172.06C277.69 171.92 277.57 171.76 277.49 171.56C277.41 171.37 277.37 171.13 277.37 170.84C277.38 170.47 277.47 170.15 277.65 169.91C277.82 169.65 278.08 169.46 278.42 169.33C278.76 169.2 279.17 169.14 279.65 169.14C279.79 169.15 279.92 169.16 280.06 169.17C280.2 169.19 280.33 169.22 280.47 169.26C280.6 169.3 280.73 169.34 280.86 169.4C280.99 169.45 281.12 169.52 281.25 169.6C281.48 169.71 281.6 169.85 281.6 170.04C281.61 170.22 281.54 170.41 281.4 170.6C281.32 170.73 281.23 170.82 281.14 170.88C281.04 170.93 280.95 170.95 280.85 170.92C280.73 170.89 280.59 170.84 280.45 170.77C280.31 170.7 280.16 170.63 280.01 170.57C279.85 170.51 279.7 170.48 279.54 170.47C279.41 170.47 279.3 170.49 279.21 170.52C279.12 170.56 279.05 170.6 279 170.66C278.96 170.72 278.93 170.78 278.93 170.86C278.93 170.96 278.96 171.04 279.02 171.1C279.07 171.15 279.15 171.2 279.25 171.24C279.35 171.28 279.46 171.32 279.59 171.35C279.72 171.38 279.86 171.41 280.02 171.44C280.22 171.48 280.43 171.54 280.65 171.61C280.87 171.67 281.07 171.77 281.25 171.89C281.42 172.02 281.57 172.18 281.68 172.39C281.79 172.6 281.84 172.87 281.83 173.21C281.83 173.81 281.61 174.27 281.19 174.59C280.76 174.9 280.16 175.06 279.38 175.05Z" fill="#FFFFFF" fill-opacity="1.000000" fill-rule="nonzero"/>
			</g>
		</g>
	</g>
</svg>
