<svg id="Groupe_116" data-name="Groupe 116" xmlns="http://www.w3.org/2000/svg" xmlns:xlink="http://www.w3.org/1999/xlink" width="211.74" height="150.436" viewBox="0 0 211.74 150.436">
  <defs>
    <clipPath id="clip-path">
      <rect id="Rectangle_108" data-name="Rectangle 108" width="211.74" height="150.436" fill="none"/>
    </clipPath>
  </defs>
  <g id="Groupe_111" data-name="Groupe 111" clip-path="url(#clip-path)">
    <path id="Tracé_169" data-name="Tracé 169" d="M2.989,17.3a1.094,1.094,0,0,1-.588.063.5.5,0,0,1-.308-.236,1.951,1.951,0,0,1-.166-.379L.09,10.936A2.053,2.053,0,0,1,0,10.531a.49.49,0,0,1,.113-.363,1.077,1.077,0,0,1,.526-.294,1.07,1.07,0,0,1,.605-.063.5.5,0,0,1,.3.234,2.033,2.033,0,0,1,.161.381l1.649,5.216,2.911-.921a1.858,1.858,0,0,1,.35-.075.425.425,0,0,1,.317.1.945.945,0,0,1,.255.457.907.907,0,0,1,.047.517.435.435,0,0,1-.2.267,1.665,1.665,0,0,1-.324.138Z" transform="translate(0 -2.978)" fill="#005175"/>
    <path id="Tracé_170" data-name="Tracé 170" d="M13.675,14.9a3.19,3.19,0,0,1-1.361.123,2.605,2.605,0,0,1-1.069-.4,2.805,2.805,0,0,1-.765-.748,3.2,3.2,0,0,1-.447-.939,2.881,2.881,0,0,1-.044-1.529,2.749,2.749,0,0,1,.726-1.268,3.105,3.105,0,0,1,1.376-.782,2.794,2.794,0,0,1,1.133-.109,2.32,2.32,0,0,1,.9.3,2.278,2.278,0,0,1,.633.555,1.964,1.964,0,0,1,.344.654,1.238,1.238,0,0,1-.035.955,1.021,1.021,0,0,1-.642.49l-2.549.729a.8.8,0,0,0,.333.415,1.24,1.24,0,0,0,.531.173,1.594,1.594,0,0,0,.6-.055,3.487,3.487,0,0,0,.443-.156,1.764,1.764,0,0,0,.31-.17c.083-.058.16-.114.23-.17s.131-.1.186-.14a.913.913,0,0,1,.164-.093.444.444,0,0,1,.321.007.954.954,0,0,1,.328.237.8.8,0,0,1,.166.2.911.911,0,0,1,.088.207.6.6,0,0,1-.131.536,2.061,2.061,0,0,1-.647.532,5,5,0,0,1-1.117.447m-2.053-2.842,1.693-.484a.451.451,0,0,0,.234-.131.282.282,0,0,0,.015-.254.538.538,0,0,0-.214-.3.8.8,0,0,0-.381-.135,1.268,1.268,0,0,0-.478.049,1.366,1.366,0,0,0-.552.3,1.065,1.065,0,0,0-.3.458.844.844,0,0,0-.013.5" transform="translate(-3.013 -2.808)" fill="#005175"/>
    <path id="Tracé_171" data-name="Tracé 171" d="M21.951,5.132a.905.905,0,0,1-.682-.026,1,1,0,0,1-.332-.626.908.908,0,0,1,.027-.682.969.969,0,0,1,.614-.33.929.929,0,0,1,.687.021.971.971,0,0,1,.321.61.971.971,0,0,1-.017.7.952.952,0,0,1-.619.335m.266,8.845a1.922,1.922,0,0,1-.389.053.479.479,0,0,1-.347-.136,1.052,1.052,0,0,1-.246-.532,1,1,0,0,1-.013-.563.5.5,0,0,1,.253-.284,1.821,1.821,0,0,1,.385-.137,1.576,1.576,0,0,0,.3-.1.8.8,0,0,0,.271-.207.788.788,0,0,0,.162-.354,1.236,1.236,0,0,0-.029-.531L21.53,6.835a1.7,1.7,0,0,1-.047-.367.455.455,0,0,1,.144-.333,1.13,1.13,0,0,1,.527-.239,1.024,1.024,0,0,1,.587-.013.48.48,0,0,1,.273.255,2.336,2.336,0,0,1,.125.383l1.025,4.324A2.613,2.613,0,0,1,24.2,12a2.433,2.433,0,0,1-.4.932,2.586,2.586,0,0,1-.706.671,2.832,2.832,0,0,1-.878.374" transform="translate(-6.354 -1.039)" fill="#005175"/>
    <path id="Tracé_172" data-name="Tracé 172" d="M31.019,10.543a1.027,1.027,0,0,1-.623-.026.43.43,0,0,1-.26-.312L30.209,10a1.272,1.272,0,0,1-.2.317,1.841,1.841,0,0,1-1.134.647,2.214,2.214,0,0,1-1-.033,2.625,2.625,0,0,1-.922-.449,3.069,3.069,0,0,1-.724-.774,2.731,2.731,0,0,1-.4-1,2.674,2.674,0,0,1,0-1.062,2.87,2.87,0,0,1,.39-.972,2.8,2.8,0,0,1,.687-.753,2.178,2.178,0,0,1,.909-.4,1.867,1.867,0,0,1,.711-.019,1.905,1.905,0,0,1,.528.175,1.48,1.48,0,0,1,.347.239l-.117-.136a.442.442,0,0,1,.1-.435,1.075,1.075,0,0,1,.58-.255,1.014,1.014,0,0,1,.587.011.5.5,0,0,1,.269.276,2.287,2.287,0,0,1,.12.408l.735,3.773a2.193,2.193,0,0,1,.041.412.482.482,0,0,1-.148.352,1.087,1.087,0,0,1-.552.227M28.8,9.285a.981.981,0,0,0,.491-.249,1.071,1.071,0,0,0,.293-.472,1.167,1.167,0,0,0,.029-.583,1.109,1.109,0,0,0-.711-.855,1.009,1.009,0,0,0-.554-.045,1.069,1.069,0,0,0-.534.263,1.191,1.191,0,0,0-.315.482,1.129,1.129,0,0,0-.036.6,1.047,1.047,0,0,0,.253.512,1.118,1.118,0,0,0,.482.315,1.149,1.149,0,0,0,.6.036" transform="translate(-7.84 -1.536)" fill="#005175"/>
    <path id="Tracé_173" data-name="Tracé 173" d="M36.137,9.876a1.1,1.1,0,0,1-.595-.043.489.489,0,0,1-.249-.289,2.211,2.211,0,0,1-.089-.4L34.725,5.28a1.732,1.732,0,0,1-.007-.414.5.5,0,0,1,.178-.331,1.087,1.087,0,0,1,.566-.188,1.126,1.126,0,0,1,.571.035.471.471,0,0,1,.246.217.82.82,0,0,1,.074.232l-.125.083a1.149,1.149,0,0,1,.1-.175,1.534,1.534,0,0,1,.23-.276,1.562,1.562,0,0,1,.376-.266,1.589,1.589,0,0,1,.536-.157,2.455,2.455,0,0,1,.273-.016,1.639,1.639,0,0,1,.317.027,1.2,1.2,0,0,1,.31.1.709.709,0,0,1,.241.177.519.519,0,0,1,.12.288,1.371,1.371,0,0,1-.114.8.626.626,0,0,1-.491.38.768.768,0,0,1-.27,0,.843.843,0,0,1-.136-.05.632.632,0,0,0-.123-.047.767.767,0,0,0-.247,0,1.117,1.117,0,0,0-.309.083.885.885,0,0,0-.26.173.67.67,0,0,0-.17.257.652.652,0,0,0-.034.312l.3,2.433a2.081,2.081,0,0,1,.011.409.457.457,0,0,1-.177.331,1.172,1.172,0,0,1-.573.183" transform="translate(-10.558 -1.225)" fill="#005175"/>
    <path id="Tracé_174" data-name="Tracé 174" d="M44.278,8.122a2.228,2.228,0,0,1-.967-.2,2.6,2.6,0,0,1-.829-.593,3,3,0,0,1-.577-.889,2.83,2.83,0,0,1-.223-1.072,2.7,2.7,0,0,1,.189-1.045,2.908,2.908,0,0,1,.554-.889,2.842,2.842,0,0,1,.809-.62,2.148,2.148,0,0,1,.955-.238,1.954,1.954,0,0,1,.945.2,2.009,2.009,0,0,1,.694.584,2.707,2.707,0,0,1,.432.873,4.222,4.222,0,0,1,.167,1.044,3.714,3.714,0,0,1-.111,1.072,2.833,2.833,0,0,1-.4.9,2.089,2.089,0,0,1-.676.629,1.938,1.938,0,0,1-.96.244m.2-1.653a1,1,0,0,0,.538-.159,1.172,1.172,0,0,0,.383-.412,1.1,1.1,0,0,0,.142-.571,1.134,1.134,0,0,0-.154-.571,1.107,1.107,0,0,0-1.505-.372,1.024,1.024,0,0,0-.383.4,1.16,1.16,0,0,0-.129.575,1.132,1.132,0,0,0,.154.566,1.089,1.089,0,0,0,.408.4,1.057,1.057,0,0,0,.548.141M46.45,8.1a1.064,1.064,0,0,1-.571-.113.575.575,0,0,1-.251-.376L45.52.86a2.757,2.757,0,0,1,.021-.406.461.461,0,0,1,.19-.321A1.012,1.012,0,0,1,46.308,0a1.093,1.093,0,0,1,.587.108.477.477,0,0,1,.216.3,2.076,2.076,0,0,1,.046.411l.1,6.416a2.107,2.107,0,0,1-.033.407.5.5,0,0,1-.207.321,1.018,1.018,0,0,1-.571.132" transform="translate(-12.679 0)" fill="#005175"/>
    <path id="Tracé_175" data-name="Tracé 175" d="M51.54,8.466a1.084,1.084,0,0,1-.564-.192.478.478,0,0,1-.17-.337,2.134,2.134,0,0,1,.015-.408l.507-3.854a2.035,2.035,0,0,1,.092-.4A.473.473,0,0,1,51.675,3a1.131,1.131,0,0,1,.6-.039,1.024,1.024,0,0,1,.552.2A.5.5,0,0,1,53,3.49a2.141,2.141,0,0,1-.016.425l-.505,3.843a2.123,2.123,0,0,1-.091.4.466.466,0,0,1-.25.276,1.119,1.119,0,0,1-.595.034m.83-6.317a1.1,1.1,0,0,1-.58-.2.5.5,0,0,1-.173-.349,2.266,2.266,0,0,1,.016-.425,1.987,1.987,0,0,1,.1-.419.491.491,0,0,1,.262-.28,1.136,1.136,0,0,1,.612-.038,1.077,1.077,0,0,1,.57.2.491.491,0,0,1,.173.348,2.154,2.154,0,0,1-.016.425,2.223,2.223,0,0,1-.094.414.477.477,0,0,1-.257.287,1.159,1.159,0,0,1-.612.038" transform="translate(-15.453 -0.127)" fill="#005175"/>
    <path id="Tracé_176" data-name="Tracé 176" d="M54.84,10.095a1.091,1.091,0,0,1-.522-.289.476.476,0,0,1-.106-.362,2.052,2.052,0,0,1,.086-.4l1.191-3.736a1.651,1.651,0,0,1,.162-.363.479.479,0,0,1,.3-.216,1.127,1.127,0,0,1,.591.072,1.113,1.113,0,0,1,.47.248.453.453,0,0,1,.138.284.692.692,0,0,1-.029.253.417.417,0,0,0-.029.161l-.127.182a.654.654,0,0,1,.267-.271,1.6,1.6,0,0,1,.456-.182,2.06,2.06,0,0,1,.533-.058,1.794,1.794,0,0,1,.517.082,2.242,2.242,0,0,1,.849.475,1.928,1.928,0,0,1,.5.751,2.6,2.6,0,0,1,.157.956,3.748,3.748,0,0,1-.186,1.081L59.441,10.7a2.014,2.014,0,0,1-.16.375.457.457,0,0,1-.294.228,1.143,1.143,0,0,1-.591-.071,1.116,1.116,0,0,1-.532-.292.5.5,0,0,1-.113-.363,1.853,1.853,0,0,1,.081-.4l.612-1.921a1.322,1.322,0,0,0,.066-.575.812.812,0,0,0-.209-.447,1.1,1.1,0,0,0-.48-.287,1.116,1.116,0,0,0-.573-.041.924.924,0,0,0-.455.24,1.131,1.131,0,0,0-.292.492l-.615,1.932a2.057,2.057,0,0,1-.161.376.454.454,0,0,1-.3.228,1.133,1.133,0,0,1-.591-.071" transform="translate(-16.489 -1.434)" fill="#005175"/>
    <path id="Tracé_177" data-name="Tracé 177" d="M67.106,16.433a2.231,2.231,0,0,1-.579-.8,2.6,2.6,0,0,1-.213-1,2.972,2.972,0,0,1,.172-1.046,2.8,2.8,0,0,1,.555-.943A2.68,2.68,0,0,1,67.885,12a2.888,2.888,0,0,1,1.008-.285,2.816,2.816,0,0,1,1.015.086,2.158,2.158,0,0,1,.866.466,1.983,1.983,0,0,1,.563.785,2.037,2.037,0,0,1,.119.9,2.717,2.717,0,0,1-.267.936,4.284,4.284,0,0,1-.58.886,3.689,3.689,0,0,1-.8.717,2.806,2.806,0,0,1-.9.392,2.087,2.087,0,0,1-.923.012,1.943,1.943,0,0,1-.875-.467m1.258-1.089a1,1,0,0,0,.5.244,1.188,1.188,0,0,0,.562-.047,1.1,1.1,0,0,0,.487-.328,1.119,1.119,0,0,0,.271-.526,1.107,1.107,0,0,0-.862-1.287,1.032,1.032,0,0,0-.555.039,1.165,1.165,0,0,0-.483.338,1.133,1.133,0,0,0-.267.522,1.09,1.09,0,0,0,.032.571,1.067,1.067,0,0,0,.31.474m.365,2.534a1.073,1.073,0,0,1-.347-.468.572.572,0,0,1,.067-.446L72.914,11.9a3.116,3.116,0,0,1,.289-.287.465.465,0,0,1,.357-.109,1.012,1.012,0,0,1,.515.292,1.093,1.093,0,0,1,.363.474.485.485,0,0,1-.045.37,2.111,2.111,0,0,1-.243.335l-4.243,4.814a2,2,0,0,1-.3.279.492.492,0,0,1-.368.1,1.023,1.023,0,0,1-.511-.287" transform="translate(-20.171 -3.499)" fill="#005175"/>
    <path id="Tracé_178" data-name="Tracé 178" d="M72.56,23.375a3.206,3.206,0,0,1-.442-1.292,2.589,2.589,0,0,1,.13-1.133,2.771,2.771,0,0,1,.546-.92,3.174,3.174,0,0,1,.805-.658,2.874,2.874,0,0,1,1.474-.406,2.739,2.739,0,0,1,1.4.4,3.1,3.1,0,0,1,1.086,1.151,2.788,2.788,0,0,1,.375,1.075,2.308,2.308,0,0,1-.078.941,2.25,2.25,0,0,1-.388.747,1.965,1.965,0,0,1-.555.489,1.239,1.239,0,0,1-.935.194,1.02,1.02,0,0,1-.628-.507l-1.314-2.3a.787.787,0,0,0-.324.422,1.231,1.231,0,0,0-.042.556,1.58,1.58,0,0,0,.2.568,3.459,3.459,0,0,0,.256.392,1.9,1.9,0,0,0,.239.262c.077.067.15.128.22.183s.13.1.18.147a.907.907,0,0,1,.129.136.446.446,0,0,1,.07.314.948.948,0,0,1-.151.375.8.8,0,0,1-.152.207.9.9,0,0,1-.179.135.6.6,0,0,1-.552,0,2.069,2.069,0,0,1-.671-.5,5.063,5.063,0,0,1-.7-.98m2.274-2.668.872,1.529a.457.457,0,0,0,.184.2.287.287,0,0,0,.249-.047.534.534,0,0,0,.244-.28.81.81,0,0,0,.041-.4,1.253,1.253,0,0,0-.162-.452,1.353,1.353,0,0,0-.42-.467,1.071,1.071,0,0,0-.516-.186.842.842,0,0,0-.491.106" transform="translate(-21.933 -5.769)" fill="#005175"/>
    <path id="Tracé_179" data-name="Tracé 179" d="M60.4,133.435a8.723,8.723,0,0,1-4.172-.951,6.757,6.757,0,0,1-2.762-2.7,8.393,8.393,0,0,1-.982-4.164,8.572,8.572,0,0,1,.933-4.032,7.123,7.123,0,0,1,2.639-2.827,7.527,7.527,0,0,1,4-1.041,6.073,6.073,0,0,1,4.45,1.59,8.22,8.22,0,0,1,2.188,4.229.6.6,0,0,1,.016.164.5.5,0,0,1-.122.369,1,1,0,0,1-.319.2,9.479,9.479,0,0,1-1.181.459c-.415.131-.819.273-1.214.426q-1.72.639-3.458,1.254t-3.444,1.3c-.087.044-.131.1-.131.164a.257.257,0,0,0,.033.115,4.162,4.162,0,0,0,1.8,1.754,5.421,5.421,0,0,0,2.459.574,5.531,5.531,0,0,0,1.925-.328,11.782,11.782,0,0,0,1.763-.819,2.132,2.132,0,0,1,.229-.115.581.581,0,0,1,.23-.049.446.446,0,0,1,.353.139,1.322,1.322,0,0,1,.205.319c.042.077.128.249.254.517s.246.535.36.8a1.881,1.881,0,0,1,.173.516.437.437,0,0,1-.1.3,1.5,1.5,0,0,1-.23.214,8.533,8.533,0,0,1-2.827,1.213,12.937,12.937,0,0,1-3.073.41m-4.114-7.983,3.311-1.147q1.656-.574,3.3-1.148a4.874,4.874,0,0,0-1.14-1.574,2.555,2.555,0,0,0-1.795-.671,3.155,3.155,0,0,0-2.066.671A4.005,4.005,0,0,0,56.68,123.3a6.066,6.066,0,0,0-.392,2.156" transform="translate(-15.965 -35.807)" fill="#c4cf54"/>
    <path id="Tracé_180" data-name="Tracé 180" d="M78.139,115.3q0-1.41-.017-2.812t-.016-2.794a.594.594,0,0,1,.671-.672h2.574a.594.594,0,0,1,.672.672q0,1.393-.008,2.794t-.008,2.812c0,.131.071.2.214.2h2.573a.594.594,0,0,1,.672.672c0,.338,0,.681-.008,1.024s-.008.692-.008,1.041a.594.594,0,0,1-.671.672H82.221c-.143,0-.214.065-.214.2q0,2.656.017,5.311t.016,5.31a.594.594,0,0,1-.671.672H78.762a.594.594,0,0,1-.672-.672q0-2.654.024-5.31t.025-5.311c0-.164-.115-.243-.344-.237s-.492.024-.786.057a1.833,1.833,0,0,1-.787-.065q-.344-.115-.344-.623v-2.065a.594.594,0,0,1,.672-.672h1.376c.142,0,.214-.066.214-.2" transform="translate(-23.081 -33.163)" fill="#c4cf54"/>
    <path id="Tracé_181" data-name="Tracé 181" d="M125.75,138.826a3.92,3.92,0,0,0-.077-1.322c-.1-.7-.21-1.415-.333-2.127s-.216-1.191-.269-1.392a4.043,4.043,0,0,0-.2-.662.869.869,0,0,0-.6-.514h0a1.156,1.156,0,0,0-.591-.024q-.245.057-.5.127a13.457,13.457,0,0,1-3.419.547,11.08,11.08,0,0,1-3.439-.485,10.063,10.063,0,0,1-5.326-3.4,10.649,10.649,0,0,1-2.138-5.466,16.453,16.453,0,0,1,.633-6.36,15.133,15.133,0,0,1,1.926-4.1,13.794,13.794,0,0,1,3.1-3.334,10.435,10.435,0,0,1,3.966-1.886,8.768,8.768,0,0,1,4.517.185,9.791,9.791,0,0,1,3.078,1.5,16.543,16.543,0,0,1,2.535,2.353c.114.107.223.216.327.329a1.048,1.048,0,0,0,.474.292.845.845,0,0,0,.8-.139,4.384,4.384,0,0,0,.5-.455q.164-.177.655-.739t1.06-1.254q.568-.694,1-1.243a2.877,2.877,0,0,0,.5-.738,1.155,1.155,0,0,0-.324-1.095,15.533,15.533,0,0,0-4.107-3.341,22.578,22.578,0,0,0-4.867-2.138,17.331,17.331,0,0,0-7.582-.623,15.8,15.8,0,0,0-6.471,2.533,19.1,19.1,0,0,0-5.008,5.023,23.877,23.877,0,0,0-3.21,6.828,22.028,22.028,0,0,0-.69,10.109,17.2,17.2,0,0,0,4.063,8.49,18.081,18.081,0,0,0,8.687,5.253,21.375,21.375,0,0,0,5.3.779q.292.009.578.009a13.159,13.159,0,0,0,4.7-.786,1.217,1.217,0,0,0,.763-.737" transform="translate(-30.833 -30.767)" fill="#005175"/>
    <path id="Tracé_182" data-name="Tracé 182" d="M160.124,151.152q-1.638-3.577-3.248-7.156c-1.076-2.392-2.144-4.81-3.173-7.19q-1.284-2.975-2.549-5.959c-.841-1.981-1.718-3.976-2.611-5.933a.4.4,0,0,0-.7,0c-.915,1.961-1.809,3.947-2.659,5.9q-1.291,2.974-2.6,5.936c-1.049,2.371-2.138,4.782-3.234,7.163s-2.2,4.752-3.313,7.132c-.038.09-.078.186-.116.289a1.023,1.023,0,0,0-.07.364.585.585,0,0,0,.429.617,2.287,2.287,0,0,0,.612.093l3.007.014h0a.943.943,0,0,0,.852-.539,6.154,6.154,0,0,0,.322-.658c.1-.223.186-.436.274-.633.278-.61.563-1.262.847-1.937q.406-.972.866-1.92c.013-.033.017-.033.038-.033l9.3.04c.022,0,.026,0,.044.046.281.619.552,1.262.806,1.911s.515,1.289.793,1.927q.127.3.257.633c.086.225.181.446.287.658a.954.954,0,0,0,.872.572l3.8.015h.013a2.293,2.293,0,0,0,.6-.088.584.584,0,0,0,.435-.614,1.053,1.053,0,0,0-.067-.363c-.038-.1-.077-.2-.117-.3m-9.451-8.7-5.72-.024q.761-1.75,1.515-3.493.72-1.668,1.435-3.344.681,1.681,1.362,3.355.712,1.749,1.408,3.506" transform="translate(-41.324 -37.934)" fill="#005175"/>
    <path id="Tracé_183" data-name="Tracé 183" d="M177.877,122.2a9.181,9.181,0,0,0-2.824-1.335,5.958,5.958,0,0,0,1.351-2.241,5.484,5.484,0,0,0,.1-2.806,4.875,4.875,0,0,0-1.346-2.626,5.274,5.274,0,0,0-2.333-1.276,9.5,9.5,0,0,0-2.768-.275,17.225,17.225,0,0,0-2.748.337l-5.953,1.234a.918.918,0,0,0-.62.385.95.95,0,0,0-.1.726c.113.541.233,1.086.363,1.636s.253,1.09.377,1.634q.683,3.076,1.322,6.161.687,3.305,1.328,6.618.154.825.3,1.657t.316,1.671a.954.954,0,0,0,.378.628.821.821,0,0,0,.469.134,1.218,1.218,0,0,0,.253-.027l6.85-1.419a14.552,14.552,0,0,0,2.844-.9,9.136,9.136,0,0,0,2.47-1.56,5.444,5.444,0,0,0,1.715-5.475,4.523,4.523,0,0,0-1.738-2.877m-7.486,2.442c.385-.08.85-.15,1.38-.2a6.99,6.99,0,0,1,1.536.013,2.823,2.823,0,0,1,1.246.437,1.521,1.521,0,0,1,.625,1.018,1.658,1.658,0,0,1-.132,1.177,2.648,2.648,0,0,1-.842.907,5.525,5.525,0,0,1-1.252.637,10,10,0,0,1-1.29.371l-3.277.678q-.219-1.112-.449-2.224l-.459-2.207ZM172.1,118.9a2.526,2.526,0,0,1-.95,1,4.416,4.416,0,0,1-1.41.557l-3.119.646-.462-2.23q-.233-1.117-.474-2.227l2.675-.555a8.13,8.13,0,0,1,1.648-.15,3.063,3.063,0,0,1,1.47.369,1.653,1.653,0,0,1,.767,1.2,2,2,0,0,1-.144,1.39" transform="translate(-48.854 -33.955)" fill="#005175"/>
    <path id="Tracé_184" data-name="Tracé 184" d="M204.762,122.278a13.569,13.569,0,0,0-4.855-1.452l-6.743-.783a.9.9,0,0,0-1.1.869q-.106.927-.186,1.846t-.168,1.836c-.267,2.613-.55,5.214-.843,7.733-.305,2.64-.641,5.363-.994,8.092q-.133.969-.28,1.93t-.262,1.927a.9.9,0,0,0,.869,1.1l3.144.364a.873.873,0,0,0,.774-.184,1.379,1.379,0,0,0,.312-.614,7.042,7.042,0,0,0,.194-1.252c.038-.488.077-.9.117-1.241q.16-1.222.312-2.456c.1-.806.2-1.609.294-2.429l3.228.389c.434.889.877,1.768,1.321,2.612q.678,1.29,1.339,2.589.42.8.817,1.641a16.085,16.085,0,0,0,.893,1.646,1.006,1.006,0,0,0,.756.5l3.616.419a2.181,2.181,0,0,0,.246.013c.111,0,.232-.007.366-.019a.609.609,0,0,0,.6-.562,1,1,0,0,0-.065-.491c-.05-.125-.1-.241-.154-.35l-.612-1.22q-.48-.955-1.119-2.2t-1.244-2.443q-.6-1.2-1-2.017c-.209-.434-.3-.64-.337-.736a7.912,7.912,0,0,0,3.352-2.828,9.571,9.571,0,0,0,1.424-4.128,8.163,8.163,0,0,0-.77-4.946,7.848,7.848,0,0,0-3.249-3.158m-1.183,7.66a3.6,3.6,0,0,1-1.369,2.579,3.827,3.827,0,0,1-2.879.711l-3.432-.4.439-3.777q.219-1.892.422-3.779l3.5.407a3.665,3.665,0,0,1,2.65,1.364,3.93,3.93,0,0,1,.666,2.893" transform="translate(-57.59 -36.512)" fill="#005175"/>
    <path id="Tracé_185" data-name="Tracé 185" d="M225,114.493a.726.726,0,0,0-.8-.8h-2.63a.725.725,0,0,0-.8.8q0,2.507.013,5.017t.011,5.016q0,2.507-.018,5.015t-.018,5.018a.725.725,0,0,0,.8.8l2.629,0h0a.727.727,0,0,0,.8-.8q0-2.507-.012-5.018t-.012-5.015q0-2.507.019-5.015t.018-5.018" transform="translate(-67.15 -34.582)" fill="#005175"/>
    <path id="Tracé_186" data-name="Tracé 186" d="M250.7,121.895a11.192,11.192,0,0,0-3.661-2.325,11.116,11.116,0,0,0-12.406,3.023,11.445,11.445,0,0,0-2.138,3.652,10.913,10.913,0,0,0-.628,4.194,11.132,11.132,0,0,0,3.435,7.584,10.806,10.806,0,0,0,3.627,2.282,11.026,11.026,0,0,0,3.973.7q.292,0,.59-.013a11.125,11.125,0,0,0,4.441-1.1,11.271,11.271,0,0,0,5.631-6.23,10.632,10.632,0,0,0,.646-4.181,10.815,10.815,0,0,0-1.017-4.129,11.612,11.612,0,0,0-2.491-3.46m-7.652,1.053a5.673,5.673,0,0,1,3.162.875,6.816,6.816,0,0,1,2.316,2.528,7.7,7.7,0,0,1,.915,3.3,7.787,7.787,0,0,1-.594,3.324,6.651,6.651,0,0,1-2.024,2.714,5.66,5.66,0,0,1-3.369,1.168,6,6,0,0,1-3.54-.854,6.894,6.894,0,0,1-2.4-2.517,7.382,7.382,0,0,1-.321-6.648,6.87,6.87,0,0,1,2.113-2.714,5.84,5.84,0,0,1,3.389-1.168c.118-.006.234-.008.349-.008" transform="translate(-70.527 -36.151)" fill="#005175"/>
    <path id="Tracé_187" data-name="Tracé 187" d="M280.464,142.5l-9.865-1.822a.161.161,0,0,1-.111-.058.183.183,0,0,1-.015-.139c.264-1.434.486-2.617.7-3.724q.353-1.867.694-3.706c.419-2.272.832-4.558,1.227-6.794.4-2.26.812-4.546,1.227-6.793a.744.744,0,0,0-.641-.985l-3.073-.567a.794.794,0,0,0-.637.108.927.927,0,0,0-.317.6c-.374,2.023-.733,4.065-1.065,6.068-.341,2.043-.7,4.091-1.069,6.087-.536,2.9-1.1,5.827-1.662,8.693q-.21,1.039-.428,2.067c-.147.7-.286,1.392-.411,2.073a.928.928,0,0,0,.082.674.785.785,0,0,0,.556.328l14,2.587a1.271,1.271,0,0,0,.227.022.693.693,0,0,0,.42-.122.859.859,0,0,0,.307-.61l.5-3.025a.745.745,0,0,0-.645-.964" transform="translate(-80.606 -35.862)" fill="#005175"/>
    <path id="Tracé_188" data-name="Tracé 188" d="M297.894,137.261c-.05-.321-.106-.637-.169-.95a.648.648,0,0,0-.8-.537l-7.658,1.089q-.138-.965-.268-1.925c-.087-.639-.175-1.276-.266-1.917l6.361-.906a.633.633,0,0,0,.614-.765l-.232-1.626a.65.65,0,0,0-.261-.469.745.745,0,0,0-.543-.094l-6.361.9q-.134-.941-.274-1.879c-.093-.621-.184-1.245-.274-1.877l7.346-1.046a.65.65,0,0,0,.619-.744c-.027-.314-.063-.633-.11-.956l-.134-.944a.64.64,0,0,0-.806-.574l-10.327,1.471a.729.729,0,0,0-.507.261.67.67,0,0,0-.106.516c.18,1.265.374,2.539.58,3.789.207,1.272.4,2.547.579,3.791.259,1.815.507,3.649.737,5.447q.079.653.152,1.3c.049.433.1.87.166,1.306a.615.615,0,0,0,.649.587,1.049,1.049,0,0,0,.157-.013l10.664-1.518a.639.639,0,0,0,.614-.779q-.066-.463-.141-.944" transform="translate(-86.305 -37.121)" fill="#005175"/>
    <path id="Tracé_189" data-name="Tracé 189" d="M30.977,48.646l7.522-1.58a25.522,25.522,0,0,0,6.64-2.395,16.282,16.282,0,0,0,5.307-4.4,12.521,12.521,0,0,0,2.522-6.591,15.718,15.718,0,0,0,.054-2.288,14.286,14.286,0,0,0-.285-2.251A13.086,13.086,0,0,0,49.79,22.92a12.48,12.48,0,0,0-5.123-3.4,19.827,19.827,0,0,0-6.353-1.093,30.955,30.955,0,0,0-6.686.655l-13.349,2.8a1.426,1.426,0,0,0-.964.584,1.5,1.5,0,0,0-.132,1.134c.22,1.049.46,2.117.714,3.176s.5,2.119.742,3.163c.945,4.2,1.876,8.487,2.769,12.733.954,4.542,1.886,9.129,2.77,13.632q.307,1.61.588,3.241c.184,1.069.392,2.161.619,3.245a1.5,1.5,0,0,0,.578.985,1.223,1.223,0,0,0,.694.193,2.073,2.073,0,0,0,.423-.047l5.143-1.081a1.461,1.461,0,0,0,.964-.565,1.39,1.39,0,0,0,.145-1.092l-2.5-12.328a.151.151,0,0,1,.143-.219m7.116-22.564a10.093,10.093,0,0,1,3.471.841,6.112,6.112,0,0,1,2.62,2.218c.154.252.322.562.5.919a3.451,3.451,0,0,1,.41,1.948,8.968,8.968,0,0,1-.112,1.058A5.839,5.839,0,0,1,43.4,36.155a10.6,10.6,0,0,1-2.982,2.153A14.741,14.741,0,0,1,37,39.5l-7.763,1.63q-.688-3.272-1.393-6.555t-1.42-6.548l8.147-1.712a13.077,13.077,0,0,1,3.518-.233" transform="translate(-5.212 -5.606)" fill="#3c9851"/>
    <path id="Tracé_190" data-name="Tracé 190" d="M64.533,59.467l-3.057-.452A1.123,1.123,0,0,0,60.1,60.037q-.431,2.916-.844,5.836t-.843,5.83q-.431,2.913-.879,5.825t-.88,5.83a1.119,1.119,0,0,0,1.021,1.376l3.056.451a1.63,1.63,0,0,0,.248.019A1.116,1.116,0,0,0,61.659,85a1.207,1.207,0,0,0,.45-.832q.432-2.916.845-5.836T63.8,72.5q.431-2.913.879-5.825t.88-5.83a1.125,1.125,0,0,0-1.021-1.376" transform="translate(-17.228 -17.946)" fill="#3c9851"/>
    <path id="Tracé_191" data-name="Tracé 191" d="M100.5,80.427q-.239-.348-1.09-1.588t-1.977-2.851q-1.127-1.612-2.2-3.174t-1.784-2.632a8.183,8.183,0,0,1-.717-1.174.27.27,0,0,1,.136-.276,10.729,10.729,0,0,0,3.245-4.882,15.639,15.639,0,0,0,.589-6.195,13.119,13.119,0,0,0-2.236-6.715,9.878,9.878,0,0,0-4.712-3.526,14.512,14.512,0,0,0-6.243-.71l-8.483.772q-.937.086-.837,1.184.123,1.359.28,2.7t.3,2.7q.59,5.72,1.106,11.392.544,5.987,1.017,11.953.109,1.44.192,2.869t.212,2.84q.1,1.1,1.037,1.013l3.956-.36a.786.786,0,0,0,.674-.325,1.921,1.921,0,0,0,.168-.806,11.641,11.641,0,0,0-.106-1.8q-.133-1.081-.2-1.84-.142-1.806-.3-3.624t-.317-3.622c-.019-.209.063-.322.246-.338l4.093-.372a.28.28,0,0,1,.268.16q1.147,1.714,2.337,3.385t2.357,3.357q.739,1.04,1.463,2.147a24.029,24.029,0,0,0,1.527,2.089.93.93,0,0,0,.82.4l4.55-.413a3.018,3.018,0,0,0,.688-.168.528.528,0,0,0,.37-.613,1.276,1.276,0,0,0-.163-.526c-.091-.158-.182-.3-.27-.436M89.771,62.794a4.679,4.679,0,0,1-3.534,1.955l-4.619.42q-.268-2.954-.539-5.921t-.561-5.919l4.71-.429a4.51,4.51,0,0,1,3.854,1.31A6.744,6.744,0,0,1,90.8,58.43a6.228,6.228,0,0,1-1.033,4.364" transform="translate(-22.565 -14.185)" fill="#3c9851"/>
    <path id="Tracé_192" data-name="Tracé 192" d="M129.571,56.446a10.987,10.987,0,0,0-3.484-2.517,11.01,11.01,0,0,0-8.838-.008,10.772,10.772,0,0,0-3.461,2.5,11.577,11.577,0,0,0-2.252,3.591,11.356,11.356,0,0,0-.8,4.2,11.54,11.54,0,0,0,.79,4.234,11.363,11.363,0,0,0,2.237,3.579,10.6,10.6,0,0,0,3.457,2.474,10.737,10.737,0,0,0,4.443.905,10.6,10.6,0,0,0,4.405-.913,11.039,11.039,0,0,0,3.491-2.478,11.473,11.473,0,0,0,2.293-3.562,11.046,11.046,0,0,0,.815-4.194,11.224,11.224,0,0,0-.815-4.215,11.759,11.759,0,0,0-2.283-3.605m-7.765,14.392a5.4,5.4,0,0,1-3.2-.954,6.514,6.514,0,0,1-2.108-2.5A7.277,7.277,0,0,1,116.472,61a6.507,6.507,0,0,1,2.062-2.5,5.672,5.672,0,0,1,6.317.006,6.452,6.452,0,0,1,2.032,2.508,7.586,7.586,0,0,1,.712,3.2,7.7,7.7,0,0,1-.69,3.165,6.313,6.313,0,0,1-1.978,2.5,5.064,5.064,0,0,1-3.122.953" transform="translate(-33.684 -16.121)" fill="#3c9851"/>
    <path id="Tracé_193" data-name="Tracé 193" d="M165.251,59.8h-2.613a.871.871,0,0,0-.766.34,1.5,1.5,0,0,0-.228.758l-.031,3.649q-.016,1.936-.022,3.871t-.008,3.87q0,1.118.008,2.225t.006,2.2a4.92,4.92,0,0,1-1.282,3.667,4.324,4.324,0,0,1-3.167,1.256,4.522,4.522,0,0,1-2.236-.578,4.322,4.322,0,0,1-1.65-1.669,5.358,5.358,0,0,1-.625-2.677q0-1.1.008-2.2t.008-2.226q0-1.934-.008-3.87t-.023-3.869l-.032-3.674a1.47,1.47,0,0,0-.228-.736.875.875,0,0,0-.765-.337h-2.675c-.622,0-.994.427-.994,1.141q0,1.028.031,2.048T148.007,65q.046,3.848.046,7.678,0,1.022-.008,2.062t-.008,2.086a11.094,11.094,0,0,0,1.218,5.324,8.935,8.935,0,0,0,3.279,3.5,8.985,8.985,0,0,0,9.083,0,9.013,9.013,0,0,0,3.277-3.494,11.169,11.169,0,0,0,1.243-5.324q0-1.043-.008-2.086t-.008-2.062q0-3.829.045-7.671.032-1.006.056-2.02t.023-2.046c0-.715-.372-1.141-.994-1.141" transform="translate(-44.998 -18.19)" fill="#3c9851"/>
    <path id="Tracé_194" data-name="Tracé 194" d="M200.319,57.552l-16.078-1.424a.744.744,0,0,0-.9.776q-.287,3.237-.512,6.468t-.514,6.488q-.41,4.632-.883,9.279-.12,1.112-.247,2.211t-.227,2.212a.744.744,0,0,0,.753.923l16.6,1.471a.744.744,0,0,0,.9-.776q.07-.789.133-1.609t.091-1.613a.761.761,0,0,0-.756-.882l-11.957-1.06a.215.215,0,0,1-.221-.264q.148-1.678.307-3.346t.3-3.327a.216.216,0,0,1,.264-.221l9.938.88a.734.734,0,0,0,.9-.756l.246-2.771a.735.735,0,0,0-.754-.9l-9.938-.881a.216.216,0,0,1-.221-.264q.146-1.638.28-3.268t.279-3.268a.215.215,0,0,1,.264-.221l11.472,1.017a.762.762,0,0,0,.9-.735q.111-.786.183-1.6t.142-1.608a.744.744,0,0,0-.752-.923" transform="translate(-55.042 -17.071)" fill="#3c9851"/>
    <path id="Tracé_195" data-name="Tracé 195" d="M224.19,43.892q.066-.965.056-1.968t-.012-1.968q0-1.041-.921-1.04H204.23q-.923,0-.922,1.04c0,.644,0,1.3-.011,1.968s.011,1.325.056,1.968q.067.99.922.99h6.234a.261.261,0,0,1,.292.3l.022,10.027q0,4.332-.034,8.69t-.033,8.716q0,1.017.923,1.015h3.892q.923,0,.923-1.015,0-4.233-.022-8.48t-.022-8.481q0-2.623.01-5.236t.012-5.236c0-.2.09-.3.27-.3h6.526c.568,0,.877-.33.922-.99" transform="translate(-61.839 -11.838)" fill="#3c9851"/>
    <path id="Tracé_196" data-name="Tracé 196" d="M245.652,58.38q.146-.921.221-1.884t.159-1.89q.09-1-.761-1.074L227.7,51.955q-.85-.076-.939.921-.082.927-.18,1.888t-.118,1.893q-.023.956.765,1.026l5.741.516c.179.016.261.119.243.309l-.843,9.625q-.373,4.157-.779,8.337t-.781,8.36q-.088.974.762,1.05l3.586.322q.85.076.937-.9.364-4.062.709-8.139t.71-8.14q.225-2.517.461-5.024t.461-5.024c.017-.191.109-.278.275-.263l6.01.539q.788.071.935-.874" transform="translate(-68.886 -15.802)" fill="#3c9851"/>
    <path id="Tracé_197" data-name="Tracé 197" d="M269.481,87.991c-.071-.473-.148-.937-.234-1.39a.683.683,0,0,0-.85-.6l-10.912,1.467a.194.194,0,0,1-.25-.182q-.2-1.457-.381-2.908t-.379-2.89a.191.191,0,0,1,.192-.24l9.069-1.22a.658.658,0,0,0,.659-.822l-.323-2.406a.66.66,0,0,0-.853-.619L256.15,77.4a.193.193,0,0,1-.25-.181q-.191-1.423-.39-2.835t-.391-2.835a.193.193,0,0,1,.193-.241L265.783,69.9a.683.683,0,0,0,.661-.8q-.055-.69-.151-1.4t-.188-1.4a.666.666,0,0,0-.855-.636l-14.673,1.973a.666.666,0,0,0-.657.839q.378,2.81.81,5.6t.812,5.621q.541,4.021,1.028,8.069.113.969.213,1.929t.231,1.927a.666.666,0,0,0,.854.636l15.153-2.037a.666.666,0,0,0,.656-.839q-.092-.685-.2-1.4" transform="translate(-76.018 -19.97)" fill="#3c9851"/>
    <path id="Tracé_198" data-name="Tracé 198" d="M241.685,201.832l-138.646.84,3.984-30.948,133.492,4.628Z" transform="translate(-31.343 -52.236)" fill="#bd2c32"/>
    <path id="Tracé_199" data-name="Tracé 199" d="M123.921,187.934a.989.989,0,0,1-.548-.121.5.5,0,0,1-.2-.306,1.793,1.793,0,0,1-.038-.388l.058-5.721a1.718,1.718,0,0,1,.047-.382.481.481,0,0,1,.213-.3,1.011,1.011,0,0,1,.556-.11l2.148.022a2.657,2.657,0,0,1,.884.167,2.563,2.563,0,0,1,.823.5,2.525,2.525,0,0,1,.61.818,2.562,2.562,0,0,1,.224,1.134,2.526,2.526,0,0,1-.247,1.119,2.412,2.412,0,0,1-.626.795,2.747,2.747,0,0,1-.838.474,2.627,2.627,0,0,1-.893.154l-1.341-.014-.014,1.373a1.715,1.715,0,0,1-.046.382.484.484,0,0,1-.213.3,1.008,1.008,0,0,1-.557.111m.845-3.754,1.351.014a1.125,1.125,0,0,0,.457-.095.9.9,0,0,0,.38-.316.981.981,0,0,0,.158-.565,1.031,1.031,0,0,0-.12-.514.907.907,0,0,0-.348-.349,1.044,1.044,0,0,0-.517-.132l-1.342-.013Z" transform="translate(-37.455 -54.938)" fill="#fff"/>
    <path id="Tracé_200" data-name="Tracé 200" d="M132.826,188.92a1.022,1.022,0,0,1-.55-.116.451.451,0,0,1-.2-.3,2.028,2.028,0,0,1-.033-.387l.037-3.657a1.686,1.686,0,0,1,.046-.388.47.47,0,0,1,.207-.286,1.021,1.021,0,0,1,.551-.1,1.06,1.06,0,0,1,.528.1.445.445,0,0,1,.2.233.755.755,0,0,1,.04.225l-.127.062a1.085,1.085,0,0,1,.111-.151,1.491,1.491,0,0,1,.249-.228,1.466,1.466,0,0,1,.384-.2,1.5,1.5,0,0,1,.52-.079c.077,0,.162.007.257.018a1.67,1.67,0,0,1,.293.066,1.165,1.165,0,0,1,.276.129.676.676,0,0,1,.2.2.494.494,0,0,1,.075.284,1.28,1.28,0,0,1-.206.726.59.59,0,0,1-.507.294.708.708,0,0,1-.251-.034.745.745,0,0,1-.12-.064.754.754,0,0,0-.109-.059.7.7,0,0,0-.23-.029,1.083,1.083,0,0,0-.3.039.841.841,0,0,0-.263.129.634.634,0,0,0-.191.219.622.622,0,0,0-.071.287l-.023,2.305a2,2,0,0,1-.04.382.431.431,0,0,1-.208.287,1.1,1.1,0,0,1-.556.1" transform="translate(-40.167 -55.863)" fill="#fff"/>
    <path id="Tracé_201" data-name="Tracé 201" d="M140.841,189.062a2.612,2.612,0,0,1-.977-.2,2.963,2.963,0,0,1-.881-.559,2.576,2.576,0,0,1-.838-1.968,2.634,2.634,0,0,1,.22-1.051,2.765,2.765,0,0,1,.595-.859,2.829,2.829,0,0,1,.871-.583,2.55,2.55,0,0,1,1.045-.2,2.633,2.633,0,0,1,1.364.376,2.743,2.743,0,0,1,.97.989,2.8,2.8,0,0,1,.106,2.51,2.753,2.753,0,0,1-1.513,1.378,2.655,2.655,0,0,1-.962.173m0-1.582a1.185,1.185,0,0,0,.514-.121,1.141,1.141,0,0,0,.444-.373,1.078,1.078,0,0,0,.185-.637,1.148,1.148,0,0,0-.141-.589,1.042,1.042,0,0,0-.4-.4,1.2,1.2,0,0,0-.59-.148,1.08,1.08,0,0,0-.562.141,1.139,1.139,0,0,0-.4.4,1.12,1.12,0,0,0-.159.58,1.108,1.108,0,0,0,.167.637,1.042,1.042,0,0,0,.431.381,1.22,1.22,0,0,0,.512.127" transform="translate(-42.021 -55.859)" fill="#fff"/>
    <path id="Tracé_202" data-name="Tracé 202" d="M148.926,188.968a2.045,2.045,0,0,1-.895-.213,2.5,2.5,0,0,1-.747-.568,2.712,2.712,0,0,1-.511-.823,2.555,2.555,0,0,1-.178-.977,2.508,2.508,0,0,1,.2-.966,2.636,2.636,0,0,1,.527-.8,2.525,2.525,0,0,1,.76-.548,2.032,2.032,0,0,1,.9-.2,1.579,1.579,0,0,1,.783.192,1.431,1.431,0,0,1,.524.529,2.536,2.536,0,0,1,.29.81,5.253,5.253,0,0,1,.083,1.044,4.767,4.767,0,0,1-.182,1.344,1.722,1.722,0,0,1-.552.875,1.515,1.515,0,0,1-1,.3m.164,2.3a2.911,2.911,0,0,1-.732-.1,3.213,3.213,0,0,1-.668-.258,1.944,1.944,0,0,1-.478-.34.511.511,0,0,1-.175-.358.751.751,0,0,1,.066-.308,1.026,1.026,0,0,1,.191-.276,2.5,2.5,0,0,1,.253-.238.384.384,0,0,1,.252-.081.45.45,0,0,1,.262.081q.115.079.244.175a1.482,1.482,0,0,0,.328.177,1.387,1.387,0,0,0,.5.083.983.983,0,0,0,.4-.074.943.943,0,0,0,.317-.228,1.065,1.065,0,0,0,.212-.355,1.348,1.348,0,0,0,.079-.454l.044-4.338a.51.51,0,0,1,.219-.39,1.03,1.03,0,0,1,.562-.115.931.931,0,0,1,.527.115.462.462,0,0,1,.186.29,1.892,1.892,0,0,1,.033.378l-.042,4.139a2.458,2.458,0,0,1-.231,1.061,2.372,2.372,0,0,1-.594.78,2.651,2.651,0,0,1-1.758.637m.039-3.814a.891.891,0,0,0,.494-.136,1.06,1.06,0,0,0,.355-.369,1.041,1.041,0,0,0,.136-.523,1.052,1.052,0,0,0-.125-.524,1.009,1.009,0,0,0-.353-.371.966.966,0,0,0-.507-.142.943.943,0,0,0-.5.132,1,1,0,0,0-.355.369,1.075,1.075,0,0,0-.136.527.992.992,0,0,0,.13.515,1.1,1.1,0,0,0,.358.376.938.938,0,0,0,.507.146" transform="translate(-44.592 -55.929)" fill="#fff"/>
    <path id="Tracé_203" data-name="Tracé 203" d="M155.927,189.155a1.034,1.034,0,0,1-.55-.115.455.455,0,0,1-.2-.3,2.037,2.037,0,0,1-.033-.388l.037-3.657a1.7,1.7,0,0,1,.046-.388.471.471,0,0,1,.208-.286,1.027,1.027,0,0,1,.551-.1,1.057,1.057,0,0,1,.529.1.443.443,0,0,1,.2.233.751.751,0,0,1,.04.225l-.127.061a1.137,1.137,0,0,1,.111-.15,1.48,1.48,0,0,1,.248-.228,1.464,1.464,0,0,1,.9-.279,2.418,2.418,0,0,1,.257.018,1.612,1.612,0,0,1,.293.066,1.184,1.184,0,0,1,.276.129.682.682,0,0,1,.2.2.492.492,0,0,1,.076.283,1.291,1.291,0,0,1-.207.726.59.59,0,0,1-.507.294.724.724,0,0,1-.251-.034.77.77,0,0,1-.12-.064.694.694,0,0,0-.109-.059.7.7,0,0,0-.23-.029,1.091,1.091,0,0,0-.3.039.854.854,0,0,0-.263.128.644.644,0,0,0-.191.218.616.616,0,0,0-.071.287l-.024,2.305a1.93,1.93,0,0,1-.04.381.428.428,0,0,1-.208.287,1.09,1.09,0,0,1-.556.1" transform="translate(-47.194 -55.934)" fill="#fff"/>
    <path id="Tracé_204" data-name="Tracé 204" d="M165.712,189.27a.972.972,0,0,1-.57-.142.4.4,0,0,1-.179-.337l.106-.177a1.163,1.163,0,0,1-.244.255,1.78,1.78,0,0,1-.463.268,1.805,1.805,0,0,1-.7.113,2.1,2.1,0,0,1-.915-.218,2.485,2.485,0,0,1-.764-.59,2.906,2.906,0,0,1-.521-.849,2.6,2.6,0,0,1-.183-1,2.524,2.524,0,0,1,.2-.978,2.717,2.717,0,0,1,.542-.822,2.667,2.667,0,0,1,.777-.564,2.055,2.055,0,0,1,.914-.2,1.765,1.765,0,0,1,.658.116,1.835,1.835,0,0,1,.453.262,1.4,1.4,0,0,1,.276.285l-.083-.148a.418.418,0,0,1,.177-.38,1.01,1.01,0,0,1,.582-.125.962.962,0,0,1,.539.12.473.473,0,0,1,.2.306,2.1,2.1,0,0,1,.033.4l-.037,3.615a2.016,2.016,0,0,1-.04.387.451.451,0,0,1-.2.3,1.024,1.024,0,0,1-.552.105m-1.807-1.58a.91.91,0,0,0,.5-.137,1.008,1.008,0,0,0,.36-.379,1.1,1.1,0,0,0,.137-.533,1.051,1.051,0,0,0-.132-.541,1.07,1.07,0,0,0-.363-.381.939.939,0,0,0-.5-.146.992.992,0,0,0-.541.141,1.105,1.105,0,0,0-.381.383,1.055,1.055,0,0,0-.148.543.98.98,0,0,0,.136.52,1.06,1.06,0,0,0,.383.381,1.087,1.087,0,0,0,.549.147" transform="translate(-49.058 -55.979)" fill="#fff"/>
    <path id="Tracé_205" data-name="Tracé 205" d="M170.749,189.32a.987.987,0,0,1-.543-.121.444.444,0,0,1-.2-.3,2.256,2.256,0,0,1-.028-.388l.037-3.668a1.879,1.879,0,0,1,.041-.382.445.445,0,0,1,.207-.281,1.053,1.053,0,0,1,.556-.1.864.864,0,0,1,.565.157.624.624,0,0,1,.173.5l-.137.114a.841.841,0,0,1,.127-.177,2.062,2.062,0,0,1,.276-.259,1.746,1.746,0,0,1,.4-.232,1.2,1.2,0,0,1,.488-.095,1.853,1.853,0,0,1,.623.106,1.6,1.6,0,0,1,.5.3,1.851,1.851,0,0,1,.388.492,2.706,2.706,0,0,1,.36-.4,1.886,1.886,0,0,1,.5-.331,1.486,1.486,0,0,1,.645-.13,1.711,1.711,0,0,1,1.03.32,1.9,1.9,0,0,1,.635.892,3.916,3.916,0,0,1,.206,1.4l-.019,1.876a1.955,1.955,0,0,1-.04.383.449.449,0,0,1-.207.292,1.068,1.068,0,0,1-.557.1.98.98,0,0,1-.548-.122.465.465,0,0,1-.2-.3,1.953,1.953,0,0,1-.033-.382l.019-1.877a1.749,1.749,0,0,0-.068-.545.71.71,0,0,0-.223-.343.594.594,0,0,0-.381-.125.727.727,0,0,0-.409.106.657.657,0,0,0-.255.332,1.634,1.634,0,0,0-.089.571l-.019,1.876a1.39,1.39,0,0,1-.056.392.505.505,0,0,1-.228.291.993.993,0,0,1-.551.095.975.975,0,0,1-.533-.132.45.45,0,0,1-.186-.3,2.147,2.147,0,0,1-.027-.372l.019-1.877a1.777,1.777,0,0,0-.068-.55.687.687,0,0,0-.216-.342.612.612,0,0,0-.387-.12.663.663,0,0,0-.431.132.791.791,0,0,0-.25.359,1.546,1.546,0,0,0-.083.507l-.019,1.886a1.909,1.909,0,0,1-.04.387.445.445,0,0,1-.207.287,1.058,1.058,0,0,1-.557.1" transform="translate(-51.706 -55.994)" fill="#fff"/>
    <path id="Tracé_206" data-name="Tracé 206" d="M182.842,189.442a.987.987,0,0,1-.543-.121.444.444,0,0,1-.2-.3,2.243,2.243,0,0,1-.028-.387l.037-3.668a1.885,1.885,0,0,1,.041-.382.443.443,0,0,1,.207-.28,1.045,1.045,0,0,1,.556-.1.868.868,0,0,1,.565.157.624.624,0,0,1,.173.5l-.137.114a.878.878,0,0,1,.127-.177,2.106,2.106,0,0,1,.276-.259,1.744,1.744,0,0,1,.4-.232,1.186,1.186,0,0,1,.487-.095,1.836,1.836,0,0,1,.623.106,1.6,1.6,0,0,1,.5.3,1.85,1.85,0,0,1,.388.492,2.708,2.708,0,0,1,.36-.406,1.9,1.9,0,0,1,.5-.33,1.475,1.475,0,0,1,.645-.13,1.715,1.715,0,0,1,1.03.319,1.9,1.9,0,0,1,.635.893,3.911,3.911,0,0,1,.206,1.4l-.019,1.876a1.892,1.892,0,0,1-.04.382.449.449,0,0,1-.207.292,1.054,1.054,0,0,1-.557.1.987.987,0,0,1-.548-.121.468.468,0,0,1-.2-.3,1.965,1.965,0,0,1-.033-.383l.019-1.877a1.741,1.741,0,0,0-.067-.544.71.71,0,0,0-.223-.344.6.6,0,0,0-.381-.124.717.717,0,0,0-.41.106.654.654,0,0,0-.255.332,1.626,1.626,0,0,0-.089.57l-.019,1.876a1.387,1.387,0,0,1-.056.392.5.5,0,0,1-.228.292,1,1,0,0,1-.551.095.988.988,0,0,1-.533-.132.453.453,0,0,1-.186-.3,2.145,2.145,0,0,1-.027-.372l.019-1.877a1.77,1.77,0,0,0-.068-.55.69.69,0,0,0-.216-.343.609.609,0,0,0-.386-.119.656.656,0,0,0-.431.132.791.791,0,0,0-.25.359,1.539,1.539,0,0,0-.083.507l-.02,1.886a1.915,1.915,0,0,1-.04.388.445.445,0,0,1-.207.286,1.051,1.051,0,0,1-.557.1" transform="translate(-55.384 -56.032)" fill="#fff"/>
    <path id="Tracé_207" data-name="Tracé 207" d="M196.7,189.649a3.023,3.023,0,0,1-1.259-.255,2.444,2.444,0,0,1-.859-.642,2.63,2.63,0,0,1-.488-.88,2.982,2.982,0,0,1-.152-.967,2.693,2.693,0,0,1,.37-1.389,2.575,2.575,0,0,1,1-.949,2.923,2.923,0,0,1,1.449-.337,2.637,2.637,0,0,1,1.051.2,2.178,2.178,0,0,1,.729.511,2.113,2.113,0,0,1,.423.67,1.862,1.862,0,0,1,.135.683,1.168,1.168,0,0,1-.287.851.962.962,0,0,1-.71.27l-2.494-.026a.743.743,0,0,0,.189.463,1.166,1.166,0,0,0,.432.3,1.481,1.481,0,0,0,.554.11,3.2,3.2,0,0,0,.44-.022,1.607,1.607,0,0,0,.326-.07c.091-.029.175-.06.253-.09s.145-.056.205-.077a.825.825,0,0,1,.173-.04.415.415,0,0,1,.287.092.873.873,0,0,1,.233.3.753.753,0,0,1,.1.221.835.835,0,0,1,.024.209.568.568,0,0,1-.262.449,1.945,1.945,0,0,1-.726.307,4.775,4.775,0,0,1-1.129.1m-1.089-3.114,1.655.017a.415.415,0,0,0,.247-.055.265.265,0,0,0,.081-.224.508.508,0,0,0-.112-.332.761.761,0,0,0-.307-.223,1.19,1.19,0,0,0-.445-.084,1.278,1.278,0,0,0-.578.12,1.01,1.01,0,0,0-.4.331.791.791,0,0,0-.145.449" transform="translate(-58.993 -56.04)" fill="#fff"/>
    <path id="Tracé_208" data-name="Tracé 208" d="M208.071,188.663a2.1,2.1,0,0,1-.9-.213,2.438,2.438,0,0,1-.765-.58,2.788,2.788,0,0,1-.521-.848,2.666,2.666,0,0,1-.184-1.013,2.536,2.536,0,0,1,.2-.978,2.718,2.718,0,0,1,.543-.822,2.648,2.648,0,0,1,.776-.564,2.041,2.041,0,0,1,.9-.2,1.858,1.858,0,0,1,.884.214,1.9,1.9,0,0,1,.638.567,2.5,2.5,0,0,1,.385.831,3.966,3.966,0,0,1,.132.986,3.468,3.468,0,0,1-.131,1.005,2.632,2.632,0,0,1-.4.834,1.958,1.958,0,0,1-.651.575,1.823,1.823,0,0,1-.909.205m.226-1.548a.937.937,0,0,0,.509-.136,1.088,1.088,0,0,0,.371-.379,1.04,1.04,0,0,0,.147-.533,1.053,1.053,0,0,0-.131-.541,1.04,1.04,0,0,0-1.406-.385.965.965,0,0,0-.371.367,1.1,1.1,0,0,0-.136.538,1.06,1.06,0,0,0,.13.536,1.036,1.036,0,0,0,.373.387,1,1,0,0,0,.513.146m1.818,1.58a1,1,0,0,1-.534-.121.538.538,0,0,1-.227-.358l.065-6.349a2.809,2.809,0,0,1,.029-.383.438.438,0,0,1,.187-.3.96.96,0,0,1,.546-.109,1.03,1.03,0,0,1,.55.116.452.452,0,0,1,.2.29,1.949,1.949,0,0,1,.033.388l-.061,6.036a1.954,1.954,0,0,1-.041.383.471.471,0,0,1-.2.3.97.97,0,0,1-.541.11" transform="translate(-62.57 -55.081)" fill="#fff"/>
    <path id="Tracé_209" data-name="Tracé 209" d="M216.922,189.854a3.035,3.035,0,0,1-1.259-.255,2.452,2.452,0,0,1-.859-.642,2.63,2.63,0,0,1-.488-.88,2.982,2.982,0,0,1-.152-.966,2.692,2.692,0,0,1,.37-1.389,2.57,2.57,0,0,1,.995-.949,2.923,2.923,0,0,1,1.449-.337,2.637,2.637,0,0,1,1.051.2,2.179,2.179,0,0,1,.729.511,2.113,2.113,0,0,1,.423.67,1.86,1.86,0,0,1,.135.682,1.169,1.169,0,0,1-.287.852.962.962,0,0,1-.71.27l-2.494-.026a.743.743,0,0,0,.189.463,1.156,1.156,0,0,0,.432.3,1.467,1.467,0,0,0,.554.111,3.2,3.2,0,0,0,.44-.022,1.606,1.606,0,0,0,.326-.07c.091-.03.175-.06.253-.09s.145-.056.205-.077a.875.875,0,0,1,.173-.04.416.416,0,0,1,.287.093.876.876,0,0,1,.233.3.765.765,0,0,1,.1.221.837.837,0,0,1,.024.209.566.566,0,0,1-.262.448,1.933,1.933,0,0,1-.726.308,4.815,4.815,0,0,1-1.129.1m-1.089-3.114,1.655.017a.415.415,0,0,0,.247-.056.263.263,0,0,0,.081-.223.509.509,0,0,0-.112-.332.761.761,0,0,0-.307-.223,1.176,1.176,0,0,0-.445-.084,1.278,1.278,0,0,0-.578.12,1.01,1.01,0,0,0-.4.331.791.791,0,0,0-.145.449" transform="translate(-65.145 -56.102)" fill="#fff"/>
    <path id="Tracé_210" data-name="Tracé 210" d="M123.559,206.7a1,1,0,0,1-.539-.116.451.451,0,0,1-.2-.285,1.857,1.857,0,0,1-.033-.372l.06-5.857a2.138,2.138,0,0,1,.035-.383.442.442,0,0,1,.2-.286.962.962,0,0,1,.541-.11,1.188,1.188,0,0,1,.518.1.555.555,0,0,1,.275.3l-.063,6.245a1.357,1.357,0,0,1-.035.376.468.468,0,0,1-.208.286,1.011,1.011,0,0,1-.551.105m2.046-2.243a1.925,1.925,0,0,1-.9-.214,1.83,1.83,0,0,1-.644-.562,2.514,2.514,0,0,1-.38-.815,3.345,3.345,0,0,1-.11-1,3.472,3.472,0,0,1,.145-.978,2.74,2.74,0,0,1,.4-.825,1.828,1.828,0,0,1,.645-.559,1.875,1.875,0,0,1,.9-.2,2.044,2.044,0,0,1,.893.219,2.55,2.55,0,0,1,.764.579,2.755,2.755,0,0,1,.52.838,2.6,2.6,0,0,1-.557,2.792,2.464,2.464,0,0,1-.77.532,2.16,2.16,0,0,1-.9.184m-.205-1.479a.976.976,0,0,0,.525-.136,1.078,1.078,0,0,0,.376-.379,1.034,1.034,0,0,0,.148-.532,1.05,1.05,0,0,0-.132-.541,1,1,0,0,0-.886-.518.989.989,0,0,0-.52.136,1,1,0,0,0-.37.374,1.068,1.068,0,0,0-.137.528,1.056,1.056,0,0,0,.132.535,1.031,1.031,0,0,0,.363.387.944.944,0,0,0,.5.147" transform="translate(-37.351 -60.621)" fill="#fff"/>
    <path id="Tracé_211" data-name="Tracé 211" d="M133.025,204.683a3.333,3.333,0,0,1-.612-.069,3.824,3.824,0,0,1-.642-.19,2.024,2.024,0,0,1-.522-.289.58.58,0,0,1-.237-.374.529.529,0,0,1,.008-.225.9.9,0,0,1,.1-.251,3.079,3.079,0,0,1,.181-.275.367.367,0,0,1,.191-.145.406.406,0,0,1,.24.012,1.528,1.528,0,0,1,.34.113c.114.054.229.111.344.171a3.19,3.19,0,0,0,.36.161,1.132,1.132,0,0,0,.386.072.948.948,0,0,0,.457-.085.277.277,0,0,0,.1-.434.636.636,0,0,0-.187-.133,1.6,1.6,0,0,0-.276-.1l-.341-.092q-.183-.049-.37-.1a3.022,3.022,0,0,1-.5-.193,1.77,1.77,0,0,1-.438-.3,1.3,1.3,0,0,1-.31-.453,1.649,1.649,0,0,1-.109-.656,1.47,1.47,0,0,1,.25-.857,1.5,1.5,0,0,1,.708-.522,3.017,3.017,0,0,1,1.123-.172,3.267,3.267,0,0,1,.377.024,2.342,2.342,0,0,1,.371.078,3.252,3.252,0,0,1,.36.129,2.812,2.812,0,0,1,.356.182.474.474,0,0,1,.321.4.824.824,0,0,1-.184.512.843.843,0,0,1-.244.255.335.335,0,0,1-.263.044,1.876,1.876,0,0,1-.36-.139c-.129-.065-.264-.125-.407-.183a1.168,1.168,0,0,0-.424-.088.878.878,0,0,0-.3.045.436.436,0,0,0-.19.123.288.288,0,0,0-.065.183.293.293,0,0,0,.077.216.6.6,0,0,0,.214.133,2.3,2.3,0,0,0,.313.1q.177.044.387.088a5.462,5.462,0,0,1,.58.148,1.908,1.908,0,0,1,.542.262,1.238,1.238,0,0,1,.394.455,1.56,1.56,0,0,1,.145.745,1.5,1.5,0,0,1-.589,1.262,2.665,2.665,0,0,1-1.65.424" transform="translate(-39.849 -60.62)" fill="#fff"/>
    <path id="Tracé_212" data-name="Tracé 212" d="M140.409,204.336l-2.424-3.776a.805.805,0,0,1-.178-.578.849.849,0,0,1,.419-.468.907.907,0,0,1,.636-.188.874.874,0,0,1,.452.419l1.785,2.8Zm-.937,2.432q-.428-.193-.493-.424a.919.919,0,0,1,.116-.617l2.689-5.851a.839.839,0,0,1,.4-.484.978.978,0,0,1,.643.1c.278.135.439.278.484.424a.859.859,0,0,1-.106.585l-2.7,5.894a.866.866,0,0,1-.392.488.891.891,0,0,1-.638-.111" transform="translate(-41.916 -60.629)" fill="#fff"/>
    <path id="Tracé_213" data-name="Tracé 213" d="M149.064,204.818a2.72,2.72,0,0,1-.936-.182,2.856,2.856,0,0,1-.874-.523,2.511,2.511,0,0,1-.637-.844,2.843,2.843,0,0,1,.024-2.29,2.5,2.5,0,0,1,.648-.82,2.832,2.832,0,0,1,.88-.5,2.7,2.7,0,0,1,.929-.164,2.505,2.505,0,0,1,.7.1,2.315,2.315,0,0,1,.522.221,1.59,1.59,0,0,1,.307.223,3.32,3.32,0,0,1,.312.275.453.453,0,0,1,.122.358.623.623,0,0,1-.076.235,1.8,1.8,0,0,1-.159.245c-.213.292-.423.421-.633.391a.976.976,0,0,1-.287-.107c-.087-.049-.17-.1-.25-.155a1.366,1.366,0,0,0-.255-.133.874.874,0,0,0-.314-.056,1.079,1.079,0,0,0-.546.131,1.014,1.014,0,0,0-.386.373,1.079,1.079,0,0,0-.148.554,1.053,1.053,0,0,0,.136.546,1.083,1.083,0,0,0,.374.387,1,1,0,0,0,.528.146.982.982,0,0,0,.535-.136l.148-.087c.084-.055.166-.105.243-.15a.463.463,0,0,1,.241-.066.536.536,0,0,1,.3.113,1.739,1.739,0,0,1,.342.356.9.9,0,0,1,.189.41.5.5,0,0,1-.093.356,1.271,1.271,0,0,1-.359.321,1.751,1.751,0,0,1-.3.185,2.911,2.911,0,0,1-.526.205,2.409,2.409,0,0,1-.7.086" transform="translate(-44.529 -60.683)" fill="#fff"/>
    <path id="Tracé_214" data-name="Tracé 214" d="M154.849,203.806a1.026,1.026,0,0,1-.543-.116.441.441,0,0,1-.2-.3,1.963,1.963,0,0,1-.033-.392l.061-6.036a1.7,1.7,0,0,1,.045-.388.467.467,0,0,1,.213-.285,1.021,1.021,0,0,1,.546-.1.98.98,0,0,1,.549.121.466.466,0,0,1,.2.3,1.945,1.945,0,0,1,.033.388l-.022,2.138a2.3,2.3,0,0,1,.491-.372,1.359,1.359,0,0,1,.709-.171,2.13,2.13,0,0,1,1.165.342,2.385,2.385,0,0,1,.819.915,2.746,2.746,0,0,1,.3,1.323l-.019,1.9a1.685,1.685,0,0,1-.046.387.471.471,0,0,1-.2.286,1.017,1.017,0,0,1-.557.105,1.039,1.039,0,0,1-.539-.116.446.446,0,0,1-.207-.3,2.029,2.029,0,0,1-.032-.393l.019-1.9a1.168,1.168,0,0,0-.1-.52.8.8,0,0,0-.305-.343.936.936,0,0,0-.5-.132,1.046,1.046,0,0,0-.679.229.858.858,0,0,0-.335.568l-.021,2.085a1.684,1.684,0,0,1-.046.388.476.476,0,0,1-.207.287,1.035,1.035,0,0,1-.552.1" transform="translate(-46.866 -59.677)" fill="#fff"/>
    <path id="Tracé_215" data-name="Tracé 215" d="M164.9,204.993a2.592,2.592,0,0,1-.977-.2,2.951,2.951,0,0,1-.881-.559,2.573,2.573,0,0,1-.839-1.968,2.649,2.649,0,0,1,.22-1.051,2.741,2.741,0,0,1,.6-.859,2.807,2.807,0,0,1,.87-.582,2.536,2.536,0,0,1,1.045-.2,2.626,2.626,0,0,1,1.362.376,2.727,2.727,0,0,1,.97.989,2.8,2.8,0,0,1,.106,2.51,2.706,2.706,0,0,1-.637.848,2.754,2.754,0,0,1-.875.53,2.651,2.651,0,0,1-.961.173m0-1.581a1.168,1.168,0,0,0,.513-.121,1.133,1.133,0,0,0,.445-.373,1.078,1.078,0,0,0,.185-.637,1.141,1.141,0,0,0-.142-.589,1.023,1.023,0,0,0-.4-.4,1.191,1.191,0,0,0-.589-.148,1.085,1.085,0,0,0-.562.141,1.132,1.132,0,0,0-.561.979,1.108,1.108,0,0,0,.168.637,1.04,1.04,0,0,0,.431.381,1.213,1.213,0,0,0,.513.127" transform="translate(-49.339 -60.705)" fill="#fff"/>
    <path id="Tracé_216" data-name="Tracé 216" d="M171.644,205.016a.988.988,0,0,1-.543-.121.444.444,0,0,1-.2-.3,2.257,2.257,0,0,1-.028-.388l.038-3.668a1.886,1.886,0,0,1,.04-.382.444.444,0,0,1,.208-.28,1.042,1.042,0,0,1,.555-.1.871.871,0,0,1,.565.157.624.624,0,0,1,.173.5l-.138.114a.826.826,0,0,1,.127-.177,2.01,2.01,0,0,1,.275-.26,1.77,1.77,0,0,1,.4-.232,1.2,1.2,0,0,1,.488-.095,1.87,1.87,0,0,1,.623.106,1.61,1.61,0,0,1,.5.3,1.827,1.827,0,0,1,.387.492,2.676,2.676,0,0,1,.36-.406,1.884,1.884,0,0,1,.5-.33,1.488,1.488,0,0,1,.645-.13,1.711,1.711,0,0,1,1.03.319,1.9,1.9,0,0,1,.636.893,3.928,3.928,0,0,1,.205,1.4l-.019,1.875a1.955,1.955,0,0,1-.04.383.452.452,0,0,1-.207.292,1.066,1.066,0,0,1-.557.1.982.982,0,0,1-.548-.122.467.467,0,0,1-.2-.3,1.952,1.952,0,0,1-.033-.382l.019-1.876a1.75,1.75,0,0,0-.067-.546.711.711,0,0,0-.223-.343.6.6,0,0,0-.381-.124.717.717,0,0,0-.409.106.657.657,0,0,0-.255.332,1.628,1.628,0,0,0-.089.571l-.019,1.875a1.392,1.392,0,0,1-.056.392.5.5,0,0,1-.228.291,1,1,0,0,1-.552.095.982.982,0,0,1-.533-.132.453.453,0,0,1-.186-.3,2.134,2.134,0,0,1-.027-.372l.019-1.876a1.777,1.777,0,0,0-.068-.55.693.693,0,0,0-.216-.343.608.608,0,0,0-.387-.119.659.659,0,0,0-.431.132.8.8,0,0,0-.249.359,1.538,1.538,0,0,0-.084.508l-.019,1.886a1.908,1.908,0,0,1-.04.387.445.445,0,0,1-.207.287,1.056,1.056,0,0,1-.557.1" transform="translate(-51.978 -60.769)" fill="#fff"/>
    <path id="Tracé_217" data-name="Tracé 217" d="M185.407,205.2a2.616,2.616,0,0,1-.976-.2,2.954,2.954,0,0,1-.881-.559,2.57,2.57,0,0,1-.839-1.967,2.649,2.649,0,0,1,.22-1.051,2.74,2.74,0,0,1,.6-.859,2.829,2.829,0,0,1,.87-.583,2.533,2.533,0,0,1,1.044-.2,2.626,2.626,0,0,1,1.363.375,2.734,2.734,0,0,1,.97.99,2.8,2.8,0,0,1,.106,2.51,2.7,2.7,0,0,1-.637.847,2.743,2.743,0,0,1-.875.531,2.655,2.655,0,0,1-.962.173m0-1.581a1.182,1.182,0,0,0,.514-.121,1.138,1.138,0,0,0,.445-.373,1.073,1.073,0,0,0,.185-.637,1.141,1.141,0,0,0-.142-.589,1.023,1.023,0,0,0-.4-.4,1.2,1.2,0,0,0-.59-.148,1.091,1.091,0,0,0-.562.141,1.143,1.143,0,0,0-.4.4,1.131,1.131,0,0,0-.159.58,1.108,1.108,0,0,0,.168.637,1.038,1.038,0,0,0,.43.381,1.223,1.223,0,0,0,.513.127" transform="translate(-55.578 -60.768)" fill="#fff"/>
    <path id="Tracé_218" data-name="Tracé 218" d="M191.673,199.3l1.153.011,1.447-.026a1.862,1.862,0,0,1,.376.04.461.461,0,0,1,.292.207,1.009,1.009,0,0,1,.109.556.968.968,0,0,1-.115.523.485.485,0,0,1-.291.212,1.488,1.488,0,0,1-.388.044l-1.372-.046-1.268-.013a.507.507,0,0,1-.424-.188,1.058,1.058,0,0,1-.114-.583.9.9,0,0,1,.152-.559.533.533,0,0,1,.442-.178m2.316,5.179a3.2,3.2,0,0,1-.916-.125,1.549,1.549,0,0,1-.631-.363,1.46,1.46,0,0,1-.365-.616,2.865,2.865,0,0,1-.111-.886l.042-4.256a1.772,1.772,0,0,1,.041-.377.444.444,0,0,1,.207-.275,1.033,1.033,0,0,1,.546-.105.993.993,0,0,1,.544.121.466.466,0,0,1,.2.3,1.85,1.85,0,0,1,.033.388l-.042,4.16a1.229,1.229,0,0,0,.023.279.333.333,0,0,0,.077.163.291.291,0,0,0,.146.074,1.06,1.06,0,0,0,.23.024,1.856,1.856,0,0,1,.408.045.451.451,0,0,1,.276.192.909.909,0,0,1,.095.493.991.991,0,0,1-.121.544.445.445,0,0,1-.3.2,2.369,2.369,0,0,1-.383.027" transform="translate(-58.123 -60.07)" fill="#fff"/>
    <path id="Tracé_219" data-name="Tracé 219" d="M198.37,205.272a1.03,1.03,0,0,1-.549-.115.455.455,0,0,1-.2-.3,2.04,2.04,0,0,1-.033-.388l.038-3.657a1.729,1.729,0,0,1,.045-.388.47.47,0,0,1,.208-.286,1.023,1.023,0,0,1,.55-.1,1.056,1.056,0,0,1,.529.105.436.436,0,0,1,.2.232.755.755,0,0,1,.04.225l-.127.062a1.125,1.125,0,0,1,.111-.152,1.519,1.519,0,0,1,.249-.228,1.454,1.454,0,0,1,.9-.278c.077,0,.162.007.257.017a1.549,1.549,0,0,1,.293.067,1.182,1.182,0,0,1,.276.128.682.682,0,0,1,.2.2.489.489,0,0,1,.076.283,1.286,1.286,0,0,1-.207.726.589.589,0,0,1-.506.294.709.709,0,0,1-.252-.035.7.7,0,0,1-.12-.064.716.716,0,0,0-.109-.059.7.7,0,0,0-.23-.029,1.032,1.032,0,0,0-.3.04.832.832,0,0,0-.263.128.62.62,0,0,0-.262.506l-.023,2.3a1.93,1.93,0,0,1-.04.381.427.427,0,0,1-.207.287,1.093,1.093,0,0,1-.557.1" transform="translate(-60.104 -60.837)" fill="#fff"/>
    <path id="Tracé_220" data-name="Tracé 220" d="M204.814,204.312a1.023,1.023,0,0,1-.548-.116.452.452,0,0,1-.2-.3,1.959,1.959,0,0,1-.033-.383l.037-3.656a1.919,1.919,0,0,1,.04-.388.447.447,0,0,1,.207-.286,1.048,1.048,0,0,1,.556-.1.961.961,0,0,1,.539.12.475.475,0,0,1,.2.3,2.018,2.018,0,0,1,.032.4l-.036,3.646a1.941,1.941,0,0,1-.041.381.438.438,0,0,1-.2.287,1.081,1.081,0,0,1-.552.1m.061-5.993a1.035,1.035,0,0,1-.565-.122.464.464,0,0,1-.2-.305,2.045,2.045,0,0,1-.032-.4,1.777,1.777,0,0,1,.045-.4.468.468,0,0,1,.213-.291,1.071,1.071,0,0,1,.566-.1,1.022,1.022,0,0,1,.555.121.467.467,0,0,1,.2.305,2.06,2.06,0,0,1,.033.4,2.187,2.187,0,0,1-.041.4.448.448,0,0,1-.207.3,1.074,1.074,0,0,1-.566.1" transform="translate(-62.065 -59.831)" fill="#fff"/>
    <path id="Tracé_221" data-name="Tracé 221" d="M210.144,205.437a2.758,2.758,0,0,1-.937-.182,2.868,2.868,0,0,1-.875-.523,2.526,2.526,0,0,1-.637-.844,2.615,2.615,0,0,1-.229-1.15,2.583,2.583,0,0,1,.253-1.14,2.506,2.506,0,0,1,.648-.82,2.852,2.852,0,0,1,.88-.5,2.7,2.7,0,0,1,.93-.164,2.535,2.535,0,0,1,.7.1,2.264,2.264,0,0,1,.521.221,1.57,1.57,0,0,1,.307.222,3.43,3.43,0,0,1,.312.276.454.454,0,0,1,.122.358.64.64,0,0,1-.076.235,1.937,1.937,0,0,1-.159.244q-.319.437-.633.392a1,1,0,0,1-.287-.107c-.087-.05-.17-.1-.25-.155a1.345,1.345,0,0,0-.255-.133.871.871,0,0,0-.314-.056,1.087,1.087,0,0,0-.546.131,1.019,1.019,0,0,0-.385.374,1.067,1.067,0,0,0-.147.553,1.05,1.05,0,0,0,.136.547,1.073,1.073,0,0,0,.373.386,1,1,0,0,0,.528.147.982.982,0,0,0,.535-.136l.148-.088c.084-.054.166-.1.243-.149a.464.464,0,0,1,.241-.067.538.538,0,0,1,.3.113,1.714,1.714,0,0,1,.342.355.9.9,0,0,1,.19.411.5.5,0,0,1-.093.356,1.264,1.264,0,0,1-.36.32,1.69,1.69,0,0,1-.3.186,2.92,2.92,0,0,1-.526.2,2.388,2.388,0,0,1-.7.087" transform="translate(-63.108 -60.871)" fill="#fff"/>
    <path id="Tracé_222" data-name="Tracé 222" d="M216.064,204.426a1.018,1.018,0,0,1-.549-.116.449.449,0,0,1-.2-.3,2,2,0,0,1-.033-.382l.037-3.657a1.931,1.931,0,0,1,.04-.388.453.453,0,0,1,.207-.286,1.059,1.059,0,0,1,.557-.1.955.955,0,0,1,.539.12.471.471,0,0,1,.2.3,2.011,2.011,0,0,1,.032.4l-.036,3.646a1.945,1.945,0,0,1-.041.382.441.441,0,0,1-.2.287,1.089,1.089,0,0,1-.552.1m.061-5.993a1.033,1.033,0,0,1-.565-.122.465.465,0,0,1-.2-.305,2.042,2.042,0,0,1-.032-.4,1.777,1.777,0,0,1,.045-.4.471.471,0,0,1,.213-.292,1.081,1.081,0,0,1,.566-.1,1.015,1.015,0,0,1,.555.121.467.467,0,0,1,.2.305,2.052,2.052,0,0,1,.033.4,2.194,2.194,0,0,1-.041.4.448.448,0,0,1-.207.3,1.087,1.087,0,0,1-.566.1" transform="translate(-65.487 -59.866)" fill="#fff"/>
    <path id="Tracé_223" data-name="Tracé 223" d="M219.126,199.58l1.153.011,1.447-.027a1.863,1.863,0,0,1,.376.041.463.463,0,0,1,.291.207,1.013,1.013,0,0,1,.109.557.968.968,0,0,1-.115.523.489.489,0,0,1-.29.212,1.491,1.491,0,0,1-.388.043l-1.372-.045-1.268-.013a.507.507,0,0,1-.424-.188,1.058,1.058,0,0,1-.114-.583.894.894,0,0,1,.152-.559.533.533,0,0,1,.442-.178m2.316,5.179a3.171,3.171,0,0,1-.916-.125,1.548,1.548,0,0,1-.631-.362,1.463,1.463,0,0,1-.365-.617,2.857,2.857,0,0,1-.111-.886l.042-4.256a1.773,1.773,0,0,1,.041-.377.44.44,0,0,1,.207-.275,1.026,1.026,0,0,1,.546-.105,1,1,0,0,1,.544.12.47.47,0,0,1,.2.3,1.86,1.86,0,0,1,.033.389l-.042,4.16a1.22,1.22,0,0,0,.023.278.332.332,0,0,0,.077.163.291.291,0,0,0,.146.074,1.06,1.06,0,0,0,.23.024,1.776,1.776,0,0,1,.408.045.45.45,0,0,1,.276.191.92.92,0,0,1,.094.493,1,1,0,0,1-.12.544.445.445,0,0,1-.3.2,2.365,2.365,0,0,1-.383.027" transform="translate(-66.474 -60.155)" fill="#fff"/>
    <path id="Tracé_224" data-name="Tracé 224" d="M227.56,204.687a3.034,3.034,0,0,1-1.259-.255,2.468,2.468,0,0,1-.859-.642,2.637,2.637,0,0,1-.488-.88,2.983,2.983,0,0,1-.152-.966,2.68,2.68,0,0,1,.37-1.39,2.574,2.574,0,0,1,.994-.949,2.927,2.927,0,0,1,1.45-.336,2.641,2.641,0,0,1,1.051.2,2.182,2.182,0,0,1,.727.511,2.1,2.1,0,0,1,.423.67,1.823,1.823,0,0,1,.135.683,1.163,1.163,0,0,1-.287.852.961.961,0,0,1-.71.27l-2.493-.026a.739.739,0,0,0,.189.463,1.156,1.156,0,0,0,.432.3,1.467,1.467,0,0,0,.553.111,3.2,3.2,0,0,0,.441-.022,1.6,1.6,0,0,0,.325-.07c.092-.03.176-.06.253-.09s.145-.056.205-.077a.891.891,0,0,1,.174-.04.418.418,0,0,1,.287.093.875.875,0,0,1,.232.3.753.753,0,0,1,.1.221.86.86,0,0,1,.025.209.565.565,0,0,1-.262.448,1.928,1.928,0,0,1-.726.308,4.8,4.8,0,0,1-1.128.1M227,198.97a.381.381,0,0,1-.309-.119,1.08,1.08,0,0,1-.209-.411.856.856,0,0,1-.038-.546.584.584,0,0,1,.391-.278l1.849-.548a.377.377,0,0,1,.3.124,1.019,1.019,0,0,1,.207.416.786.786,0,0,1,.031.53.6.6,0,0,1-.386.284Zm-.53,2.6,1.655.017a.413.413,0,0,0,.247-.056.263.263,0,0,0,.081-.224.5.5,0,0,0-.113-.331.746.746,0,0,0-.306-.223,1.176,1.176,0,0,0-.445-.083,1.27,1.27,0,0,0-.577.12,1,1,0,0,0-.4.331.783.783,0,0,0-.146.449" transform="translate(-68.381 -59.945)" fill="#fff"/>
    <path id="Tracé_225" data-name="Tracé 225" d="M239.294,204.872a2.668,2.668,0,0,1-1.161-.242,2.25,2.25,0,0,1-.79-.631,3.231,3.231,0,0,1-.488-.885,4.693,4.693,0,0,1-.246-1.019,7.432,7.432,0,0,1-.063-1.022,6.976,6.976,0,0,1,.083-.979,4.99,4.99,0,0,1,.262-1.009,3.341,3.341,0,0,1,.5-.891,2.182,2.182,0,0,1,.8-.631,2.635,2.635,0,0,1,1.161-.224,2.513,2.513,0,0,1,1.124.247,2.2,2.2,0,0,1,.774.637,3.351,3.351,0,0,1,.478.89,4.855,4.855,0,0,1,.247,1.019,7.575,7.575,0,0,1,.063,1.006,6.814,6.814,0,0,1-.09,1.016,5.227,5.227,0,0,1-.267,1.014,3.05,3.05,0,0,1-.5.875,2.27,2.27,0,0,1-.775.61,2.464,2.464,0,0,1-1.114.219m-.025-1.6a.908.908,0,0,0,.563-.157,1.115,1.115,0,0,0,.339-.41,2.324,2.324,0,0,0,.184-.538,3.5,3.5,0,0,0,.073-.555c.01-.178.015-.326.015-.445v-.053a4.721,4.721,0,0,0-.114-1.186,1.576,1.576,0,0,0-.369-.736.866.866,0,0,0-.637-.259.909.909,0,0,0-.658.239,1.532,1.532,0,0,0-.39.73,4.928,4.928,0,0,0-.137,1.2,4.514,4.514,0,0,0,.119,1.175,1.579,1.579,0,0,0,.381.738.868.868,0,0,0,.631.258" transform="translate(-71.953 -60.027)" fill="#fff"/>
    <path id="Tracé_226" data-name="Tracé 226" d="M245.629,204.467a1.351,1.351,0,0,1-.3-.04.441.441,0,0,1-.26-.191.933.933,0,0,1-.1-.509.862.862,0,0,1,.115-.5.461.461,0,0,1,.269-.18,1.332,1.332,0,0,1,.3-.033l2.452.024a1.4,1.4,0,0,1,.315.04.433.433,0,0,1,.26.191.9.9,0,0,1,.1.5.968.968,0,0,1-.1.508.414.414,0,0,1-.259.185,1.435,1.435,0,0,1-.325.033Z" transform="translate(-74.515 -61.753)" fill="#fff"/>
    <path id="Tracé_227" data-name="Tracé 227" d="M253.557,205.042a3.173,3.173,0,0,1-.8-.1,2.958,2.958,0,0,1-.6-.232,3.625,3.625,0,0,1-.4-.246c-.1-.074-.168-.126-.2-.154a1.462,1.462,0,0,1-.244-.244.452.452,0,0,1-.1-.294.614.614,0,0,1,.076-.282,1.25,1.25,0,0,1,.244-.313,1.146,1.146,0,0,1,.275-.233.553.553,0,0,1,.274-.075.63.63,0,0,1,.262.065,1.648,1.648,0,0,1,.332.234c.028.022.071.054.131.1a.931.931,0,0,0,.25.118,1.44,1.44,0,0,0,.434.056,1.09,1.09,0,0,0,.5-.1.787.787,0,0,0,.322-.3.89.89,0,0,0,.12-.466.857.857,0,0,0-.432-.764.926.926,0,0,0-.449-.115,1.007,1.007,0,0,0-.262.029.685.685,0,0,0-.194.082.8.8,0,0,0-.122.093,1.366,1.366,0,0,1-.206.15.512.512,0,0,1-.278.065.852.852,0,0,1-.283-.029,1.466,1.466,0,0,1-.324-.135,1.672,1.672,0,0,1-.4-.266.372.372,0,0,1-.113-.273l.44-3.045a2.464,2.464,0,0,1,.076-.335.663.663,0,0,1,.219-.328.756.756,0,0,1,.509-.136l2.5.035a1.685,1.685,0,0,1,.387.046.466.466,0,0,1,.286.213,1.074,1.074,0,0,1,.1.567,1.011,1.011,0,0,1-.11.527.408.408,0,0,1-.28.191,2.114,2.114,0,0,1-.362.028l-1.845-.019-.157,1.057a.472.472,0,0,1,.136-.061c.049-.013.1-.026.147-.035a.7.7,0,0,1,.147-.015h.063a2.261,2.261,0,0,1,.9.2,2.55,2.55,0,0,1,.77.532,2.612,2.612,0,0,1,.532.77,2.151,2.151,0,0,1,.189.914,2.6,2.6,0,0,1-.337,1.3,2.436,2.436,0,0,1-.895.9,2.39,2.39,0,0,1-1.256.323" transform="translate(-76.418 -60.098)" fill="#fff"/>
    <path id="Tracé_228" data-name="Tracé 228" d="M266.93,205.982a.967.967,0,0,1-.57-.143.4.4,0,0,1-.18-.337l.106-.177a1.176,1.176,0,0,1-.244.255,1.718,1.718,0,0,1-1.166.381,2.093,2.093,0,0,1-.916-.218,2.49,2.49,0,0,1-.764-.589,2.886,2.886,0,0,1-.521-.848,2.582,2.582,0,0,1-.183-1,2.527,2.527,0,0,1,.2-.978,2.725,2.725,0,0,1,.542-.823,2.652,2.652,0,0,1,.777-.563,2.048,2.048,0,0,1,.914-.2,1.762,1.762,0,0,1,.658.117,1.839,1.839,0,0,1,.454.262,1.419,1.419,0,0,1,.275.286l-.082-.148a.416.416,0,0,1,.177-.381,1.011,1.011,0,0,1,.582-.125.958.958,0,0,1,.539.121.475.475,0,0,1,.2.305,2.106,2.106,0,0,1,.033.4l-.037,3.615a2.018,2.018,0,0,1-.04.387.449.449,0,0,1-.2.3,1.031,1.031,0,0,1-.552.105m-1.807-1.579a.918.918,0,0,0,.5-.137,1.014,1.014,0,0,0,.36-.379,1.1,1.1,0,0,0,.137-.533,1.047,1.047,0,0,0-.494-.921.941.941,0,0,0-.5-.148,1,1,0,0,0-.541.141,1.121,1.121,0,0,0-.381.385,1.056,1.056,0,0,0-.148.543.988.988,0,0,0,.136.52,1.05,1.05,0,0,0,.384.381,1.079,1.079,0,0,0,.549.148" transform="translate(-79.846 -61.063)" fill="#fff"/>
    <path id="Tracé_229" data-name="Tracé 229" d="M271.993,206.021a1.03,1.03,0,0,1-.549-.116.453.453,0,0,1-.2-.3,1.969,1.969,0,0,1-.033-.383l.038-3.688a1.57,1.57,0,0,1,.046-.372.445.445,0,0,1,.207-.276,1.058,1.058,0,0,1,.55-.1,1.047,1.047,0,0,1,.492.094.438.438,0,0,1,.2.217.689.689,0,0,1,.044.236.36.36,0,0,0,.02.152l-.065.2a.614.614,0,0,1,.166-.317,1.475,1.475,0,0,1,.359-.29,1.971,1.971,0,0,1,.463-.2,1.71,1.71,0,0,1,.488-.068,2.084,2.084,0,0,1,.894.193,1.8,1.8,0,0,1,.66.535,2.444,2.444,0,0,1,.406.817,3.519,3.519,0,0,1,.131,1.023l-.019,1.907a1.935,1.935,0,0,1-.041.382.43.43,0,0,1-.2.286,1.491,1.491,0,0,1-1.111-.016.476.476,0,0,1-.2-.3,1.775,1.775,0,0,1-.038-.383l.019-1.9a1.232,1.232,0,0,0-.1-.536.754.754,0,0,0-.31-.343,1.018,1.018,0,0,0-.512-.127,1.044,1.044,0,0,0-.525.12.874.874,0,0,0-.344.342,1.074,1.074,0,0,0-.126.523l-.019,1.907a2,2,0,0,1-.041.383.432.432,0,0,1-.2.286,1.066,1.066,0,0,1-.552.1" transform="translate(-82.499 -61.078)" fill="#fff"/>
    <path id="Tracé_230" data-name="Tracé 230" d="M281.508,206.187a3.332,3.332,0,0,1-.612-.069,3.715,3.715,0,0,1-.642-.19,2.023,2.023,0,0,1-.522-.288.584.584,0,0,1-.237-.374.554.554,0,0,1,.008-.225.912.912,0,0,1,.1-.251,3.082,3.082,0,0,1,.181-.275.364.364,0,0,1,.191-.145.4.4,0,0,1,.241.013,1.459,1.459,0,0,1,.339.113c.114.053.229.111.344.171a3.3,3.3,0,0,0,.36.161,1.13,1.13,0,0,0,.386.072.952.952,0,0,0,.456-.084.278.278,0,0,0,.1-.434.627.627,0,0,0-.187-.133,1.676,1.676,0,0,0-.277-.1l-.34-.092c-.122-.033-.246-.067-.371-.1a3.082,3.082,0,0,1-.5-.193,1.777,1.777,0,0,1-.437-.3,1.3,1.3,0,0,1-.31-.454,1.647,1.647,0,0,1-.109-.656,1.461,1.461,0,0,1,.25-.857,1.5,1.5,0,0,1,.707-.523,3.031,3.031,0,0,1,1.123-.172,3.629,3.629,0,0,1,.377.024,2.361,2.361,0,0,1,.371.078,3.414,3.414,0,0,1,.36.129,2.773,2.773,0,0,1,.355.182.472.472,0,0,1,.321.4,1.08,1.08,0,0,1-.427.766.335.335,0,0,1-.263.044,1.87,1.87,0,0,1-.36-.139c-.128-.065-.264-.125-.406-.183a1.166,1.166,0,0,0-.424-.088.863.863,0,0,0-.3.044.429.429,0,0,0-.189.123.286.286,0,0,0-.065.183.293.293,0,0,0,.077.216.6.6,0,0,0,.213.133,2.285,2.285,0,0,0,.312.1q.178.044.388.088a5.437,5.437,0,0,1,.58.148,1.927,1.927,0,0,1,.542.262,1.239,1.239,0,0,1,.394.455,1.561,1.561,0,0,1,.145.745,1.5,1.5,0,0,1-.59,1.262,2.661,2.661,0,0,1-1.649.423" transform="translate(-85.015 -61.078)" fill="#fff"/>
  </g>
</svg>
