<svg id="Groupe_112" data-name="Groupe 112" xmlns="http://www.w3.org/2000/svg" xmlns:xlink="http://www.w3.org/1999/xlink" width="231.841" height="164.718" viewBox="0 0 231.841 164.718">
  <defs>
    <clipPath id="clip-path">
      <rect id="Rectangle_108" data-name="Rectangle 108" width="231.841" height="164.718" fill="none"/>
    </clipPath>
  </defs>
  <g id="Groupe_111" data-name="Groupe 111" clip-path="url(#clip-path)">
    <path id="Tracé_169" data-name="Tracé 169" d="M3.273,18.011a1.2,1.2,0,0,1-.644.069.55.55,0,0,1-.338-.258,2.137,2.137,0,0,1-.182-.415L.1,11.045A2.248,2.248,0,0,1,0,10.6a.536.536,0,0,1,.123-.4A1.179,1.179,0,0,1,.7,9.882a1.172,1.172,0,0,1,.663-.069.549.549,0,0,1,.324.256,2.226,2.226,0,0,1,.177.417L3.671,16.2l3.187-1.008a2.034,2.034,0,0,1,.383-.082.465.465,0,0,1,.347.107,1.035,1.035,0,0,1,.28.5.993.993,0,0,1,.051.566.476.476,0,0,1-.221.293,1.824,1.824,0,0,1-.355.152Z" transform="translate(0 -2.331)" fill="#005175"/>
    <path id="Tracé_170" data-name="Tracé 170" d="M14.033,15.434a3.493,3.493,0,0,1-1.49.135,2.853,2.853,0,0,1-1.171-.433,3.072,3.072,0,0,1-.837-.819,3.5,3.5,0,0,1-.49-1.028A3.154,3.154,0,0,1,10,11.616a3.01,3.01,0,0,1,.8-1.388A3.4,3.4,0,0,1,12.3,9.371a3.059,3.059,0,0,1,1.241-.12,2.541,2.541,0,0,1,.982.328,2.494,2.494,0,0,1,.693.608,2.151,2.151,0,0,1,.377.716,1.356,1.356,0,0,1-.038,1.046,1.118,1.118,0,0,1-.7.536l-2.791.8a.874.874,0,0,0,.365.455,1.358,1.358,0,0,0,.581.189,1.745,1.745,0,0,0,.654-.06,3.818,3.818,0,0,0,.485-.171,1.932,1.932,0,0,0,.34-.187c.091-.063.175-.125.251-.186s.143-.11.2-.153a1,1,0,0,1,.18-.1.486.486,0,0,1,.351.008,1.045,1.045,0,0,1,.36.259.878.878,0,0,1,.181.214,1,1,0,0,1,.1.226.66.66,0,0,1-.143.587,2.257,2.257,0,0,1-.709.583,5.47,5.47,0,0,1-1.224.489m-2.248-3.111,1.854-.53a.494.494,0,0,0,.257-.143.309.309,0,0,0,.016-.278.589.589,0,0,0-.235-.331.87.87,0,0,0-.417-.148,1.389,1.389,0,0,0-.523.054,1.5,1.5,0,0,0-.6.325,1.166,1.166,0,0,0-.332.5.924.924,0,0,0-.014.55" transform="translate(-2.359 -2.198)" fill="#005175"/>
    <path id="Tracé_171" data-name="Tracé 171" d="M22.052,5.295a.991.991,0,0,1-.747-.029,1.09,1.09,0,0,1-.363-.685.994.994,0,0,1,.03-.747,1.061,1.061,0,0,1,.673-.361A1.017,1.017,0,0,1,22.4,3.5a1.064,1.064,0,0,1,.352.668,1.063,1.063,0,0,1-.019.764,1.042,1.042,0,0,1-.677.366m.291,9.684a2.1,2.1,0,0,1-.426.058.524.524,0,0,1-.379-.149,1.152,1.152,0,0,1-.27-.582,1.1,1.1,0,0,1-.014-.616.548.548,0,0,1,.277-.311,1.993,1.993,0,0,1,.422-.15,1.726,1.726,0,0,0,.324-.114.88.88,0,0,0,.3-.227.863.863,0,0,0,.178-.388,1.354,1.354,0,0,0-.031-.581L21.591,7.159a1.864,1.864,0,0,1-.051-.4.5.5,0,0,1,.158-.364,1.237,1.237,0,0,1,.577-.262,1.121,1.121,0,0,1,.642-.014.525.525,0,0,1,.3.28,2.558,2.558,0,0,1,.137.42l1.122,4.735a2.861,2.861,0,0,1,.043,1.262,2.664,2.664,0,0,1-.441,1.02,2.832,2.832,0,0,1-.773.734,3.1,3.1,0,0,1-.961.41" transform="translate(-4.974 -0.814)" fill="#005175"/>
    <path id="Tracé_172" data-name="Tracé 172" d="M31.517,11.065a1.125,1.125,0,0,1-.683-.029.471.471,0,0,1-.284-.342l.08-.227a1.393,1.393,0,0,1-.218.347,2.016,2.016,0,0,1-1.242.709,2.424,2.424,0,0,1-1.094-.036,2.874,2.874,0,0,1-1.009-.492,3.36,3.36,0,0,1-.792-.847,2.99,2.99,0,0,1-.443-1.093,2.928,2.928,0,0,1,0-1.163,3.143,3.143,0,0,1,.427-1.064A3.07,3.07,0,0,1,27.013,6a2.384,2.384,0,0,1,1-.443,2.044,2.044,0,0,1,.779-.021,2.086,2.086,0,0,1,.578.191,1.621,1.621,0,0,1,.38.262l-.128-.149a.484.484,0,0,1,.112-.476,1.178,1.178,0,0,1,.635-.28,1.11,1.11,0,0,1,.642.012.548.548,0,0,1,.295.3,2.5,2.5,0,0,1,.131.447l.805,4.131a2.4,2.4,0,0,1,.045.451.528.528,0,0,1-.162.386,1.19,1.19,0,0,1-.6.248M29.086,9.687a1.074,1.074,0,0,0,.538-.273,1.173,1.173,0,0,0,.321-.517,1.278,1.278,0,0,0,.031-.638,1.214,1.214,0,0,0-.779-.936,1.1,1.1,0,0,0-.606-.05,1.171,1.171,0,0,0-.584.288,1.3,1.3,0,0,0-.344.527,1.236,1.236,0,0,0-.04.654A1.147,1.147,0,0,0,27.9,9.3a1.224,1.224,0,0,0,.527.344,1.258,1.258,0,0,0,.66.04" transform="translate(-6.138 -1.202)" fill="#005175"/>
    <path id="Tracé_173" data-name="Tracé 173" d="M36.272,10.432a1.2,1.2,0,0,1-.651-.047.536.536,0,0,1-.273-.317,2.42,2.42,0,0,1-.1-.443L34.726,5.4a1.9,1.9,0,0,1-.008-.453.549.549,0,0,1,.2-.363,1.191,1.191,0,0,1,.62-.206,1.233,1.233,0,0,1,.626.039.516.516,0,0,1,.269.238.9.9,0,0,1,.081.254L36.373,5a1.257,1.257,0,0,1,.105-.192,1.68,1.68,0,0,1,.252-.3,1.71,1.71,0,0,1,.412-.291,1.74,1.74,0,0,1,.587-.171,2.688,2.688,0,0,1,.3-.018,1.794,1.794,0,0,1,.347.03,1.315,1.315,0,0,1,.339.107.777.777,0,0,1,.264.194.568.568,0,0,1,.131.315,1.5,1.5,0,0,1-.125.871.685.685,0,0,1-.538.416.841.841,0,0,1-.3,0A.923.923,0,0,1,38,5.9a.692.692,0,0,0-.135-.052.84.84,0,0,0-.27,0,1.223,1.223,0,0,0-.338.091.969.969,0,0,0-.284.189.734.734,0,0,0-.187.282.714.714,0,0,0-.037.341l.331,2.664a2.278,2.278,0,0,1,.012.448.5.5,0,0,1-.194.362,1.283,1.283,0,0,1-.627.2" transform="translate(-8.265 -0.959)" fill="#005175"/>
    <path id="Tracé_174" data-name="Tracé 174" d="M44.524,8.893a2.44,2.44,0,0,1-1.059-.221,2.851,2.851,0,0,1-.907-.649,3.285,3.285,0,0,1-.632-.973,3.1,3.1,0,0,1-.245-1.173,2.959,2.959,0,0,1,.206-1.144,3.184,3.184,0,0,1,.606-.974,3.112,3.112,0,0,1,.886-.679,2.352,2.352,0,0,1,1.045-.261,2.139,2.139,0,0,1,1.035.222,2.2,2.2,0,0,1,.76.639,2.964,2.964,0,0,1,.473.956,4.623,4.623,0,0,1,.183,1.144,4.067,4.067,0,0,1-.121,1.174,3.1,3.1,0,0,1-.441.983,2.287,2.287,0,0,1-.74.689,2.122,2.122,0,0,1-1.051.267m.215-1.809a1.091,1.091,0,0,0,.589-.174,1.283,1.283,0,0,0,.419-.451,1.209,1.209,0,0,0,.155-.625,1.242,1.242,0,0,0-.169-.625A1.212,1.212,0,0,0,44.086,4.8a1.121,1.121,0,0,0-.42.44,1.27,1.27,0,0,0-.142.63,1.24,1.24,0,0,0,.168.619,1.193,1.193,0,0,0,.446.439,1.157,1.157,0,0,0,.6.154M46.9,8.867a1.165,1.165,0,0,1-.625-.123A.63.63,0,0,1,46,8.332L45.884.942A3.02,3.02,0,0,1,45.907.5a.5.5,0,0,1,.208-.352A1.108,1.108,0,0,1,46.747,0a1.2,1.2,0,0,1,.643.118.522.522,0,0,1,.237.332,2.273,2.273,0,0,1,.05.45l.114,7.025a2.307,2.307,0,0,1-.036.446.547.547,0,0,1-.226.351,1.114,1.114,0,0,1-.625.144" transform="translate(-9.925 0)" fill="#005175"/>
    <path id="Tracé_175" data-name="Tracé 175" d="M51.61,9.23a1.186,1.186,0,0,1-.618-.21.524.524,0,0,1-.186-.369,2.337,2.337,0,0,1,.016-.447l.555-4.22a2.229,2.229,0,0,1,.1-.442.518.518,0,0,1,.28-.3,1.238,1.238,0,0,1,.658-.043,1.121,1.121,0,0,1,.6.215.546.546,0,0,1,.185.37,2.344,2.344,0,0,1-.018.466l-.553,4.208a2.324,2.324,0,0,1-.1.437.51.51,0,0,1-.274.3,1.225,1.225,0,0,1-.651.037m.909-6.917a1.206,1.206,0,0,1-.635-.219.547.547,0,0,1-.19-.382,2.481,2.481,0,0,1,.018-.466,2.176,2.176,0,0,1,.11-.459.537.537,0,0,1,.286-.306,1.244,1.244,0,0,1,.67-.042A1.179,1.179,0,0,1,53.4.658a.537.537,0,0,1,.189.381,2.358,2.358,0,0,1-.018.466,2.434,2.434,0,0,1-.1.453.523.523,0,0,1-.281.315,1.269,1.269,0,0,1-.67.041" transform="translate(-12.097 -0.099)" fill="#005175"/>
    <path id="Tracé_176" data-name="Tracé 176" d="M54.9,10.605a1.194,1.194,0,0,1-.571-.316.521.521,0,0,1-.117-.4,2.247,2.247,0,0,1,.094-.437l1.3-4.091a1.808,1.808,0,0,1,.178-.4.524.524,0,0,1,.325-.236,1.234,1.234,0,0,1,.647.078,1.219,1.219,0,0,1,.515.272.5.5,0,0,1,.151.311.758.758,0,0,1-.031.277.457.457,0,0,0-.031.177l-.139.2a.716.716,0,0,1,.293-.3,1.757,1.757,0,0,1,.5-.2,2.256,2.256,0,0,1,.584-.063,1.965,1.965,0,0,1,.566.09,2.454,2.454,0,0,1,.929.52,2.111,2.111,0,0,1,.551.822,2.847,2.847,0,0,1,.172,1.047,4.1,4.1,0,0,1-.2,1.183l-.675,2.116a2.206,2.206,0,0,1-.175.411.5.5,0,0,1-.322.249,1.251,1.251,0,0,1-.648-.078,1.222,1.222,0,0,1-.582-.32.55.55,0,0,1-.124-.4,2.029,2.029,0,0,1,.089-.44l.67-2.1a1.448,1.448,0,0,0,.072-.63.889.889,0,0,0-.229-.489,1.2,1.2,0,0,0-.526-.315,1.222,1.222,0,0,0-.627-.045,1.011,1.011,0,0,0-.5.263,1.238,1.238,0,0,0-.319.539l-.674,2.115a2.252,2.252,0,0,1-.176.411.5.5,0,0,1-.323.249,1.24,1.24,0,0,1-.647-.078" transform="translate(-12.908 -1.122)" fill="#005175"/>
    <path id="Tracé_177" data-name="Tracé 177" d="M67.181,16.9a2.443,2.443,0,0,1-.634-.875,2.852,2.852,0,0,1-.233-1.091A3.254,3.254,0,0,1,66.5,13.79a3.07,3.07,0,0,1,.608-1.032,2.935,2.935,0,0,1,.924-.705,3.162,3.162,0,0,1,1.1-.312,3.083,3.083,0,0,1,1.112.094,2.363,2.363,0,0,1,.949.51,2.172,2.172,0,0,1,.616.859,2.23,2.23,0,0,1,.13.987,2.975,2.975,0,0,1-.293,1.025,4.691,4.691,0,0,1-.635.97,4.039,4.039,0,0,1-.88.785,3.073,3.073,0,0,1-.988.43,2.285,2.285,0,0,1-1.01.013,2.127,2.127,0,0,1-.958-.511m1.377-1.192a1.091,1.091,0,0,0,.552.267,1.3,1.3,0,0,0,.616-.051,1.2,1.2,0,0,0,.533-.359,1.226,1.226,0,0,0,.3-.576,1.212,1.212,0,0,0-.944-1.409,1.13,1.13,0,0,0-.608.043,1.276,1.276,0,0,0-.529.37,1.24,1.24,0,0,0-.293.571,1.193,1.193,0,0,0,.035.625,1.168,1.168,0,0,0,.34.519m.4,2.775a1.175,1.175,0,0,1-.379-.512.626.626,0,0,1,.074-.488l4.887-5.546a3.411,3.411,0,0,1,.317-.314.51.51,0,0,1,.391-.12,1.108,1.108,0,0,1,.564.319,1.2,1.2,0,0,1,.4.519.531.531,0,0,1-.049.405,2.311,2.311,0,0,1-.266.366l-4.646,5.271a2.191,2.191,0,0,1-.327.306.538.538,0,0,1-.4.108,1.12,1.12,0,0,1-.56-.315" transform="translate(-15.791 -2.739)" fill="#005175"/>
    <path id="Tracé_178" data-name="Tracé 178" d="M72.6,23.793a3.51,3.51,0,0,1-.484-1.415,2.835,2.835,0,0,1,.142-1.24,3.034,3.034,0,0,1,.6-1.007,3.475,3.475,0,0,1,.881-.72,3.147,3.147,0,0,1,1.614-.444,3,3,0,0,1,1.537.443,3.4,3.4,0,0,1,1.189,1.26,3.053,3.053,0,0,1,.411,1.177,2.527,2.527,0,0,1-.085,1.031,2.463,2.463,0,0,1-.425.818,2.151,2.151,0,0,1-.607.536,1.357,1.357,0,0,1-1.024.213,1.116,1.116,0,0,1-.688-.555l-1.438-2.522a.861.861,0,0,0-.354.462,1.348,1.348,0,0,0-.046.609,1.73,1.73,0,0,0,.214.622,3.787,3.787,0,0,0,.28.429,2.075,2.075,0,0,0,.261.287c.085.073.165.14.241.2s.142.113.2.161a.993.993,0,0,1,.142.149.488.488,0,0,1,.076.344,1.037,1.037,0,0,1-.165.411.876.876,0,0,1-.166.227.979.979,0,0,1-.2.148.662.662,0,0,1-.6,0,2.266,2.266,0,0,1-.735-.549,5.543,5.543,0,0,1-.766-1.073m2.49-2.922.955,1.675a.5.5,0,0,0,.2.216.314.314,0,0,0,.273-.051.584.584,0,0,0,.267-.306.886.886,0,0,0,.045-.44,1.372,1.372,0,0,0-.178-.5,1.481,1.481,0,0,0-.459-.511,1.172,1.172,0,0,0-.565-.2.922.922,0,0,0-.538.117" transform="translate(-17.17 -4.516)" fill="#005175"/>
    <path id="Tracé_179" data-name="Tracé 179" d="M61.154,134.927a9.552,9.552,0,0,1-4.568-1.041,7.4,7.4,0,0,1-3.025-2.961,9.19,9.19,0,0,1-1.076-4.56,9.385,9.385,0,0,1,1.022-4.415,7.8,7.8,0,0,1,2.89-3.1,8.242,8.242,0,0,1,4.38-1.14,6.65,6.65,0,0,1,4.873,1.741,9,9,0,0,1,2.4,4.631.654.654,0,0,1,.018.179.549.549,0,0,1-.134.4,1.093,1.093,0,0,1-.35.224,10.381,10.381,0,0,1-1.293.5c-.455.143-.9.3-1.329.466q-1.883.7-3.786,1.373T57.4,128.663c-.1.048-.143.108-.143.179a.281.281,0,0,0,.037.126,4.557,4.557,0,0,0,1.974,1.921,5.936,5.936,0,0,0,2.692.629,6.056,6.056,0,0,0,2.108-.36,12.9,12.9,0,0,0,1.93-.9,2.335,2.335,0,0,1,.251-.126.636.636,0,0,1,.251-.054.488.488,0,0,1,.386.152,1.447,1.447,0,0,1,.225.35c.046.085.14.273.278.566s.27.586.394.879a2.06,2.06,0,0,1,.189.565.478.478,0,0,1-.107.323,1.646,1.646,0,0,1-.251.234,9.343,9.343,0,0,1-3.1,1.328,14.165,14.165,0,0,1-3.365.449m-4.5-8.741,3.625-1.256q1.814-.629,3.608-1.257a5.337,5.337,0,0,0-1.248-1.723,2.8,2.8,0,0,0-1.965-.735,3.454,3.454,0,0,0-2.262.735,4.386,4.386,0,0,0-1.329,1.876,6.642,6.642,0,0,0-.43,2.36" transform="translate(-12.498 -28.031)" fill="#fff"/>
    <path id="Tracé_180" data-name="Tracé 180" d="M78.354,115.9q0-1.544-.018-3.079t-.018-3.06a.65.65,0,0,1,.735-.736h2.818a.651.651,0,0,1,.736.736q0,1.526-.009,3.06t-.009,3.079c0,.143.078.216.234.216H85.64a.65.65,0,0,1,.736.736c0,.37,0,.745-.009,1.121s-.009.757-.009,1.14a.65.65,0,0,1-.735.736h-2.8q-.234,0-.234.215,0,2.908.018,5.815t.018,5.815a.65.65,0,0,1-.735.736H79.036a.65.65,0,0,1-.736-.736q0-2.906.027-5.815t.027-5.815c0-.18-.126-.266-.377-.26s-.539.027-.861.062a2.007,2.007,0,0,1-.862-.072q-.377-.126-.377-.682v-2.261a.65.65,0,0,1,.736-.736H78.12c.155,0,.234-.072.234-.216" transform="translate(-18.068 -25.961)" fill="#fff"/>
    <path id="Tracé_181" data-name="Tracé 181" d="M128.065,142.4a4.293,4.293,0,0,0-.085-1.448c-.107-.766-.23-1.55-.365-2.329s-.237-1.3-.295-1.525a4.426,4.426,0,0,0-.222-.725.951.951,0,0,0-.656-.563h0a1.266,1.266,0,0,0-.647-.026q-.269.063-.542.139a14.735,14.735,0,0,1-3.744.6,12.133,12.133,0,0,1-3.765-.531,11.018,11.018,0,0,1-5.831-3.72,11.661,11.661,0,0,1-2.34-5.985,18.015,18.015,0,0,1,.693-6.964,16.57,16.57,0,0,1,2.109-4.488,15.1,15.1,0,0,1,3.4-3.65,11.425,11.425,0,0,1,4.343-2.065,9.6,9.6,0,0,1,4.946.2,10.72,10.72,0,0,1,3.37,1.64,18.112,18.112,0,0,1,2.775,2.576c.125.117.244.237.358.36a1.147,1.147,0,0,0,.519.32.926.926,0,0,0,.873-.152,4.8,4.8,0,0,0,.548-.5q.179-.194.718-.809t1.16-1.373q.622-.76,1.093-1.361a3.151,3.151,0,0,0,.544-.808,1.264,1.264,0,0,0-.355-1.2,17.007,17.007,0,0,0-4.5-3.658,24.72,24.72,0,0,0-5.329-2.341,18.976,18.976,0,0,0-8.3-.682,17.3,17.3,0,0,0-7.085,2.773,20.919,20.919,0,0,0-5.484,5.5,26.143,26.143,0,0,0-3.515,7.476,24.119,24.119,0,0,0-.755,11.068,18.832,18.832,0,0,0,4.449,9.3,19.8,19.8,0,0,0,9.511,5.751,23.4,23.4,0,0,0,5.8.853q.32.01.633.01a14.408,14.408,0,0,0,5.142-.86,1.332,1.332,0,0,0,.835-.807" transform="translate(-24.137 -24.086)" fill="#005175"/>
    <path id="Tracé_182" data-name="Tracé 182" d="M162.428,153.663q-1.793-3.916-3.556-7.835c-1.179-2.619-2.347-5.267-3.474-7.872q-1.406-3.257-2.791-6.525c-.92-2.169-1.881-4.353-2.859-6.5a.436.436,0,0,0-.766,0c-1,2.147-1.981,4.322-2.911,6.465q-1.414,3.256-2.847,6.5c-1.149,2.6-2.34,5.236-3.541,7.843s-2.406,5.2-3.627,7.809c-.042.1-.085.2-.127.316a1.12,1.12,0,0,0-.076.4.64.64,0,0,0,.47.676,2.5,2.5,0,0,0,.67.1l3.293.015h0a1.032,1.032,0,0,0,.933-.59,6.738,6.738,0,0,0,.353-.72c.1-.245.2-.477.3-.693.3-.668.616-1.381.927-2.121q.445-1.064.948-2.1c.014-.036.018-.036.042-.036l10.186.043c.024,0,.028,0,.048.05.308.677.6,1.381.882,2.092s.564,1.411.869,2.11q.139.328.282.693c.094.246.2.488.314.721a1.045,1.045,0,0,0,.955.626l4.156.017h.014a2.511,2.511,0,0,0,.657-.1.64.64,0,0,0,.476-.672,1.153,1.153,0,0,0-.073-.4c-.042-.114-.084-.219-.128-.323m-10.348-9.523-6.263-.026q.833-1.917,1.659-3.825.789-1.826,1.571-3.662.745,1.841,1.492,3.673.779,1.915,1.542,3.839" transform="translate(-32.35 -29.696)" fill="#005175"/>
    <path id="Tracé_183" data-name="Tracé 183" d="M179.517,123.2a10.052,10.052,0,0,0-3.092-1.461,6.523,6.523,0,0,0,1.479-2.453,6.005,6.005,0,0,0,.106-3.073,5.338,5.338,0,0,0-1.473-2.875,5.775,5.775,0,0,0-2.555-1.4,10.4,10.4,0,0,0-3.031-.3,18.861,18.861,0,0,0-3.009.369l-6.519,1.351a1.006,1.006,0,0,0-.679.422,1.04,1.04,0,0,0-.107.8c.124.593.255,1.189.4,1.791s.277,1.193.413,1.789q.747,3.368,1.448,6.746.752,3.619,1.454,7.246.169.9.325,1.815t.346,1.829a1.044,1.044,0,0,0,.414.688.9.9,0,0,0,.513.147,1.333,1.333,0,0,0,.277-.03l7.5-1.554a15.932,15.932,0,0,0,3.115-.99,10,10,0,0,0,2.7-1.708,5.961,5.961,0,0,0,1.878-6,4.953,4.953,0,0,0-1.9-3.15m-8.2,2.673c.421-.088.93-.164,1.512-.224a7.652,7.652,0,0,1,1.681.014,3.091,3.091,0,0,1,1.364.478,1.665,1.665,0,0,1,.684,1.115,1.815,1.815,0,0,1-.145,1.288,2.9,2.9,0,0,1-.922.993,6.049,6.049,0,0,1-1.371.7,10.945,10.945,0,0,1-1.413.406l-3.588.743q-.24-1.217-.491-2.435l-.5-2.417Zm1.869-6.282a2.766,2.766,0,0,1-1.041,1.092,4.836,4.836,0,0,1-1.544.609L167.19,122l-.506-2.442q-.255-1.223-.519-2.438l2.929-.607a8.9,8.9,0,0,1,1.8-.164,3.354,3.354,0,0,1,1.609.4,1.809,1.809,0,0,1,.84,1.317,2.192,2.192,0,0,1-.158,1.521" transform="translate(-38.244 -26.581)" fill="#005175"/>
    <path id="Tracé_184" data-name="Tracé 184" d="M206.227,122.491a14.857,14.857,0,0,0-5.316-1.59l-7.383-.858a.987.987,0,0,0-1.2.952q-.117,1.015-.2,2.021t-.184,2.011c-.292,2.861-.6,5.709-.923,8.467-.334,2.891-.7,5.872-1.088,8.86q-.145,1.061-.306,2.113t-.286,2.11a.99.99,0,0,0,.952,1.2l3.443.4a.956.956,0,0,0,.848-.2,1.51,1.51,0,0,0,.342-.672,7.712,7.712,0,0,0,.213-1.371c.042-.535.085-.99.128-1.358q.175-1.338.341-2.689c.109-.883.216-1.762.322-2.66l3.534.426c.475.973.961,1.936,1.447,2.86q.743,1.413,1.466,2.835.459.877.894,1.8a17.606,17.606,0,0,0,.978,1.8,1.1,1.1,0,0,0,.828.551l3.959.459a2.392,2.392,0,0,0,.269.014c.121,0,.254-.008.4-.021a.667.667,0,0,0,.655-.615,1.092,1.092,0,0,0-.071-.538c-.055-.137-.11-.264-.168-.383l-.67-1.336q-.526-1.046-1.225-2.407t-1.362-2.675q-.662-1.317-1.092-2.209c-.229-.475-.326-.7-.369-.806a8.663,8.663,0,0,0,3.67-3.1,10.48,10.48,0,0,0,1.56-4.519,8.938,8.938,0,0,0-.843-5.415,8.593,8.593,0,0,0-3.558-3.457m-1.3,8.387a3.94,3.94,0,0,1-1.5,2.824,4.19,4.19,0,0,1-3.152.779l-3.758-.437L197,129.91q.24-2.072.462-4.138l3.835.446a4.014,4.014,0,0,1,2.9,1.493,4.3,4.3,0,0,1,.729,3.168" transform="translate(-45.083 -28.583)" fill="#005175"/>
    <path id="Tracé_185" data-name="Tracé 185" d="M225.407,114.569a.8.8,0,0,0-.879-.881l-2.88,0a.794.794,0,0,0-.88.88q0,2.745.014,5.493t.012,5.492q0,2.745-.02,5.491t-.02,5.494a.793.793,0,0,0,.879.88l2.879,0h0a.8.8,0,0,0,.878-.879q0-2.745-.013-5.494t-.013-5.492q0-2.745.021-5.492t.02-5.494" transform="translate(-52.567 -27.072)" fill="#005175"/>
    <path id="Tracé_186" data-name="Tracé 186" d="M252.49,122.184a12.254,12.254,0,0,0-4.009-2.545,12.171,12.171,0,0,0-13.584,3.31,12.531,12.531,0,0,0-2.341,4,11.949,11.949,0,0,0-.688,4.593,12.189,12.189,0,0,0,3.761,8.3,11.832,11.832,0,0,0,3.972,2.5,12.072,12.072,0,0,0,4.35.768q.32,0,.646-.014a12.181,12.181,0,0,0,4.863-1.2,12.341,12.341,0,0,0,6.165-6.822,11.641,11.641,0,0,0,.707-4.578,11.842,11.842,0,0,0-1.114-4.521,12.714,12.714,0,0,0-2.728-3.789m-8.378,1.153a6.212,6.212,0,0,1,3.462.958,7.464,7.464,0,0,1,2.536,2.768,8.434,8.434,0,0,1,1,3.614,8.526,8.526,0,0,1-.651,3.639,7.282,7.282,0,0,1-2.216,2.971,6.2,6.2,0,0,1-3.689,1.279,6.568,6.568,0,0,1-3.876-.936,7.548,7.548,0,0,1-2.623-2.756,8.083,8.083,0,0,1-.352-7.279,7.523,7.523,0,0,1,2.314-2.971,6.394,6.394,0,0,1,3.711-1.279c.129-.006.256-.009.382-.009" transform="translate(-55.211 -28.3)" fill="#005175"/>
    <path id="Tracé_187" data-name="Tracé 187" d="M281.933,144.841l-10.8-1.995a.177.177,0,0,1-.121-.064.2.2,0,0,1-.016-.152c.29-1.57.533-2.865.764-4.078q.386-2.045.76-4.058c.459-2.488.911-4.99,1.343-7.439.437-2.475.889-4.977,1.344-7.437a.814.814,0,0,0-.7-1.078l-3.364-.621a.869.869,0,0,0-.7.118,1.015,1.015,0,0,0-.347.658c-.409,2.215-.8,4.451-1.166,6.644-.373,2.237-.766,4.479-1.171,6.665-.587,3.177-1.2,6.38-1.82,9.518q-.23,1.137-.468,2.264c-.161.761-.313,1.525-.45,2.27a1.017,1.017,0,0,0,.09.737.86.86,0,0,0,.609.36l15.327,2.833a1.392,1.392,0,0,0,.248.024.759.759,0,0,0,.459-.133.94.94,0,0,0,.336-.667l.552-3.312a.816.816,0,0,0-.706-1.056" transform="translate(-63.101 -28.074)" fill="#005175"/>
    <path id="Tracé_188" data-name="Tracé 188" d="M299.239,138.707c-.055-.352-.117-.7-.185-1.04a.71.71,0,0,0-.876-.588l-8.385,1.192q-.151-1.057-.293-2.108c-.1-.7-.192-1.4-.292-2.1l6.965-.992a.693.693,0,0,0,.673-.838l-.254-1.78a.711.711,0,0,0-.286-.514.816.816,0,0,0-.594-.1l-6.965.99q-.146-1.031-.3-2.057c-.1-.68-.2-1.363-.3-2.056l8.044-1.146a.712.712,0,0,0,.677-.814c-.03-.344-.069-.693-.12-1.047l-.147-1.034a.7.7,0,0,0-.882-.629l-11.308,1.611a.8.8,0,0,0-.555.286.734.734,0,0,0-.117.565c.2,1.385.41,2.78.635,4.148.227,1.393.44,2.789.634,4.151.283,1.988.555,4,.807,5.964q.087.715.167,1.426c.053.475.114.952.182,1.43a.673.673,0,0,0,.711.643,1.148,1.148,0,0,0,.172-.014l11.676-1.662a.7.7,0,0,0,.672-.853q-.072-.507-.155-1.034" transform="translate(-67.562 -29.059)" fill="#005175"/>
    <path id="Tracé_189" data-name="Tracé 189" d="M32.291,51.515l8.237-1.73A27.945,27.945,0,0,0,47.8,47.162a17.827,17.827,0,0,0,5.811-4.813,13.709,13.709,0,0,0,2.761-7.216,17.21,17.21,0,0,0,.059-2.505,15.642,15.642,0,0,0-.312-2.465,14.329,14.329,0,0,0-3.227-6.817,13.665,13.665,0,0,0-5.61-3.719,21.709,21.709,0,0,0-6.957-1.2A33.894,33.894,0,0,0,33,19.148l-14.617,3.07a1.561,1.561,0,0,0-1.055.639,1.637,1.637,0,0,0-.144,1.242c.241,1.148.5,2.318.782,3.478s.549,2.32.812,3.463c1.035,4.6,2.054,9.293,3.031,13.942,1.045,4.974,2.065,10,3.033,14.927q.336,1.763.644,3.549c.2,1.17.429,2.366.678,3.553a1.637,1.637,0,0,0,.632,1.079,1.339,1.339,0,0,0,.76.212,2.27,2.27,0,0,0,.463-.052l5.632-1.183a1.6,1.6,0,0,0,1.056-.619,1.522,1.522,0,0,0,.158-1.2l-2.734-13.5a.165.165,0,0,1,.156-.24m7.792-24.706a11.052,11.052,0,0,1,3.8.921,6.693,6.693,0,0,1,2.868,2.429c.169.276.353.615.546,1.006a3.779,3.779,0,0,1,.449,2.132,9.82,9.82,0,0,1-.123,1.158,6.394,6.394,0,0,1-1.732,3.382,11.609,11.609,0,0,1-3.265,2.357A16.14,16.14,0,0,1,38.89,41.5l-8.5,1.785q-.753-3.583-1.525-7.178t-1.555-7.17l8.921-1.874a14.319,14.319,0,0,1,3.852-.255" transform="translate(-4.08 -4.388)" fill="#3c9851"/>
    <path id="Tracé_190" data-name="Tracé 190" d="M65.283,59.512l-3.347-.494a1.229,1.229,0,0,0-1.507,1.118q-.472,3.193-.924,6.39t-.923,6.383q-.472,3.19-.962,6.378t-.963,6.384a1.225,1.225,0,0,0,1.118,1.507l3.346.494a1.785,1.785,0,0,0,.271.021,1.222,1.222,0,0,0,.744-.229,1.321,1.321,0,0,0,.492-.911q.473-3.193.925-6.39t.923-6.383q.472-3.19.962-6.378t.963-6.383a1.232,1.232,0,0,0-1.118-1.507" transform="translate(-13.486 -14.049)" fill="#3c9851"/>
    <path id="Tracé_191" data-name="Tracé 191" d="M103,83.635q-.262-.381-1.193-1.739t-2.164-3.122Q98.411,77.01,97.234,75.3t-1.953-2.881a8.96,8.96,0,0,1-.785-1.285.3.3,0,0,1,.149-.3A11.747,11.747,0,0,0,98.2,65.486a17.123,17.123,0,0,0,.645-6.783,14.364,14.364,0,0,0-2.449-7.353,10.816,10.816,0,0,0-5.159-3.86,15.889,15.889,0,0,0-6.836-.778l-9.289.845q-1.026.094-.917,1.3.135,1.488.307,2.958t.331,2.957q.646,6.263,1.211,12.473.6,6.555,1.114,13.087.119,1.577.21,3.141t.232,3.11q.109,1.2,1.135,1.109l4.331-.394a.861.861,0,0,0,.738-.356,2.1,2.1,0,0,0,.184-.882,12.745,12.745,0,0,0-.116-1.967q-.145-1.184-.221-2.014-.155-1.977-.323-3.968t-.347-3.966c-.021-.229.069-.353.269-.37l4.481-.408a.307.307,0,0,1,.293.175q1.256,1.877,2.558,3.707t2.581,3.676q.809,1.138,1.6,2.35a26.31,26.31,0,0,0,1.672,2.287,1.019,1.019,0,0,0,.9.437l4.982-.453a3.305,3.305,0,0,0,.753-.184.578.578,0,0,0,.405-.671,1.4,1.4,0,0,0-.178-.576c-.1-.173-.2-.333-.3-.478M91.251,64.328a5.123,5.123,0,0,1-3.87,2.141l-5.057.46q-.294-3.234-.59-6.484t-.614-6.481l5.157-.469a4.938,4.938,0,0,1,4.22,1.435,7.384,7.384,0,0,1,1.884,4.619,6.819,6.819,0,0,1-1.131,4.778" transform="translate(-17.665 -11.105)" fill="#3c9851"/>
    <path id="Tracé_192" data-name="Tracé 192" d="M131.359,56.773a12.03,12.03,0,0,0-3.815-2.756,12.055,12.055,0,0,0-9.677-.008,11.794,11.794,0,0,0-3.79,2.742,12.676,12.676,0,0,0-2.466,3.932,12.434,12.434,0,0,0-.874,4.6,12.635,12.635,0,0,0,.865,4.636,12.442,12.442,0,0,0,2.449,3.918,11.605,11.605,0,0,0,3.785,2.709,11.756,11.756,0,0,0,4.865.991,11.606,11.606,0,0,0,4.823-1,12.086,12.086,0,0,0,3.822-2.713,12.563,12.563,0,0,0,2.511-3.9,12.094,12.094,0,0,0,.893-4.593,12.29,12.29,0,0,0-.892-4.615,12.876,12.876,0,0,0-2.5-3.947m-8.5,15.758a5.912,5.912,0,0,1-3.508-1.045,7.132,7.132,0,0,1-2.308-2.741,7.968,7.968,0,0,1-.024-6.987,7.125,7.125,0,0,1,2.258-2.733,6.21,6.21,0,0,1,6.917.006,7.065,7.065,0,0,1,2.225,2.747,8.307,8.307,0,0,1,.779,3.508,8.425,8.425,0,0,1-.756,3.465,6.913,6.913,0,0,1-2.166,2.736,5.545,5.545,0,0,1-3.418,1.044" transform="translate(-26.369 -12.62)" fill="#3c9851"/>
    <path id="Tracé_193" data-name="Tracé 193" d="M166.9,59.8h-2.862a.954.954,0,0,0-.839.372,1.639,1.639,0,0,0-.249.83l-.034,4q-.017,2.12-.024,4.238t-.009,4.238q0,1.224.009,2.436t.007,2.411a5.387,5.387,0,0,1-1.4,4.015,4.734,4.734,0,0,1-3.467,1.375,4.952,4.952,0,0,1-2.448-.632,4.732,4.732,0,0,1-1.806-1.827,5.866,5.866,0,0,1-.684-2.931q0-1.2.008-2.411t.008-2.437q0-2.118-.008-4.238T153.069,65l-.035-4.023a1.609,1.609,0,0,0-.249-.806.959.959,0,0,0-.838-.37h-2.929c-.681,0-1.089.467-1.089,1.249q0,1.126.034,2.242t.051,2.2q.05,4.214.05,8.407,0,1.119-.008,2.257t-.008,2.284a12.147,12.147,0,0,0,1.334,5.829,9.783,9.783,0,0,0,3.59,3.827,9.838,9.838,0,0,0,9.945,0,9.869,9.869,0,0,0,3.588-3.826,12.229,12.229,0,0,0,1.361-5.83q0-1.142-.008-2.284t-.009-2.257q0-4.193.05-8.4.035-1.1.061-2.212t.025-2.24c0-.782-.407-1.249-1.088-1.249" transform="translate(-35.226 -14.24)" fill="#3c9851"/>
    <path id="Tracé_194" data-name="Tracé 194" d="M202.158,57.688l-17.6-1.56a.815.815,0,0,0-.99.849q-.314,3.544-.561,7.082t-.562,7.1q-.449,5.072-.967,10.16-.131,1.217-.27,2.421t-.248,2.422a.815.815,0,0,0,.824,1.01l18.179,1.611a.815.815,0,0,0,.989-.849q.077-.864.146-1.761t.1-1.766a.833.833,0,0,0-.828-.966l-13.092-1.16a.235.235,0,0,1-.242-.29q.162-1.838.336-3.664t.333-3.643a.236.236,0,0,1,.289-.242l10.881.964a.8.8,0,0,0,.987-.827l.269-3.035a.8.8,0,0,0-.826-.988L188.42,69.6a.236.236,0,0,1-.242-.29q.16-1.793.307-3.578t.306-3.578a.236.236,0,0,1,.289-.242l12.561,1.113a.834.834,0,0,0,.986-.805q.121-.861.2-1.757t.155-1.761a.815.815,0,0,0-.824-1.011" transform="translate(-43.089 -13.364)" fill="#3c9851"/>
    <path id="Tracé_195" data-name="Tracé 195" d="M226.173,44.365q.072-1.057.061-2.155t-.013-2.155q0-1.139-1.009-1.138H204.319q-1.01,0-1.009,1.138c0,.705-.005,1.423-.012,2.155s.012,1.451.062,2.155q.073,1.085,1.009,1.084h6.826a.286.286,0,0,1,.32.326l.024,10.979q0,4.744-.037,9.515t-.037,9.543q0,1.113,1.01,1.112h4.262q1.01,0,1.01-1.112,0-4.635-.024-9.285t-.024-9.286q0-2.872.011-5.733t.013-5.733c0-.218.1-.326.3-.326h7.146c.622,0,.961-.361,1.01-1.084" transform="translate(-48.41 -9.267)" fill="#3c9851"/>
    <path id="Tracé_196" data-name="Tracé 196" d="M247.474,58.99q.16-1.008.242-2.063t.175-2.069q.1-1.093-.833-1.176l-19.243-1.727q-.93-.083-1.028,1.009-.09,1.015-.2,2.068t-.129,2.073q-.025,1.047.837,1.124l6.286.565c.2.018.286.13.266.338l-.923,10.538q-.408,4.552-.853,9.128t-.856,9.154q-.1,1.066.834,1.15l3.926.353q.93.083,1.026-.984.4-4.448.776-8.912t.778-8.912q.247-2.756.5-5.5t.505-5.5c.019-.209.119-.3.3-.288l6.58.59q.863.078,1.024-.957" transform="translate(-53.926 -12.37)" fill="#3c9851"/>
    <path id="Tracé_197" data-name="Tracé 197" d="M271.34,90.112c-.078-.518-.162-1.025-.257-1.522a.747.747,0,0,0-.931-.657L258.2,89.539a.213.213,0,0,1-.274-.2q-.214-1.6-.417-3.184t-.415-3.165a.21.21,0,0,1,.21-.263l9.93-1.336a.721.721,0,0,0,.721-.9l-.354-2.635a.722.722,0,0,0-.934-.677l-9.93,1.336a.211.211,0,0,1-.274-.2q-.209-1.558-.427-3.1t-.428-3.1a.211.211,0,0,1,.212-.264L267.29,70.3a.748.748,0,0,0,.724-.88q-.061-.755-.165-1.534t-.206-1.528a.729.729,0,0,0-.936-.7l-16.066,2.16a.729.729,0,0,0-.719.919q.414,3.076.887,6.136t.889,6.155q.592,4.4,1.126,8.835.123,1.061.233,2.113t.253,2.11a.729.729,0,0,0,.936.7l16.591-2.231a.729.729,0,0,0,.718-.919q-.1-.75-.215-1.528" transform="translate(-59.51 -15.633)" fill="#3c9851"/>
    <path id="Tracé_198" data-name="Tracé 198" d="M254.848,204.69l-151.809.92,4.362-33.886,146.166,5.067Z" transform="translate(-24.536 -40.892)" fill="#bd2c32"/>
    <path id="Tracé_199" data-name="Tracé 199" d="M124,188.629a1.083,1.083,0,0,1-.6-.133.544.544,0,0,1-.221-.335,1.963,1.963,0,0,1-.042-.425l.063-6.264a1.882,1.882,0,0,1,.051-.418.527.527,0,0,1,.233-.325,1.107,1.107,0,0,1,.609-.12l2.352.024a2.909,2.909,0,0,1,.968.183,2.806,2.806,0,0,1,.9.542,2.765,2.765,0,0,1,.668.9,2.805,2.805,0,0,1,.245,1.242,2.767,2.767,0,0,1-.27,1.225,2.641,2.641,0,0,1-.686.87,3.007,3.007,0,0,1-.917.519,2.877,2.877,0,0,1-.977.168l-1.468-.015-.015,1.5a1.877,1.877,0,0,1-.05.418.529.529,0,0,1-.233.324,1.1,1.1,0,0,1-.61.121m.926-4.11,1.48.015a1.231,1.231,0,0,0,.5-.1.98.98,0,0,0,.416-.346,1.074,1.074,0,0,0,.173-.619,1.128,1.128,0,0,0-.131-.563.993.993,0,0,0-.381-.382,1.144,1.144,0,0,0-.566-.144l-1.469-.014Z" transform="translate(-29.321 -43.008)" fill="#fff"/>
    <path id="Tracé_200" data-name="Tracé 200" d="M132.9,189.421a1.119,1.119,0,0,1-.6-.126.494.494,0,0,1-.214-.33,2.22,2.22,0,0,1-.036-.424l.04-4a1.847,1.847,0,0,1,.05-.424.515.515,0,0,1,.227-.313,1.118,1.118,0,0,1,.6-.114,1.16,1.16,0,0,1,.578.114.487.487,0,0,1,.222.255.827.827,0,0,1,.043.247l-.139.068a1.188,1.188,0,0,1,.122-.165,1.633,1.633,0,0,1,.273-.25,1.605,1.605,0,0,1,.421-.219,1.644,1.644,0,0,1,.569-.086c.084,0,.178.008.281.02a1.828,1.828,0,0,1,.321.072,1.276,1.276,0,0,1,.3.141.741.741,0,0,1,.222.215.541.541,0,0,1,.082.311,1.4,1.4,0,0,1-.226.795.646.646,0,0,1-.555.321.775.775,0,0,1-.275-.037.816.816,0,0,1-.131-.07.823.823,0,0,0-.12-.065.771.771,0,0,0-.252-.031,1.186,1.186,0,0,0-.328.043.922.922,0,0,0-.288.141.694.694,0,0,0-.21.239.681.681,0,0,0-.078.314l-.025,2.524a2.186,2.186,0,0,1-.044.418.472.472,0,0,1-.228.314,1.2,1.2,0,0,1-.609.108" transform="translate(-31.444 -43.731)" fill="#fff"/>
    <path id="Tracé_201" data-name="Tracé 201" d="M141.1,189.578a2.859,2.859,0,0,1-1.07-.222,3.244,3.244,0,0,1-.965-.613,2.82,2.82,0,0,1-.918-2.155,2.884,2.884,0,0,1,.241-1.15,3.027,3.027,0,0,1,.651-.94,3.1,3.1,0,0,1,.954-.638,2.792,2.792,0,0,1,1.144-.224,2.884,2.884,0,0,1,1.493.411,3,3,0,0,1,1.062,1.083,3.065,3.065,0,0,1,.116,2.749,2.976,2.976,0,0,1-.7.929,3.006,3.006,0,0,1-.958.581,2.907,2.907,0,0,1-1.053.19m0-1.732a1.3,1.3,0,0,0,.563-.133,1.249,1.249,0,0,0,.486-.408,1.181,1.181,0,0,0,.2-.7,1.256,1.256,0,0,0-.155-.645,1.141,1.141,0,0,0-.437-.434,1.319,1.319,0,0,0-.646-.162,1.183,1.183,0,0,0-.616.154,1.247,1.247,0,0,0-.44.437,1.226,1.226,0,0,0-.174.635,1.213,1.213,0,0,0,.183.7,1.141,1.141,0,0,0,.472.417,1.336,1.336,0,0,0,.561.139" transform="translate(-32.896 -43.728)" fill="#fff"/>
    <path id="Tracé_202" data-name="Tracé 202" d="M149.147,189.453a2.24,2.24,0,0,1-.98-.233,2.74,2.74,0,0,1-.818-.622,2.97,2.97,0,0,1-.56-.9,2.8,2.8,0,0,1-.2-1.07,2.746,2.746,0,0,1,.217-1.058,2.886,2.886,0,0,1,.577-.878,2.765,2.765,0,0,1,.832-.6,2.225,2.225,0,0,1,.984-.215,1.729,1.729,0,0,1,.858.21,1.567,1.567,0,0,1,.574.579,2.777,2.777,0,0,1,.318.887,5.751,5.751,0,0,1,.091,1.143,5.22,5.22,0,0,1-.2,1.472,1.886,1.886,0,0,1-.6.958,1.659,1.659,0,0,1-1.093.328m.18,2.515a3.187,3.187,0,0,1-.8-.111,3.518,3.518,0,0,1-.731-.283,2.129,2.129,0,0,1-.523-.373.559.559,0,0,1-.191-.392.822.822,0,0,1,.072-.338,1.123,1.123,0,0,1,.21-.3,2.739,2.739,0,0,1,.277-.261.421.421,0,0,1,.276-.089.493.493,0,0,1,.286.089q.126.087.267.191a1.623,1.623,0,0,0,.36.194,1.519,1.519,0,0,0,.55.091,1.077,1.077,0,0,0,.437-.081,1.033,1.033,0,0,0,.347-.249,1.166,1.166,0,0,0,.232-.389,1.476,1.476,0,0,0,.086-.5l.048-4.75a.558.558,0,0,1,.24-.427,1.127,1.127,0,0,1,.616-.126,1.019,1.019,0,0,1,.577.126.506.506,0,0,1,.2.318,2.071,2.071,0,0,1,.036.414l-.046,4.532a2.692,2.692,0,0,1-.253,1.162,2.6,2.6,0,0,1-.651.854,2.9,2.9,0,0,1-1.924.7m.043-4.177a.976.976,0,0,0,.541-.149,1.16,1.16,0,0,0,.389-.4,1.139,1.139,0,0,0,.149-.573,1.152,1.152,0,0,0-.137-.574,1.1,1.1,0,0,0-.386-.406,1.057,1.057,0,0,0-.555-.155,1.033,1.033,0,0,0-.552.144,1.1,1.1,0,0,0-.389.4,1.177,1.177,0,0,0-.149.577,1.086,1.086,0,0,0,.142.564,1.2,1.2,0,0,0,.392.411,1.027,1.027,0,0,0,.555.16" transform="translate(-34.908 -43.783)" fill="#fff"/>
    <path id="Tracé_203" data-name="Tracé 203" d="M156,189.656a1.132,1.132,0,0,1-.6-.126.5.5,0,0,1-.215-.33,2.23,2.23,0,0,1-.036-.424l.04-4a1.858,1.858,0,0,1,.05-.424.516.516,0,0,1,.228-.313,1.124,1.124,0,0,1,.6-.114,1.157,1.157,0,0,1,.579.114.485.485,0,0,1,.221.255.821.821,0,0,1,.043.247l-.139.067a1.245,1.245,0,0,1,.122-.165,1.621,1.621,0,0,1,.272-.25,1.6,1.6,0,0,1,.99-.306,2.647,2.647,0,0,1,.281.02,1.767,1.767,0,0,1,.321.072,1.3,1.3,0,0,1,.3.141.746.746,0,0,1,.222.215.539.539,0,0,1,.083.31,1.414,1.414,0,0,1-.226.8.646.646,0,0,1-.555.322.793.793,0,0,1-.275-.037.844.844,0,0,1-.131-.07.761.761,0,0,0-.12-.065.772.772,0,0,0-.252-.031,1.194,1.194,0,0,0-.328.043.934.934,0,0,0-.288.14.7.7,0,0,0-.209.239.675.675,0,0,0-.078.315l-.026,2.524a2.114,2.114,0,0,1-.043.418.469.469,0,0,1-.228.314,1.194,1.194,0,0,1-.609.109" transform="translate(-36.945 -43.787)" fill="#fff"/>
    <path id="Tracé_204" data-name="Tracé 204" d="M166.134,189.767a1.065,1.065,0,0,1-.624-.155.443.443,0,0,1-.2-.37l.117-.194a1.272,1.272,0,0,1-.267.279,1.948,1.948,0,0,1-.507.293,1.977,1.977,0,0,1-.77.124,2.3,2.3,0,0,1-1-.239,2.72,2.72,0,0,1-.837-.646,3.181,3.181,0,0,1-.571-.93,2.848,2.848,0,0,1-.2-1.091,2.764,2.764,0,0,1,.223-1.071,2.976,2.976,0,0,1,.594-.9,2.92,2.92,0,0,1,.85-.617,2.25,2.25,0,0,1,1-.219,1.933,1.933,0,0,1,.721.127,2.008,2.008,0,0,1,.5.286,1.536,1.536,0,0,1,.3.312l-.091-.161a.458.458,0,0,1,.194-.416,1.106,1.106,0,0,1,.638-.137,1.054,1.054,0,0,1,.59.132.518.518,0,0,1,.215.335,2.3,2.3,0,0,1,.036.436L167,188.9a2.206,2.206,0,0,1-.044.424.494.494,0,0,1-.221.325,1.121,1.121,0,0,1-.6.115m-1.979-1.729a1,1,0,0,0,.546-.15,1.1,1.1,0,0,0,.395-.414,1.206,1.206,0,0,0,.15-.584,1.15,1.15,0,0,0-.144-.592,1.172,1.172,0,0,0-.4-.418,1.028,1.028,0,0,0-.549-.16,1.086,1.086,0,0,0-.592.155,1.21,1.21,0,0,0-.418.42,1.156,1.156,0,0,0-.161.6,1.073,1.073,0,0,0,.149.569,1.161,1.161,0,0,0,.42.418,1.19,1.19,0,0,0,.6.162" transform="translate(-38.404 -43.822)" fill="#fff"/>
    <path id="Tracé_205" data-name="Tracé 205" d="M170.822,189.817a1.081,1.081,0,0,1-.6-.133.486.486,0,0,1-.215-.324,2.472,2.472,0,0,1-.03-.424l.04-4.016a2.055,2.055,0,0,1,.045-.418.487.487,0,0,1,.227-.308,1.153,1.153,0,0,1,.609-.114.946.946,0,0,1,.619.172.683.683,0,0,1,.189.547l-.15.125a.921.921,0,0,1,.139-.194,2.26,2.26,0,0,1,.3-.283,1.912,1.912,0,0,1,.434-.254,1.312,1.312,0,0,1,.534-.1,2.029,2.029,0,0,1,.682.117,1.749,1.749,0,0,1,.548.326,2.027,2.027,0,0,1,.424.539,2.963,2.963,0,0,1,.395-.443,2.065,2.065,0,0,1,.549-.362,1.626,1.626,0,0,1,.706-.142,1.873,1.873,0,0,1,1.128.35,2.078,2.078,0,0,1,.7.977,4.288,4.288,0,0,1,.226,1.528l-.021,2.054a2.141,2.141,0,0,1-.044.419.491.491,0,0,1-.226.319,1.169,1.169,0,0,1-.61.114,1.073,1.073,0,0,1-.6-.133.509.509,0,0,1-.215-.329,2.139,2.139,0,0,1-.036-.418l.021-2.055a1.915,1.915,0,0,0-.074-.6.778.778,0,0,0-.244-.376.651.651,0,0,0-.418-.136.8.8,0,0,0-.448.117.719.719,0,0,0-.28.363,1.789,1.789,0,0,0-.1.625L175.007,189a1.522,1.522,0,0,1-.062.429.553.553,0,0,1-.25.318,1.087,1.087,0,0,1-.6.1,1.068,1.068,0,0,1-.584-.144.493.493,0,0,1-.2-.328,2.351,2.351,0,0,1-.03-.408l.021-2.055a1.946,1.946,0,0,0-.075-.6.753.753,0,0,0-.237-.375.671.671,0,0,0-.424-.131.726.726,0,0,0-.472.145.866.866,0,0,0-.273.393,1.693,1.693,0,0,0-.091.555l-.021,2.065a2.09,2.09,0,0,1-.044.424.487.487,0,0,1-.227.314,1.159,1.159,0,0,1-.609.114" transform="translate(-40.477 -43.834)" fill="#fff"/>
    <path id="Tracé_206" data-name="Tracé 206" d="M182.915,189.939a1.081,1.081,0,0,1-.6-.133.486.486,0,0,1-.215-.324,2.455,2.455,0,0,1-.03-.424l.04-4.017a2.063,2.063,0,0,1,.045-.418.485.485,0,0,1,.227-.307A1.145,1.145,0,0,1,183,184.2a.95.95,0,0,1,.619.172.683.683,0,0,1,.189.547l-.15.125a.961.961,0,0,1,.139-.194,2.306,2.306,0,0,1,.3-.283,1.909,1.909,0,0,1,.433-.254,1.3,1.3,0,0,1,.533-.1,2.011,2.011,0,0,1,.682.116,1.75,1.75,0,0,1,.548.327,2.027,2.027,0,0,1,.424.539,2.965,2.965,0,0,1,.395-.444,2.082,2.082,0,0,1,.549-.361,1.615,1.615,0,0,1,.706-.142,1.878,1.878,0,0,1,1.128.35,2.081,2.081,0,0,1,.7.977,4.283,4.283,0,0,1,.226,1.528l-.021,2.054a2.073,2.073,0,0,1-.044.418.491.491,0,0,1-.226.319,1.154,1.154,0,0,1-.61.114,1.081,1.081,0,0,1-.6-.133.512.512,0,0,1-.215-.329,2.151,2.151,0,0,1-.036-.419l.021-2.055a1.907,1.907,0,0,0-.074-.6.777.777,0,0,0-.244-.376.654.654,0,0,0-.417-.136.785.785,0,0,0-.449.117.716.716,0,0,0-.28.363,1.781,1.781,0,0,0-.1.624l-.021,2.054a1.518,1.518,0,0,1-.062.429.553.553,0,0,1-.25.319,1.1,1.1,0,0,1-.6.1,1.081,1.081,0,0,1-.584-.144.5.5,0,0,1-.2-.329,2.347,2.347,0,0,1-.03-.408l.021-2.055a1.938,1.938,0,0,0-.075-.6.755.755,0,0,0-.237-.376.667.667,0,0,0-.423-.13.718.718,0,0,0-.472.145.866.866,0,0,0-.274.393,1.685,1.685,0,0,0-.091.555l-.021,2.065a2.1,2.1,0,0,1-.044.424.487.487,0,0,1-.227.313,1.151,1.151,0,0,1-.609.114" transform="translate(-43.357 -43.863)" fill="#fff"/>
    <path id="Tracé_207" data-name="Tracé 207" d="M196.959,190.164a3.31,3.31,0,0,1-1.379-.279,2.676,2.676,0,0,1-.94-.7,2.88,2.88,0,0,1-.535-.964,3.265,3.265,0,0,1-.167-1.058,2.948,2.948,0,0,1,.405-1.521,2.82,2.82,0,0,1,1.089-1.039,3.2,3.2,0,0,1,1.587-.369,2.887,2.887,0,0,1,1.15.224,2.385,2.385,0,0,1,.8.559,2.314,2.314,0,0,1,.463.734,2.038,2.038,0,0,1,.148.747,1.279,1.279,0,0,1-.314.932,1.053,1.053,0,0,1-.778.3l-2.731-.028a.814.814,0,0,0,.207.507,1.276,1.276,0,0,0,.473.327,1.621,1.621,0,0,0,.606.12,3.505,3.505,0,0,0,.482-.024,1.759,1.759,0,0,0,.357-.077c.1-.032.192-.066.277-.1s.159-.062.225-.085a.9.9,0,0,1,.19-.043.455.455,0,0,1,.314.1.955.955,0,0,1,.255.33.823.823,0,0,1,.107.242.916.916,0,0,1,.027.229.622.622,0,0,1-.286.491,2.129,2.129,0,0,1-.795.336,5.228,5.228,0,0,1-1.236.114m-1.192-3.409,1.813.018a.455.455,0,0,0,.27-.06.29.29,0,0,0,.088-.245.557.557,0,0,0-.123-.363.833.833,0,0,0-.336-.244,1.3,1.3,0,0,0-.488-.091,1.4,1.4,0,0,0-.632.132,1.105,1.105,0,0,0-.434.362.866.866,0,0,0-.159.492" transform="translate(-46.182 -43.87)" fill="#fff"/>
    <path id="Tracé_208" data-name="Tracé 208" d="M208.3,189.383a2.3,2.3,0,0,1-.989-.233,2.669,2.669,0,0,1-.837-.635,3.052,3.052,0,0,1-.571-.929,2.919,2.919,0,0,1-.2-1.109,2.777,2.777,0,0,1,.223-1.071,2.976,2.976,0,0,1,.6-.9,2.9,2.9,0,0,1,.849-.617,2.235,2.235,0,0,1,.989-.219,2.034,2.034,0,0,1,.968.234,2.08,2.08,0,0,1,.7.621,2.74,2.74,0,0,1,.421.91,4.343,4.343,0,0,1,.144,1.08,3.8,3.8,0,0,1-.143,1.1,2.882,2.882,0,0,1-.439.913,2.144,2.144,0,0,1-.713.63,2,2,0,0,1-1,.225m.248-1.7a1.026,1.026,0,0,0,.558-.149,1.191,1.191,0,0,0,.406-.415,1.139,1.139,0,0,0,.161-.584,1.154,1.154,0,0,0-.143-.592,1.139,1.139,0,0,0-1.539-.422,1.056,1.056,0,0,0-.406.4,1.2,1.2,0,0,0-.149.589,1.161,1.161,0,0,0,.142.587,1.135,1.135,0,0,0,.408.424,1.1,1.1,0,0,0,.562.16m1.991,1.73a1.094,1.094,0,0,1-.584-.133.589.589,0,0,1-.248-.392l.071-6.952a3.078,3.078,0,0,1,.032-.419.479.479,0,0,1,.2-.325,1.051,1.051,0,0,1,.6-.12,1.128,1.128,0,0,1,.6.126.5.5,0,0,1,.215.318,2.135,2.135,0,0,1,.036.424l-.067,6.609a2.14,2.14,0,0,1-.045.419.516.516,0,0,1-.221.325,1.063,1.063,0,0,1-.592.12" transform="translate(-48.982 -43.119)" fill="#fff"/>
    <path id="Tracé_209" data-name="Tracé 209" d="M217.184,190.369a3.323,3.323,0,0,1-1.379-.279,2.685,2.685,0,0,1-.94-.7,2.879,2.879,0,0,1-.535-.964,3.265,3.265,0,0,1-.167-1.058,2.948,2.948,0,0,1,.405-1.521,2.814,2.814,0,0,1,1.089-1.039,3.2,3.2,0,0,1,1.587-.369,2.888,2.888,0,0,1,1.15.224,2.386,2.386,0,0,1,.8.559,2.313,2.313,0,0,1,.463.734,2.037,2.037,0,0,1,.148.747,1.28,1.28,0,0,1-.314.933,1.053,1.053,0,0,1-.778.3l-2.731-.028a.814.814,0,0,0,.207.507,1.266,1.266,0,0,0,.473.326,1.606,1.606,0,0,0,.606.121,3.506,3.506,0,0,0,.482-.024,1.761,1.761,0,0,0,.357-.077c.1-.033.192-.066.277-.1s.159-.062.225-.085a.959.959,0,0,1,.19-.044.456.456,0,0,1,.314.1.96.96,0,0,1,.255.329.836.836,0,0,1,.107.242.917.917,0,0,1,.027.229.619.619,0,0,1-.286.491,2.117,2.117,0,0,1-.795.337,5.272,5.272,0,0,1-1.236.114m-1.192-3.409,1.813.018a.454.454,0,0,0,.27-.061.288.288,0,0,0,.088-.245.557.557,0,0,0-.123-.363.834.834,0,0,0-.336-.244,1.288,1.288,0,0,0-.488-.091,1.4,1.4,0,0,0-.632.132,1.106,1.106,0,0,0-.433.362.866.866,0,0,0-.159.492" transform="translate(-50.998 -43.919)" fill="#fff"/>
    <path id="Tracé_210" data-name="Tracé 210" d="M123.632,207.4a1.093,1.093,0,0,1-.59-.126.494.494,0,0,1-.215-.312,2.034,2.034,0,0,1-.037-.408l.066-6.413a2.34,2.34,0,0,1,.039-.419.484.484,0,0,1,.216-.313,1.053,1.053,0,0,1,.592-.12,1.3,1.3,0,0,1,.567.11.607.607,0,0,1,.3.324l-.069,6.838a1.486,1.486,0,0,1-.038.412.512.512,0,0,1-.228.313,1.107,1.107,0,0,1-.6.115m2.24-2.456a2.108,2.108,0,0,1-.99-.234,2,2,0,0,1-.7-.615,2.753,2.753,0,0,1-.416-.893,3.662,3.662,0,0,1-.12-1.091,3.8,3.8,0,0,1,.159-1.071,3,3,0,0,1,.44-.9,2,2,0,0,1,.706-.612,2.053,2.053,0,0,1,.984-.215,2.238,2.238,0,0,1,.978.24,2.792,2.792,0,0,1,.837.634,3.017,3.017,0,0,1,.57.918,2.849,2.849,0,0,1-.61,3.057,2.7,2.7,0,0,1-.843.583,2.365,2.365,0,0,1-.989.2m-.225-1.619a1.069,1.069,0,0,0,.575-.149,1.18,1.18,0,0,0,.411-.415,1.132,1.132,0,0,0,.162-.583,1.15,1.15,0,0,0-.144-.592,1.094,1.094,0,0,0-.97-.567,1.083,1.083,0,0,0-.569.149,1.1,1.1,0,0,0-.405.409,1.169,1.169,0,0,0-.15.578,1.156,1.156,0,0,0,.144.586,1.129,1.129,0,0,0,.4.424,1.034,1.034,0,0,0,.549.161" transform="translate(-29.24 -47.456)" fill="#fff"/>
    <path id="Tracé_211" data-name="Tracé 211" d="M133.217,205.195a3.649,3.649,0,0,1-.67-.075,4.188,4.188,0,0,1-.7-.208,2.217,2.217,0,0,1-.571-.316.635.635,0,0,1-.259-.409.579.579,0,0,1,.008-.247.989.989,0,0,1,.111-.274,3.366,3.366,0,0,1,.2-.3.4.4,0,0,1,.209-.158.444.444,0,0,1,.263.013,1.674,1.674,0,0,1,.373.124c.125.059.251.122.376.187a3.494,3.494,0,0,0,.395.177,1.24,1.24,0,0,0,.423.078,1.038,1.038,0,0,0,.5-.093.3.3,0,0,0,.108-.475.7.7,0,0,0-.2-.146,1.756,1.756,0,0,0-.3-.112q-.173-.048-.373-.1t-.405-.114a3.307,3.307,0,0,1-.549-.211,1.937,1.937,0,0,1-.479-.333,1.429,1.429,0,0,1-.339-.5,1.806,1.806,0,0,1-.119-.718,1.609,1.609,0,0,1,.274-.939,1.643,1.643,0,0,1,.775-.571,3.3,3.3,0,0,1,1.23-.188,3.58,3.58,0,0,1,.413.027,2.565,2.565,0,0,1,.406.085,3.562,3.562,0,0,1,.394.141,3.081,3.081,0,0,1,.389.2.519.519,0,0,1,.351.44.9.9,0,0,1-.2.561.923.923,0,0,1-.267.279.366.366,0,0,1-.288.048,2.054,2.054,0,0,1-.394-.152c-.141-.071-.289-.137-.446-.2a1.279,1.279,0,0,0-.464-.1.962.962,0,0,0-.333.049.477.477,0,0,0-.208.135.315.315,0,0,0-.071.2.321.321,0,0,0,.084.236.654.654,0,0,0,.234.146,2.515,2.515,0,0,0,.343.107q.194.048.424.1a5.982,5.982,0,0,1,.635.162,2.089,2.089,0,0,1,.593.286,1.355,1.355,0,0,1,.431.5,1.708,1.708,0,0,1,.158.815,1.638,1.638,0,0,1-.645,1.381,2.918,2.918,0,0,1-1.806.464" transform="translate(-31.195 -47.456)" fill="#fff"/>
    <path id="Tracé_212" data-name="Tracé 212" d="M140.656,204.813,138,200.678a.882.882,0,0,1-.2-.632.929.929,0,0,1,.459-.512.993.993,0,0,1,.7-.206.957.957,0,0,1,.494.459l1.954,3.06Zm-1.025,2.663q-.469-.211-.539-.464a1.006,1.006,0,0,1,.126-.676l2.945-6.407a.919.919,0,0,1,.437-.529,1.071,1.071,0,0,1,.7.1c.3.148.481.3.529.465a.941.941,0,0,1-.116.641l-2.958,6.453a.948.948,0,0,1-.43.535.976.976,0,0,1-.7-.122" transform="translate(-32.813 -47.462)" fill="#fff"/>
    <path id="Tracé_213" data-name="Tracé 213" d="M149.318,205.324a2.979,2.979,0,0,1-1.025-.2,3.128,3.128,0,0,1-.957-.572,2.749,2.749,0,0,1-.7-.924,3.113,3.113,0,0,1,.026-2.507,2.742,2.742,0,0,1,.709-.9,3.1,3.1,0,0,1,.963-.547,2.952,2.952,0,0,1,1.017-.179,2.743,2.743,0,0,1,.762.1,2.534,2.534,0,0,1,.571.242,1.74,1.74,0,0,1,.336.244,3.634,3.634,0,0,1,.341.3.5.5,0,0,1,.133.392.682.682,0,0,1-.083.257,1.968,1.968,0,0,1-.174.268c-.233.319-.463.461-.693.428a1.069,1.069,0,0,1-.314-.117c-.1-.054-.187-.111-.274-.17a1.5,1.5,0,0,0-.28-.145.956.956,0,0,0-.344-.061,1.182,1.182,0,0,0-.6.143,1.11,1.11,0,0,0-.423.408,1.181,1.181,0,0,0-.162.606,1.153,1.153,0,0,0,.149.6,1.185,1.185,0,0,0,.409.424,1.1,1.1,0,0,0,.578.16,1.075,1.075,0,0,0,.586-.149l.162-.1c.092-.06.182-.115.266-.164a.507.507,0,0,1,.264-.072.587.587,0,0,1,.332.123,1.9,1.9,0,0,1,.375.389.982.982,0,0,1,.207.449.542.542,0,0,1-.1.389,1.392,1.392,0,0,1-.393.351,1.92,1.92,0,0,1-.33.2,3.187,3.187,0,0,1-.576.225,2.637,2.637,0,0,1-.764.095" transform="translate(-34.859 -47.505)" fill="#fff"/>
    <path id="Tracé_214" data-name="Tracé 214" d="M154.923,204.529a1.123,1.123,0,0,1-.6-.127.483.483,0,0,1-.22-.324,2.148,2.148,0,0,1-.036-.43l.067-6.609a1.858,1.858,0,0,1,.05-.425.511.511,0,0,1,.233-.312,1.118,1.118,0,0,1,.6-.114,1.073,1.073,0,0,1,.6.133.51.51,0,0,1,.215.323,2.13,2.13,0,0,1,.036.424l-.024,2.34a2.513,2.513,0,0,1,.538-.407,1.489,1.489,0,0,1,.776-.187,2.332,2.332,0,0,1,1.276.375,2.611,2.611,0,0,1,.9,1,3.007,3.007,0,0,1,.323,1.449l-.021,2.076a1.845,1.845,0,0,1-.05.424.516.516,0,0,1-.221.313,1.113,1.113,0,0,1-.609.115,1.137,1.137,0,0,1-.59-.126.488.488,0,0,1-.227-.324,2.221,2.221,0,0,1-.035-.43l.021-2.077a1.279,1.279,0,0,0-.109-.569.881.881,0,0,0-.334-.376,1.025,1.025,0,0,0-.543-.144,1.145,1.145,0,0,0-.744.251.94.94,0,0,0-.367.622l-.023,2.283a1.844,1.844,0,0,1-.05.424.522.522,0,0,1-.227.314,1.133,1.133,0,0,1-.6.114" transform="translate(-36.688 -46.717)" fill="#fff"/>
    <path id="Tracé_215" data-name="Tracé 215" d="M165.154,205.508a2.838,2.838,0,0,1-1.07-.222,3.231,3.231,0,0,1-.965-.612,2.817,2.817,0,0,1-.919-2.155,2.9,2.9,0,0,1,.241-1.15,3,3,0,0,1,.653-.941,3.073,3.073,0,0,1,.953-.638,2.777,2.777,0,0,1,1.144-.224,2.875,2.875,0,0,1,1.492.411,2.986,2.986,0,0,1,1.062,1.083,3.066,3.066,0,0,1,.116,2.749,2.962,2.962,0,0,1-.7.928,3.015,3.015,0,0,1-.958.581,2.9,2.9,0,0,1-1.052.19m0-1.731a1.279,1.279,0,0,0,.561-.133,1.24,1.24,0,0,0,.487-.408,1.181,1.181,0,0,0,.2-.7,1.249,1.249,0,0,0-.155-.645,1.12,1.12,0,0,0-.437-.434,1.3,1.3,0,0,0-.645-.162,1.188,1.188,0,0,0-.616.155,1.239,1.239,0,0,0-.614,1.072,1.213,1.213,0,0,0,.184.7,1.139,1.139,0,0,0,.472.417,1.328,1.328,0,0,0,.562.139" transform="translate(-38.624 -47.522)" fill="#fff"/>
    <path id="Tracé_216" data-name="Tracé 216" d="M171.717,205.513a1.082,1.082,0,0,1-.6-.133.486.486,0,0,1-.215-.324,2.471,2.471,0,0,1-.031-.424l.041-4.016a2.067,2.067,0,0,1,.044-.418.487.487,0,0,1,.228-.307,1.141,1.141,0,0,1,.608-.114.953.953,0,0,1,.619.172.683.683,0,0,1,.19.547l-.151.125a.906.906,0,0,1,.139-.194,2.2,2.2,0,0,1,.3-.284,1.938,1.938,0,0,1,.434-.254,1.311,1.311,0,0,1,.534-.1,2.047,2.047,0,0,1,.682.116,1.762,1.762,0,0,1,.549.327,2,2,0,0,1,.424.539,2.931,2.931,0,0,1,.395-.444,2.063,2.063,0,0,1,.549-.361,1.629,1.629,0,0,1,.706-.142,1.873,1.873,0,0,1,1.128.35,2.082,2.082,0,0,1,.7.977,4.3,4.3,0,0,1,.225,1.528l-.021,2.053a2.14,2.14,0,0,1-.044.419.5.5,0,0,1-.226.319,1.167,1.167,0,0,1-.61.114,1.076,1.076,0,0,1-.6-.133.511.511,0,0,1-.215-.329,2.137,2.137,0,0,1-.036-.418l.021-2.054a1.917,1.917,0,0,0-.074-.6.778.778,0,0,0-.244-.376.655.655,0,0,0-.417-.136.785.785,0,0,0-.448.117.72.72,0,0,0-.28.363,1.783,1.783,0,0,0-.1.625l-.021,2.053a1.524,1.524,0,0,1-.062.429.552.552,0,0,1-.249.318,1.09,1.09,0,0,1-.6.1,1.075,1.075,0,0,1-.584-.144.5.5,0,0,1-.2-.329,2.334,2.334,0,0,1-.03-.407l.021-2.054a1.946,1.946,0,0,0-.075-.6.758.758,0,0,0-.237-.376.666.666,0,0,0-.424-.13.721.721,0,0,0-.472.144.873.873,0,0,0-.273.393,1.685,1.685,0,0,0-.092.556l-.021,2.065a2.088,2.088,0,0,1-.044.424.487.487,0,0,1-.227.314,1.157,1.157,0,0,1-.609.114" transform="translate(-40.69 -47.572)" fill="#fff"/>
    <path id="Tracé_217" data-name="Tracé 217" d="M185.663,205.716a2.865,2.865,0,0,1-1.069-.222,3.234,3.234,0,0,1-.965-.613,2.814,2.814,0,0,1-.919-2.154,2.9,2.9,0,0,1,.241-1.15,3,3,0,0,1,.653-.941,3.1,3.1,0,0,1,.953-.638,2.773,2.773,0,0,1,1.144-.223,2.875,2.875,0,0,1,1.493.411,2.994,2.994,0,0,1,1.062,1.084,3.066,3.066,0,0,1,.116,2.749,2.96,2.96,0,0,1-.7.927,3,3,0,0,1-.958.581,2.907,2.907,0,0,1-1.053.19m0-1.731a1.294,1.294,0,0,0,.562-.133,1.246,1.246,0,0,0,.487-.408,1.175,1.175,0,0,0,.2-.7,1.249,1.249,0,0,0-.155-.645,1.12,1.12,0,0,0-.437-.434,1.308,1.308,0,0,0-.646-.162,1.194,1.194,0,0,0-.616.154,1.251,1.251,0,0,0-.44.437,1.238,1.238,0,0,0-.174.635,1.213,1.213,0,0,0,.184.7,1.137,1.137,0,0,0,.471.417,1.339,1.339,0,0,0,.561.139" transform="translate(-43.508 -47.571)" fill="#fff"/>
    <path id="Tracé_218" data-name="Tracé 218" d="M191.73,199.475l1.262.012,1.584-.029a2.039,2.039,0,0,1,.412.044.5.5,0,0,1,.319.227,1.1,1.1,0,0,1,.12.609,1.06,1.06,0,0,1-.126.573.531.531,0,0,1-.318.232,1.63,1.63,0,0,1-.424.048l-1.5-.05-1.388-.014a.555.555,0,0,1-.464-.206,1.158,1.158,0,0,1-.125-.638.98.98,0,0,1,.167-.613.584.584,0,0,1,.484-.2m2.536,5.671a3.5,3.5,0,0,1-1-.136,1.7,1.7,0,0,1-.691-.4,1.6,1.6,0,0,1-.4-.674,3.137,3.137,0,0,1-.122-.971l.046-4.66a1.94,1.94,0,0,1,.045-.413.486.486,0,0,1,.227-.3,1.131,1.131,0,0,1,.6-.115,1.088,1.088,0,0,1,.6.133.51.51,0,0,1,.22.324,2.025,2.025,0,0,1,.036.425l-.046,4.554a1.344,1.344,0,0,0,.025.305.365.365,0,0,0,.085.178.318.318,0,0,0,.16.082,1.162,1.162,0,0,0,.252.026,2.032,2.032,0,0,1,.446.05.494.494,0,0,1,.3.21,1,1,0,0,1,.1.539,1.085,1.085,0,0,1-.133.6.488.488,0,0,1-.329.215,2.591,2.591,0,0,1-.419.03" transform="translate(-45.501 -47.025)" fill="#fff"/>
    <path id="Tracé_219" data-name="Tracé 219" d="M198.444,205.773a1.128,1.128,0,0,1-.6-.126.5.5,0,0,1-.215-.33,2.233,2.233,0,0,1-.036-.424l.041-4a1.893,1.893,0,0,1,.05-.424.514.514,0,0,1,.228-.313,1.12,1.12,0,0,1,.6-.114,1.156,1.156,0,0,1,.579.115.478.478,0,0,1,.221.254.827.827,0,0,1,.043.247l-.139.068a1.231,1.231,0,0,1,.122-.166,1.664,1.664,0,0,1,.273-.249,1.593,1.593,0,0,1,.99-.3c.084,0,.178.008.281.019a1.7,1.7,0,0,1,.321.073,1.294,1.294,0,0,1,.3.14.747.747,0,0,1,.222.215.535.535,0,0,1,.083.31,1.408,1.408,0,0,1-.226.8.645.645,0,0,1-.554.322.777.777,0,0,1-.276-.038.76.76,0,0,1-.131-.07.785.785,0,0,0-.12-.065.771.771,0,0,0-.252-.031,1.131,1.131,0,0,0-.328.043.911.911,0,0,0-.288.14.679.679,0,0,0-.287.554l-.025,2.523a2.115,2.115,0,0,1-.044.418.468.468,0,0,1-.227.314,1.2,1.2,0,0,1-.609.109" transform="translate(-47.052 -47.625)" fill="#fff"/>
    <path id="Tracé_220" data-name="Tracé 220" d="M204.888,205.035a1.12,1.12,0,0,1-.6-.126.5.5,0,0,1-.215-.324,2.145,2.145,0,0,1-.036-.419l.04-4a2.1,2.1,0,0,1,.044-.424.49.49,0,0,1,.227-.313,1.148,1.148,0,0,1,.609-.114,1.052,1.052,0,0,1,.59.132.52.52,0,0,1,.216.324,2.211,2.211,0,0,1,.035.437l-.04,3.992a2.127,2.127,0,0,1-.045.418.48.48,0,0,1-.221.314,1.184,1.184,0,0,1-.6.108m.067-6.562a1.133,1.133,0,0,1-.619-.133.508.508,0,0,1-.219-.334,2.24,2.24,0,0,1-.035-.437,1.947,1.947,0,0,1,.05-.442.513.513,0,0,1,.233-.318,1.172,1.172,0,0,1,.619-.114,1.119,1.119,0,0,1,.607.133.511.511,0,0,1,.219.334,2.255,2.255,0,0,1,.037.437,2.393,2.393,0,0,1-.045.435.491.491,0,0,1-.227.325,1.175,1.175,0,0,1-.62.114" transform="translate(-48.586 -46.838)" fill="#fff"/>
    <path id="Tracé_221" data-name="Tracé 221" d="M210.4,205.942a3.02,3.02,0,0,1-1.025-.2,3.141,3.141,0,0,1-.958-.572,2.766,2.766,0,0,1-.7-.924,2.864,2.864,0,0,1-.251-1.259,2.829,2.829,0,0,1,.277-1.248,2.744,2.744,0,0,1,.709-.9,3.122,3.122,0,0,1,.964-.547,2.957,2.957,0,0,1,1.018-.18,2.775,2.775,0,0,1,.762.105,2.479,2.479,0,0,1,.571.242,1.719,1.719,0,0,1,.336.243,3.754,3.754,0,0,1,.342.3.5.5,0,0,1,.133.392.7.7,0,0,1-.083.258,2.122,2.122,0,0,1-.174.267q-.35.479-.693.429a1.1,1.1,0,0,1-.315-.117c-.1-.055-.186-.112-.274-.17a1.474,1.474,0,0,0-.28-.146.954.954,0,0,0-.344-.062,1.19,1.19,0,0,0-.6.143,1.116,1.116,0,0,0-.422.409,1.169,1.169,0,0,0-.162.606,1.15,1.15,0,0,0,.149.6,1.175,1.175,0,0,0,.408.423,1.1,1.1,0,0,0,.578.161,1.075,1.075,0,0,0,.586-.149l.162-.1c.092-.059.181-.114.266-.163a.508.508,0,0,1,.264-.073.589.589,0,0,1,.331.124,1.877,1.877,0,0,1,.375.389.991.991,0,0,1,.208.449.55.55,0,0,1-.1.389,1.384,1.384,0,0,1-.394.35,1.85,1.85,0,0,1-.329.2,3.2,3.2,0,0,1-.576.224,2.615,2.615,0,0,1-.764.1" transform="translate(-49.403 -47.652)" fill="#fff"/>
    <path id="Tracé_222" data-name="Tracé 222" d="M216.138,205.149a1.115,1.115,0,0,1-.6-.127.492.492,0,0,1-.215-.324,2.19,2.19,0,0,1-.036-.418l.04-4a2.116,2.116,0,0,1,.044-.425.5.5,0,0,1,.227-.313,1.159,1.159,0,0,1,.609-.114,1.045,1.045,0,0,1,.59.132.516.516,0,0,1,.216.324,2.205,2.205,0,0,1,.035.437l-.04,3.992a2.127,2.127,0,0,1-.045.418.483.483,0,0,1-.221.314,1.193,1.193,0,0,1-.6.108m.067-6.562a1.131,1.131,0,0,1-.619-.133.509.509,0,0,1-.22-.335,2.235,2.235,0,0,1-.035-.437,1.947,1.947,0,0,1,.05-.442.516.516,0,0,1,.233-.319,1.184,1.184,0,0,1,.62-.113,1.112,1.112,0,0,1,.607.133.511.511,0,0,1,.219.334,2.246,2.246,0,0,1,.037.437,2.4,2.4,0,0,1-.045.435.491.491,0,0,1-.227.325,1.191,1.191,0,0,1-.62.114" transform="translate(-51.265 -46.865)" fill="#fff"/>
    <path id="Tracé_223" data-name="Tracé 223" d="M219.183,199.753l1.262.012,1.584-.03a2.04,2.04,0,0,1,.412.045.507.507,0,0,1,.318.226,1.11,1.11,0,0,1,.12.609,1.061,1.061,0,0,1-.126.573.535.535,0,0,1-.318.232,1.632,1.632,0,0,1-.424.047l-1.5-.05-1.388-.014a.555.555,0,0,1-.464-.206,1.158,1.158,0,0,1-.125-.638.979.979,0,0,1,.167-.613.584.584,0,0,1,.484-.2m2.536,5.671a3.472,3.472,0,0,1-1-.137,1.7,1.7,0,0,1-.691-.4,1.6,1.6,0,0,1-.4-.675,3.129,3.129,0,0,1-.122-.97l.046-4.66a1.942,1.942,0,0,1,.045-.413.482.482,0,0,1,.227-.3,1.124,1.124,0,0,1,.6-.115,1.1,1.1,0,0,1,.6.132.514.514,0,0,1,.22.324,2.035,2.035,0,0,1,.036.426l-.046,4.554a1.334,1.334,0,0,0,.025.3.364.364,0,0,0,.085.179.319.319,0,0,0,.16.082,1.161,1.161,0,0,0,.252.026,1.943,1.943,0,0,1,.446.05.493.493,0,0,1,.3.209,1.007,1.007,0,0,1,.1.54,1.093,1.093,0,0,1-.132.6.488.488,0,0,1-.329.215,2.591,2.591,0,0,1-.419.03" transform="translate(-52.038 -47.091)" fill="#fff"/>
    <path id="Tracé_224" data-name="Tracé 224" d="M227.822,205.411a3.322,3.322,0,0,1-1.379-.279,2.7,2.7,0,0,1-.941-.7,2.888,2.888,0,0,1-.534-.963,3.267,3.267,0,0,1-.167-1.058,2.935,2.935,0,0,1,.405-1.521,2.818,2.818,0,0,1,1.089-1.039,3.205,3.205,0,0,1,1.588-.368,2.892,2.892,0,0,1,1.151.223,2.389,2.389,0,0,1,.8.559,2.3,2.3,0,0,1,.463.734,2,2,0,0,1,.148.747,1.273,1.273,0,0,1-.314.933,1.052,1.052,0,0,1-.778.3l-2.73-.028a.81.81,0,0,0,.207.507,1.266,1.266,0,0,0,.473.326,1.606,1.606,0,0,0,.606.121,3.508,3.508,0,0,0,.483-.024,1.751,1.751,0,0,0,.356-.077c.1-.033.193-.066.277-.1s.159-.062.225-.085a.976.976,0,0,1,.19-.044.457.457,0,0,1,.315.1.958.958,0,0,1,.254.329.824.824,0,0,1,.106.242.941.941,0,0,1,.027.229.618.618,0,0,1-.287.491,2.111,2.111,0,0,1-.795.337,5.259,5.259,0,0,1-1.235.114m-.613-6.26a.417.417,0,0,1-.338-.13,1.182,1.182,0,0,1-.229-.45.938.938,0,0,1-.041-.6.64.64,0,0,1,.428-.3l2.025-.6a.412.412,0,0,1,.331.136,1.116,1.116,0,0,1,.226.456.861.861,0,0,1,.034.581.661.661,0,0,1-.423.311Zm-.58,2.851,1.812.018a.453.453,0,0,0,.27-.061.288.288,0,0,0,.089-.245.55.55,0,0,0-.123-.363.816.816,0,0,0-.335-.245,1.288,1.288,0,0,0-.488-.091,1.391,1.391,0,0,0-.632.131,1.1,1.1,0,0,0-.434.363.858.858,0,0,0-.16.492" transform="translate(-53.531 -46.927)" fill="#fff"/>
    <path id="Tracé_225" data-name="Tracé 225" d="M239.555,205.587a2.922,2.922,0,0,1-1.271-.265,2.463,2.463,0,0,1-.865-.691,3.538,3.538,0,0,1-.535-.969,5.14,5.14,0,0,1-.27-1.115,8.14,8.14,0,0,1-.069-1.119,7.642,7.642,0,0,1,.091-1.072,5.461,5.461,0,0,1,.286-1.1,3.657,3.657,0,0,1,.544-.976,2.39,2.39,0,0,1,.878-.691,2.885,2.885,0,0,1,1.271-.245,2.751,2.751,0,0,1,1.23.27,2.412,2.412,0,0,1,.848.7,3.669,3.669,0,0,1,.523.974,5.315,5.315,0,0,1,.27,1.116,8.3,8.3,0,0,1,.069,1.1,7.463,7.463,0,0,1-.1,1.112,5.724,5.724,0,0,1-.293,1.11,3.34,3.34,0,0,1-.543.958,2.485,2.485,0,0,1-.849.668,2.7,2.7,0,0,1-1.22.24m-.027-1.755a.994.994,0,0,0,.616-.172,1.221,1.221,0,0,0,.371-.449,2.546,2.546,0,0,0,.2-.589,3.829,3.829,0,0,0,.08-.608c.011-.2.016-.357.017-.487v-.058a5.168,5.168,0,0,0-.125-1.3,1.725,1.725,0,0,0-.4-.806.948.948,0,0,0-.7-.283,1,1,0,0,0-.72.262,1.677,1.677,0,0,0-.427.8,5.394,5.394,0,0,0-.15,1.313,4.942,4.942,0,0,0,.13,1.286,1.729,1.729,0,0,0,.417.808.951.951,0,0,0,.691.283" transform="translate(-56.327 -46.991)" fill="#fff"/>
    <path id="Tracé_226" data-name="Tracé 226" d="M245.692,204.6a1.48,1.48,0,0,1-.333-.043.483.483,0,0,1-.285-.209,1.022,1.022,0,0,1-.108-.558.944.944,0,0,1,.126-.55.5.5,0,0,1,.295-.2,1.458,1.458,0,0,1,.333-.037l2.685.027a1.53,1.53,0,0,1,.344.044.474.474,0,0,1,.284.209.989.989,0,0,1,.109.546,1.06,1.06,0,0,1-.114.556.453.453,0,0,1-.283.2,1.571,1.571,0,0,1-.356.037Z" transform="translate(-58.333 -48.342)" fill="#fff"/>
    <path id="Tracé_227" data-name="Tracé 227" d="M253.778,205.751a3.475,3.475,0,0,1-.876-.111,3.239,3.239,0,0,1-.652-.254,3.97,3.97,0,0,1-.433-.269c-.111-.082-.184-.138-.222-.168a1.6,1.6,0,0,1-.267-.267.5.5,0,0,1-.105-.321.672.672,0,0,1,.083-.309,1.369,1.369,0,0,1,.267-.343,1.255,1.255,0,0,1,.3-.255.606.606,0,0,1,.3-.082.69.69,0,0,1,.286.072,1.805,1.805,0,0,1,.363.256c.03.024.078.059.143.1a1.02,1.02,0,0,0,.274.13,1.577,1.577,0,0,0,.475.062,1.193,1.193,0,0,0,.547-.108.862.862,0,0,0,.353-.324.974.974,0,0,0,.131-.51.938.938,0,0,0-.473-.837,1.014,1.014,0,0,0-.492-.126,1.1,1.1,0,0,0-.287.031.75.75,0,0,0-.213.09.874.874,0,0,0-.133.1,1.5,1.5,0,0,1-.226.165.561.561,0,0,1-.3.072.933.933,0,0,1-.31-.031,1.6,1.6,0,0,1-.354-.148,1.83,1.83,0,0,1-.433-.291.407.407,0,0,1-.123-.3l.482-3.334a2.694,2.694,0,0,1,.083-.366.726.726,0,0,1,.24-.359.827.827,0,0,1,.558-.149l2.742.039a1.845,1.845,0,0,1,.424.05.511.511,0,0,1,.313.233,1.176,1.176,0,0,1,.114.621,1.107,1.107,0,0,1-.12.577.447.447,0,0,1-.306.21,2.315,2.315,0,0,1-.4.03l-2.02-.021-.172,1.157a.516.516,0,0,1,.149-.067c.053-.015.108-.029.161-.039a.768.768,0,0,1,.161-.016h.069a2.475,2.475,0,0,1,.99.216,2.792,2.792,0,0,1,.843.583,2.86,2.86,0,0,1,.583.843,2.354,2.354,0,0,1,.207,1,2.842,2.842,0,0,1-.369,1.419,2.668,2.668,0,0,1-.98.988,2.617,2.617,0,0,1-1.375.354" transform="translate(-59.823 -47.047)" fill="#fff"/>
    <path id="Tracé_228" data-name="Tracé 228" d="M267.352,206.48a1.058,1.058,0,0,1-.624-.156.443.443,0,0,1-.2-.369l.117-.194a1.288,1.288,0,0,1-.267.279,1.881,1.881,0,0,1-1.277.417,2.292,2.292,0,0,1-1-.239,2.727,2.727,0,0,1-.837-.645,3.16,3.16,0,0,1-.57-.929,2.828,2.828,0,0,1-.2-1.092,2.767,2.767,0,0,1,.223-1.07,2.985,2.985,0,0,1,.594-.9,2.9,2.9,0,0,1,.85-.616,2.242,2.242,0,0,1,1-.22,1.929,1.929,0,0,1,.721.128,2.013,2.013,0,0,1,.5.286,1.554,1.554,0,0,1,.3.313l-.09-.162a.455.455,0,0,1,.194-.417,1.108,1.108,0,0,1,.638-.137,1.049,1.049,0,0,1,.59.133.521.521,0,0,1,.214.334,2.308,2.308,0,0,1,.036.437l-.04,3.958a2.212,2.212,0,0,1-.044.424.492.492,0,0,1-.221.325,1.129,1.129,0,0,1-.6.115m-1.979-1.729a1,1,0,0,0,.546-.15,1.11,1.11,0,0,0,.394-.415,1.2,1.2,0,0,0,.15-.584,1.147,1.147,0,0,0-.541-1.009,1.03,1.03,0,0,0-.549-.162,1.093,1.093,0,0,0-.592.155,1.228,1.228,0,0,0-.418.421,1.156,1.156,0,0,0-.162.6,1.082,1.082,0,0,0,.149.569,1.149,1.149,0,0,0,.421.417,1.181,1.181,0,0,0,.6.162" transform="translate(-62.506 -47.802)" fill="#fff"/>
    <path id="Tracé_229" data-name="Tracé 229" d="M272.067,206.518a1.128,1.128,0,0,1-.6-.126.5.5,0,0,1-.215-.323,2.153,2.153,0,0,1-.036-.42l.041-4.038a1.719,1.719,0,0,1,.05-.407.488.488,0,0,1,.227-.3,1.159,1.159,0,0,1,.6-.109,1.146,1.146,0,0,1,.539.1.48.48,0,0,1,.222.238.754.754,0,0,1,.048.258.394.394,0,0,0,.022.167l-.071.217a.672.672,0,0,1,.181-.347,1.615,1.615,0,0,1,.393-.318,2.157,2.157,0,0,1,.507-.219,1.873,1.873,0,0,1,.535-.075,2.281,2.281,0,0,1,.979.211,1.97,1.97,0,0,1,.722.586,2.674,2.674,0,0,1,.445.894,3.853,3.853,0,0,1,.143,1.12l-.021,2.088a2.123,2.123,0,0,1-.045.418.471.471,0,0,1-.221.313,1.632,1.632,0,0,1-1.217-.018.522.522,0,0,1-.221-.323,1.946,1.946,0,0,1-.041-.42l.021-2.076a1.349,1.349,0,0,0-.11-.587.825.825,0,0,0-.34-.376,1.114,1.114,0,0,0-.561-.139,1.143,1.143,0,0,0-.575.132.957.957,0,0,0-.376.375,1.176,1.176,0,0,0-.138.572l-.021,2.088a2.193,2.193,0,0,1-.045.419.473.473,0,0,1-.221.313,1.167,1.167,0,0,1-.6.109" transform="translate(-64.583 -47.814)" fill="#fff"/>
    <path id="Tracé_230" data-name="Tracé 230" d="M281.7,206.7a3.646,3.646,0,0,1-.67-.075,4.068,4.068,0,0,1-.7-.208,2.216,2.216,0,0,1-.571-.315.64.64,0,0,1-.26-.41.606.606,0,0,1,.009-.247,1,1,0,0,1,.111-.274,3.381,3.381,0,0,1,.2-.3.4.4,0,0,1,.209-.158.441.441,0,0,1,.264.014,1.6,1.6,0,0,1,.371.124c.125.058.251.121.376.187a3.62,3.62,0,0,0,.395.176,1.237,1.237,0,0,0,.423.078,1.043,1.043,0,0,0,.5-.092.3.3,0,0,0,.109-.475.687.687,0,0,0-.2-.146,1.833,1.833,0,0,0-.3-.112l-.372-.1c-.134-.036-.269-.074-.406-.114a3.371,3.371,0,0,1-.549-.212,1.946,1.946,0,0,1-.478-.332,1.421,1.421,0,0,1-.339-.5,1.8,1.8,0,0,1-.119-.718,1.6,1.6,0,0,1,.273-.938,1.646,1.646,0,0,1,.774-.572,3.319,3.319,0,0,1,1.23-.188,3.974,3.974,0,0,1,.413.027,2.585,2.585,0,0,1,.406.085,3.741,3.741,0,0,1,.394.141,3.038,3.038,0,0,1,.389.2.517.517,0,0,1,.352.44,1.183,1.183,0,0,1-.468.839.366.366,0,0,1-.288.048,2.048,2.048,0,0,1-.395-.152c-.14-.071-.289-.137-.445-.2a1.276,1.276,0,0,0-.464-.1.945.945,0,0,0-.333.048.47.47,0,0,0-.207.135.313.313,0,0,0-.072.2.321.321,0,0,0,.085.237.658.658,0,0,0,.233.146,2.5,2.5,0,0,0,.342.107c.13.032.272.064.424.1a5.957,5.957,0,0,1,.635.162,2.11,2.11,0,0,1,.594.286,1.356,1.356,0,0,1,.431.5,1.709,1.709,0,0,1,.158.815,1.639,1.639,0,0,1-.646,1.382,2.914,2.914,0,0,1-1.806.463" transform="translate(-66.553 -47.814)" fill="#fff"/>
  </g>
</svg>
