<?xml version="1.0" encoding="UTF-8"?> <svg xmlns="http://www.w3.org/2000/svg" xmlns:xlink="http://www.w3.org/1999/xlink" width="68.692" height="68.692" viewBox="0 0 68.692 68.692"><defs><clipPath id="clip-path"><rect id="Rectangle_261" data-name="Rectangle 261" width="68.692" height="68.692" fill="none"></rect></clipPath></defs><g id="Group_469" data-name="Group 469" transform="translate(0 0)"><g id="Group_468" data-name="Group 468" transform="translate(0 0)" clip-path="url(#clip-path)"><path id="Path_531" data-name="Path 531" d="M68.692,34.345A34.346,34.346,0,1,1,34.346,0,34.345,34.345,0,0,1,68.692,34.345" transform="translate(0 0)" fill="#66a2fc"></path><path id="Path_532" data-name="Path 532" d="M52.654,39.328a1.165,1.165,0,0,1-1.058.678H40a12.755,12.755,0,1,1,9.971-4.8l2.5,2.884a1.164,1.164,0,0,1,.179,1.241" transform="translate(0.937 0.499)" fill="#fff"></path><path id="Path_533" data-name="Path 533" d="M39.119,41.793A12.769,12.769,0,0,1,26.4,53.605H14.847a1.194,1.194,0,0,1-.944-.433,1.157,1.157,0,0,1,.029-1.485l2.5-2.884A12.755,12.755,0,0,1,25.459,28.13,14.638,14.638,0,0,0,31.39,38.805a15,15,0,0,0,7.729,2.988" transform="translate(0.469 0.968)" fill="#fff"></path></g></g></svg> 