<?xml version="1.0" encoding="UTF-8"?> <svg xmlns="http://www.w3.org/2000/svg" xmlns:xlink="http://www.w3.org/1999/xlink" width="67.977" height="67.977" viewBox="0 0 67.977 67.977"><defs><clipPath id="clip-path"><rect id="Rectangle_259" data-name="Rectangle 259" width="67.977" height="67.977" fill="#66a2fc"></rect></clipPath></defs><g id="Group_465" data-name="Group 465" transform="translate(0 0)"><g id="Group_464" data-name="Group 464" transform="translate(0 0)" clip-path="url(#clip-path)"><path id="Path_525" data-name="Path 525" d="M67.977,33.988A33.989,33.989,0,1,1,33.989,0,33.988,33.988,0,0,1,67.977,33.988" transform="translate(0 0)" fill="#66a2fc"></path><path id="Path_526" data-name="Path 526" d="M52.923,29.68a2.133,2.133,0,0,0-4.266,0,14.929,14.929,0,1,1-29.858,0,2.133,2.133,0,0,0-4.266,0A19.216,19.216,0,0,0,31.6,48.749v6.524H27.331a2.133,2.133,0,1,0,0,4.266h12.8a2.133,2.133,0,1,0,0-4.266H35.862V48.749A19.216,19.216,0,0,0,52.923,29.68" transform="translate(0.344 0.652)" fill="#fff"></path><path id="Path_527" data-name="Path 527" d="M33.531,40.787A10.677,10.677,0,0,0,44.195,30.124V19.46a10.663,10.663,0,1,0-21.327,0V30.124A10.677,10.677,0,0,0,33.531,40.787" transform="translate(0.541 0.208)" fill="#fff"></path></g></g></svg> 