<?xml version="1.0" encoding="UTF-8"?> <svg xmlns="http://www.w3.org/2000/svg" xmlns:xlink="http://www.w3.org/1999/xlink" width="66.407" height="66.407" viewBox="0 0 66.407 66.407"><defs><clipPath id="clip-path"><rect id="Rectangle_260" data-name="Rectangle 260" width="66.407" height="66.407" fill="none"></rect></clipPath></defs><g id="Group_467" data-name="Group 467" transform="translate(0 0)"><g id="Group_466" data-name="Group 466" transform="translate(0 0)" clip-path="url(#clip-path)"><path id="Path_528" data-name="Path 528" d="M66.407,33.2A33.2,33.2,0,1,1,33.2,0a33.2,33.2,0,0,1,33.2,33.2" transform="translate(0 0)" fill="#66a2fc"></path><path id="Path_529" data-name="Path 529" d="M19.032,36.021V48.533a3.413,3.413,0,0,1-6.826,0V40.191a4.174,4.174,0,0,1,4.082-4.17Z" transform="translate(0 0)" fill="#fff"></path><path id="Path_530" data-name="Path 530" d="M47.474,11.749H26.238a4.933,4.933,0,0,0-4.929,4.929V48.533a5.71,5.71,0,0,1-1.152,3.413H48.989A3.435,3.435,0,0,0,52.4,48.533V16.678a4.933,4.933,0,0,0-4.928-4.929M27.26,17.84h6.8a1.138,1.138,0,0,1,0,2.275h-6.8a1.138,1.138,0,0,1,0-2.275m0,6.243h6.8a1.139,1.139,0,0,1,0,2.277h-6.8a1.139,1.139,0,0,1,0-2.277M47.474,46.368H26.238a1.138,1.138,0,0,1,0-2.275H47.474a1.138,1.138,0,0,1,0,2.275m0-6.068H26.238a1.138,1.138,0,0,1,0-2.275H47.474a1.138,1.138,0,0,1,0,2.275m0-6.067H26.238a1.138,1.138,0,0,1,0-2.275H47.474a1.138,1.138,0,0,1,0,2.275m1.138-9.38a2.021,2.021,0,0,1-2.017,2.015H40.019A2.02,2.02,0,0,1,38,24.853V19.345a2.018,2.018,0,0,1,2.017-2.015h6.576a2.018,2.018,0,0,1,2.017,2.015Z" transform="translate(0 0)" fill="#fff"></path></g></g></svg> 