<svg xmlns="http://www.w3.org/2000/svg" xmlns:xlink="http://www.w3.org/1999/xlink" width="72.167" height="72.034" viewBox="0 0 72.167 72.034">
  <defs>
    <clipPath id="clip-path">
      <rect id="Rectangle_97" data-name="Rectangle 97" width="72.167" height="72.034" fill="#66a2fc"/>
    </clipPath>
  </defs>
  <g id="Groupe_88" data-name="Groupe 88" transform="translate(0)">
    <g id="Groupe_66" data-name="Groupe 66" transform="translate(0)" clip-path="url(#clip-path)">
      <path id="Tracé_116" data-name="Tracé 116" d="M38.239,2.09h0a2.157,2.157,0,0,0,4.227.534h0A2.157,2.157,0,0,1,46.642,3.7h0A2.157,2.157,0,0,0,50.6,5.264h0a2.157,2.157,0,0,1,3.778,2.077,2.157,2.157,0,0,0,3.447,2.5h0A2.157,2.157,0,0,1,60.971,12.8h0a2.157,2.157,0,0,0,2.716,3.283A2.157,2.157,0,0,1,66,19.72h0a2.157,2.157,0,0,0,1.814,3.855h0a2.157,2.157,0,0,1,1.332,4.1,2.157,2.157,0,0,0,.8,4.185h0a2.157,2.157,0,0,1,.271,4.3,2.157,2.157,0,0,0-.267,4.252,2.157,2.157,0,0,1-.808,4.235h0A2.157,2.157,0,0,0,67.82,48.7h0a2.157,2.157,0,0,1-1.836,3.9h0A2.157,2.157,0,0,0,63.7,56.2a2.157,2.157,0,0,1-2.748,3.322,2.157,2.157,0,0,0-3.106,2.916h0a2.157,2.157,0,0,1-3.488,2.534,2.157,2.157,0,0,0-3.733,2.052,2.157,2.157,0,0,1-4.009,1.587,2.157,2.157,0,0,0-4.127,1.059h0a2.157,2.157,0,0,1-4.277.54h0a2.157,2.157,0,0,0-4.261,0h0a2.157,2.157,0,0,1-4.277-.54h0a2.157,2.157,0,0,0-4.127-1.059,2.157,2.157,0,0,1-4.008-1.587,2.157,2.157,0,0,0-3.734-2.052,2.157,2.157,0,0,1-3.488-2.534h0a2.157,2.157,0,0,0-3.106-2.916h0A2.157,2.157,0,0,1,8.465,56.2a2.157,2.157,0,0,0-2.283-3.6h0a2.157,2.157,0,0,1-1.836-3.9h0A2.157,2.157,0,0,0,3.03,44.65h0a2.157,2.157,0,0,1-.808-4.235h0a2.157,2.157,0,0,0-.268-4.252,2.157,2.157,0,0,1,.271-4.3,2.157,2.157,0,0,0,.8-4.185,2.157,2.157,0,0,1,1.332-4.1A2.157,2.157,0,0,0,6.17,19.72h0a2.157,2.157,0,0,1,2.31-3.64A2.157,2.157,0,0,0,11.2,12.8h0a2.157,2.157,0,0,1,3.143-2.951,2.157,2.157,0,0,0,3.447-2.5,2.157,2.157,0,0,1,3.778-2.077h0A2.157,2.157,0,0,0,25.525,3.7h0A2.157,2.157,0,0,1,29.7,2.624h0a2.157,2.157,0,0,0,4.227-.534,2.157,2.157,0,0,1,4.311,0" transform="translate(0 0)" fill="#66a2fc"/>
    </g>
  </g>
</svg>
