<svg xmlns="http://www.w3.org/2000/svg" width="52.924" height="42.659" viewBox="0 0 52.924 42.659">
  <g id="Groupe_87" data-name="Groupe 87" transform="translate(0)">
    <path id="Tracé_146" data-name="Tracé 146" d="M359.366,24.858a22.293,22.293,0,0,0-5.223-3.274,26.651,26.651,0,0,1-.912-4.773,12.251,12.251,0,0,1,2.63-1.462,1.479,1.479,0,0,1,1.955,1.211,27.031,27.031,0,0,0,1.479,7.778,1.031,1.031,0,0,1,.071.518" transform="translate(-316.718 -13.7)" fill="#f0a8e8"/>
    <path id="Tracé_147" data-name="Tracé 147" d="M171.652,369.7a5.534,5.534,0,0,1-7.281,3.645,5.581,5.581,0,0,0,3.446-4.133,28.843,28.843,0,0,0,3.835.488" transform="translate(-147.38 -331.049)" fill="#f0a8e8"/>
    <path id="Tracé_148" data-name="Tracé 148" d="M291.665,370.346a5.422,5.422,0,0,1-1.941.357h-.163a5.451,5.451,0,0,1-5.289-4.137,28.009,28.009,0,0,0,3.836-.7,5.456,5.456,0,0,0,3.558,4.482" transform="translate(-254.887 -328.045)" fill="#f0a8e8"/>
    <path id="Tracé_149" data-name="Tracé 149" d="M173.314,113.264a.03.03,0,0,0,0,.009s0,0,0,0l0-.01" transform="translate(-155.396 -101.556)" fill="#ffc9d4"/>
    <path id="Tracé_150" data-name="Tracé 150" d="M190.336,65.8h0a.1.1,0,0,0-.005.01s0-.007,0-.011Z" transform="translate(-170.657 -59.002)" fill="#ffc9d4"/>
    <path id="Tracé_151" data-name="Tracé 151" d="M173.314,113.264a.03.03,0,0,0,0,.009s0,0,0,0l0-.01" transform="translate(-155.396 -101.556)" fill="#ff9eb1"/>
    <path id="Tracé_152" data-name="Tracé 152" d="M190.336,65.8h0a.1.1,0,0,0-.005.01s0-.007,0-.011Z" transform="translate(-170.657 -59.002)" fill="#ff9eb1"/>
    <path id="Tracé_153" data-name="Tracé 153" d="M48.892,18.169A1.96,1.96,0,0,1,47.1,16.977a16.213,16.213,0,0,0-4.452-5.82,22.293,22.293,0,0,0-5.223-3.274,26.647,26.647,0,0,1-.912-4.773c-.074-.675-.123-1.3-.156-1.83A1.478,1.478,0,0,0,34.4.071a11.907,11.907,0,0,0-6.036,5.361,1.718,1.718,0,0,0-.078.158,28.825,28.825,0,0,0-4.737.036,7.173,7.173,0,0,1,2.509,5.208c.364.029.728.066,1.091.11a2.279,2.279,0,0,1,1.976,1.529l.026.088a2.16,2.16,0,0,1-2.465,2.534c-1.257-.075-1.392-.026-1.831-.071,0,.007-.009.014-.014.022a24.233,24.233,0,0,0-5.1.563h0c-.512.114-1.011.243-1.543.4a.058.058,0,0,0,0-.012c-.166.089-.362.114-1.01.344a20.18,20.18,0,0,0-1.922.794l-.013-.008c-.251.163-.306.124-1.3.7l-.087.048a2.491,2.491,0,0,1-3.525-1.256,1.876,1.876,0,0,1,.754-2.045q.609-.453,1.271-.852a7.166,7.166,0,0,1-.287-4.464,19.141,19.141,0,0,0-4.924,4.272.765.765,0,0,0-.218-.081,5.29,5.29,0,0,1-3.017-1.9,2.917,2.917,0,0,1-.35-.756A2.947,2.947,0,0,0,8.062,8.3a2.878,2.878,0,0,0-3.372-3,3.153,3.153,0,0,0-2.342,2.16A12.71,12.71,0,0,1,1.5,5.9a.787.787,0,0,0-1.429.659A11.814,11.814,0,0,0,1.879,9.457,4.637,4.637,0,0,0,2.6,12.413a6.56,6.56,0,0,0,3.575,2.462c-3.421,5.29-3.133,11.882,2.195,17.2a3.813,3.813,0,0,1,1.105,2.7v2.355a5.529,5.529,0,0,0,10.96,1.038,28.84,28.84,0,0,0,3.835.488,29.388,29.388,0,0,0,3.57,0q.778-.047,1.542-.133a28.009,28.009,0,0,0,3.836-.7,5.536,5.536,0,0,0,9.4,3.219,5.517,5.517,0,0,0,1.619-3.909v-4.9a1.691,1.691,0,0,1,.412-1.106,5.385,5.385,0,0,1,4.1-1.892h.142A4.033,4.033,0,0,0,52.925,25.2v-3a4.032,4.032,0,0,0-4.032-4.03M4.978,6.851C6.346,6.6,6.99,8.454,6.043,9.3c-.722.644-1.752.231-2.491-.4.274-1.232.754-1.922,1.426-2.047" transform="translate(0 0)" fill="#ffcef7"/>
    <path id="Tracé_154" data-name="Tracé 154" d="M242.312,109.064c-1.257-.075-1.392-.026-1.831-.071a7.013,7.013,0,0,0,1.2-4.188c.364.029.728.066,1.091.11a2.279,2.279,0,0,1,1.976,1.529l.026.088a2.16,2.16,0,0,1-2.465,2.534" transform="translate(-215.623 -93.97)" fill="#f0a8e8"/>
    <path id="Tracé_155" data-name="Tracé 155" d="M104.306,136.14c-.251.163-.306.124-1.3.7l-.087.048a2.491,2.491,0,0,1-3.525-1.256,1.876,1.876,0,0,1,.754-2.045q.609-.453,1.271-.852a7.106,7.106,0,0,0,2.888,3.406" transform="translate(-89.054 -119.014)" fill="#f0a8e8"/>
    <path id="Tracé_156" data-name="Tracé 156" d="M173.314,113.264a.03.03,0,0,0,0,.009s0,0,0,0l0-.01" transform="translate(-155.396 -101.556)" fill="#ff758f"/>
    <path id="Tracé_157" data-name="Tracé 157" d="M173.314,113.264a.03.03,0,0,0,0,.009s0,0,0,0l0-.01" transform="translate(-155.396 -101.556)" fill="#fcec78"/>
    <path id="Tracé_158" data-name="Tracé 158" d="M190.336,65.8h0a.1.1,0,0,0-.005.01s0-.007,0-.011Z" transform="translate(-170.657 -59.002)" fill="#fcec78"/>
    <path id="Tracé_159" data-name="Tracé 159" d="M127.622,49.248a.259.259,0,0,1-.014.022,24.233,24.233,0,0,0-5.1.563v-.672a3.509,3.509,0,0,0,1.391-.57,2.018,2.018,0,0,0-.05-3.487,5.558,5.558,0,0,0-2.732-.673h0a1.693,1.693,0,0,1-.81-.4.486.486,0,0,1-.17-.324c0-.225.3-.519.8-.678a2.579,2.579,0,0,1,.717-.116h0A2.269,2.269,0,0,1,123,43.27c1,.717,2.433-1.312-.49-1.858v-.078a.754.754,0,0,0-.063-.306v0a.812.812,0,0,0-.067-.126.767.767,0,0,0-.444-.324.783.783,0,0,0-.769.2.88.88,0,0,0-.229.632c-2.547.473-3.062,2.821-1.436,4a3.08,3.08,0,0,0,.7.379,3.991,3.991,0,0,0,.482.154,4.174,4.174,0,0,0,1.041.128c.966,0,1.584.469,1.584.793,0,.7-1.974,1.168-2.924.385a.912.912,0,0,1-.12-.114.786.786,0,0,0-1.223.987.4.4,0,0,0,.026.033,2.863,2.863,0,0,0,1.042.75h0a3.878,3.878,0,0,0,.767.239l.062.013a4.922,4.922,0,0,0,.026,1.063c-.166.089-.362.114-1.01.344a20.179,20.179,0,0,0-1.922.794l-.013-.008a7.112,7.112,0,1,1,8.3-11.5,7.173,7.173,0,0,1,2.509,5.208,7.013,7.013,0,0,1-1.2,4.188" transform="translate(-102.764 -34.226)" fill="#ffcb5c"/>
    <path id="Tracé_160" data-name="Tracé 160" d="M173.314,113.264a.03.03,0,0,0,0,.009s0,0,0,0l0-.01" transform="translate(-155.396 -101.556)" fill="#ffcf6b"/>
    <path id="Tracé_161" data-name="Tracé 161" d="M190.336,65.8h0a.1.1,0,0,0-.005.01s0-.007,0-.011Z" transform="translate(-170.657 -59.002)" fill="#ffcf6b"/>
    <path id="Tracé_162" data-name="Tracé 162" d="M190.336,65.8h0a.1.1,0,0,0-.005.01s0-.007,0-.011Z" transform="translate(-170.657 -59.002)" fill="#ffcf6b"/>
    <path id="Tracé_163" data-name="Tracé 163" d="M159.174,67.481a2.128,2.128,0,0,1-.977,1.726,3.509,3.509,0,0,1-1.391.57v.672h0c-.512.114-1.011.243-1.543.4a.059.059,0,0,0,0-.012,4.92,4.92,0,0,1-.026-1.063l-.062-.013a3.878,3.878,0,0,1-.767-.239h0a2.863,2.863,0,0,1-1.042-.75.415.415,0,0,1-.026-.033.786.786,0,0,1,1.223-.987.914.914,0,0,0,.12.114c.95.784,2.924.311,2.924-.385,0-.324-.617-.793-1.584-.793a4.173,4.173,0,0,1-1.041-.128s0,0,0,0a.03.03,0,0,1,0-.009l0,.01a3.986,3.986,0,0,1-.482-.154,3.079,3.079,0,0,1-.7-.379c-1.626-1.18-1.111-3.528,1.436-4a.88.88,0,0,1,.229-.632.783.783,0,0,1,.769-.2.767.767,0,0,1,.444.324.813.813,0,0,1,.067.126h0s0,.007,0,.011a.1.1,0,0,1,.005-.01.754.754,0,0,1,.063.306v.078c2.923.546,1.494,2.575.49,1.858a2.269,2.269,0,0,0-1.344-.357h0a2.579,2.579,0,0,0-.717.116c-.5.159-.8.453-.8.678a.486.486,0,0,0,.17.324,1.693,1.693,0,0,0,.81.4h0a5.558,5.558,0,0,1,2.732.673,2.14,2.14,0,0,1,1.026,1.76" transform="translate(-137.061 -54.842)" fill="#fff"/>
    <path id="Tracé_164" data-name="Tracé 164" d="M173.314,113.264a.03.03,0,0,0,0,.009s0,0,0,0l0-.01" transform="translate(-155.396 -101.556)" fill="#ffcf6b"/>
  </g>
</svg>
