<svg id="Groupe_127" data-name="Groupe 127" xmlns="http://www.w3.org/2000/svg" xmlns:xlink="http://www.w3.org/1999/xlink" width="156.582" height="47.266" viewBox="0 0 156.582 47.266">
  <defs>
    <clipPath id="clip-path">
      <rect id="Rectangle_115" data-name="Rectangle 115" width="156.582" height="47.266" fill="none"/>
    </clipPath>
  </defs>
  <g id="Groupe_126" data-name="Groupe 126" clip-path="url(#clip-path)">
    <path id="Tracé_288" data-name="Tracé 288" d="M138.477,81.469V70.617h-.083a5.244,5.244,0,0,1-2.416.384H134.93v.088c1.211.744,1.046,1.843,1.046,3.21v4.593A4.186,4.186,0,0,1,131.9,82.8c-2.395,0-3.389-1.7-3.389-4.444V70.618h-.082a5.288,5.288,0,0,1-2.425.384h-1.04v.088c1.211.744,1.047,1.843,1.047,3.21v4.577c0,4.19,1.817,6.18,5.064,6.18a5.566,5.566,0,0,0,4.9-2.318v1.98h3.547v-.089c-1.211-.685-1.046-1.79-1.046-3.161" transform="translate(-90.003 -50.859)" fill="#1a1818"/>
    <path id="Tracé_289" data-name="Tracé 289" d="M184.973,75.818a3.493,3.493,0,0,1,3.554-3.047,3.238,3.238,0,0,1,3.552,3.047Zm10,1.73c.109-3.83-2.452-6.72-6.2-6.72-4.1,0-6.884,2.978-6.884,7.108,0,4.161,3.22,7.331,7.9,7.331a9.327,9.327,0,0,0,3.8-.736l1.377-2.793h-.083a6.893,6.893,0,0,1-4.517,1.587c-3.112,0-5.453-2.125-5.508-5.777Z" transform="translate(-130.999 -51.011)" fill="#1a1818"/>
    <path id="Tracé_290" data-name="Tracé 290" d="M233.818,46.951a4.624,4.624,0,0,0,2.412-.442h.082V65.3a8.46,8.46,0,0,0,2.272.355c3.009,0,4.734-2.1,4.734-5.038,0-2.876-1.34-5.1-4.1-5.1a4.44,4.44,0,0,0-2.3.652l1.478-2.53a5.453,5.453,0,0,1,1.943-.328c3.121,0,5.774,2.709,5.774,6.771,0,4.654-3.148,7.663-8.128,7.663a32,32,0,0,1-5-.537V67.12c.908-.417.826-1.4.826-2.381V51.077c0-1.372.165-3.292-1.019-4.038v-.088Z" transform="translate(-167.659 -33.496)" fill="#1a1818"/>
    <path id="Tracé_291" data-name="Tracé 291" d="M289.921,75.818a3.492,3.492,0,0,1,3.554-3.047,3.239,3.239,0,0,1,3.552,3.047Zm10,1.73c.112-3.83-2.45-6.72-6.2-6.72-4.1,0-6.885,2.978-6.885,7.108,0,4.161,3.222,7.331,7.9,7.331a9.315,9.315,0,0,0,3.8-.736l1.377-2.793h-.081a6.9,6.9,0,0,1-4.517,1.587c-3.112,0-5.453-2.125-5.509-5.777Z" transform="translate(-206.583 -51.011)" fill="#1a1818"/>
    <path id="Tracé_292" data-name="Tracé 292" d="M349.731,74.233h-.082a4.355,4.355,0,0,0-3.361-1.462,4.566,4.566,0,0,0-4.6,4.86,5.6,5.6,0,0,0,5.728,5.694,6.769,6.769,0,0,0,4.021-1.461h.083l-1.433,2.814a9.619,9.619,0,0,1-3.636.59c-4.24,0-7.555-2.986-7.555-6.861,0-5.128,3.7-7.578,7.859-7.578a12.649,12.649,0,0,1,2.975.353Z" transform="translate(-244.076 -51.011)" fill="#1a1818"/>
    <path id="Tracé_293" data-name="Tracé 293" d="M204.52,54.361V51.379a12.688,12.688,0,0,0-4.6,3.794v1.162a12.519,12.519,0,0,1,4.6-1.974" transform="translate(-143.984 -37.004)" fill="#1a1818" fill-rule="evenodd"/>
    <path id="Tracé_294" data-name="Tracé 294" d="M58.223,66.825c-4.159,0-7.052-4.692-7.052-8.678,0-.041,0-.409,0-.449.051-3.862,2.551-7.484,6.914-7.484,4.59,0,6.958,4.342,7,8.457V59.1c0,4.384-2.727,7.724-6.859,7.724m14.256,4.561c-3.071.5-6.023-.465-9.16-4.054,3.03-1.521,4.9-5.308,4.9-8.828,0-.036,0-.4,0-.437a9.777,9.777,0,0,0-9.972-10A10.114,10.114,0,0,0,48.032,58.276c0,.027,0,.381,0,.407,0,5.9,4.38,10.289,9.752,10.289a9.6,9.6,0,0,0,2.258-.3c3.518,3.3,6.654,4.7,9.363,4.372a5.075,5.075,0,0,0,3.459-1.725Z" transform="translate(-34.592 -34.619)" fill="#1a1818"/>
    <rect id="Rectangle_111" data-name="Rectangle 111" width="13.434" height="8.234" transform="translate(112.37 13.459)" fill="#0059a9"/>
    <path id="Tracé_295" data-name="Tracé 295" d="M417.054,49.643a9.2,9.2,0,0,1-.686.9,1.618,1.618,0,0,0-.151,1.67,7.4,7.4,0,0,1,.473,1.274,4.079,4.079,0,0,1,.06,1.234h-.371a2.341,2.341,0,0,0-.969-2.143,1.134,1.134,0,0,0-1.63,1.368c.162.51.449.681.53.681a.854.854,0,0,1,.272-.848.765.765,0,0,1,1.073.216,1.722,1.722,0,0,1,.239.726h-.7v.518H416.6a.7.7,0,0,1-.808.661s.1.575.808.275a.566.566,0,1,0,.9,0c.714.3.808-.275.808-.275a.7.7,0,0,1-.808-.661h1.408v-.518h-.7a1.739,1.739,0,0,1,.24-.726.764.764,0,0,1,1.072-.216.857.857,0,0,1,.274.848c.081,0,.367-.171.53-.681a1.133,1.133,0,0,0-1.629-1.368,2.333,2.333,0,0,0-.968,2.143h-.374a4.024,4.024,0,0,1,.061-1.234,7.259,7.259,0,0,1,.473-1.274,1.617,1.617,0,0,0-.15-1.67,9.84,9.84,0,0,1-.688-.9" transform="translate(-297.966 -35.753)" fill="#fff" fill-rule="evenodd"/>
    <rect id="Rectangle_112" data-name="Rectangle 112" width="13.438" height="8.234" transform="translate(129.72 13.459)" fill="#0059a9"/>
    <path id="Tracé_296" data-name="Tracé 296" d="M479.063,49.643a9.411,9.411,0,0,1-.691.9,1.616,1.616,0,0,0-.148,1.67,7.366,7.366,0,0,1,.474,1.274,4.156,4.156,0,0,1,.061,1.234h-.374a2.335,2.335,0,0,0-.969-2.143,1.132,1.132,0,0,0-1.628,1.368c.16.51.446.681.528.681a.855.855,0,0,1,.274-.848.762.762,0,0,1,1.07.216,1.714,1.714,0,0,1,.241.726h-.7v.518h1.405a.7.7,0,0,1-.807.661s.094.575.807.275a.566.566,0,1,0,.9,0c.715.3.811-.275.811-.275a.7.7,0,0,1-.811-.661h1.41v-.518h-.7a1.775,1.775,0,0,1,.241-.726.767.767,0,0,1,1.075-.216.867.867,0,0,1,.276.848c.078,0,.363-.171.522-.681a1.133,1.133,0,0,0-1.628-1.368,2.34,2.34,0,0,0-.967,2.143h-.371a4,4,0,0,1,.06-1.234,7.07,7.07,0,0,1,.472-1.274,1.623,1.623,0,0,0-.151-1.67,8.683,8.683,0,0,1-.684-.9" transform="translate(-342.624 -35.753)" fill="#fff" fill-rule="evenodd"/>
    <rect id="Rectangle_113" data-name="Rectangle 113" width="13.434" height="8.233" transform="translate(112.37 25.615)" fill="#0059a9"/>
    <path id="Tracé_297" data-name="Tracé 297" d="M417.054,93.085a8.91,8.91,0,0,1-.686.9,1.617,1.617,0,0,0-.151,1.669,7.355,7.355,0,0,1,.473,1.277,4.063,4.063,0,0,1,.06,1.232h-.371a2.345,2.345,0,0,0-.969-2.144,1.134,1.134,0,0,0-1.63,1.368c.162.509.449.683.53.683a.856.856,0,0,1,.272-.849.77.77,0,0,1,1.073.213,1.741,1.741,0,0,1,.239.729h-.7v.517H416.6a.7.7,0,0,1-.808.661s.1.574.808.272a.567.567,0,1,0,.9,0c.714.3.808-.272.808-.272a.7.7,0,0,1-.808-.661h1.408v-.517h-.7a1.759,1.759,0,0,1,.24-.729.769.769,0,0,1,1.072-.213.858.858,0,0,1,.274.849c.081,0,.367-.173.53-.683a1.133,1.133,0,0,0-1.629-1.368,2.338,2.338,0,0,0-.968,2.144h-.374a4.008,4.008,0,0,1,.061-1.232,7.214,7.214,0,0,1,.473-1.277,1.616,1.616,0,0,0-.15-1.669,9.514,9.514,0,0,1-.688-.9" transform="translate(-297.966 -67.041)" fill="#fff" fill-rule="evenodd"/>
    <rect id="Rectangle_114" data-name="Rectangle 114" width="13.438" height="8.233" transform="translate(129.72 25.615)" fill="#0059a9"/>
    <path id="Tracé_298" data-name="Tracé 298" d="M479.063,93.085a9.113,9.113,0,0,1-.691.9,1.615,1.615,0,0,0-.148,1.669,7.319,7.319,0,0,1,.474,1.277,4.14,4.14,0,0,1,.061,1.232h-.374a2.34,2.34,0,0,0-.969-2.144,1.133,1.133,0,0,0-1.628,1.368c.16.509.446.683.528.683a.857.857,0,0,1,.274-.849.767.767,0,0,1,1.07.213,1.734,1.734,0,0,1,.241.729h-.7v.517h1.405a.7.7,0,0,1-.807.661s.094.574.807.272a.567.567,0,1,0,.9,0c.715.3.811-.272.811-.272a.7.7,0,0,1-.811-.661h1.41v-.517h-.7a1.8,1.8,0,0,1,.241-.729.773.773,0,0,1,1.075-.213.869.869,0,0,1,.276.849c.078,0,.363-.173.522-.683a1.133,1.133,0,0,0-1.628-1.368,2.344,2.344,0,0,0-.967,2.144h-.371a3.989,3.989,0,0,1,.06-1.232,7.028,7.028,0,0,1,.472-1.277,1.622,1.622,0,0,0-.151-1.669,8.429,8.429,0,0,1-.684-.9" transform="translate(-342.624 -67.041)" fill="#fff" fill-rule="evenodd"/>
  </g>
</svg>
