<svg xmlns="http://www.w3.org/2000/svg" xmlns:xlink="http://www.w3.org/1999/xlink" width="119.872" height="116.995" viewBox="0 0 119.872 116.995">
  <defs>
    <clipPath id="clip-path">
      <rect id="Rectangle_41" data-name="Rectangle 41" width="96.23" height="91.749" fill="#54cdff"/>
    </clipPath>
  </defs>
  <g id="Groupe_139" data-name="Groupe 139" transform="matrix(0.951, -0.309, 0.309, 0.951, 0, 29.737)">
    <g id="Groupe_28" data-name="Groupe 28" clip-path="url(#clip-path)">
      <path id="Tracé_103" data-name="Tracé 103" d="M96.23,45.874c0,4.5-13.168,6.866-14.486,10.928-1.367,4.21,7.847,13.854,5.3,17.359-2.576,3.539-14.612-2.259-18.152.316-3.5,2.55-1.693,15.8-5.9,17.168-4.062,1.319-10.369-10.423-14.871-10.423S37.306,92.964,33.244,91.645c-4.21-1.367-2.4-14.618-5.9-17.168C23.8,71.9,11.765,77.7,9.19,74.161c-2.551-3.5,6.664-13.149,5.3-17.359C13.168,52.74,0,50.376,0,45.874s13.168-6.866,14.486-10.928c1.367-4.21-7.848-13.854-5.3-17.359,2.575-3.539,14.612,2.259,18.151-.316,3.5-2.55,1.694-15.8,5.9-17.168,4.062-1.319,10.369,10.423,14.871,10.423S58.923-1.216,62.986.1c4.21,1.367,2.4,14.617,5.9,17.168,3.539,2.576,15.575-3.223,18.151.317,2.55,3.5-6.664,13.149-5.3,17.359,1.319,4.062,14.486,6.426,14.486,10.928" transform="translate(0 0)" fill="#54cdff"/>
    </g>
  </g>
</svg>
