<svg xmlns="http://www.w3.org/2000/svg" xmlns:xlink="http://www.w3.org/1999/xlink" width="160.424" height="156.574" viewBox="0 0 160.424 156.574">
  <defs>
    <clipPath id="clip-path">
      <rect id="Rectangle_41" data-name="Rectangle 41" width="128.784" height="122.787" fill="#bae4f4"/>
    </clipPath>
  </defs>
  <g id="Groupe_157" data-name="Groupe 157" transform="matrix(0.951, -0.309, 0.309, 0.951, 0, 39.796)">
    <g id="Groupe_28" data-name="Groupe 28" clip-path="url(#clip-path)">
      <path id="Tracé_103" data-name="Tracé 103" d="M128.784,61.394c0,6.025-17.622,9.188-19.387,14.625-1.83,5.634,10.5,18.541,7.089,23.231-3.448,4.737-19.556-3.024-24.292.424-4.69,3.413-2.266,21.146-7.9,22.976-5.437,1.765-13.877-13.949-19.9-13.949s-14.465,15.714-19.9,13.949c-5.634-1.829-3.211-19.563-7.9-22.976-4.737-3.447-20.845,4.313-24.292-.424-3.414-4.69,8.918-17.6,7.089-23.231C17.622,70.582,0,67.419,0,61.394s17.622-9.188,19.387-14.625c1.83-5.634-10.5-18.541-7.089-23.231,3.447-4.737,19.555,3.024,24.292-.424C41.279,19.7,38.857,1.968,44.49.139c5.437-1.765,13.877,13.949,19.9,13.949S78.857-1.626,84.293.139c5.634,1.83,3.211,19.562,7.9,22.976,4.737,3.447,20.844-4.313,24.292.424,3.413,4.69-8.919,17.6-7.089,23.231,1.765,5.436,19.387,8.6,19.387,14.625" transform="translate(0 0)" fill="#bae4f4"/>
    </g>
  </g>
</svg>
