<svg xmlns="http://www.w3.org/2000/svg" xmlns:xlink="http://www.w3.org/1999/xlink" width="158.806" height="158.806" viewBox="0 0 158.806 158.806">
  <defs>
    <clipPath id="clip-path">
      <rect id="Rectangle_100" data-name="Rectangle 100" width="120.282" height="120.282" fill="#56d573"/>
    </clipPath>
  </defs>
  <g id="Groupe_156" data-name="Groupe 156" transform="matrix(0.914, -0.407, 0.407, 0.914, 0, 48.923)">
    <g id="Groupe_74" data-name="Groupe 74" clip-path="url(#clip-path)">
      <path id="Tracé_131" data-name="Tracé 131" d="M25.406,83.785c7.819,0,17.709-7.342,24.935-13.844C43.839,77.167,36.5,87.057,36.5,94.876c0,14.031,10.586,25.406,23.644,25.406s23.643-11.375,23.643-25.406c0-7.819-7.342-17.709-13.844-24.935,7.225,6.5,17.115,13.844,24.935,13.844,14.031,0,25.406-10.586,25.406-23.643S108.907,36.5,94.876,36.5c-7.819,0-17.709,7.342-24.935,13.844,6.5-7.226,13.844-17.115,13.844-24.935C83.785,11.375,73.2,0,60.141,0S36.5,11.375,36.5,25.406c0,7.819,7.342,17.709,13.844,24.935C43.115,43.839,33.225,36.5,25.406,36.5,11.374,36.5,0,47.083,0,60.141S11.374,83.785,25.406,83.785" transform="translate(0 0)" fill="#56d573"/>
    </g>
  </g>
</svg>
