<svg xmlns="http://www.w3.org/2000/svg" xmlns:xlink="http://www.w3.org/1999/xlink" width="84.608" height="84.258" viewBox="0 0 84.608 84.258">
  <defs>
    <clipPath id="clip-path">
      <rect id="Rectangle_99" data-name="Rectangle 99" width="61.215" height="58.85" fill="#ffcb5c"/>
    </clipPath>
  </defs>
  <g id="Groupe_128" data-name="Groupe 128" transform="matrix(-0.777, -0.629, 0.629, -0.777, 47.573, 84.258)">
    <g id="Groupe_70" data-name="Groupe 70" clip-path="url(#clip-path)">
      <path id="Tracé_126" data-name="Tracé 126" d="M61.215,29.425c0,3.191-2.5,5.948-3.438,8.828-.969,2.985-.6,6.679-2.406,9.164-1.826,2.509-5.467,3.29-7.976,5.116-2.484,1.808-4.342,5.04-7.327,6.009-2.88.935-6.269-.557-9.46-.557s-6.581,1.492-9.461.557c-2.984-.969-4.843-4.2-7.327-6.009-2.509-1.826-6.15-2.607-7.976-5.116-1.808-2.484-1.437-6.179-2.406-9.164C2.5,35.374,0,32.616,0,29.425S2.5,23.476,3.437,20.6c.969-2.984.6-6.679,2.406-9.164,1.826-2.509,5.467-3.29,7.976-5.116C16.3,4.509,18.162,1.277,21.147.308c2.88-.935,6.269.557,9.461.557s6.581-1.492,9.46-.557c2.984.969,4.843,4.2,7.327,6.009,2.509,1.826,6.15,2.607,7.976,5.116,1.808,2.484,1.437,6.179,2.406,9.164.935,2.88,3.438,5.637,3.438,8.828" transform="translate(0 0)" fill="#ffcb5c"/>
    </g>
  </g>
</svg>
