<svg xmlns="http://www.w3.org/2000/svg" xmlns:xlink="http://www.w3.org/1999/xlink" width="43.968" height="43.968" viewBox="0 0 43.968 43.968">
  <defs>
    <clipPath id="clip-path">
      <rect id="Rectangle_106" data-name="Rectangle 106" width="43.968" height="43.968" fill="#005175"/>
    </clipPath>
  </defs>
  <g id="Groupe_109" data-name="Groupe 109" transform="translate(0 -0.002)">
    <g id="Groupe_108" data-name="Groupe 108" transform="translate(0 0.002)" clip-path="url(#clip-path)">
      <path id="Tracé_168" data-name="Tracé 168" d="M41.3,19.313H28.435l9.093-9.093a2.672,2.672,0,1,0-3.779-3.779l-9.093,9.093V2.674a2.672,2.672,0,0,0-5.345,0v12.86L10.218,6.441a2.672,2.672,0,0,0-3.779,0h0a2.672,2.672,0,0,0,0,3.779l9.093,9.093H2.672a2.672,2.672,0,0,0,0,5.345h12.86L6.439,33.751a2.672,2.672,0,0,0,0,3.779h0a2.672,2.672,0,0,0,3.779,0l9.093-9.093V41.3a2.672,2.672,0,1,0,5.345,0V28.437l9.093,9.093a2.672,2.672,0,1,0,3.779-3.779l-9.093-9.093H41.3a2.672,2.672,0,0,0,0-5.345" transform="translate(0 -0.002)" fill="#005175"/>
    </g>
  </g>
</svg>
